<svg width="16" height="16" viewBox="0 0 16 16" fill="none" xmlns="http://www.w3.org/2000/svg">
<path d="M8.39575 7.22919C8.35409 7.18752 8.27075 7.18752 8.22909 7.22919L5.85409 9.60419L5.74992 10.6042C5.72909 10.75 5.83325 10.8542 5.97909 10.8334L6.97909 10.7292L9.35409 8.35419C9.39575 8.31252 9.39575 8.22919 9.35409 8.18752L8.39575 7.22919ZM10.1249 7.00002L9.58325 6.45835C9.41659 6.29169 9.16659 6.29169 8.99992 6.45835L8.58325 6.87502C8.54159 6.91669 8.54159 6.97919 8.58325 7.02085L9.56242 8.00002C9.60409 8.04169 9.66659 8.04169 9.70825 8.00002L10.1249 7.58335C10.2916 7.41669 10.2916 7.16669 10.1249 7.00002ZM12.6666 4.66669C12.6666 4.12502 12.2083 3.66669 11.6666 3.66669H10.6666V2.58335C10.6666 2.45835 10.5416 2.33335 10.4166 2.33335H9.58325C9.43742 2.33335 9.33325 2.45835 9.33325 2.58335V3.66669H6.66659V2.58335C6.66659 2.45835 6.54159 2.33335 6.41659 2.33335H5.58325C5.43742 2.33335 5.33325 2.45835 5.33325 2.58335V3.66669H4.33325C3.77075 3.66669 3.33325 4.12502 3.33325 4.66669V12C3.33325 12.5625 3.77075 13 4.33325 13H11.6666C12.2083 13 12.6666 12.5625 12.6666 12V4.66669ZM11.6666 11.875C11.6666 11.9584 11.6041 12 11.5416 12H4.45825C4.37492 12 4.33325 11.9584 4.33325 11.875V5.66669H11.6666V11.875Z" fill="#505050"/>
</svg>
