<svg width="14" height="14" viewBox="0 0 14 14" fill="none" xmlns="http://www.w3.org/2000/svg">
<path d="M0.583252 10.781L3.02725 12.818C3.38666 13.1173 3.83958 13.2811 4.30725 13.281H10.7503C11.2103 13.281 11.5833 12.908 11.5833 12.448C11.5833 11.528 10.8373 10.781 9.91625 10.781H5.43725M8.31525 1.03103C8.18264 1.03103 8.05547 1.08371 7.9617 1.17748C7.86793 1.27124 7.81525 1.39842 7.81525 1.53103V2.93803H6.40925C6.27664 2.93803 6.14947 2.99071 6.0557 3.08448C5.96193 3.17824 5.90925 3.30542 5.90925 3.43803V5.06303C5.90925 5.19564 5.96193 5.32282 6.0557 5.41658C6.14947 5.51035 6.27664 5.56303 6.40925 5.56303H7.81525V6.96903C7.81525 7.10164 7.86793 7.22881 7.9617 7.32258C8.05547 7.41635 8.18264 7.46903 8.31525 7.46903H9.94025C10.0729 7.46903 10.2 7.41635 10.2938 7.32258C10.3876 7.22881 10.4403 7.10164 10.4403 6.96903V5.56303H11.8463C11.9789 5.56303 12.106 5.51035 12.1998 5.41658C12.2936 5.32282 12.3463 5.19564 12.3463 5.06303V3.43803C12.3463 3.30542 12.2936 3.17824 12.1998 3.08448C12.106 2.99071 11.9789 2.93803 11.8463 2.93803H10.4403V1.53003C10.4403 1.39742 10.3876 1.27024 10.2938 1.17648C10.2 1.08271 10.0729 1.03003 9.94025 1.03003L8.31525 1.03103Z" stroke="#18AF5E" stroke-linecap="round" stroke-linejoin="round"/>
<path d="M3.58325 9.78107L4.33325 10.5311C4.43174 10.6296 4.54867 10.7077 4.67735 10.761C4.80604 10.8143 4.94396 10.8417 5.08325 10.8417C5.22254 10.8417 5.36046 10.8143 5.48915 10.761C5.61783 10.7077 5.73476 10.6296 5.83325 10.5311C5.93174 10.4326 6.00987 10.3156 6.06317 10.187C6.11648 10.0583 6.14391 9.92036 6.14391 9.78107C6.14391 9.64178 6.11648 9.50386 6.06317 9.37517C6.00987 9.24648 5.93174 9.12956 5.83325 9.03107L4.66925 7.86707C4.29427 7.49197 3.78564 7.28118 3.25525 7.28107H0.583252" stroke="#18AF5E" stroke-linecap="round" stroke-linejoin="round"/>
</svg>
