<svg width="12" height="8" viewBox="0 0 12 8" fill="none" xmlns="http://www.w3.org/2000/svg">
<path d="M11.2501 0.333313H0.750081C0.421956 0.333313 0.166748 0.60675 0.166748 0.916646V6.74998C0.166748 7.0781 0.421956 7.33331 0.750081 7.33331H11.2501C11.56 7.33331 11.8334 7.0781 11.8334 6.74998V0.916646C11.8334 0.60675 11.56 0.333313 11.2501 0.333313ZM10.9584 5.29165C10.3022 5.29165 9.79175 5.82029 9.79175 6.45831H2.20841C2.20841 5.82029 1.67977 5.29165 1.04175 5.29165V2.37498C1.67977 2.37498 2.20841 1.86456 2.20841 1.20831H9.79175C9.79175 1.86456 10.3022 2.37498 10.9584 2.37498V5.29165ZM6.00008 2.08331C5.17977 2.08331 4.54175 2.86717 4.54175 3.83331C4.54175 4.81769 5.17977 5.58331 6.00008 5.58331C6.80217 5.58331 7.45842 4.81769 7.45842 3.83331C7.45842 2.86717 6.80217 2.08331 6.00008 2.08331Z" fill="#333333"/>
</svg>
