<svg width="14" height="14" viewBox="0 0 14 14" fill="none" xmlns="http://www.w3.org/2000/svg">
<path d="M12.2501 3.33331H1.75008C1.42196 3.33331 1.16675 3.60675 1.16675 3.91665V9.74998C1.16675 10.0781 1.42196 10.3333 1.75008 10.3333H12.2501C12.56 10.3333 12.8334 10.0781 12.8334 9.74998V3.91665C12.8334 3.60675 12.56 3.33331 12.2501 3.33331ZM11.9584 8.29165C11.3022 8.29165 10.7917 8.82029 10.7917 9.45831H3.20841C3.20841 8.82029 2.67977 8.29165 2.04175 8.29165V5.37498C2.67977 5.37498 3.20841 4.86456 3.20841 4.20831H10.7917C10.7917 4.86456 11.3022 5.37498 11.9584 5.37498V8.29165ZM7.00008 5.08331C6.17977 5.08331 5.54175 5.86717 5.54175 6.83331C5.54175 7.81769 6.17977 8.58331 7.00008 8.58331C7.80217 8.58331 8.45842 7.81769 8.45842 6.83331C8.45842 5.86717 7.80217 5.08331 7.00008 5.08331Z" fill="#18AF5E"/>
</svg>
