<svg width="554" height="530" viewBox="0 0 554 530" fill="none" xmlns="http://www.w3.org/2000/svg">
<path d="M554 405.342H0V405.606H554V405.342Z" fill="#EBEBEB"/>
<path d="M498.49 422.403H461.791V422.667H498.49V422.403Z" fill="#EBEBEB"/>
<path d="M366.992 425.28H357.36V425.544H366.992V425.28Z" fill="#EBEBEB"/>
<path d="M460.682 412.561H439.417V412.825H460.682V412.561Z" fill="#EBEBEB"/>
<path d="M105.982 414.341H58.1246V414.605H105.982V414.341Z" fill="#EBEBEB"/>
<path d="M122.865 414.341H115.848V414.605H122.865V414.341Z" fill="#EBEBEB"/>
<path d="M249.463 418.817H145.67V419.081H249.463V418.817Z" fill="#EBEBEB"/>
<path d="M262.612 358.068H48.6578C45.171 358.068 42.3334 355.353 42.3334 352.017V64.2995C42.3334 60.9637 45.171 58.249 48.6578 58.249H262.612C266.097 58.249 268.935 60.9637 268.935 64.2995V352.017C268.935 355.353 266.097 358.068 262.612 358.068ZM48.6578 58.5151C45.3228 58.5151 42.6104 61.11 42.6104 64.3006V352.018C42.6104 355.209 45.3228 357.804 48.6578 357.804H262.612C265.946 357.804 268.658 355.209 268.658 352.018V64.2995C268.658 61.11 265.946 58.514 262.612 58.514L48.6578 58.5151Z" fill="#EBEBEB"/>
<path d="M502.268 358.068H288.315C284.828 358.068 281.992 355.353 281.992 352.017V64.2995C281.992 60.9637 284.829 58.249 288.315 58.249H502.268C505.756 58.249 508.592 60.9637 508.592 64.2995V352.017C508.593 355.353 505.756 358.068 502.268 358.068ZM288.315 58.5151C284.981 58.5151 282.269 61.11 282.269 64.3006V352.018C282.269 355.209 284.981 357.804 288.315 357.804H502.268C505.603 357.804 508.315 355.209 508.315 352.018V64.2995C508.315 61.11 505.603 58.514 502.268 58.514L288.315 58.5151Z" fill="#EBEBEB"/>
<path d="M211.911 119.332C225.939 116.164 234.625 102.716 231.313 89.2968C228 75.8773 213.944 67.5674 199.917 70.7362C185.89 73.9049 177.204 87.3523 180.516 100.772C183.828 114.191 197.884 122.501 211.911 119.332Z" fill="#E0E0E0"/>
<path d="M209.479 116C221.576 114.122 229.791 103.218 227.828 91.6448C225.864 80.0718 214.466 72.2126 202.369 74.0909C190.272 75.9691 182.057 86.8735 184.02 98.4465C185.983 110.019 197.382 117.879 209.479 116Z" fill="#F0F0F0"/>
<path d="M206.966 80.4858V95.3258L217.246 89.7608" fill="#F0F0F0"/>
<path d="M206.966 80.4858V95.3258L217.246 89.7608" stroke="#E0E0E0" stroke-width="2" stroke-miterlimit="10" stroke-linecap="round" stroke-linejoin="round"/>
<path d="M81.7538 365.997C81.7682 365.577 83.2429 323.94 90.322 317.354C97.2071 310.951 105.11 317.116 105.442 317.381L106.152 316.567C106.062 316.495 97.1439 309.529 89.5497 316.593C82.1527 323.475 80.7056 364.23 80.6469 365.962L81.7538 365.997Z" fill="#E0E0E0"/>
<path d="M81.1466 374.179C81.1976 373.68 85.9853 324.193 67.0939 303.451L66.2584 304.147C84.8363 324.544 80.094 373.582 80.0442 374.075L81.1466 374.179Z" fill="#E0E0E0"/>
<path d="M81.8446 368.944L82.9504 368.875C82.9116 368.314 79.253 312.614 93.1097 300.421L92.3596 299.641C78.1151 312.175 81.6851 366.632 81.8446 368.944Z" fill="#E0E0E0"/>
<path d="M80.0408 368.914L81.1488 368.905C81.1355 367.371 80.6912 331.282 69.9769 325.408C67.5947 324.101 65.2623 323.883 63.0441 324.761C56.5645 327.325 53.3535 338.357 53.2206 338.825L54.2898 339.105C54.3208 338.995 57.4919 328.106 63.4696 325.741C65.3543 324.997 67.3576 325.193 69.4273 326.328C79.5932 331.901 80.0375 368.544 80.0408 368.914Z" fill="#E0E0E0"/>
<path d="M84.2136 368.939L85.3194 368.878C85.3027 368.594 83.7028 340.36 91.6671 330.412C93.5972 328.003 95.6913 326.854 97.9051 327.001C103.124 327.35 107.5 334.656 107.544 334.73L108.509 334.208C108.319 333.887 103.797 326.333 97.9838 325.944C95.3833 325.767 92.959 327.056 90.7873 329.768C82.5737 340.028 84.1427 367.764 84.2136 368.939Z" fill="#E0E0E0"/>
<path d="M82.4674 372.78C82.6845 370.04 87.6739 305.573 78.8941 294.213L78.0032 294.843C86.5404 305.889 81.4148 372.032 81.3616 372.699L82.4674 372.78Z" fill="#E0E0E0"/>
<path d="M60.6552 331.294C60.6552 331.294 65.9227 333.152 64.356 337.538C62.7904 341.923 46.1349 349.141 46.1349 349.141C46.1349 349.141 39.16 343.024 45.5654 333.077C51.9718 323.13 60.5134 328.156 60.6552 331.294Z" fill="#EBEBEB"/>
<path d="M83.552 322.946C83.552 322.946 77.9433 322.721 77.6253 327.346C77.3062 331.971 89.7757 344.764 89.7757 344.764C89.7757 344.764 98.674 341.687 96.7627 330.147C94.8514 318.607 84.9459 320.102 83.552 322.946Z" fill="#EBEBEB"/>
<path d="M88.3009 300.811C88.3009 300.811 84.5614 300.427 84.8628 298.248C85.1642 296.068 99.3987 290.461 107.797 299.529C107.797 299.529 102.419 308.366 94.6453 308.482C86.8716 308.598 88.3009 300.811 88.3009 300.811Z" fill="#EBEBEB"/>
<path d="M81.3328 295.519C81.3328 295.519 84.7188 297.086 85.6673 295.084C86.6168 293.082 77.6354 281.12 65.495 284.566C65.495 284.566 65.1737 294.788 71.7065 298.819C78.2403 302.851 81.3328 295.519 81.3328 295.519Z" fill="#EBEBEB"/>
<path d="M99.0364 329.532C99.0364 329.532 96.4558 327.538 99.2402 326.566C102.026 325.593 115.691 325.869 115.834 338.819C115.834 338.819 99.9172 341.35 97.9472 336.417C95.9783 331.483 99.0364 329.532 99.0364 329.532Z" fill="#EBEBEB"/>
<path d="M66.5809 300.486C66.5809 300.486 69.1614 298.492 66.377 297.519C63.5915 296.546 49.9265 296.823 49.7836 309.773C49.7836 309.773 65.7 312.303 67.67 307.37C69.64 302.438 66.5809 300.486 66.5809 300.486Z" fill="#EBEBEB"/>
<path d="M74.995 310.918C74.995 310.918 75.2221 308.495 73.1768 309.444C71.1314 310.394 64.0081 317.746 71.3929 324.724C71.3929 324.724 81.3339 317.681 79.5411 314.013C77.7506 310.345 74.995 310.918 74.995 310.918Z" fill="#EBEBEB"/>
<path d="M101.344 314.372C101.344 314.372 99.802 312.437 102.061 312.198C104.32 311.958 114.445 314.543 112.087 324.214C112.087 324.214 99.7521 323.326 99.2236 319.31C98.6951 315.293 101.344 314.372 101.344 314.372Z" fill="#EBEBEB"/>
<path d="M59.6714 404.807H101.995L106.561 360.477H55.1053L59.6714 404.807Z" fill="#F0F0F0"/>
<path d="M52.8453 365.368H108.82V355.586H52.8453V365.368Z" fill="#E6E6E6"/>
<path d="M151.049 152.935H50.6146V157.871H151.049V152.935Z" fill="#E0E0E0"/>
<path d="M59.6625 134.737H55.2382V152.934H59.6625V134.737Z" fill="#EBEBEB"/>
<path d="M81.0569 134.737H76.6326V152.934H81.0569V134.737Z" fill="#EBEBEB"/>
<path d="M105.344 134.289L100.984 135.008L104.214 152.941L108.574 152.222L105.344 134.289Z" fill="#EBEBEB"/>
<path d="M65.1449 137.135H60.7206V152.935H65.1449V137.135Z" fill="#EBEBEB"/>
<path d="M75.3152 137.135H70.891V152.935H75.3152V137.135Z" fill="#EBEBEB"/>
<path d="M100.985 137.135H96.5611V152.935H100.985V137.135Z" fill="#EBEBEB"/>
<path d="M86.8684 136.595L82.5494 137.513L86.1315 152.936L90.4504 152.018L86.8684 136.595Z" fill="#EBEBEB"/>
<path d="M68.9708 133.833H66.7581V152.935H68.9708V133.833Z" fill="#EBEBEB"/>
<path d="M95.2891 133.833H93.0764V152.935H95.2891V133.833Z" fill="#EBEBEB"/>
<path d="M141.413 138.531H119.854V152.771H141.413V138.531Z" fill="#EBEBEB"/>
<path d="M50.6153 194.726H151.05V189.789H50.6153V194.726Z" fill="#E0E0E0"/>
<path d="M142.002 189.789H146.427V171.592H142.002V189.789Z" fill="#EBEBEB"/>
<path d="M120.608 189.789H125.032V171.592H120.608V189.789Z" fill="#EBEBEB"/>
<path d="M93.0802 189.068L97.4403 189.787L100.67 171.854L96.31 171.135L93.0802 189.068Z" fill="#EBEBEB"/>
<path d="M136.52 189.789H140.944V173.99H136.52V189.789Z" fill="#EBEBEB"/>
<path d="M126.35 189.789H130.774V173.99H126.35V189.789Z" fill="#EBEBEB"/>
<path d="M100.68 189.789H105.104V173.99H100.68V189.789Z" fill="#EBEBEB"/>
<path d="M111.217 188.869L115.536 189.787L119.118 174.363L114.799 173.445L111.217 188.869Z" fill="#EBEBEB"/>
<path d="M132.694 189.789H134.906V170.688H132.694V189.789Z" fill="#EBEBEB"/>
<path d="M106.374 189.789H108.587V170.688H106.374V189.789Z" fill="#EBEBEB"/>
<path d="M60.252 189.626H81.8115V175.386H60.252V189.626Z" fill="#EBEBEB"/>
<path d="M475.798 118.436H293.592V273.112H475.798V118.436Z" fill="#E6E6E6"/>
<path d="M471.003 122.676H298.155V268.956H471.003V122.676Z" fill="#F0F0F0"/>
<path d="M338.72 122.676L298.155 268.638V200.051L319.573 122.676H338.72Z" fill="white"/>
<path d="M353.087 122.676L312.166 268.956H305.635L346.556 122.676H353.087Z" fill="white"/>
<path d="M471.003 214.98V238.354L462.723 268.956H456.191L471.003 214.98Z" fill="white"/>
<path d="M358.441 120.046H355.529V272.223H358.441V120.046Z" fill="#E6E6E6"/>
<path d="M414.868 120.046H411.957V272.223H414.868V120.046Z" fill="#E6E6E6"/>
<path d="M490.581 378.529C491.7 376.734 490.123 374.031 487.938 374C488.895 371.423 487.951 368.308 485.7 366.621C485.416 366.408 485.089 366.209 484.729 366.209C484.342 366.208 484 366.433 483.685 366.649C481.627 368.064 479.567 369.479 477.508 370.894C477.037 371.219 476.549 371.561 476.283 372.054C475.021 374.394 479.571 377.393 477.7 379.323C477.162 379.878 476.297 379.992 475.627 380.393C474.156 381.272 473.979 383.203 473.294 384.726C472.61 386.249 470.221 387.432 469.307 386.022C469.981 384.561 467.939 383.301 466.281 383.116C464.644 382.933 462.89 382.844 461.974 381.355C459.621 383.323 454.352 377.833 454.473 375.62C452.538 375.761 451.221 377.494 450.798 379.227C450.359 381.026 450.63 382.9 450.599 384.743C450.54 388.327 449.331 391.838 449.397 395.422C449.448 398.21 450.575 401.307 453.244 402.429C454.529 402.97 455.981 402.97 457.383 402.961C467.514 402.899 477.644 402.837 487.775 402.775C488.504 402.771 489.265 402.759 489.912 402.436C491.284 401.751 491.573 400.027 491.7 398.553C492.244 392.236 492.789 385.92 493.333 379.603C492.415 379.245 491.499 378.888 490.581 378.529Z" fill="#E0E0E0"/>
<path d="M492.355 347.797H488.943H479.547H476.123H466.738H463.315H453.93H450.506H445.199L445.587 352.355L445.864 355.609L446.584 364.078L446.994 368.944L447.537 375.421L447.769 378.198L447.847 379.024L448.124 382.289L448.501 386.762L448.733 389.54L448.977 392.359L449.254 395.624L449.465 398.094L449.697 400.871L449.797 402.079H456.002H461.243H468.81H474.051H481.619H486.86H493.075L493.175 400.871L493.408 398.104L493.618 395.613L493.895 392.349L494.139 389.54L494.372 386.762L494.749 382.279L495.026 379.024L495.092 378.198L495.325 375.421L495.879 368.944L496.289 364.089L496.998 355.609L497.275 352.355L497.663 347.797H492.355ZM495.192 350.786L494.283 349.917H495.269L495.192 350.786ZM494.959 353.553L494.87 354.655L490.649 358.694L485.807 354.061L490.139 349.917H491.159L494.959 353.553ZM493.74 367.99L490.649 370.947L485.807 366.315L490.649 361.693L493.995 364.895L493.74 367.99ZM448.866 364.895L452.212 361.693L457.054 366.315L452.212 370.947L449.132 367.99L448.866 364.895ZM489.087 360.188L484.245 364.821L479.403 360.188L484.245 355.556L489.087 360.188ZM481.475 349.917H487.015L484.245 352.567L481.475 349.917ZM482.671 366.316L477.84 370.948L472.999 366.316L477.84 361.695L482.671 366.316ZM466.594 372.442L471.436 367.82L476.267 372.442L471.436 377.074L466.594 372.442ZM469.863 378.57L465.021 383.202L460.19 378.58L465.032 373.948L469.863 378.57ZM477.84 373.947L482.671 378.579L477.84 383.201L472.999 378.569L477.84 373.947ZM471.436 364.821L466.594 360.188L471.436 355.556L476.267 360.188L471.436 364.821ZM469.863 366.316L465.032 370.948L460.19 366.316L465.032 361.695L469.863 366.316ZM458.617 364.821L453.786 360.188L458.617 355.556L463.459 360.188L458.617 364.821ZM458.617 367.82L463.459 372.442L458.617 377.074L453.786 372.442L458.617 367.82ZM463.459 384.706L458.617 389.328L453.786 384.706L458.617 380.074L463.459 384.706ZM465.021 386.202L469.863 390.834L465.032 395.466L460.19 390.834L465.021 386.202ZM466.594 384.706L471.436 380.074L476.267 384.706L471.436 389.328L466.594 384.706ZM477.84 386.202L482.671 390.834L477.84 395.466L472.999 390.834L477.84 386.202ZM484.245 392.327L489.087 396.96L485.951 399.959H482.538L479.403 396.96L484.245 392.327ZM479.403 384.706L484.245 380.074L489.087 384.706L484.245 389.328L479.403 384.706ZM479.403 372.442L484.245 367.82L489.087 372.442L484.245 377.074L479.403 372.442ZM482.671 354.063L477.84 358.695L472.999 354.063L477.331 349.918H478.35L482.671 354.063ZM471.436 352.567L468.666 349.917H474.195L471.436 352.567ZM469.863 354.063L465.032 358.695L460.19 354.063L464.522 349.918H465.542L469.863 354.063ZM461.387 349.917L458.617 352.567L455.858 349.917H461.387ZM452.722 349.917L457.054 354.061L452.212 358.694L448.002 354.655L447.913 353.553L451.703 349.917H452.722ZM448.578 349.917L447.681 350.776L447.603 349.917H448.578ZM448.279 357.92L450.65 360.188L448.634 362.117L448.279 357.92ZM449.598 373.449L449.409 371.255L450.65 372.442L449.598 373.449ZM449.83 376.237L452.212 373.947L457.054 378.579L452.212 383.201L450.262 381.335L449.83 376.237ZM450.55 384.803L450.539 384.601L450.65 384.707L450.55 384.803ZM451.393 394.671L450.783 387.569L452.212 386.202L457.054 390.834L452.212 395.456L451.393 394.671ZM451.836 399.959L451.747 398.899L452.212 398.454L453.786 399.959H451.836ZM453.786 396.96L458.617 392.327L463.459 396.96L460.323 399.959H456.91L453.786 396.96ZM463.459 399.959L465.032 398.454L466.605 399.959H463.459ZM469.73 399.959L466.594 396.96L471.436 392.327L476.267 396.96L473.143 399.959H469.73ZM476.267 399.959L477.84 398.454L479.414 399.959H476.267ZM491.026 399.959H489.076L490.649 398.454L491.114 398.899L491.026 399.959ZM491.48 394.671L490.649 395.456L485.807 390.834L490.649 386.202L492.078 387.569L491.48 394.671ZM492.333 384.589L492.311 384.801L492.211 384.706L492.333 384.589ZM492.61 381.335L490.649 383.201L485.807 378.579L490.649 373.947L493.042 376.237L492.61 381.335ZM493.275 373.459L492.211 372.442L493.463 371.255L493.275 373.459ZM494.593 357.91L494.239 362.129L492.211 360.189L494.593 357.91Z" fill="#E6E6E6"/>
<path d="M444.001 351.808H498.865C499.871 351.808 500.685 351.028 500.685 350.066V347.648C500.685 346.686 499.87 345.907 498.865 345.907H444.001C442.995 345.907 442.181 346.687 442.181 347.648V350.066C442.179 351.028 442.995 351.808 444.001 351.808Z" fill="#F0F0F0"/>
<path d="M494.645 404.808H448.219C447.213 404.808 446.399 404.028 446.399 403.066V400.648C446.399 399.686 447.214 398.907 448.219 398.907H494.645C495.652 398.907 496.466 399.687 496.466 400.648V403.066C496.466 404.028 495.652 404.808 494.645 404.808Z" fill="#F0F0F0"/>
<path d="M277 453.215C395.647 453.215 491.829 447.841 491.829 441.212C491.829 434.584 395.647 429.21 277 429.21C158.353 429.21 62.171 434.584 62.171 441.212C62.171 447.841 158.353 453.215 277 453.215Z" fill="#F5F5F5"/>
<path d="M216.817 263.295H195.974C173.751 263.295 155.735 246.06 155.735 224.799V177.189C155.735 155.929 173.751 138.693 195.974 138.693H216.817C239.04 138.693 257.056 155.929 257.056 177.189V224.798C257.056 246.06 239.041 263.295 216.817 263.295Z" fill="#1E90FF"/>
<path opacity="0.8" d="M216.817 263.295H195.974C173.751 263.295 155.735 246.06 155.735 224.799V177.189C155.735 155.929 173.751 138.693 195.974 138.693H216.817C239.04 138.693 257.056 155.929 257.056 177.189V224.798C257.056 246.06 239.041 263.295 216.817 263.295Z" fill="white"/>
<path d="M220.814 256.17H196.916C178.736 256.17 163.998 242.071 163.998 224.679V177.31C163.998 159.918 178.736 145.819 196.916 145.819H220.814C238.995 145.819 253.732 159.918 253.732 177.31V224.679C253.732 242.071 238.995 256.17 220.814 256.17Z" fill="#1E90FF"/>
<path opacity="0.3" d="M253.732 177.306V224.677C253.732 242.072 238.996 256.17 220.813 256.17H196.914C183.274 256.17 171.574 248.231 166.588 236.92C164.915 233.157 163.995 229.023 163.995 224.677V177.306C163.995 159.922 178.731 145.813 196.914 145.813H220.813C238.996 145.813 253.732 159.922 253.732 177.306Z" fill="white"/>
<path d="M253.732 183.624V195.421H216.171C210.287 195.421 205.523 190.863 205.523 185.245C205.523 179.617 210.287 175.059 216.171 175.059C216.226 175.059 216.293 175.069 216.359 175.069C216.448 169.038 221.578 164.183 227.905 164.183C232.082 164.183 235.738 166.314 237.766 169.483C238.552 169.345 239.372 169.271 240.203 169.271C247.494 169.271 253.411 174.932 253.411 181.906C253.411 182.532 253.355 183.136 253.267 183.74C253.422 183.698 253.577 183.655 253.732 183.624Z" fill="#F0F0F0"/>
<path d="M204.249 230.963C204.249 234.196 201.567 236.814 198.199 236.92H166.588C164.915 233.157 163.995 229.023 163.995 224.677V207.855C165.912 206.488 168.294 205.682 170.865 205.682C175.042 205.682 178.687 207.813 180.715 210.993C181.513 210.855 182.321 210.77 183.152 210.77C190.443 210.77 196.36 216.431 196.36 223.416C196.36 224.031 196.315 224.646 196.227 225.239C196.792 225.08 197.39 224.995 198.011 224.995C201.457 224.995 204.249 227.667 204.249 230.963Z" fill="#F0F0F0"/>
<path d="M323.166 380.074H471.436C477.403 380.074 482.24 375.446 482.24 369.738V98.0958C482.24 92.3877 477.403 87.7598 471.436 87.7598H323.166C317.199 87.7598 312.362 92.3877 312.362 98.0958V369.738C312.361 375.447 317.198 380.074 323.166 380.074Z" fill="#1E90FF"/>
<path opacity="0.2" d="M323.166 380.074H471.436C477.403 380.074 482.24 375.446 482.24 369.738V98.0958C482.24 92.3877 477.403 87.7598 471.436 87.7598H323.166C317.199 87.7598 312.362 92.3877 312.362 98.0958V369.738C312.361 375.447 317.198 380.074 323.166 380.074Z" fill="black"/>
<path d="M315.961 380.074H464.232C470.199 380.074 475.036 375.446 475.036 369.738V98.0958C475.036 92.3877 470.199 87.7598 464.232 87.7598H315.961C309.994 87.7598 305.156 92.3877 305.156 98.0958V369.738C305.156 375.447 309.993 380.074 315.961 380.074Z" fill="#1E90FF"/>
<path d="M311.212 97.5564V369.762C311.212 372.001 312.714 373.42 315.054 373.42H465.475C467.626 373.42 468.681 372.147 468.681 370.09V97.2289C468.681 95.447 467.877 94.1719 466.015 94.1719H428.409C427.348 94.1719 426.384 94.6934 425.988 95.6495L424.432 99.1592C424.036 100.107 423.072 100.603 422.011 100.603H357.988C356.926 100.603 355.963 100.062 355.567 99.1146L354.009 95.6145C353.614 94.6584 352.651 94.1729 351.588 94.1729H314.524C312.47 94.1708 311.212 95.5933 311.212 97.5564Z" fill="#263238"/>
<path opacity="0.6" d="M393.629 96.3225C394.83 96.3225 395.803 95.3914 395.803 94.2428C395.803 93.0942 394.83 92.1631 393.629 92.1631C392.429 92.1631 391.455 93.0942 391.455 94.2428C391.455 95.3914 392.429 96.3225 393.629 96.3225Z" fill="white"/>
<path opacity="0.6" d="M387.054 94.2426C387.054 94.9782 387.678 95.575 388.447 95.575C389.216 95.575 389.84 94.9782 389.84 94.2426C389.84 93.5069 389.216 92.9102 388.447 92.9102C387.678 92.9102 387.054 93.5069 387.054 94.2426Z" fill="white"/>
<path opacity="0.6" d="M393.789 361.567V366.614H385.474V361.567H393.789ZM393.905 359.73H385.359C384.363 359.73 383.555 360.503 383.555 361.457V366.726C383.555 367.679 384.363 368.452 385.359 368.452H393.905C394.901 368.452 395.71 367.679 395.71 366.726V361.457C395.71 360.503 394.902 359.73 393.905 359.73Z" fill="white"/>
<path opacity="0.6" d="M451.382 102.358H449.425V104.854H451.382V102.358Z" fill="white"/>
<path opacity="0.6" d="M454.57 101.526H452.614V104.854H454.57V101.526Z" fill="white"/>
<path opacity="0.6" d="M457.759 100.693H455.802V104.853H457.759V100.693Z" fill="white"/>
<path opacity="0.6" d="M460.948 99.8608H458.991V104.853H460.948V99.8608Z" fill="white"/>
<path opacity="0.6" d="M328.353 103.943H329.513V101.448H328.353V103.943Z" fill="white"/>
<path opacity="0.6" d="M327.557 100.537H318.316V104.854H327.557V100.537Z" fill="white"/>
<path d="M468.681 112.412H311.212V353.33H468.681V112.412Z" fill="#1E90FF"/>
<path opacity="0.4" d="M468.682 112.412H311.213V353.33H468.682V112.412Z" fill="white"/>
<path d="M331.456 143.939C338.765 143.939 344.69 138.271 344.69 131.279C344.69 124.287 338.765 118.618 331.456 118.618C324.147 118.618 318.222 124.287 318.222 131.279C318.222 138.271 324.147 143.939 331.456 143.939Z" fill="#1E90FF"/>
<path opacity="0.6" d="M372.111 126.732H353.288C351.75 126.732 350.503 125.538 350.503 124.067C350.503 122.595 351.75 121.402 353.288 121.402H372.111C373.65 121.402 374.896 122.595 374.896 124.067C374.896 125.538 373.65 126.732 372.111 126.732Z" fill="white"/>
<path opacity="0.6" d="M408.725 134.726H351.736C351.054 134.726 350.503 134.198 350.503 133.546C350.503 132.895 351.054 132.367 351.736 132.367H408.725C409.406 132.367 409.958 132.895 409.958 133.546C409.959 134.198 409.406 134.726 408.725 134.726Z" fill="white"/>
<path opacity="0.6" d="M391.635 141.156H351.736C351.054 141.156 350.503 140.628 350.503 139.976C350.503 139.324 351.054 138.796 351.736 138.796H391.635C392.316 138.796 392.868 139.324 392.868 139.976C392.868 140.628 392.316 141.156 391.635 141.156Z" fill="white"/>
<path opacity="0.6" d="M468.682 152.637H311.213V280.283H468.682V152.637Z" fill="white"/>
<path d="M412.256 251.445C412.256 248.589 414.676 246.274 417.661 246.274C418.2 246.274 418.721 246.352 419.213 246.492C419.134 245.974 419.092 245.444 419.092 244.904C419.092 238.857 424.217 233.954 430.539 233.954C431.259 233.954 431.964 234.02 432.648 234.142C434.407 231.387 437.569 229.543 441.19 229.543C446.67 229.543 451.117 233.756 451.198 238.98C451.254 238.979 451.308 238.972 451.364 238.972C456.456 238.972 460.585 242.921 460.585 247.793C460.585 252.665 456.456 256.614 451.364 256.614H417.501L417.508 256.607C414.595 256.531 412.256 254.252 412.256 251.445Z" fill="#F0F0F0"/>
<path d="M324.06 227.039C324.06 224.893 325.878 223.155 328.12 223.155C328.525 223.155 328.916 223.213 329.285 223.319C329.227 222.93 329.195 222.531 329.195 222.126C329.195 217.583 333.044 213.901 337.793 213.901C338.333 213.901 338.863 213.951 339.376 214.043C340.698 211.974 343.073 210.588 345.792 210.588C349.909 210.588 353.248 213.752 353.31 217.678C353.352 217.677 353.393 217.671 353.435 217.671C357.26 217.671 360.362 220.638 360.362 224.297C360.362 227.956 357.26 230.923 353.435 230.923H328.001L328.007 230.918C325.817 230.859 324.06 229.147 324.06 227.039Z" fill="#F0F0F0"/>
<path d="M392.417 191.289C392.417 190.116 393.411 189.166 394.635 189.166C394.857 189.166 395.071 189.197 395.272 189.256C395.24 189.043 395.223 188.825 395.223 188.604C395.223 186.121 397.327 184.108 399.922 184.108C400.217 184.108 400.507 184.136 400.787 184.186C401.509 183.055 402.808 182.298 404.294 182.298C406.543 182.298 408.369 184.028 408.402 186.172C408.426 186.172 408.448 186.169 408.471 186.169C410.562 186.169 412.256 187.79 412.256 189.79C412.256 191.79 410.561 193.411 408.471 193.411H394.571L394.574 193.408C393.378 193.376 392.417 192.441 392.417 191.289Z" fill="#F0F0F0"/>
<path d="M360.363 266.207C360.363 264.687 361.65 263.456 363.239 263.456C363.526 263.456 363.803 263.497 364.066 263.572C364.024 263.297 364.001 263.015 364.001 262.727C364.001 259.508 366.729 256.9 370.093 256.9C370.477 256.9 370.851 256.936 371.216 257C372.152 255.534 373.835 254.553 375.763 254.553C378.68 254.553 381.046 256.795 381.089 259.576C381.119 259.575 381.148 259.572 381.178 259.572C383.888 259.572 386.085 261.674 386.085 264.267C386.085 266.859 383.888 268.961 381.178 268.961H363.155L363.158 268.957C361.607 268.915 360.363 267.701 360.363 266.207Z" fill="#F0F0F0"/>
<path d="M436.756 205.382C413.407 213.73 339.492 240.156 339.492 240.156L341.712 245.838C341.712 245.838 360.427 247.681 376.104 242.077C396.144 234.911 427.793 223.597 449.358 215.886C451.543 215.105 456.673 211.503 455.802 209.433C454.518 206.379 446.772 207.176 446.772 207.176C446.772 207.176 441.934 203.531 436.756 205.382Z" fill="#1E90FF"/>
<path d="M346.303 243.436L330.891 232.769C330.093 232.217 329.059 232.083 328.138 232.413L326.315 233.065C325.93 233.203 325.794 233.655 326.043 233.968L335.714 246.062L333.069 247.008C332.468 247.223 332.162 247.864 332.387 248.44C332.612 249.016 333.282 249.308 333.884 249.093L346.137 244.712L346.303 243.436Z" fill="#1E90FF"/>
<path d="M412.256 220.167L357.322 190.021C356.558 189.602 355.637 189.529 354.81 189.825L350.446 191.385C349.822 191.609 349.625 192.362 350.066 192.839L383.431 229.002L412.256 220.167Z" fill="#1E90FF"/>
<path d="M394.779 237.237L417.077 229.265L415.677 256.329C415.601 257.8 414.618 259.087 413.175 259.603L410.593 260.526C410.101 260.702 409.548 260.519 409.275 260.089L394.779 237.237Z" fill="#1E90FF"/>
<path opacity="0.6" d="M341.708 300.104H322.886C321.348 300.104 320.1 298.912 320.1 297.439C320.1 295.968 321.348 294.774 322.886 294.774H341.708C343.246 294.774 344.494 295.968 344.494 297.439C344.494 298.911 343.246 300.104 341.708 300.104Z" fill="white"/>
<path opacity="0.6" d="M454.177 308.099H321.333C320.652 308.099 320.1 307.571 320.1 306.919C320.1 306.267 320.652 305.739 321.333 305.739H454.177C454.858 305.739 455.41 306.267 455.41 306.919C455.41 307.57 454.858 308.099 454.177 308.099Z" fill="white"/>
<path opacity="0.6" d="M437.087 315.217H321.333C320.652 315.217 320.1 314.69 320.1 314.038C320.1 313.386 320.652 312.858 321.333 312.858H437.087C437.769 312.858 438.32 313.386 438.32 314.038C438.32 314.69 437.768 315.217 437.087 315.217Z" fill="white"/>
<path opacity="0.6" d="M331.273 322.337H321.333C320.652 322.337 320.1 321.809 320.1 321.157C320.1 320.505 320.652 319.977 321.333 319.977H331.273C331.955 319.977 332.506 320.505 332.506 321.157C332.508 321.809 331.955 322.337 331.273 322.337Z" fill="white"/>
<path opacity="0.6" d="M446.688 329.455H321.333C320.652 329.455 320.1 328.927 320.1 328.275C320.1 327.624 320.652 327.096 321.333 327.096H446.689C447.371 327.096 447.922 327.624 447.922 328.275C447.922 328.927 447.369 329.455 446.688 329.455Z" fill="white"/>
<path opacity="0.6" d="M377.363 336.574H321.333C320.652 336.574 320.1 336.047 320.1 335.395C320.1 334.743 320.652 334.215 321.333 334.215H377.363C378.044 334.215 378.596 334.743 378.596 335.395C378.596 336.047 378.043 336.574 377.363 336.574Z" fill="white"/>
<path d="M412.108 176.294H368.06C364.021 176.294 360.746 173.162 360.746 169.297C360.746 165.433 364.02 162.3 368.06 162.3H412.108C416.148 162.3 419.422 165.432 419.422 169.297C419.421 173.161 416.147 176.294 412.108 176.294Z" fill="#1E90FF"/>
<path d="M375.437 171.019C375.437 171.311 375.376 171.566 375.254 171.787C375.132 172.006 374.965 172.192 374.751 172.34C374.538 172.49 374.291 172.602 374.011 172.68C373.73 172.758 373.43 172.797 373.112 172.797H369.631V165.903H373.488C373.738 165.903 373.966 165.955 374.168 166.058C374.372 166.161 374.544 166.296 374.686 166.46C374.828 166.626 374.937 166.812 375.016 167.023C375.094 167.233 375.132 167.446 375.132 167.659C375.132 167.995 375.044 168.311 374.869 168.606C374.692 168.901 374.435 169.119 374.097 169.261C374.511 169.378 374.836 169.586 375.077 169.887C375.317 170.189 375.437 170.567 375.437 171.019ZM371.033 167.049V168.787H372.9C373.137 168.787 373.338 168.71 373.505 168.554C373.67 168.398 373.753 168.185 373.753 167.913C373.753 167.648 373.676 167.437 373.525 167.282C373.373 167.127 373.184 167.049 372.962 167.049H371.033ZM374.026 170.767C374.026 170.644 374.004 170.526 373.96 170.412C373.916 170.3 373.857 170.2 373.782 170.116C373.707 170.033 373.62 169.966 373.518 169.917C373.416 169.869 373.305 169.845 373.183 169.845H371.032V171.661H373.112C373.241 171.661 373.362 171.639 373.472 171.593C373.584 171.547 373.681 171.484 373.762 171.403C373.843 171.323 373.907 171.226 373.954 171.116C374.003 171.007 374.026 170.89 374.026 170.767Z" fill="white"/>
<path d="M379.609 172.845C379.08 172.845 378.601 172.746 378.173 172.549C377.743 172.352 377.374 172.089 377.066 171.762C376.758 171.436 376.519 171.062 376.35 170.641C376.18 170.22 376.096 169.79 376.096 169.35C376.096 168.89 376.186 168.45 376.365 168.029C376.545 167.609 376.792 167.236 377.106 166.913C377.42 166.59 377.795 166.332 378.227 166.14C378.66 165.949 379.13 165.854 379.637 165.854C380.158 165.854 380.634 165.956 381.063 166.16C381.493 166.365 381.86 166.631 382.165 166.962C382.468 167.291 382.705 167.667 382.875 168.088C383.043 168.509 383.129 168.936 383.129 169.37C383.129 169.83 383.04 170.269 382.865 170.687C382.689 171.104 382.445 171.473 382.134 171.793C381.822 172.113 381.45 172.37 381.018 172.561C380.587 172.749 380.116 172.845 379.609 172.845ZM377.518 169.35C377.518 169.648 377.564 169.936 377.66 170.214C377.755 170.493 377.891 170.738 378.071 170.952C378.25 171.166 378.47 171.337 378.73 171.467C378.99 171.596 379.287 171.661 379.619 171.661C379.957 171.661 380.256 171.594 380.516 171.461C380.776 171.329 380.997 171.152 381.175 170.932C381.355 170.712 381.49 170.465 381.582 170.189C381.674 169.914 381.719 169.634 381.719 169.35C381.719 169.052 381.671 168.764 381.572 168.485C381.474 168.207 381.335 167.96 381.155 167.747C380.976 167.534 380.757 167.363 380.495 167.237C380.235 167.111 379.942 167.049 379.617 167.049C379.278 167.049 378.978 167.115 378.714 167.248C378.451 167.381 378.23 167.555 378.054 167.773C377.878 167.99 377.745 168.236 377.653 168.51C377.564 168.785 377.518 169.065 377.518 169.35Z" fill="white"/>
<path d="M387.283 172.845C386.754 172.845 386.275 172.746 385.847 172.549C385.417 172.352 385.048 172.089 384.74 171.762C384.432 171.436 384.194 171.062 384.024 170.641C383.854 170.22 383.77 169.79 383.77 169.35C383.77 168.89 383.859 168.45 384.039 168.029C384.219 167.609 384.466 167.236 384.78 166.913C385.094 166.59 385.469 166.332 385.901 166.14C386.334 165.949 386.805 165.854 387.311 165.854C387.832 165.854 388.308 165.956 388.737 166.16C389.167 166.365 389.534 166.631 389.839 166.962C390.142 167.291 390.379 167.667 390.549 168.088C390.717 168.509 390.803 168.936 390.803 169.37C390.803 169.83 390.714 170.269 390.539 170.687C390.363 171.104 390.119 171.473 389.808 171.793C389.496 172.113 389.124 172.37 388.692 172.561C388.26 172.749 387.79 172.845 387.283 172.845ZM385.192 169.35C385.192 169.648 385.238 169.936 385.334 170.214C385.429 170.493 385.565 170.738 385.745 170.952C385.924 171.166 386.144 171.337 386.404 171.467C386.664 171.596 386.961 171.661 387.293 171.661C387.631 171.661 387.93 171.594 388.191 171.461C388.452 171.329 388.672 171.152 388.85 170.932C389.03 170.712 389.165 170.465 389.257 170.189C389.348 169.914 389.393 169.634 389.393 169.35C389.393 169.052 389.345 168.764 389.246 168.485C389.148 168.207 389.009 167.96 388.829 167.747C388.65 167.534 388.431 167.363 388.169 167.237C387.909 167.111 387.616 167.049 387.291 167.049C386.952 167.049 386.652 167.115 386.388 167.248C386.125 167.381 385.904 167.555 385.728 167.773C385.552 167.99 385.419 168.236 385.327 168.51C385.237 168.785 385.192 169.065 385.192 169.35Z" fill="white"/>
<path d="M391.88 172.797V165.912H393.28V169.184L396.305 165.902H397.847L395.086 168.96L398.02 172.797H396.447L394.204 169.815L393.28 170.738V172.797H391.88Z" fill="white"/>
<path d="M403.674 171.621V172.796H398.671V165.901H403.584V167.076H400.071V168.736H403.106V169.823H400.071V171.62L403.674 171.621Z" fill="white"/>
<path d="M404.77 172.797V165.902H407.389C407.978 165.902 408.494 165.992 408.937 166.174C409.381 166.355 409.751 166.601 410.049 166.911C410.347 167.222 410.569 167.587 410.719 168.004C410.868 168.422 410.943 168.866 410.943 169.339C410.943 169.864 410.86 170.337 410.694 170.761C410.528 171.185 410.289 171.548 409.978 171.849C409.666 172.15 409.292 172.383 408.856 172.549C408.42 172.714 407.931 172.796 407.389 172.796H404.77V172.797ZM409.53 169.339C409.53 169.009 409.483 168.705 409.388 168.426C409.294 168.147 409.156 167.908 408.973 167.708C408.79 167.507 408.565 167.352 408.298 167.242C408.03 167.132 407.727 167.077 407.389 167.077H406.171V171.621H407.389C407.734 171.621 408.04 171.563 408.308 171.446C408.575 171.33 408.799 171.169 408.978 170.966C409.158 170.762 409.294 170.521 409.389 170.242C409.482 169.964 409.53 169.663 409.53 169.339Z" fill="white"/>
<path d="M109.667 418.397L141.591 415.395V372.473H154.244V415.383L186.297 418.397C189.479 418.695 191.905 421.255 191.905 424.315V428.901H149.155H146.809H104.059V424.315C104.059 421.255 106.484 418.695 109.667 418.397Z" fill="#263238"/>
<path opacity="0.2" d="M109.667 418.397L141.591 415.395V372.473H154.244V415.383L186.297 418.397C189.479 418.695 191.905 421.255 191.905 424.315V428.901H149.155H146.809H104.059V424.315C104.059 421.255 106.484 418.695 109.667 418.397Z" fill="white"/>
<path d="M188.526 442.503C193.095 442.503 196.799 438.96 196.799 434.589C196.799 430.218 193.095 426.675 188.526 426.675C183.958 426.675 180.254 430.218 180.254 434.589C180.254 438.96 183.958 442.503 188.526 442.503Z" fill="#263238"/>
<path d="M107.437 442.503C112.006 442.503 115.71 438.96 115.71 434.589C115.71 430.218 112.006 426.675 107.437 426.675C102.869 426.675 99.1649 430.218 99.1649 434.589C99.1649 438.96 102.869 442.503 107.437 442.503Z" fill="#263238"/>
<path d="M143.991 381.698H151.843C154.372 381.698 156.422 379.736 156.422 377.317V343.468H139.412V377.317C139.412 379.736 141.463 381.698 143.991 381.698Z" fill="#263238"/>
<path opacity="0.3" d="M143.991 381.698H151.843C154.372 381.698 156.422 379.736 156.422 377.317V343.468H139.412V377.317C139.412 379.736 141.463 381.698 143.991 381.698Z" fill="white"/>
<path d="M138.664 241.147C138.856 270.464 142.006 330.432 164.041 343.467H102.815C100.612 343.467 98.5865 342.336 97.504 340.5C92.0892 331.316 77.1844 300.307 79.7118 240.599C80.0829 231.837 87.6362 224.917 96.8015 224.917H121.563C130.956 224.918 138.605 232.161 138.664 241.147Z" fill="#263238"/>
<path d="M145.312 241.147C145.504 270.464 148.654 330.432 170.689 343.467H106.062C106.062 343.467 83.2817 313.32 86.3609 240.599C86.732 231.837 94.2853 224.917 103.451 224.917H128.212C137.604 224.918 145.253 232.161 145.312 241.147Z" fill="#263238"/>
<path opacity="0.3" d="M145.312 241.147C145.504 270.464 148.654 330.432 170.689 343.467H106.062C106.062 343.467 83.2817 313.32 86.3609 240.599C86.732 231.837 94.2853 224.917 103.451 224.917H128.212C137.604 224.918 145.253 232.161 145.312 241.147Z" fill="white"/>
<path d="M186.109 335.463H111.96C108.901 335.463 106.42 337.837 106.42 340.763V347.854H191.649V340.763C191.649 337.837 189.169 335.463 186.109 335.463Z" fill="#263238"/>
<path d="M192.973 341.659H105.097C103.866 341.659 102.869 342.614 102.869 343.791V345.722C102.869 346.9 103.866 347.854 105.097 347.854H192.974C194.205 347.854 195.202 346.899 195.202 345.722V343.791C195.202 342.614 194.204 341.659 192.973 341.659Z" fill="#263238"/>
<path opacity="0.6" d="M192.973 341.659H105.097C103.866 341.659 102.869 342.614 102.869 343.791V345.722C102.869 346.9 103.866 347.854 105.097 347.854H192.974C194.205 347.854 195.202 346.899 195.202 345.722V343.791C195.202 342.614 194.204 341.659 192.973 341.659Z" fill="white"/>
<path d="M222.582 442.502H229.37L241.566 280.061H232.561L222.582 442.502Z" fill="#263238"/>
<path opacity="0.4" d="M222.578 442.502H229.37L240.971 288.129L241.569 280.322H232.561L232.074 288.129L222.578 442.502Z" fill="white"/>
<path opacity="0.2" d="M232.074 287.742H240.971L241.569 280.322H232.561L232.074 287.742Z" fill="black"/>
<path d="M242.275 400.489L234.586 399.779C234.586 399.779 225.556 376.215 216.547 355.121C209.279 338.108 202.033 322.717 199.562 322.621C199.019 322.6 197.955 322.823 196.459 323.247C182.709 327.095 132.605 346.97 119.852 334.557C105.714 320.809 126.157 287.663 126.157 287.663C126.157 287.663 160.161 283.02 162.721 290.366C163.219 291.786 163.762 294.574 164.161 296.959C164.549 299.206 164.815 301.093 164.815 301.093C164.815 301.093 164.826 301.093 164.837 301.082C165.89 300.828 200.027 292.401 213.478 301.093C227.14 309.933 242.275 400.489 242.275 400.489Z" fill="#E4897B"/>
<path d="M254.17 412.924C253.062 412.436 251.871 412.147 250.653 412.069C250.653 412.069 246.445 409.699 242.274 400.494L237.584 400.468C235.961 400.486 234.52 401.472 233.981 402.937C233.903 403.136 233.859 403.346 233.848 403.558C233.895 404.642 234.015 405.722 234.208 406.792C234.63 410.148 236.95 417.348 236.95 417.348L237.745 417.154L236.3 410.459C235.819 408.185 238.318 410.382 239.476 412.676C240.635 414.97 242.413 417.278 247.593 416.145C253.629 414.795 256.062 413.963 254.17 412.924Z" fill="#2E353A"/>
<path d="M241.425 398.082C241.425 398.082 247.281 409.806 250.654 412.068C250.654 412.068 246.133 414.647 241.425 408.907C235.338 401.484 233.849 403.558 233.849 403.558C233.849 403.558 234.107 401.017 234.581 399.773C235.497 397.38 241.425 398.082 241.425 398.082Z" fill="#E4897B"/>
<path d="M189.661 440.858C188.706 440.133 187.62 439.58 186.456 439.23C186.456 439.23 182.956 435.972 181.186 426.083L176.635 424.994C175.053 424.643 173.411 425.275 172.522 426.575C172.398 426.751 172.303 426.945 172.24 427.149C172.017 428.213 171.866 429.289 171.788 430.372C171.366 433.728 171.834 441.249 171.834 441.249L172.654 441.241L172.91 434.41C173.008 432.091 174.89 434.792 175.447 437.283C176.005 439.774 177.159 442.42 182.472 442.495C188.672 442.553 191.242 442.296 189.661 440.858Z" fill="#2E353A"/>
<path d="M180.96 423.548C180.96 423.548 183.743 436.267 186.458 439.23C186.458 439.23 181.426 440.71 178.276 434.065C174.203 425.473 172.241 427.149 172.241 427.149C172.241 427.149 173.122 424.74 173.891 423.639C175.373 421.52 180.96 423.548 180.96 423.548Z" fill="#E4897B"/>
<path opacity="0.1" d="M180.96 423.548C180.96 423.548 183.743 436.267 186.458 439.23C186.458 439.23 181.426 440.71 178.276 434.065C174.203 425.473 172.241 427.149 172.241 427.149C172.241 427.149 173.122 424.74 173.891 423.639C175.373 421.52 180.96 423.548 180.96 423.548Z" fill="black"/>
<path opacity="0.2" d="M216.548 355.121C209.279 338.108 202.033 322.717 199.562 322.622C199.019 322.6 197.955 322.823 196.459 323.247L196.559 319.378C196.559 319.378 206.077 319.685 213.091 326.957C217.844 331.886 217.356 346.344 216.548 355.121Z" fill="black"/>
<path d="M144.273 337.866C144.273 337.866 182.803 333.997 186.825 337.327C191.039 340.815 180.864 347.854 173.891 423.638L181.186 426.083C181.186 426.083 210.154 344.277 209.877 333.412C209.6 322.547 196.581 319.367 196.581 319.367C196.581 319.367 171.171 333.413 144.273 337.866Z" fill="#E4897B"/>
<path opacity="0.1" d="M209.877 333.412C210.154 344.277 181.191 426.088 181.191 426.088L173.89 423.639C180.87 347.849 191.041 340.811 186.831 337.324C185.922 336.571 183.208 336.189 179.574 336.052C173.059 335.787 163.563 336.306 156.051 336.868C149.369 337.355 144.273 337.864 144.273 337.864C147.674 337.302 151.054 336.582 154.367 335.755C176.793 330.179 195.883 319.749 196.559 319.378C196.57 319.378 196.581 319.367 196.581 319.367C196.581 319.367 209.6 322.547 209.877 333.412Z" fill="black"/>
<path opacity="0.2" d="M196.559 319.378C196.027 319.813 185.313 328.579 179.574 336.052C173.059 335.787 163.563 336.306 156.051 336.868C155.331 336.402 154.754 336.02 154.367 335.755C176.792 330.179 195.883 319.749 196.559 319.378Z" fill="black"/>
<path d="M189.433 297.339L170.934 346.316C170.934 346.316 126.361 345.268 117.594 336.672C108.828 328.075 111.896 313.818 118.69 303.753C125.484 293.689 159.674 291.802 159.674 291.802L166.958 300.591C166.958 300.591 179.293 297.343 189.433 297.339Z" fill="#263238"/>
<path opacity="0.1" d="M189.435 297.34L170.931 346.312C170.931 346.312 126.356 345.273 117.592 336.676C108.828 328.08 111.897 313.812 118.689 303.753C125.481 293.693 159.674 291.807 159.674 291.807L163.984 297.011L166.776 300.382L166.953 300.594C166.953 300.594 179.297 297.34 189.435 297.34Z" fill="white"/>
<path opacity="0.3" d="M166.776 300.383L144.926 305.057C144.926 305.057 155.763 299.333 163.984 297.012L166.776 300.383Z" fill="black"/>
<path d="M162.721 290.366L166.953 300.595L156.66 302.725L151.198 297.277L139.065 308.651L111.31 309.923L126.157 287.663L124.772 270.268L123.232 250.881L121.946 234.705C121.946 234.705 135.974 229.246 147.696 229.829C159.43 230.402 168.771 231.843 168.771 231.843C176.028 248.612 162.721 290.366 162.721 290.366Z" fill="#1E90FF"/>
<path opacity="0.2" d="M162.721 290.366L166.953 300.595L156.66 302.725L151.198 297.277L139.065 308.651L111.31 309.923L126.157 287.663L124.772 270.268L123.232 250.881L121.946 234.705C121.946 234.705 135.974 229.246 147.696 229.829C159.43 230.402 168.771 231.843 168.771 231.843C176.028 248.612 162.721 290.366 162.721 290.366Z" fill="black"/>
<path d="M93.2515 229.153C93.4975 229.641 93.2604 230.181 92.723 230.36L83.1632 233.555C82.6258 233.734 81.9909 233.485 81.7449 232.998L73.0194 215.66C72.7735 215.173 72.964 214.507 73.5014 214.328L83.0612 211.133C83.5986 210.954 84.2789 211.328 84.5249 211.816L93.2515 229.153Z" fill="#263238"/>
<path opacity="0.5" d="M83.4224 212.052L92.2399 229.555C92.4892 230.048 92.3363 230.491 91.8033 230.669L83.6972 233.378C83.1532 233.559 82.0518 233.606 81.8036 233.113L72.9629 215.548C72.7136 215.055 73.4914 214.333 74.0355 214.151L82.1416 211.441C82.6756 211.262 83.1731 211.558 83.4224 212.052Z" fill="white"/>
<path d="M90.5291 248.825L84.0617 236.45C84.0617 236.45 88.6644 226.783 87.2395 225.48C85.8157 224.176 84.2811 219.385 81.6507 219.007C79.0203 218.628 75.7329 230.102 75.7329 231.103C75.7329 232.105 78.1439 237.917 78.1439 237.917L83.8368 254.876L90.5291 248.825Z" fill="#E4897B"/>
<path d="M180.826 222.611L176.006 227.646L172.272 223.035C172.272 223.035 171.618 224.603 170.61 224.688C169.602 224.773 163.397 227.858 162.278 226.67C161.934 226.299 161.624 225.483 161.358 224.54C160.76 222.43 160.394 219.674 160.394 219.674C160.394 219.674 170.854 213.908 172.061 214.809C172.194 214.904 172.394 215.074 172.649 215.286C174.798 217.109 180.826 222.611 180.826 222.611Z" fill="#E4897B"/>
<path opacity="0.2" d="M172.649 215.286C171.973 218.445 169.591 223.289 161.358 224.54C160.76 222.43 160.394 219.674 160.394 219.674C160.394 219.674 170.854 213.908 172.061 214.809C172.194 214.904 172.394 215.074 172.649 215.286Z" fill="black"/>
<path d="M201.313 253.223C197.966 260.346 185.379 257.76 176.715 254.951C171.795 253.35 168.128 251.686 168.128 251.686L168.338 245.21L168.771 231.843L178.676 237.917L185.69 242.22L172.87 224.688L178.964 219.006C178.964 219.006 206.576 242.051 201.313 253.223Z" fill="#1E90FF"/>
<path opacity="0.2" d="M201.313 253.223C197.966 260.346 185.379 257.76 176.715 254.951C171.795 253.35 168.128 251.686 168.128 251.686L168.338 245.21L168.771 231.843L178.676 237.917L185.69 242.22L172.87 224.688L178.964 219.006C178.964 219.006 206.576 242.051 201.313 253.223Z" fill="black"/>
<path opacity="0.2" d="M176.715 254.951C171.795 253.35 168.128 251.686 168.128 251.686L168.338 245.209L170.51 240.174C170.51 240.174 175.352 247.478 176.715 254.951Z" fill="black"/>
<path opacity="0.2" d="M189.435 248.824C189.435 248.824 179.74 245.729 178.676 237.917L185.69 242.22L189.435 248.824Z" fill="black"/>
<path opacity="0.6" d="M139.046 266.372H143.415C143.899 266.372 144.292 265.997 144.292 265.533V257.648C144.292 257.185 143.899 256.81 143.415 256.81H139.046C138.562 256.81 138.17 257.185 138.17 257.648V265.533C138.169 265.997 138.562 266.372 139.046 266.372Z" fill="white"/>
<path opacity="0.2" d="M138.957 263.938H143.926V257.438H138.957V263.938Z" fill="black"/>
<path d="M141.879 254.503H140.784V258.334H141.879V254.503Z" fill="#263238"/>
<path opacity="0.2" d="M124.772 270.268L123.232 250.88L126.6 247.976C126.6 247.976 130.201 259.551 124.772 270.268Z" fill="black"/>
<path opacity="0.4" d="M136.88 234.702C136.88 234.702 149.853 264.011 150.818 274.763C150.818 274.763 159.359 249.222 158.341 236.641L136.88 234.702Z" fill="white"/>
<path d="M130.087 236.03C130.087 236.03 133.551 224.499 146.721 225.547C159.893 226.595 164.945 238.414 164.945 238.414L158.786 235.401L151.784 254.875L139.063 235.611L130.087 236.03Z" fill="#1E90FF"/>
<path opacity="0.6" d="M130.087 236.03C130.087 236.03 133.551 224.499 146.721 225.547C159.893 226.595 164.945 238.414 164.945 238.414L158.786 235.401L151.784 254.875L139.063 235.611L130.087 236.03Z" fill="white"/>
<path d="M140.981 192.702C140.981 192.702 140.364 187.437 133.058 187.027C125.752 186.618 119.615 191.563 123.999 199.993C128.382 208.425 128.512 217.857 122.529 219.011C122.529 219.011 134.275 224.209 136.418 206.525L140.981 192.702Z" fill="#263238"/>
<path d="M160.648 190.273C160.648 190.273 153.838 182.285 140.672 191.371C127.505 200.457 137.839 219.468 148.086 218.909C158.334 218.348 160.648 190.273 160.648 190.273Z" fill="#263238"/>
<path d="M155.253 228.144C155.331 230.338 156.294 232.087 156.294 232.087L150.907 246.928L138.145 230.73C142.699 230.168 145.359 224.794 146.721 220.798C147.43 218.731 147.785 217.035 147.874 216.558C147.896 216.462 147.907 216.42 147.907 216.42L148.195 216.579L158.477 222.123C155.807 223.872 155.175 226.183 155.253 228.144Z" fill="#E4897B"/>
<path opacity="0.2" d="M158.477 222.123C155.807 223.872 155.175 226.183 155.253 228.144C150.411 226.734 147.962 223.501 146.721 220.798C147.43 218.731 147.785 217.035 147.874 216.558L148.195 216.579L158.477 222.123Z" fill="black"/>
<path d="M149.06 189.936C149.06 189.936 156.766 183.613 165.77 187.806C174.773 192 174.615 204.849 168.614 209.21C162.611 213.571 149.06 189.936 149.06 189.936Z" fill="#263238"/>
<path d="M154.527 192.6C163.926 191.707 167.45 196.235 169.1 205.435C171.16 216.933 169.33 225.415 157.322 224.058C141.014 222.213 138.919 194.082 154.527 192.6Z" fill="#E4897B"/>
<path d="M162.972 205.51C162.972 205.51 164.518 207.735 166.094 208.979C166.094 208.979 165.416 210.279 163.721 210.231L162.972 205.51Z" fill="#DE5753"/>
<path d="M157.143 205.321C157.239 206.057 156.898 206.704 156.385 206.764C155.871 206.825 155.379 206.277 155.284 205.539C155.189 204.801 155.529 204.156 156.042 204.095C156.555 204.035 157.048 204.583 157.143 205.321Z" fill="#263238"/>
<path d="M155.832 204.156L157.427 203.33C157.427 203.33 156.767 204.777 155.832 204.156Z" fill="#263238"/>
<path d="M166.699 204.041C166.793 204.778 166.454 205.425 165.941 205.485C165.427 205.546 164.935 204.998 164.839 204.26C164.744 203.523 165.084 202.876 165.597 202.816C166.111 202.756 166.604 203.305 166.699 204.041Z" fill="#263238"/>
<path d="M165.388 202.877L166.982 202.052C166.982 202.052 166.322 203.499 165.388 202.877Z" fill="#263238"/>
<path d="M156.404 199.12C156.404 199.12 153.729 199.042 152.469 200.865" stroke="#263238" stroke-width="0.7247" stroke-miterlimit="10" stroke-linecap="round" stroke-linejoin="round"/>
<path d="M163.197 198.092C163.197 198.092 164.796 197.346 167.02 198.476" stroke="#263238" stroke-width="0.7247" stroke-miterlimit="10" stroke-linecap="round" stroke-linejoin="round"/>
<path d="M145.827 208.73C145.827 208.73 149.456 200.925 148.198 195.285C148.198 195.285 166.068 186.237 168.864 204.236C168.864 204.236 169.018 188.005 152.824 189.18C136.656 190.353 139.044 212.962 148.086 218.908C148.086 218.908 143.588 213.608 145.827 208.73Z" fill="#263238"/>
<path d="M147.559 210.482C147.346 209.04 145.53 206.738 142.747 207.299C139.866 207.88 139.071 213.731 146.459 214.419C147.518 214.517 148.003 213.49 147.559 210.482Z" fill="#E4897B"/>
<path d="M164.945 213.747C164.476 214.868 164.064 216.948 164.064 216.948C163.86 216.946 163.656 216.945 163.453 216.932C160.692 216.842 159.442 215.927 158.894 214.941C158.596 214.4 158.515 213.831 158.512 213.369C158.503 212.834 158.623 212.452 158.623 212.452C160.057 213.336 162.626 213.61 164.003 213.701C164.58 213.746 164.945 213.747 164.945 213.747Z" fill="#263238"/>
<path d="M164.004 213.702L163.719 214.639C161.119 214.548 159.3 214.151 158.513 213.37C158.504 212.835 158.624 212.453 158.624 212.453C160.058 213.337 162.625 213.611 164.004 213.702Z" fill="white"/>
<path d="M163.453 216.933C160.692 216.843 159.442 215.928 158.894 214.941C159.833 215.007 160.959 215.185 161.94 215.623C162.69 215.954 163.152 216.443 163.453 216.933Z" fill="#DE5753"/>
<path d="M169.921 201.09C169.921 201.09 167.854 200.371 164.007 201.672L164.003 201.658C164.003 201.658 162.257 201.059 160.573 202.029C159.409 202.019 156.68 202.144 153.512 203.331L146.171 205.996V206.77L153.659 204.923C154.28 206.684 155.949 209.376 158.477 208.879C161.842 208.218 161.63 204.887 161.379 203.331C162.087 202.542 163.43 202.431 163.7 203.032C163.976 204.413 164.898 207.588 168.417 207.401C171.977 207.213 169.921 201.09 169.921 201.09Z" fill="#1E90FF"/>
<path opacity="0.2" d="M169.921 201.09C169.921 201.09 167.854 200.371 164.007 201.672L164.003 201.658C164.003 201.658 162.257 201.059 160.573 202.029C159.409 202.019 156.68 202.144 153.512 203.331L146.171 205.996V206.77L153.659 204.923C154.28 206.684 155.949 209.376 158.477 208.879C161.842 208.218 161.63 204.887 161.379 203.331C162.087 202.542 163.43 202.431 163.7 203.032C163.976 204.413 164.898 207.588 168.417 207.401C171.977 207.213 169.921 201.09 169.921 201.09Z" fill="black"/>
<g opacity="0.3">
<path d="M168.663 201.54L167.184 206.769C167.184 206.769 169.269 207.437 169.829 205.838C170.388 204.24 169.677 201.54 169.677 201.54C169.677 201.54 169.046 201.435 168.663 201.54Z" fill="white"/>
<path d="M168.181 201.493L166.714 206.769C166.714 206.769 165.779 206.493 165.769 206.153L166.982 201.645C166.982 201.645 167.838 201.525 168.181 201.493Z" fill="white"/>
<path d="M159.267 202.829L157.788 208.058C157.788 208.058 159.873 208.726 160.433 207.127C160.992 205.529 160.281 202.829 160.281 202.829C160.281 202.829 159.651 202.724 159.267 202.829Z" fill="white"/>
<path d="M158.786 202.782L157.319 208.058C157.319 208.058 156.384 207.782 156.374 207.442L157.588 202.934C157.588 202.934 158.442 202.815 158.786 202.782Z" fill="white"/>
</g>
<path d="M154.2 192.255C154.2 192.255 156.398 202.248 149.06 206.525" stroke="#263238" stroke-width="0.5" stroke-miterlimit="10" stroke-linecap="round" stroke-linejoin="round"/>
<path d="M154.403 193.297C154.403 193.297 152.151 208.452 142.394 209.187C132.636 209.921 141.877 193.032 145.721 189.762C147.484 188.261 153.659 186.198 154.403 193.297Z" fill="#263238"/>
<path d="M121.943 234.702C117.741 235.263 104.298 261.411 101.084 261.416C97.8696 261.422 87.8134 241.078 87.8134 241.078L79.4591 246.928C79.4591 246.928 89.4289 279.55 100.701 278.028C112.918 276.378 126.214 257.328 126.214 257.328C126.214 257.328 127.091 250.638 126.214 244.767C125.338 238.897 121.943 234.702 121.943 234.702Z" fill="#1E90FF"/>
<path opacity="0.2" d="M121.943 234.702C117.741 235.263 104.298 261.411 101.084 261.416C97.8696 261.422 87.8134 241.078 87.8134 241.078L79.4591 246.928C79.4591 246.928 89.4289 279.55 100.701 278.028C112.918 276.378 126.214 257.328 126.214 257.328C126.214 257.328 127.091 250.638 126.214 244.767C125.338 238.897 121.943 234.702 121.943 234.702Z" fill="black"/>
<path d="M294.203 224.341H271.113V259.025H294.203V224.341Z" fill="white"/>
<path opacity="0.2" d="M294.203 224.341H271.113V259.025H294.203V224.341Z" fill="black"/>
<path d="M288.059 224.341H264.969V259.025H288.059V224.341Z" fill="white"/>
<path opacity="0.1" d="M288.059 224.341H264.969V259.025H288.059V224.341Z" fill="black"/>
<path d="M295.958 226.185V272.303H263.96V237.939L280.568 226.185H295.958Z" fill="#263238"/>
<path opacity="0.2" d="M295.958 226.185H286.241V272.303H295.958V226.185Z" fill="black"/>
<path opacity="0.4" d="M294.956 233.421H287.721V236.651H294.956V233.421Z" fill="white"/>
<path opacity="0.4" d="M294.956 238.718H287.721V249.182H294.956V238.718Z" fill="white"/>
<path opacity="0.4" d="M294.956 252.023H287.721V254.736H294.956V252.023Z" fill="white"/>
<path d="M277.583 223.281H254.493V257.964H277.583V223.281Z" fill="white"/>
<path opacity="0.2" d="M277.583 223.281H254.493V257.964H277.583V223.281Z" fill="black"/>
<path d="M271.439 223.281H248.349V257.964H271.439V223.281Z" fill="white"/>
<path opacity="0.1" d="M271.439 223.281H248.349V257.964H271.439V223.281Z" fill="black"/>
<path d="M279.338 226.185V272.303H247.34V237.939L263.948 226.185H279.338Z" fill="#1E90FF"/>
<path opacity="0.2" d="M279.338 226.185H269.621V272.303H279.338V226.185Z" fill="black"/>
<path opacity="0.4" d="M278.336 233.421H271.101V236.651H278.336V233.421Z" fill="white"/>
<path opacity="0.4" d="M278.336 238.718H271.101V249.181H278.336V238.718Z" fill="white"/>
<path opacity="0.4" d="M278.336 252.023H271.101V254.735H278.336V252.023Z" fill="white"/>
<path d="M225.952 442.502H232.739L233.848 280.06H224.843L225.952 442.502Z" fill="#263238"/>
<path opacity="0.5" d="M224.839 280.322L225.016 306.53L225.947 442.502H232.739L233.669 306.53L233.847 280.322H224.839Z" fill="white"/>
<path opacity="0.2" d="M224.839 280.322L225.016 306.822H233.669L233.847 280.322H224.839Z" fill="black"/>
<path d="M153.886 442.502H160.674L172.87 280.06H163.865L153.886 442.502Z" fill="#263238"/>
<path opacity="0.5" d="M153.882 442.502H160.674L172.275 288.129L172.874 280.322H163.865L163.378 288.129L153.882 442.502Z" fill="white"/>
<path opacity="0.2" d="M163.378 287.742H172.275L172.873 280.322H163.865L163.378 287.742Z" fill="black"/>
<path d="M300.234 442.502H307.021L297.043 280.06H288.038L300.234 442.502Z" fill="#263238"/>
<path opacity="0.5" d="M288.039 280.322L288.637 288.129L300.238 442.502H307.019L297.535 288.129L297.047 280.322H288.039Z" fill="white"/>
<path opacity="0.2" d="M297.047 280.322H288.039L288.637 287.742H297.535L297.047 280.322Z" fill="black"/>
<path d="M159.123 284.128H301.786C303.109 284.128 304.181 283.102 304.181 281.837V275.992H156.727V281.835C156.727 283.102 157.799 284.128 159.123 284.128Z" fill="#1E90FF"/>
<path opacity="0.6" d="M159.123 284.128H301.786C303.109 284.128 304.181 283.102 304.181 281.837V275.992H156.727V281.835C156.727 283.102 157.799 284.128 159.123 284.128Z" fill="white"/>
<path opacity="0.2" d="M156.728 280.06H304.181V275.992H156.728V280.06Z" fill="black"/>
<path d="M152.52 277.053H308.389C309.711 277.053 310.784 276.027 310.784 274.761C310.784 273.495 309.711 272.469 308.389 272.469H152.52C151.197 272.469 150.124 273.495 150.124 274.761C150.124 276.027 151.197 277.053 152.52 277.053Z" fill="#1E90FF"/>
<path opacity="0.6" d="M152.52 277.053H308.389C309.711 277.053 310.784 276.027 310.784 274.761C310.784 273.495 309.711 272.469 308.389 272.469H152.52C151.197 272.469 150.124 273.495 150.124 274.761C150.124 276.027 151.197 277.053 152.52 277.053Z" fill="white"/>
<path d="M262.033 268.127V270.932C262.033 271.773 260.521 272.367 259.653 272.367H191.185C190.307 272.367 188.905 271.773 188.905 270.932V268.127H262.033Z" fill="#263238"/>
<path opacity="0.6" d="M262.033 268.127V270.932C262.033 271.773 260.521 272.367 259.653 272.367H191.185C190.307 272.367 188.905 271.773 188.905 270.932V268.127H262.033Z" fill="white"/>
<path opacity="0.2" d="M262.033 268.127V270.932C262.033 271.773 260.521 272.367 259.653 272.367H214.494C213.616 272.367 212.173 271.773 212.173 270.932V268.127H262.033Z" fill="black"/>
<path d="M273.012 233.691L264.862 269.179C264.597 270.344 263.411 271.307 262.216 271.307H217.693C216.508 271.307 215.745 270.097 216.02 268.932L224.161 233.825C224.435 232.67 225.611 232.086 226.808 232.086H271.33C272.526 232.087 273.277 232.537 273.012 233.691Z" fill="#263238"/>
<path opacity="0.6" d="M273.012 233.691L264.862 269.179C264.597 270.344 263.411 271.307 262.216 271.307H217.693C216.508 271.307 215.745 270.097 216.02 268.932L224.161 233.825C224.435 232.67 225.611 232.086 226.808 232.086H271.33C272.526 232.087 273.277 232.537 273.012 233.691Z" fill="white"/>
<path opacity="0.4" d="M273.012 233.691L264.862 269.179C264.597 270.344 263.411 271.307 262.216 271.307H219.207C218.01 271.307 217.259 270.097 217.524 268.932L225.675 233.825C225.94 232.67 227.126 232.086 228.322 232.086H271.331C272.526 232.087 273.277 232.537 273.012 233.691Z" fill="white"/>
<path opacity="0.2" d="M246.82 256.436C248.892 256.436 251.02 254.305 251.563 251.687C252.094 249.058 250.853 246.928 248.77 246.928C248.383 246.928 247.995 247.002 247.618 247.14C247.131 249.186 245.679 250.903 244.084 251.475C244.061 251.549 244.039 251.613 244.028 251.687C243.485 254.305 244.738 256.436 246.82 256.436Z" fill="black"/>
<path d="M111.165 343.73C109.931 343.73 108.923 342.767 108.946 341.587C109.413 317.396 117.678 301.631 120.915 296.361C121.568 295.299 123.033 295.002 124.09 295.707L125.816 296.86L123.998 295.645L124.098 295.711C125.04 296.339 125.331 297.553 124.756 298.504C121.831 303.337 113.843 318.589 113.378 341.628C113.355 342.792 112.379 343.73 111.165 343.73Z" fill="#263238"/>
<g opacity="0.2">
<path d="M111.165 343.73C109.931 343.73 108.923 342.767 108.946 341.587C109.413 317.396 117.678 301.631 120.915 296.361C121.568 295.299 123.033 295.002 124.09 295.707L125.816 296.86L123.998 295.645L124.098 295.711C125.04 296.339 125.331 297.553 124.756 298.504C121.831 303.337 113.843 318.589 113.378 341.628C113.355 342.792 112.379 343.73 111.165 343.73Z" fill="white"/>
</g>
<path d="M139.34 299.001H77.9744C75.9568 299.001 74.3214 297.437 74.3214 295.507C74.3214 293.576 75.9568 292.012 77.9744 292.012H139.341C141.359 292.012 142.994 293.576 142.994 295.507C142.993 297.437 141.358 299.001 139.34 299.001Z" fill="#263238"/>
<path opacity="0.6" d="M139.34 299.001H77.9744C75.9568 299.001 74.3214 297.437 74.3214 295.507C74.3214 293.576 75.9568 292.012 77.9744 292.012H139.341C141.359 292.012 142.994 293.576 142.994 295.507C142.993 297.437 141.358 299.001 139.34 299.001Z" fill="white"/>
</svg>
