<svg width="36" height="36" viewBox="0 0 36 36" fill="none" xmlns="http://www.w3.org/2000/svg">
<g id="Group">
<path id="Vector" d="M18 3C26.2845 3 33 9.7155 33 18C33 26.2845 26.2845 33 18 33C9.7155 33 3 26.2845 3 18C3 9.7155 9.7155 3 18 3ZM18 6C14.8174 6 11.7652 7.26428 9.51472 9.51472C7.26428 11.7652 6 14.8174 6 18C6 21.1826 7.26428 24.2348 9.51472 26.4853C11.7652 28.7357 14.8174 30 18 30C21.1826 30 24.2348 28.7357 26.4853 26.4853C28.7357 24.2348 30 21.1826 30 18C30 14.8174 28.7357 11.7652 26.4853 9.51472C24.2348 7.26428 21.1826 6 18 6ZM17.985 15C18.822 15 19.5 15.678 19.5 16.515V24.201C19.7859 24.3661 20.0094 24.621 20.1358 24.926C20.2621 25.2311 20.2843 25.5693 20.1988 25.8882C20.1134 26.2072 19.9251 26.489 19.6631 26.69C19.4011 26.891 19.0802 27 18.75 27H18.015C17.816 27 17.619 26.9608 17.4352 26.8847C17.2514 26.8085 17.0844 26.6969 16.9437 26.5563C16.8031 26.4156 16.6915 26.2486 16.6153 26.0648C16.5392 25.881 16.5 25.684 16.5 25.485V18C16.1022 18 15.7206 17.842 15.4393 17.5607C15.158 17.2794 15 16.8978 15 16.5C15 16.1022 15.158 15.7206 15.4393 15.4393C15.7206 15.158 16.1022 15 16.5 15H17.985ZM18 10.5C18.3978 10.5 18.7794 10.658 19.0607 10.9393C19.342 11.2206 19.5 11.6022 19.5 12C19.5 12.3978 19.342 12.7794 19.0607 13.0607C18.7794 13.342 18.3978 13.5 18 13.5C17.6022 13.5 17.2206 13.342 16.9393 13.0607C16.658 12.7794 16.5 12.3978 16.5 12C16.5 11.6022 16.658 11.2206 16.9393 10.9393C17.2206 10.658 17.6022 10.5 18 10.5Z" fill="#1E90FF"/>
</g>
</svg>
