<svg width="36" height="36" viewBox="0 0 36 36" fill="none" xmlns="http://www.w3.org/2000/svg">
<rect width="36" height="36" rx="8" fill="#A4E0FF"/>
<path fill-rule="evenodd" clip-rule="evenodd" d="M20.014 23L20.008 25.003C20.007 25.473 20.006 25.708 19.859 25.854C19.712 26 19.477 26 19.005 26H15.995C12.215 26 10.325 26 9.14999 24.828C8.33999 24.022 8.08899 22.877 8.00999 21.011C7.99499 20.641 7.98699 20.455 8.05599 20.332C8.12599 20.209 8.40099 20.055 8.95299 19.746C9.26392 19.5727 9.52292 19.3194 9.70323 19.0125C9.88353 18.7055 9.9786 18.356 9.9786 18C9.9786 17.644 9.88353 17.2945 9.70323 16.9875C9.52292 16.6806 9.26392 16.4273 8.95299 16.254C8.40099 15.946 8.12499 15.791 8.05599 15.668C7.98699 15.545 7.99499 15.36 8.01099 14.989C8.08899 13.123 8.34099 11.979 9.14999 11.172C10.324 10 12.214 10 15.995 10H19.505C19.5706 9.99987 19.6357 10.0127 19.6964 10.0377C19.7571 10.0627 19.8123 10.0994 19.8588 10.1457C19.9054 10.1921 19.9423 10.2471 19.9675 10.3077C19.9928 10.3683 20.0059 10.4333 20.006 10.499L20.014 13C20.014 13.552 20.463 14 21.016 14V16C20.463 16 20.014 16.448 20.014 17V19C20.014 19.552 20.463 20 21.016 20V22C20.463 22 20.014 22.448 20.014 23Z" fill="#0F53B7"/>
<path opacity="0.5" d="M21.0171 22.0002C21.5701 22.0002 22.0191 22.4482 22.0191 23.0002V24.9762C22.0191 25.4582 22.0191 25.6992 22.1741 25.8462C22.3281 25.9942 22.5641 25.9842 23.0371 25.9642C24.9001 25.8852 26.0441 25.6332 26.8511 24.8282C27.6601 24.0222 27.9111 22.8762 27.9901 21.0102C28.0051 20.6402 28.0131 20.4552 27.9441 20.3322C27.8751 20.2082 27.5991 20.0542 27.0471 19.7462C26.7362 19.5728 26.4772 19.3196 26.2968 19.0127C26.1165 18.7057 26.0215 18.3562 26.0215 18.0002C26.0215 17.6442 26.1165 17.2947 26.2968 16.9877C26.4772 16.6808 26.7362 16.4275 27.0471 16.2542C27.5991 15.9452 27.8751 15.7912 27.9441 15.6682C28.0141 15.5442 28.0051 15.3592 27.9901 14.9892C27.9111 13.1232 27.6601 11.9782 26.8501 11.1712C25.9731 10.2962 24.6961 10.0752 22.5281 10.0192C22.4618 10.0176 22.3959 10.0293 22.3342 10.0535C22.2725 10.0778 22.2163 10.1141 22.1689 10.1604C22.1214 10.2068 22.0838 10.2621 22.058 10.3232C22.0323 10.3843 22.0191 10.4499 22.0191 10.5162V13.0002C22.0191 13.5522 21.5701 14.0002 21.0171 14.0002V16.0002C21.1486 15.9999 21.2788 16.0256 21.4004 16.0757C21.5219 16.1259 21.6324 16.1995 21.7255 16.2924C21.8186 16.3853 21.8924 16.4956 21.9428 16.617C21.9932 16.7385 22.0191 16.8687 22.0191 17.0002V19.0002C22.0191 19.5522 21.5701 20.0002 21.0171 20.0002V22.0002Z" fill="#1E90FF"/>
</svg>
