<svg width="36" height="36" viewBox="0 0 36 36" fill="none" xmlns="http://www.w3.org/2000/svg">
<rect width="36" height="36" rx="8" fill="#A4E0FF"/>
<path fill-rule="evenodd" clip-rule="evenodd" d="M14 13C14 11.9391 14.4214 10.9217 15.1716 10.1716C15.9217 9.42143 16.9391 9 18 9C19.0609 9 20.0783 9.42143 20.8284 10.1716C21.5786 10.9217 22 11.9391 22 13C22 14.0609 21.5786 15.0783 20.8284 15.8284C20.0783 16.5786 19.0609 17 18 17C16.9391 17 15.9217 16.5786 15.1716 15.8284C14.4214 15.0783 14 14.0609 14 13ZM14 19C12.6739 19 11.4021 19.5268 10.4645 20.4645C9.52678 21.4021 9 22.6739 9 24C9 24.7956 9.31607 25.5587 9.87868 26.1213C10.4413 26.6839 11.2044 27 12 27H24C24.7956 27 25.5587 26.6839 26.1213 26.1213C26.6839 25.5587 27 24.7956 27 24C27 22.6739 26.4732 21.4021 25.5355 20.4645C24.5979 19.5268 23.3261 19 22 19H14Z" fill="#1E90FF"/>
</svg>
