<svg width="16" height="16" viewBox="0 0 16 16" fill="none" xmlns="http://www.w3.org/2000/svg">
<path d="M12.1666 2.16669C12.2874 2.16669 12.4041 2.21045 12.4952 2.28987C12.5863 2.36928 12.6455 2.47898 12.6619 2.59869L12.6666 2.66669V13.3334C12.6665 13.46 12.6184 13.582 12.5319 13.6745C12.4455 13.7671 12.3271 13.8234 12.2007 13.832C12.0743 13.8407 11.9493 13.801 11.8511 13.7211C11.7528 13.6411 11.6885 13.5269 11.6713 13.4014L11.6666 13.3334V10H10.1666C10.0458 10 9.92902 9.95626 9.83797 9.87684C9.74691 9.79743 9.68768 9.68772 9.67125 9.56802L9.66659 9.50002V4.66669C9.66659 4.00365 9.92998 3.36776 10.3988 2.89892C10.8677 2.43008 11.5035 2.16669 12.1666 2.16669ZM8.16659 2.16669C8.28741 2.16669 8.40415 2.21045 8.49521 2.28987C8.58626 2.36928 8.64549 2.47898 8.66192 2.59869L8.66659 2.66669V5.33335C8.66659 6.63535 7.73325 7.71869 6.49992 7.95335V13.3334C6.49988 13.46 6.45176 13.582 6.36527 13.6745C6.27878 13.7671 6.16039 13.8234 6.034 13.832C5.90761 13.8407 5.78266 13.801 5.68439 13.7211C5.58611 13.6411 5.52185 13.5269 5.50459 13.4014L5.49992 13.3334V7.95335C4.91376 7.84128 4.38211 7.53593 3.98993 7.08611C3.59776 6.63629 3.36772 6.06798 3.33659 5.47202L3.33325 5.33335V2.66669C3.33329 2.54 3.38141 2.41806 3.4679 2.32549C3.55439 2.23293 3.67278 2.17664 3.79917 2.168C3.92556 2.15937 4.05051 2.19903 4.14878 2.27898C4.24706 2.35892 4.31132 2.47319 4.32859 2.59869L4.33325 2.66669V5.33335C4.33325 6.08002 4.82392 6.71135 5.49992 6.92402V2.66669C5.49996 2.54 5.54808 2.41806 5.63457 2.32549C5.72105 2.23293 5.83945 2.17664 5.96584 2.168C6.09223 2.15937 6.21718 2.19903 6.31545 2.27898C6.41372 2.35892 6.47798 2.47319 6.49525 2.59869L6.49992 2.66669V6.92335C6.81805 6.82309 7.09881 6.62975 7.30595 6.36831C7.51309 6.10686 7.63708 5.78932 7.66192 5.45669L7.66659 5.33335V2.66669C7.66659 2.53408 7.71926 2.4069 7.81303 2.31313C7.9068 2.21937 8.03398 2.16669 8.16659 2.16669ZM11.6666 9.00002V3.25202C11.3925 3.34901 11.1525 3.52349 10.9757 3.75426C10.7989 3.98503 10.6929 4.26217 10.6706 4.55202L10.6666 4.66669V9.00002H11.6666Z" fill="#505050"/>
</svg>
