<svg width="16" height="18" viewBox="0 0 16 18" fill="none" xmlns="http://www.w3.org/2000/svg">
<path d="M10.9999 16.88C11.0399 17.18 10.9399 17.5 10.7099 17.71C10.6174 17.8027 10.5075 17.8762 10.3865 17.9264C10.2655 17.9766 10.1359 18.0024 10.0049 18.0024C9.87392 18.0024 9.74424 17.9766 9.62326 17.9264C9.50229 17.8762 9.3924 17.8027 9.29989 17.71L5.28989 13.7C5.18082 13.5934 5.09789 13.463 5.04759 13.319C4.99728 13.175 4.98095 13.0213 4.99989 12.87V7.75L0.209887 1.62C0.0474951 1.41153 -0.0257793 1.14726 0.00607485 0.88493C0.037929 0.622602 0.172322 0.383546 0.379887 0.22C0.569887 0.08 0.779887 0 0.999887 0H14.9999C15.2199 0 15.4299 0.08 15.6199 0.22C15.8275 0.383546 15.9618 0.622602 15.9937 0.88493C16.0256 1.14726 15.9523 1.41153 15.7899 1.62L10.9999 7.75V16.88ZM3.03989 2L6.99989 7.06V12.58L8.99989 14.58V7.05L12.9599 2H3.03989Z" fill="#F9F9F9"/>
</svg>
