<svg width="200" height="200" viewBox="0 0 200 200" fill="none" xmlns="http://www.w3.org/2000/svg">
<path d="M100 190.688C149.352 190.688 189.36 168.931 189.36 142.092C189.36 115.253 149.352 93.4961 100 93.4961C50.6478 93.4961 10.64 115.253 10.64 142.092C10.64 168.931 50.6478 190.688 100 190.688Z" fill="#E0E0E0"/>
<path d="M100 139.548C107.436 139.548 113.464 136.067 113.464 131.772C113.464 127.478 107.436 123.996 100 123.996C92.5641 123.996 86.536 127.478 86.536 131.772C86.536 136.067 92.5641 139.548 100 139.548Z" fill="#C2C2C2"/>
<path d="M150.212 160.328C161.967 160.328 171.496 154.826 171.496 148.04C171.496 141.253 161.967 135.752 150.212 135.752C138.457 135.752 128.928 141.253 128.928 148.04C128.928 154.826 138.457 160.328 150.212 160.328Z" fill="#C2C2C2"/>
<path d="M45.768 161.656C57.5228 161.656 67.052 156.155 67.052 149.368C67.052 142.582 57.5228 137.08 45.768 137.08C34.0132 137.08 24.484 142.582 24.484 149.368C24.484 156.155 34.0132 161.656 45.768 161.656Z" fill="#C2C2C2"/>
<path d="M182 139.308L177.98 137.664C177.475 134.189 177.184 130.686 177.108 127.176C177.108 120.608 181.2 112.576 186.392 113.92C191.584 115.264 184.928 122.612 183.848 128.288C182.768 133.964 182 139.308 182 139.308Z" fill="#18AF5E"/>
<path opacity="0.3" d="M182 139.308L177.98 137.664C177.475 134.189 177.184 130.686 177.108 127.176C177.108 120.608 181.2 112.576 186.392 113.92C191.584 115.264 184.928 122.612 183.848 128.288C182.768 133.964 182 139.308 182 139.308Z" fill="black"/>
<path d="M180.052 138.8C180.096 138.794 180.136 138.771 180.163 138.735C180.19 138.7 180.202 138.656 180.196 138.612C178.28 124.212 184.756 116.212 184.82 116.144C184.849 116.109 184.862 116.065 184.858 116.02C184.854 115.976 184.832 115.934 184.798 115.906C184.763 115.877 184.719 115.863 184.674 115.867C184.63 115.872 184.589 115.893 184.56 115.928C184.496 116.008 177.924 124.104 179.86 138.656C179.863 138.678 179.87 138.699 179.881 138.719C179.893 138.738 179.908 138.755 179.926 138.768C179.944 138.781 179.964 138.791 179.986 138.797C180.007 138.802 180.03 138.803 180.052 138.8Z" fill="white"/>
<path d="M184.064 140.268L181.964 139.316C181.335 136.08 181.431 132.746 182.244 129.552C183.592 124.376 188.08 121.184 190.34 121.712C193.104 122.356 193.372 124.912 192.564 126.692C191.6 128.8 184.952 134.508 184.064 140.268Z" fill="#18AF5E"/>
<path opacity="0.1" d="M184.064 140.268L181.964 139.316C181.335 136.08 181.431 132.746 182.244 129.552C183.592 124.376 188.08 121.184 190.34 121.712C193.104 122.356 193.372 124.912 192.564 126.692C191.6 128.8 184.952 134.508 184.064 140.268Z" fill="black"/>
<path d="M182.972 139.936C183.017 139.931 183.058 139.908 183.086 139.873C183.115 139.838 183.128 139.793 183.124 139.748C182.18 130.612 190.152 123.588 190.236 123.52C190.266 123.487 190.283 123.444 190.283 123.4C190.283 123.355 190.266 123.312 190.236 123.28C190.22 123.264 190.202 123.251 190.181 123.243C190.16 123.234 190.138 123.229 190.116 123.229C190.094 123.229 190.071 123.234 190.051 123.243C190.03 123.251 190.011 123.264 189.996 123.28C189.912 123.352 181.812 130.48 182.768 139.8C182.778 139.845 182.804 139.884 182.842 139.909C182.88 139.935 182.927 139.944 182.972 139.936Z" fill="white"/>
<path d="M22.4001 135.628L25.1601 134.052C25.1601 134.052 26.4801 126.768 25.4921 120.504C24.1001 111.704 18.1041 108.66 15.9281 109.536C13.7521 110.412 13.2401 113.02 17.1721 118.108C19.4921 121.108 22.4761 127.456 22.4001 135.628Z" fill="#18AF5E"/>
<g opacity="0.15">
<path d="M22.4001 135.628L25.1601 134.052C25.1601 134.052 26.4801 126.768 25.4921 120.504C24.1001 111.704 18.1041 108.66 15.9281 109.536C13.7521 110.412 13.2401 113.02 17.1721 118.108C19.4921 121.108 22.4761 127.456 22.4001 135.628Z" fill="black"/>
</g>
<path d="M23.4 132.132H23.372C23.3467 132.128 23.3223 132.12 23.3002 132.107C23.2782 132.094 23.259 132.077 23.2437 132.056C23.2285 132.036 23.2174 132.013 23.2113 131.988C23.2052 131.963 23.204 131.937 23.208 131.912C24.344 123.668 21.032 114.636 17.304 110.996C17.2808 110.979 17.2616 110.957 17.2475 110.932C17.2335 110.907 17.2249 110.88 17.2225 110.851C17.2201 110.823 17.2238 110.794 17.2335 110.767C17.2431 110.74 17.2584 110.715 17.2784 110.695C17.2983 110.674 17.3225 110.658 17.3492 110.648C17.3759 110.638 17.4045 110.633 17.4331 110.635C17.4617 110.636 17.4896 110.644 17.5149 110.657C17.5403 110.671 17.5625 110.689 17.58 110.712C21.372 114.4 24.752 123.6 23.6 131.96C23.5932 132.008 23.5692 132.052 23.5324 132.084C23.4956 132.115 23.4485 132.132 23.4 132.132Z" fill="white"/>
<path d="M14.752 140.048C14.316 140.296 13.42 139.752 13.076 139.52C12.4859 139.113 12.0095 138.562 11.692 137.92C11.3373 137.194 11.2171 136.377 11.348 135.58C11.4172 135.159 11.5161 134.743 11.644 134.336L11.992 133.136C12.1291 132.751 12.1889 132.343 12.168 131.936C12.064 131.108 11.328 130.532 10.664 130.032C9.92396 129.48 9.15996 128.752 9.16396 127.756C9.21557 126.984 9.52394 126.252 10.04 125.676C10.512 125.072 11.076 124.54 11.508 123.904C11.8466 123.457 12.0204 122.908 12 122.348C11.9541 122.007 11.8398 121.679 11.664 121.384C11.2593 120.769 10.9061 120.121 10.608 119.448C10.364 118.752 10.4 117.888 10.944 117.388C11.186 117.207 11.4618 117.076 11.7552 117.003C12.0485 116.931 12.3534 116.917 12.652 116.964C13.2199 117.031 13.7662 117.222 14.252 117.524C15.832 118.4 16.732 120.272 18.408 120.948C19.0715 121.154 19.7475 121.319 20.432 121.44C20.7755 121.503 21.1018 121.639 21.3898 121.836C21.6778 122.034 21.9211 122.29 22.104 122.588C22.72 123.816 21.58 125.328 22.012 126.632C22.412 127.784 23.516 128.232 24.144 129.268C24.4014 129.726 24.5051 130.254 24.44 130.776C24.3841 131.658 24.1686 132.523 23.804 133.328C23.3936 134.128 22.9243 134.897 22.4 135.628C22.376 135.656 14.82 140 14.752 140.048Z" fill="#18AF5E"/>
<path d="M19.228 137.664C19.2017 137.663 19.1759 137.657 19.1521 137.646C19.1282 137.635 19.1067 137.619 19.0889 137.6C19.0711 137.58 19.0572 137.558 19.0481 137.533C19.0391 137.508 19.0349 137.482 19.036 137.456C19.36 129.656 15.684 121.056 13.012 118.536C12.9756 118.499 12.9552 118.449 12.9552 118.398C12.9552 118.346 12.9756 118.297 13.012 118.26C13.0494 118.223 13.0997 118.203 13.152 118.203C13.2044 118.203 13.2546 118.223 13.292 118.26C16 120.8 19.756 129.56 19.424 137.476C19.422 137.526 19.4004 137.574 19.3639 137.609C19.3273 137.644 19.2786 137.664 19.228 137.664Z" fill="white"/>
<path d="M18.0599 128.444H17.9999C16.1517 127.936 14.254 127.629 12.3399 127.528C12.2868 127.528 12.236 127.507 12.1985 127.469C12.161 127.432 12.1399 127.381 12.1399 127.328C12.1399 127.275 12.161 127.224 12.1985 127.187C12.236 127.149 12.2868 127.128 12.3399 127.128C14.288 127.229 16.2193 127.542 18.0999 128.06C18.1246 128.067 18.1476 128.079 18.1676 128.096C18.1876 128.112 18.2042 128.132 18.2165 128.155C18.2287 128.177 18.2364 128.202 18.2391 128.228C18.2417 128.253 18.2393 128.279 18.2319 128.304C18.2202 128.342 18.1977 128.375 18.1671 128.4C18.1365 128.425 18.0992 128.44 18.0599 128.444Z" fill="white"/>
<path d="M160.732 145.504L157.004 145.076L156.04 137.564L160.596 138.916L160.732 145.504Z" fill="#B16668"/>
<path d="M152.564 151.632C152.51 151.78 152.488 151.938 152.499 152.095C152.51 152.252 152.554 152.405 152.628 152.544C153.028 153.008 154.06 153.552 155.468 153.652C156.816 153.748 158.016 153.568 158.804 153.068C159.147 152.891 159.44 152.632 159.658 152.313C159.876 151.995 160.011 151.628 160.052 151.244C160.128 150.48 160.052 149.74 160.408 149.152C160.764 148.564 161.28 147.992 161.396 147.696C161.535 147.185 161.535 146.647 161.396 146.136L152.564 151.632Z" fill="#263238"/>
<path d="M156.248 144.944C156.236 145.234 156.184 145.521 156.092 145.796C155.886 146.388 155.609 146.954 155.268 147.48C155.101 147.76 154.913 148.027 154.708 148.28C154.308 148.764 153.796 149.164 153.364 149.628C152.906 150.065 152.612 150.647 152.532 151.276C152.476 152.332 154.156 152.692 155.04 152.848C155.994 153.015 156.972 152.965 157.904 152.704C158.393 152.576 158.836 152.311 159.178 151.938C159.52 151.566 159.747 151.102 159.832 150.604C159.884 150.308 159.864 150.008 159.9 149.716C160.017 149.042 160.298 148.407 160.72 147.868C160.965 147.557 161.176 147.22 161.348 146.864C161.624 146.212 161.404 145.476 161.228 144.828C161.076 144.264 160.892 143.628 160.692 143.672C160.692 143.964 160.692 144.004 160.496 144.2C160.3 144.396 160.224 144.828 159.944 145.048C160.033 144.804 160.099 144.552 160.14 144.296C160.158 144.193 160.136 144.088 160.08 144C159.987 143.917 159.876 143.857 159.756 143.824C159.34 143.685 158.911 143.587 158.476 143.532C157.882 143.464 157.282 143.464 156.688 143.532C156.564 143.554 156.452 143.619 156.372 143.716C156.3 143.822 156.261 143.948 156.26 144.076C156.24 144.228 156.256 144.664 156.248 144.944Z" fill="#455A64"/>
<path d="M155.124 147.704C155.524 147.408 156.936 147.404 157.416 147.456C157.905 147.498 158.376 147.663 158.784 147.936C158.844 147.979 158.917 147.999 158.99 147.993C159.063 147.987 159.132 147.956 159.184 147.904C159.214 147.874 159.238 147.838 159.253 147.798C159.268 147.758 159.274 147.715 159.271 147.673C159.268 147.63 159.256 147.589 159.235 147.551C159.215 147.514 159.186 147.481 159.152 147.456C158.704 147.125 158.172 146.927 157.616 146.884C156.923 146.833 156.227 146.874 155.544 147.004C155.544 147.004 155.008 147.352 155.124 147.704Z" fill="#F5F5F5"/>
<path d="M154.22 148.8C154.716 148.508 156.22 148.548 156.704 148.6C157.184 148.65 157.642 148.825 158.032 149.108C158.092 149.15 158.165 149.17 158.238 149.164C158.311 149.158 158.379 149.127 158.432 149.076C158.462 149.046 158.486 149.01 158.501 148.97C158.516 148.93 158.522 148.888 158.519 148.845C158.516 148.803 158.504 148.761 158.483 148.724C158.463 148.686 158.434 148.654 158.4 148.628C157.744 148.289 157.028 148.079 156.292 148.012C155.092 147.928 154.8 148.168 154.8 148.168C154.662 148.224 154.539 148.309 154.438 148.419C154.338 148.528 154.263 148.659 154.22 148.8Z" fill="#F5F5F5"/>
<path d="M158.088 145.752C157.411 145.675 156.726 145.717 156.064 145.876C155.856 145.992 155.716 146.324 155.852 146.408C156.456 146.245 157.083 146.183 157.708 146.224C158.151 146.268 158.584 146.387 158.988 146.576C159.092 146.624 159.212 146.684 159.316 146.744C159.349 146.765 159.387 146.779 159.426 146.785C159.466 146.79 159.505 146.787 159.543 146.776C159.581 146.764 159.616 146.745 159.646 146.719C159.676 146.692 159.7 146.66 159.716 146.624C159.744 146.565 159.75 146.498 159.732 146.435C159.713 146.372 159.672 146.318 159.616 146.284C159.151 146 158.629 145.818 158.088 145.752Z" fill="#F5F5F5"/>
<path d="M146.832 142.088L143.288 141.1V133.936L147.684 134.128L146.832 142.088Z" fill="#B16668"/>
<path d="M135.8 145.924C135.7 146.233 135.719 146.568 135.852 146.864C135.984 147.136 137.42 147.948 139.356 147.816C140.79 147.713 142.171 147.23 143.356 146.416C144.092 145.928 144.86 145.836 145.82 145.784C146.78 145.732 148.036 145.248 148.248 144.8C148.356 144.399 148.345 143.975 148.216 143.58L135.8 145.924Z" fill="#263238"/>
<path d="M143.6 139.884L143.448 139.852C143.364 139.832 143.276 139.832 143.192 139.852C143.099 139.883 143.016 139.938 142.952 140.012C142.763 140.256 142.598 140.517 142.46 140.792C142.06 141.452 141.2 141.992 140.272 142.5C139.64 142.84 139.02 143.104 138.368 143.396C137.716 143.688 136.816 143.88 136.296 144.232C135.536 144.744 135.436 146.028 136.296 146.536C137.04 146.976 139.008 147.452 141.068 146.868C142.188 146.548 143.436 145.352 144.908 145.236C145.844 145.16 147.616 144.9 148.22 144.188C148.444 143.872 148.144 142.872 147.9 142.008C147.632 141.064 147.38 139.608 147.068 139.676C147.071 139.744 147.057 139.811 147.029 139.872C147 139.933 146.957 139.987 146.904 140.028C146.788 140.148 146.632 140.224 146.504 140.332C146.286 140.547 146.109 140.801 145.984 141.08C145.933 141.205 145.84 141.307 145.72 141.368C145.56 141.424 145.444 141.328 145.32 141.264C145.144 141.184 144.945 141.169 144.76 141.224C144.779 141.037 144.813 140.851 144.86 140.668C144.878 140.611 144.878 140.549 144.86 140.492C144.837 140.434 144.795 140.386 144.74 140.356C144.397 140.121 144.009 139.96 143.6 139.884Z" fill="#455A64"/>
<path d="M141.16 141.976C141.227 141.847 141.326 141.736 141.447 141.655C141.568 141.574 141.707 141.525 141.852 141.512C142.276 141.432 143.028 141.748 143.496 142.132C143.541 142.168 143.576 142.214 143.599 142.266C143.621 142.319 143.631 142.376 143.626 142.433C143.621 142.49 143.602 142.545 143.571 142.593C143.54 142.641 143.498 142.68 143.448 142.708C143.385 142.744 143.313 142.758 143.241 142.751C143.169 142.743 143.102 142.712 143.048 142.664C142.532 142.198 141.855 141.952 141.16 141.976Z" fill="#F5F5F5"/>
<path d="M139.836 142.716C139.929 142.585 140.052 142.478 140.195 142.404C140.337 142.33 140.496 142.292 140.656 142.292C141.314 142.321 141.945 142.558 142.46 142.968C142.502 143.003 142.535 143.048 142.556 143.098C142.578 143.149 142.586 143.204 142.581 143.259C142.577 143.313 142.559 143.366 142.529 143.412C142.5 143.458 142.46 143.497 142.412 143.524C142.35 143.561 142.277 143.577 142.205 143.569C142.133 143.562 142.065 143.53 142.012 143.48C141.729 143.199 141.387 142.984 141.011 142.852C140.634 142.72 140.233 142.673 139.836 142.716Z" fill="#F5F5F5"/>
<path d="M138.4 143.38C138.506 143.259 138.636 143.163 138.783 143.097C138.929 143.032 139.088 142.998 139.248 143C139.881 143.039 140.486 143.277 140.976 143.68C141.018 143.716 141.051 143.761 141.072 143.812C141.093 143.862 141.102 143.918 141.097 143.972C141.093 144.027 141.075 144.08 141.045 144.127C141.016 144.173 140.976 144.212 140.928 144.24C140.866 144.278 140.793 144.294 140.721 144.286C140.648 144.278 140.581 144.246 140.528 144.196C140.261 143.905 139.929 143.679 139.56 143.538C139.191 143.396 138.794 143.342 138.4 143.38Z" fill="#F5F5F5"/>
<path d="M159.916 95.3482C160.16 102.736 160.176 118.736 160.176 118.736C160.252 119.656 160.332 121.288 160.4 124.6C160.5 129.4 160.732 141.252 160.732 141.252C160.732 141.252 158.44 142.328 156.332 141.452C156.332 141.452 153.404 124.788 152.804 120.036C152.28 115.888 151.276 106.16 151.276 106.16L149.892 118.508C149.892 118.508 149.892 121.708 149.704 124.532C149.548 126.732 147.412 138.064 147.412 138.064C146.017 138.435 144.544 138.386 143.176 137.924C143.176 137.924 142.984 120.528 142.944 118.508C142.9 116.212 143.492 91.3882 143.492 91.3882L159.916 95.3482Z" fill="#455A64"/>
<path d="M151.284 106.16L150.756 101.972C149.051 101.536 147.439 100.796 145.996 99.7881C145.996 99.7881 147.012 101.148 149.996 102.588L150.668 106.388L149.908 118.508L151.284 106.16Z" fill="#37474F"/>
<path d="M143.304 74.616C142.224 76.032 136.668 83.656 136.668 83.656L131.536 79.68C130.336 78.74 129.98 77.508 129.228 76.656C128.476 75.804 127.652 75.6 126.808 74.888C125.964 74.176 125.64 73.636 125.352 74.244C125.064 74.852 125.996 75.912 126.152 76.168C126.308 76.424 127.272 77.036 126 76.968C124.728 76.9 122.28 75.448 121.688 75.18C121.096 74.912 121.08 75.644 121.36 76.124C121.64 76.604 121.5 77.94 121.828 78.8C122.156 79.66 122.732 80.188 123.904 80.768C124.996 81.312 127.652 81.652 128.516 82.196C130.412 84.14 133.988 87.768 134.892 88.44C136.136 89.364 137.34 90.216 139.244 88.384C141.148 86.552 146.664 79.364 146.664 79.364L147.804 72.528C145.932 72.46 144.608 72.908 143.304 74.616Z" fill="#B16668"/>
<path d="M136.668 83.6561C137.372 84.1761 138.104 85.3441 138.172 85.8681C138.164 85.3717 138.053 84.8822 137.847 84.4307C137.64 83.9791 137.342 83.5751 136.972 83.2441L136.668 83.6561Z" fill="#9A4A4D"/>
<path d="M148.244 72.36C148.244 72.36 145.604 72.328 144.444 73.14C143.284 73.952 142.424 75.14 140.54 77.88C138.888 80.28 138.088 81.432 138.088 81.432C139.169 83.0317 140.744 84.234 142.572 84.856L147.5 78.752L148.244 72.36Z" fill="#37474F"/>
<path d="M153.352 72.2321C154.848 72.3761 156.952 72.3921 158.432 72.5441C159.46 72.9681 161.444 74.6961 161.296 75.9281C160.744 80.5321 159.628 88.0801 159.628 88.0801L159.996 96.0801C157.936 98.1361 148.296 98.9401 143.328 95.6521C143.328 95.6521 143.488 81.2841 143.832 78.8521C144.444 74.4961 144.98 72.8801 147.228 72.4961C149.476 72.1121 153.352 72.2321 153.352 72.2321Z" fill="#1E90FF"/>
<path d="M161.824 74.7322C162.904 76.1482 168.464 83.7722 168.464 83.7722L173.6 79.7962C174.8 78.8522 175.156 77.6202 175.908 76.7722C176.66 75.9242 177.484 75.7162 178.328 75.0042C179.172 74.2922 179.496 73.7522 179.784 74.3562C180.072 74.9602 179.14 76.0282 178.984 76.2842C178.828 76.5402 177.864 77.1522 179.136 77.0842C180.408 77.0162 182.852 75.5602 183.448 75.2922C184.044 75.0242 184.052 75.7562 183.776 76.2362C183.5 76.7162 183.632 78.0562 183.308 78.9162C182.984 79.7762 182.404 80.3002 181.232 80.8842C180.14 81.4282 177.484 81.7682 176.62 82.3122C174.724 84.2522 171.148 87.8842 170.244 88.5522C169 89.4762 167.796 90.3282 165.892 88.5002C163.988 86.6722 159.636 80.9802 159.636 80.9802L157.332 72.6442C159.2 72.5762 160.524 73.0242 161.824 74.7322Z" fill="#B16668"/>
<path d="M168.464 83.772C167.76 84.292 167.028 85.46 166.96 85.984C166.968 85.4868 167.078 84.9966 167.285 84.5443C167.491 84.092 167.789 83.6874 168.16 83.356L168.464 83.772Z" fill="#9A4A4D"/>
<path d="M157.068 72.4444C157.068 72.4444 159.44 72.2964 160.688 73.2444C161.812 74.1084 162.688 75.2444 164.592 77.9844C166.244 80.3844 167.044 81.5364 167.044 81.5364C165.96 83.1355 164.385 84.3376 162.556 84.9604L159.2 80.8244C157.452 78.6084 155.72 75.2364 157.068 72.4444Z" fill="#37474F"/>
<path d="M153.724 61.4005C153.732 62.3181 153.468 63.2175 152.964 63.9849C152.461 64.7523 151.742 65.3532 150.897 65.7117C150.052 66.0701 149.12 66.17 148.218 65.9988C147.317 65.8275 146.486 65.3927 145.832 64.7494C145.177 64.1061 144.728 63.2832 144.541 62.3848C144.355 61.4863 144.439 60.5526 144.782 59.7017C145.126 58.8509 145.715 58.1211 146.473 57.6047C147.232 57.0883 148.127 56.8084 149.044 56.8005C149.654 56.7952 150.258 56.91 150.823 57.1383C151.388 57.3666 151.902 57.704 152.337 58.1312C152.771 58.5583 153.118 59.0669 153.356 59.6278C153.594 60.1888 153.719 60.7911 153.724 61.4005Z" fill="#263238"/>
<path d="M157.136 64.6719C157.136 64.6719 156.412 68.2119 156.116 68.7919C155.919 69.1521 155.591 69.4227 155.2 69.5479L155.228 67.0599L157.136 64.6719Z" fill="#263238"/>
<path d="M156.148 59.62C156.41 59.5864 156.677 59.6132 156.927 59.6985C157.177 59.7838 157.405 59.9253 157.592 60.112C158.216 60.74 157.888 62.724 157.136 64.672L155.72 64.848L156.148 59.62Z" fill="#263238"/>
<path d="M155.296 64.8524C155.58 65.0204 155.98 64.4524 156.328 64.1004C156.676 63.7484 157.812 63.2204 158.396 64.4164C158.98 65.6124 157.916 67.2644 157.02 67.5524C155.472 68.0564 155.228 67.0604 155.228 67.0604L155.164 72.8284C153.26 75.3204 147.904 75.1564 150.112 72.5564V70.8524C149.423 70.9681 148.723 71.0096 148.024 70.9764C146.88 70.8124 146.156 69.9164 145.796 68.6844C145.224 66.7084 144.996 65.1084 145.436 61.2004C145.916 56.9204 150.888 56.8324 153.588 58.5004C156.288 60.1684 155.296 64.8524 155.296 64.8524Z" fill="#B16668"/>
<path d="M155.3 65.3282C155.44 65.3282 155.976 64.4242 156.328 64.1002C156.812 63.6482 156.148 59.6202 156.148 59.6202C156.314 59.2628 156.369 58.8636 156.304 58.4747C156.24 58.0858 156.06 57.7253 155.788 57.4402C155.112 56.7082 154.168 55.8162 151.128 56.2002C148.956 56.4762 146.6 57.1762 144.684 56.2562C144.513 56.88 144.533 57.5404 144.739 58.1532C144.946 58.7659 145.331 59.3031 145.844 59.6962C145.844 59.6962 146.54 60.1362 148.36 60.3402C150.038 60.4506 151.723 60.4038 153.392 60.2002C153.92 60.1242 154.036 60.6322 154.332 62.0282C154.592 63.2482 154.82 65.3242 155.3 65.3282Z" fill="#263238"/>
<path d="M156.148 59.9322L157.856 58.9962C157.801 58.8806 157.722 58.7775 157.626 58.6932C157.529 58.6089 157.416 58.5452 157.294 58.5059C157.172 58.4666 157.044 58.4526 156.916 58.4646C156.788 58.4767 156.665 58.5147 156.552 58.5762C156.323 58.7068 156.154 58.9206 156.078 59.1732C156.003 59.4257 156.028 59.6976 156.148 59.9322Z" fill="#263238"/>
<path d="M150.1 70.8524C150.1 70.8524 152.644 70.3164 153.528 69.8364C154.049 69.5594 154.474 69.1313 154.748 68.6084C154.619 69.1294 154.386 69.6192 154.064 70.0484C153.42 70.8884 150.108 71.5284 150.108 71.5284L150.1 70.8524Z" fill="#9A4A4D"/>
<path d="M149.896 64.4444C149.895 64.5125 149.907 64.5801 149.933 64.6434C149.958 64.7067 149.995 64.7643 150.043 64.813C150.091 64.8618 150.147 64.9006 150.21 64.9272C150.273 64.9539 150.34 64.9679 150.408 64.9684C150.514 64.9724 150.619 64.9444 150.71 64.8881C150.8 64.8317 150.871 64.7496 150.914 64.6524C150.957 64.5551 150.97 64.4471 150.952 64.3424C150.933 64.2377 150.883 64.1411 150.809 64.065C150.734 63.9889 150.639 63.9368 150.534 63.9155C150.43 63.8943 150.322 63.9047 150.224 63.9456C150.126 63.9864 150.042 64.0558 149.983 64.1447C149.925 64.2336 149.895 64.338 149.896 64.4444Z" fill="#263238"/>
<path d="M151.412 62.6879L150.276 62.1719C150.21 62.3272 150.207 62.5021 150.266 62.66C150.326 62.818 150.444 62.9469 150.596 63.0199C150.671 63.0532 150.752 63.071 150.835 63.0723C150.917 63.0735 150.998 63.0582 151.075 63.0272C151.151 62.9962 151.22 62.9502 151.278 62.8919C151.336 62.8336 151.382 62.7642 151.412 62.6879Z" fill="#263238"/>
<path d="M146.552 62.0601L145.564 62.8361C145.611 62.9034 145.671 62.9603 145.741 63.0033C145.81 63.0464 145.888 63.0746 145.969 63.0862C146.05 63.0979 146.133 63.0927 146.212 63.071C146.291 63.0493 146.364 63.0115 146.428 62.9601C146.559 62.8539 146.645 62.7018 146.668 62.5346C146.691 62.3674 146.65 62.1977 146.552 62.0601Z" fill="#263238"/>
<path d="M145.956 64.3201C145.961 64.4156 145.993 64.5077 146.05 64.5848C146.107 64.6619 146.185 64.7207 146.274 64.7538C146.364 64.787 146.461 64.7931 146.555 64.7713C146.648 64.7495 146.732 64.7008 146.798 64.6313C146.864 64.5618 146.908 64.4746 146.924 64.3804C146.941 64.2862 146.929 64.1892 146.891 64.1015C146.853 64.0138 146.79 63.9392 146.71 63.8871C146.629 63.8349 146.536 63.8074 146.44 63.8081C146.375 63.8097 146.31 63.8242 146.25 63.8508C146.19 63.8774 146.136 63.9156 146.091 63.9632C146.046 64.0108 146.011 64.0669 145.988 64.1281C145.965 64.1894 145.954 64.2546 145.956 64.3201Z" fill="#263238"/>
<path d="M148.604 63.9082L148.316 66.9682L146.736 66.3602L148.604 63.9082Z" fill="#9A4A4D"/>
<path d="M149.472 68.1159C149.471 68.2134 149.499 68.3089 149.553 68.3904C149.606 68.4718 149.683 68.5355 149.773 68.5733C149.863 68.6112 149.962 68.6215 150.057 68.603C150.153 68.5844 150.241 68.5379 150.31 68.4692C150.38 68.4006 150.427 68.3129 150.446 68.2174C150.465 68.1218 150.456 68.0227 150.419 67.9326C150.382 67.8424 150.319 67.7654 150.238 67.7111C150.157 67.6569 150.061 67.6279 149.964 67.6279C149.834 67.6279 149.71 67.6792 149.617 67.7706C149.525 67.862 149.473 67.9861 149.472 68.1159Z" fill="#9A4A4D"/>
<path d="M161.96 35.5278C162.723 35.6977 163.458 35.9737 164.144 36.3478C164.8 36.701 165.388 37.1683 165.88 37.7278C166.353 38.2699 166.703 38.9088 166.904 39.5998C167.114 40.3324 167.131 41.107 166.952 41.8478C166.833 42.4359 166.599 42.9947 166.264 43.4918C165.962 43.9196 165.6 44.3009 165.188 44.6238C164.785 44.9367 164.355 45.2137 163.904 45.4518L162.632 46.1238C162.248 46.3242 161.884 46.5599 161.544 46.8278C161.237 47.0609 161.001 47.3755 160.864 47.7358C160.795 47.8965 160.683 48.0349 160.54 48.1358C160.471 48.1882 160.392 48.2244 160.307 48.2417C160.223 48.2591 160.135 48.257 160.052 48.2358L158.18 47.8358C158.09 47.8169 158.005 47.7802 157.929 47.728C157.854 47.6759 157.789 47.6092 157.74 47.5318C157.687 47.4594 157.653 47.3757 157.639 47.2874C157.625 47.1991 157.632 47.1088 157.66 47.0238C157.816 46.4419 158.088 45.8977 158.46 45.4238C158.795 45.0056 159.182 44.632 159.612 44.3118C160.027 44.0081 160.467 43.7405 160.928 43.5118C161.384 43.2838 161.808 43.0638 162.2 42.8478C162.558 42.6585 162.895 42.4304 163.204 42.1678C163.473 41.941 163.66 41.6317 163.736 41.2878C163.805 40.9875 163.8 40.6749 163.722 40.3767C163.644 40.0786 163.495 39.8038 163.288 39.5758C162.771 39.0106 162.079 38.6346 161.324 38.5078C159.926 38.1958 158.745 38.6665 157.78 39.9198C157.687 40.057 157.569 40.1752 157.432 40.2678C157.358 40.3056 157.276 40.3283 157.193 40.3345C157.11 40.3406 157.027 40.3302 156.948 40.3038L154.948 39.8598C154.877 39.8462 154.81 39.8187 154.75 39.7789C154.691 39.739 154.639 39.6877 154.6 39.6278C154.556 39.5665 154.527 39.4964 154.514 39.4224C154.501 39.3483 154.504 39.2723 154.524 39.1998C154.692 38.5851 155.008 38.0207 155.444 37.5558C155.933 37.0156 156.514 36.566 157.16 36.2278C157.867 35.8563 158.631 35.6023 159.42 35.4758C160.262 35.3277 161.125 35.3453 161.96 35.5278ZM159.848 49.7438C159.936 49.7626 160.019 49.7993 160.092 49.8516C160.164 49.9039 160.226 49.9707 160.272 50.0478C160.321 50.1225 160.355 50.2064 160.37 50.2944C160.386 50.3824 160.384 50.4727 160.364 50.5598L159.884 52.7278C159.844 52.9009 159.738 53.0515 159.588 53.1478C159.439 53.2441 159.258 53.2786 159.084 53.2438L156.964 52.7758C156.876 52.7571 156.794 52.7209 156.721 52.6693C156.648 52.6177 156.586 52.5519 156.54 52.4758C156.49 52.4015 156.456 52.3176 156.44 52.2295C156.424 52.1413 156.427 52.0509 156.448 51.9638L156.928 49.7918C156.968 49.6188 157.074 49.4681 157.223 49.3718C157.373 49.2755 157.554 49.2411 157.728 49.2758L159.848 49.7438Z" fill="#1E90FF"/>
<path d="M168.248 55.9237C168.777 55.8365 169.316 55.8257 169.848 55.8917C170.359 55.9498 170.856 56.0988 171.316 56.3317C171.754 56.5561 172.139 56.8726 172.444 57.2597C172.767 57.6745 172.975 58.167 173.048 58.6877C173.131 59.0928 173.131 59.5106 173.048 59.9157C172.964 60.2682 172.83 60.6065 172.648 60.9197C172.469 61.2216 172.266 61.508 172.04 61.7757L171.396 62.5357C171.202 62.763 171.028 63.0066 170.876 63.2637C170.74 63.4923 170.671 63.754 170.676 64.0197C170.675 64.1445 170.639 64.2665 170.572 64.3717C170.541 64.422 170.5 64.4649 170.451 64.4974C170.402 64.5299 170.346 64.5512 170.288 64.5597L168.98 64.7757C168.853 64.7956 168.724 64.7654 168.62 64.6917C168.568 64.6582 168.525 64.6133 168.494 64.5606C168.463 64.5079 168.444 64.4488 168.44 64.3877C168.385 63.9777 168.416 63.5609 168.532 63.1637C168.635 62.8073 168.787 62.4668 168.984 62.1517C169.171 61.85 169.384 61.565 169.62 61.2997C169.856 61.0357 170.068 60.7877 170.268 60.5477C170.448 60.3344 170.605 60.1024 170.736 59.8557C170.85 59.6415 170.891 59.3954 170.852 59.1557C170.819 58.945 170.736 58.7453 170.609 58.5739C170.482 58.4025 170.316 58.2645 170.124 58.1717C169.65 57.9401 169.111 57.8753 168.596 57.9877C168.129 58.0564 167.696 58.2673 167.353 58.5916C167.011 58.9158 166.777 59.3377 166.684 59.7997C166.658 59.9125 166.612 60.0197 166.548 60.1157C166.47 60.2008 166.363 60.2524 166.248 60.2597L164.856 60.4877C164.757 60.504 164.655 60.4825 164.572 60.4277C164.528 60.3994 164.491 60.3617 164.463 60.3175C164.436 60.2733 164.418 60.2235 164.412 60.1717C164.363 59.7348 164.422 59.2926 164.584 58.8837C164.757 58.4109 165.015 57.9732 165.344 57.5917C165.702 57.173 166.127 56.815 166.6 56.5317C167.104 56.224 167.664 56.0174 168.248 55.9237ZM170.532 65.5997C170.593 65.5894 170.656 65.5915 170.716 65.606C170.777 65.6204 170.834 65.6468 170.884 65.6837C170.934 65.7193 170.976 65.7645 171.008 65.8167C171.041 65.8689 171.062 65.927 171.072 65.9877L171.32 67.4997C171.33 67.561 171.328 67.6238 171.313 67.6842C171.299 67.7447 171.273 67.8016 171.236 67.8517C171.201 67.9022 171.156 67.945 171.103 67.9773C171.051 68.0097 170.993 68.0309 170.932 68.0397L169.452 68.2837C169.391 68.2937 169.329 68.2914 169.269 68.2769C169.209 68.2625 169.153 68.2362 169.104 68.1997C169.052 68.165 169.009 68.1201 168.976 68.0678C168.943 68.0155 168.921 67.9569 168.912 67.8957L168.664 66.3797C168.645 66.2551 168.677 66.1283 168.752 66.027C168.827 65.9258 168.939 65.8585 169.064 65.8397L170.532 65.5997Z" fill="#1E90FF"/>
<g opacity="0.2">
<path d="M168.248 55.9237C168.777 55.8365 169.316 55.8257 169.848 55.8917C170.359 55.9498 170.856 56.0988 171.316 56.3317C171.754 56.5561 172.139 56.8726 172.444 57.2597C172.767 57.6745 172.975 58.167 173.048 58.6877C173.131 59.0928 173.131 59.5106 173.048 59.9157C172.964 60.2682 172.83 60.6065 172.648 60.9197C172.469 61.2216 172.266 61.508 172.04 61.7757L171.396 62.5357C171.202 62.763 171.028 63.0066 170.876 63.2637C170.74 63.4923 170.671 63.754 170.676 64.0197C170.675 64.1445 170.639 64.2665 170.572 64.3717C170.541 64.422 170.5 64.4649 170.451 64.4974C170.402 64.5299 170.346 64.5512 170.288 64.5597L168.98 64.7757C168.853 64.7956 168.724 64.7654 168.62 64.6917C168.568 64.6582 168.525 64.6133 168.494 64.5606C168.463 64.5079 168.444 64.4488 168.44 64.3877C168.385 63.9777 168.416 63.5609 168.532 63.1637C168.635 62.8073 168.787 62.4668 168.984 62.1517C169.171 61.85 169.384 61.565 169.62 61.2997C169.856 61.0357 170.068 60.7877 170.268 60.5477C170.448 60.3344 170.605 60.1024 170.736 59.8557C170.85 59.6415 170.891 59.3954 170.852 59.1557C170.819 58.945 170.736 58.7453 170.609 58.5739C170.482 58.4025 170.316 58.2645 170.124 58.1717C169.65 57.9401 169.111 57.8753 168.596 57.9877C168.129 58.0564 167.696 58.2673 167.353 58.5916C167.011 58.9158 166.777 59.3377 166.684 59.7997C166.658 59.9125 166.612 60.0197 166.548 60.1157C166.47 60.2008 166.363 60.2524 166.248 60.2597L164.856 60.4877C164.757 60.504 164.655 60.4825 164.572 60.4277C164.528 60.3994 164.491 60.3617 164.463 60.3175C164.436 60.2733 164.418 60.2235 164.412 60.1717C164.363 59.7348 164.422 59.2926 164.584 58.8837C164.757 58.4109 165.015 57.9732 165.344 57.5917C165.702 57.173 166.127 56.815 166.6 56.5317C167.104 56.224 167.664 56.0174 168.248 55.9237ZM170.532 65.5997C170.593 65.5894 170.656 65.5915 170.716 65.606C170.777 65.6204 170.834 65.6468 170.884 65.6837C170.934 65.7193 170.976 65.7645 171.008 65.8167C171.041 65.8689 171.062 65.927 171.072 65.9877L171.32 67.4997C171.33 67.561 171.328 67.6238 171.313 67.6842C171.299 67.7447 171.273 67.8016 171.236 67.8517C171.201 67.9022 171.156 67.945 171.103 67.9773C171.051 68.0097 170.993 68.0309 170.932 68.0397L169.452 68.2837C169.391 68.2937 169.329 68.2914 169.269 68.2769C169.209 68.2625 169.153 68.2362 169.104 68.1997C169.052 68.165 169.009 68.1201 168.976 68.0678C168.943 68.0155 168.921 67.9569 168.912 67.8957L168.664 66.3797C168.645 66.2551 168.677 66.1283 168.752 66.027C168.827 65.9258 168.939 65.8585 169.064 65.8397L170.532 65.5997Z" fill="black"/>
</g>
<path d="M181.888 60.2156C182.007 60.3022 182.087 60.4318 182.111 60.5768C182.136 60.7217 182.103 60.8706 182.02 60.9916L180.964 62.4716C180.877 62.5904 180.748 62.6707 180.603 62.6954C180.458 62.72 180.309 62.6871 180.188 62.6036L178.74 61.5756C178.68 61.5338 178.629 61.4804 178.591 61.4185C178.552 61.3567 178.527 61.2876 178.516 61.2156C178.495 61.0755 178.528 60.9325 178.608 60.8156L179.664 59.3316C179.749 59.2123 179.879 59.1318 180.024 59.1076C180.164 59.0865 180.308 59.1209 180.424 59.2036L181.888 60.2156ZM188 50.1796C188.522 50.548 188.988 50.9899 189.384 51.4916C189.766 51.9691 190.06 52.5109 190.252 53.0916C190.435 53.6466 190.497 54.2347 190.432 54.8156C190.357 55.4342 190.122 56.0227 189.752 56.5236C189.475 56.9286 189.122 57.2752 188.712 57.5436C188.347 57.7701 187.951 57.9413 187.536 58.0516C187.133 58.159 186.723 58.2313 186.308 58.2676L185.132 58.3676C184.781 58.3999 184.433 58.4614 184.092 58.5516C183.787 58.6322 183.51 58.7956 183.292 59.0236C183.187 59.1257 183.057 59.1987 182.916 59.2356C182.847 59.2519 182.775 59.2528 182.706 59.2383C182.637 59.2238 182.572 59.1942 182.516 59.1516L181.236 58.2436C181.114 58.1557 181.03 58.0237 181.004 57.8756C180.988 57.8058 180.99 57.7333 181.007 57.6639C181.024 57.5945 181.057 57.5301 181.104 57.4756C181.401 57.0853 181.776 56.76 182.204 56.5196C182.589 56.3084 183.001 56.1497 183.428 56.0476C183.838 55.9486 184.255 55.8843 184.676 55.8556C185.076 55.8316 185.476 55.7996 185.844 55.7636C186.174 55.7351 186.5 55.6694 186.816 55.5676C187.091 55.4839 187.33 55.3107 187.496 55.0756C187.644 54.8719 187.741 54.635 187.777 54.3854C187.814 54.1359 187.788 53.8812 187.704 53.6436C187.495 53.0541 187.095 52.5514 186.568 52.2156C185.616 51.5356 184.576 51.513 183.448 52.1476C183.334 52.2203 183.208 52.2718 183.076 52.2996C183.007 52.3045 182.938 52.2957 182.873 52.2737C182.808 52.2518 182.747 52.217 182.696 52.1716L181.336 51.2036C181.237 51.1363 181.168 51.033 181.144 50.9156C181.132 50.8556 181.134 50.7938 181.148 50.7344C181.163 50.6751 181.19 50.6195 181.228 50.5716C181.544 50.1625 181.956 49.837 182.428 49.6236C182.969 49.3734 183.55 49.2204 184.144 49.1716C184.794 49.1186 185.449 49.1699 186.084 49.3236C186.773 49.4791 187.424 49.7701 188 50.1796Z" fill="#1E90FF"/>
<g opacity="0.6">
<path d="M181.888 60.2156C182.007 60.3022 182.087 60.4318 182.111 60.5768C182.136 60.7217 182.103 60.8706 182.02 60.9916L180.964 62.4716C180.877 62.5904 180.748 62.6707 180.603 62.6954C180.458 62.72 180.309 62.6871 180.188 62.6036L178.74 61.5756C178.68 61.5338 178.629 61.4804 178.591 61.4185C178.552 61.3567 178.527 61.2876 178.516 61.2156C178.495 61.0755 178.528 60.9325 178.608 60.8156L179.664 59.3316C179.749 59.2123 179.879 59.1318 180.024 59.1076C180.164 59.0865 180.308 59.1209 180.424 59.2036L181.888 60.2156ZM188 50.1796C188.522 50.548 188.988 50.9899 189.384 51.4916C189.766 51.9691 190.06 52.5109 190.252 53.0916C190.435 53.6466 190.497 54.2347 190.432 54.8156C190.357 55.4342 190.122 56.0227 189.752 56.5236C189.475 56.9286 189.122 57.2752 188.712 57.5436C188.347 57.7701 187.951 57.9413 187.536 58.0516C187.133 58.159 186.723 58.2313 186.308 58.2676L185.132 58.3676C184.781 58.3999 184.433 58.4614 184.092 58.5516C183.787 58.6322 183.51 58.7956 183.292 59.0236C183.187 59.1257 183.057 59.1987 182.916 59.2356C182.847 59.2519 182.775 59.2528 182.706 59.2383C182.637 59.2238 182.572 59.1942 182.516 59.1516L181.236 58.2436C181.114 58.1557 181.03 58.0237 181.004 57.8756C180.988 57.8058 180.99 57.7333 181.007 57.6639C181.024 57.5945 181.057 57.5301 181.104 57.4756C181.401 57.0853 181.776 56.76 182.204 56.5196C182.589 56.3084 183.001 56.1497 183.428 56.0476C183.838 55.9486 184.255 55.8843 184.676 55.8556C185.076 55.8316 185.476 55.7996 185.844 55.7636C186.174 55.7351 186.5 55.6694 186.816 55.5676C187.091 55.4839 187.33 55.3107 187.496 55.0756C187.644 54.8719 187.741 54.635 187.777 54.3854C187.814 54.1359 187.788 53.8812 187.704 53.6436C187.495 53.0541 187.095 52.5514 186.568 52.2156C185.616 51.5356 184.576 51.513 183.448 52.1476C183.334 52.2203 183.208 52.2718 183.076 52.2996C183.007 52.3045 182.938 52.2957 182.873 52.2737C182.808 52.2518 182.747 52.217 182.696 52.1716L181.336 51.2036C181.237 51.1363 181.168 51.033 181.144 50.9156C181.132 50.8556 181.134 50.7938 181.148 50.7344C181.163 50.6751 181.19 50.6195 181.228 50.5716C181.544 50.1625 181.956 49.837 182.428 49.6236C182.969 49.3734 183.55 49.2204 184.144 49.1716C184.794 49.1186 185.449 49.1699 186.084 49.3236C186.773 49.4791 187.424 49.7701 188 50.1796Z" fill="white"/>
</g>
<path d="M52.9921 139.408C52.9521 138.208 53.8161 126.48 53.8161 126.48L48.1041 130.624C49.2761 137.616 49.5281 139.268 49.5481 140.412C49.524 140.507 49.5132 140.606 49.5161 140.704C49.5161 142.064 51.0561 142.796 52.2521 143.704C53.2687 144.499 54.3513 145.205 55.4881 145.816C56.3561 146.252 58.1241 146.292 58.3401 145.732C56.8841 144.62 54.7681 142.956 53.6081 141.688C53.0561 141.08 53.0361 140.6 52.9921 139.408Z" fill="#FFA8A7"/>
<path d="M60.8242 147.2C60.8889 147.386 60.9004 147.588 60.8573 147.78C60.8142 147.973 60.7182 148.15 60.5802 148.292C59.5311 149.048 58.2254 149.359 56.9482 149.156C55.1322 148.92 54.1482 148.404 53.4242 147.796C52.7002 147.188 51.6802 146.332 50.8562 146.152C50.2011 146.027 49.578 145.771 49.0242 145.4C48.7802 145.164 48.8122 144.116 48.8122 144.116L60.8242 147.2Z" fill="#263238"/>
<path d="M49.536 140.08C49.4688 140.082 49.4043 140.108 49.3539 140.152C49.3035 140.197 49.2703 140.258 49.26 140.324C49.204 140.612 49.144 141.452 49.024 141.924C48.8384 142.758 48.7791 143.616 48.848 144.468C48.948 145.008 50.188 145.38 50.984 145.668C51.9201 146.076 52.7888 146.623 53.56 147.292C54.6731 148.125 56.0017 148.62 57.388 148.72C58.788 148.72 60.364 148.256 60.728 147.608C61.172 146.808 60.824 146.34 58.748 145.376C58.348 145.196 56.976 144.376 56.504 144.08C55.232 143.28 53.972 142.164 53.384 140.748C53.3366 140.575 53.2324 140.423 53.088 140.316C52.962 140.262 52.8223 140.248 52.688 140.276C52.3413 140.327 52.0042 140.429 51.688 140.58C51.412 140.712 51.016 140.868 51.02 141.224C51.0286 141.347 51.0555 141.469 51.1 141.584C51.124 141.66 51.144 141.756 51.1 141.8C51.056 141.844 50.96 141.8 50.904 141.744C50.7005 141.536 50.5145 141.311 50.348 141.072C50.2497 140.95 50.1384 140.838 50.016 140.74C49.8937 140.671 49.7761 140.593 49.664 140.508C49.512 140.4 49.544 140.248 49.536 140.08Z" fill="#455A64"/>
<path d="M53.5601 147.312C53.1961 147.016 52.8121 146.724 52.4281 146.468C52.4281 146.468 54.8681 147.952 55.8521 147.268C56.0347 147.152 56.1683 146.973 56.2273 146.765C56.2863 146.557 56.2667 146.334 56.1721 146.14C56.1721 145.972 57.7241 145.248 58.3401 145.176C58.5121 145.272 58.6561 145.348 58.7401 145.388C60.8161 146.352 61.1641 146.816 60.7201 147.62C60.3561 148.268 59.2161 148.776 57.4081 148.776C56.2321 148.8 54.4001 148 53.5601 147.312Z" fill="#37474F"/>
<path d="M56 145.656C57.292 146.172 56.74 146.412 56.38 146.456C56.02 146.5 53.848 145.256 52.52 144.192C51.192 143.128 50.268 141.9 49.756 141.5C49.564 141.352 49.356 141.168 49.172 140.996C49.208 140.712 49.236 140.452 49.26 140.316C49.2702 140.249 49.3035 140.188 49.3539 140.144C49.4043 140.099 49.4687 140.074 49.536 140.072C49.536 140.24 49.512 140.396 49.64 140.52C49.752 140.605 49.8696 140.682 49.992 140.752C50.1143 140.85 50.2257 140.961 50.324 141.084C50.4905 141.323 50.6764 141.548 50.88 141.756C52.3194 143.374 54.0579 144.698 56 145.656Z" fill="#263238"/>
<path d="M56.2882 146.276C56.2586 146.275 56.2303 146.263 56.2082 146.244C56.1952 146.234 56.1843 146.221 56.1762 146.207C56.1682 146.192 56.1631 146.176 56.1612 146.16C56.1593 146.144 56.1608 146.127 56.1654 146.111C56.17 146.095 56.1778 146.081 56.1882 146.068C56.4924 145.752 56.8608 145.505 57.2686 145.343C57.6764 145.182 58.1141 145.11 58.5522 145.132C58.5865 145.136 58.6179 145.153 58.6396 145.18C58.6613 145.207 58.6715 145.241 58.6682 145.276C58.6641 145.309 58.6472 145.339 58.6211 145.36C58.5949 145.381 58.5615 145.391 58.5282 145.388C58.1327 145.371 57.7381 145.438 57.3696 145.582C57.0012 145.727 56.6669 145.947 56.3882 146.228C56.376 146.243 56.3607 146.255 56.3435 146.263C56.3262 146.271 56.3073 146.276 56.2882 146.276Z" fill="#F5F5F5"/>
<path d="M55.164 145.6C55.1335 145.601 55.1036 145.591 55.08 145.572C55.0572 145.548 55.0446 145.515 55.0446 145.482C55.0446 145.449 55.0572 145.416 55.08 145.392C55.3849 145.077 55.7536 144.831 56.1613 144.67C56.569 144.51 57.0063 144.438 57.444 144.46C57.4779 144.464 57.509 144.481 57.5304 144.507C57.5518 144.534 57.5617 144.568 57.558 144.602C57.5543 144.636 57.5372 144.667 57.5106 144.688C57.484 144.71 57.4499 144.72 57.416 144.716C57.0204 144.699 56.6255 144.764 56.2569 144.909C55.8883 145.054 55.5541 145.274 55.276 145.556C55.2624 145.572 55.245 145.584 55.2255 145.592C55.206 145.6 55.1848 145.602 55.164 145.6Z" fill="#F5F5F5"/>
<path d="M54.0362 144.924C54.007 144.924 53.9787 144.915 53.9562 144.896C53.9325 144.872 53.9192 144.84 53.9192 144.806C53.9192 144.772 53.9325 144.74 53.9562 144.716C54.2612 144.402 54.6299 144.156 55.0376 143.995C55.4452 143.834 55.8825 143.762 56.3202 143.784C56.337 143.786 56.3534 143.79 56.3683 143.798C56.3833 143.806 56.3966 143.817 56.4073 143.83C56.4181 143.843 56.4262 143.858 56.4312 143.874C56.4361 143.89 56.4378 143.907 56.4362 143.924C56.4347 143.941 56.4298 143.957 56.422 143.972C56.4141 143.987 56.4034 144 56.3903 144.011C56.3773 144.022 56.3623 144.03 56.3461 144.035C56.33 144.04 56.313 144.042 56.2962 144.04C55.9006 144.023 55.5057 144.088 55.1371 144.233C54.7685 144.378 54.4343 144.598 54.1562 144.88C54.1413 144.897 54.1226 144.909 54.1017 144.917C54.0807 144.925 54.0582 144.927 54.0362 144.924Z" fill="#F5F5F5"/>
<path d="M52.992 144.176C52.9629 144.176 52.9345 144.166 52.912 144.148C52.8998 144.136 52.89 144.122 52.8834 144.107C52.8767 144.091 52.8733 144.075 52.8733 144.058C52.8733 144.041 52.8767 144.024 52.8834 144.009C52.89 143.993 52.8998 143.979 52.912 143.968C53.2166 143.653 53.5852 143.406 53.993 143.246C54.4008 143.085 54.8382 143.013 55.276 143.036C55.3093 143.04 55.3397 143.057 55.3606 143.083C55.3815 143.109 55.3914 143.142 55.388 143.176C55.384 143.209 55.3671 143.239 55.3409 143.26C55.3147 143.281 55.2813 143.291 55.248 143.288C54.8526 143.272 54.4582 143.339 54.0899 143.483C53.7215 143.628 53.3872 143.847 53.108 144.128C53.0944 144.145 53.0766 144.159 53.0563 144.167C53.036 144.175 53.0138 144.178 52.992 144.176Z" fill="#F5F5F5"/>
<path d="M51.972 143.428C51.9431 143.427 51.9153 143.417 51.892 143.4C51.8683 143.376 51.855 143.344 51.855 143.31C51.855 143.276 51.8683 143.244 51.892 143.22C52.2218 142.877 52.6257 142.613 53.0728 142.45C53.5199 142.286 53.9984 142.227 54.472 142.276C54.4889 142.277 54.5054 142.281 54.5205 142.289C54.5355 142.297 54.5488 142.308 54.5594 142.321C54.57 142.334 54.5776 142.35 54.5819 142.366C54.5861 142.382 54.5868 142.399 54.584 142.416C54.5799 142.449 54.563 142.48 54.5368 142.501C54.5107 142.522 54.4773 142.532 54.444 142.528C54.0135 142.486 53.5791 142.54 53.1722 142.686C52.7653 142.833 52.3963 143.069 52.092 143.376C52.0779 143.394 52.0596 143.408 52.0386 143.418C52.0176 143.427 51.9947 143.43 51.972 143.428Z" fill="#F5F5F5"/>
<path d="M42.232 131.82L36.468 131.716C36.552 135.564 37.164 139.832 37.268 143.44C37.268 144.12 37.268 148.72 37.508 150.12C37.908 152.22 40.388 151.936 40.52 150.68C40.652 149.424 40.36 144.052 40.368 143.48C40.344 141.168 41.428 137.26 42 133.104C42.024 132.916 42.204 132.02 42.232 131.82Z" fill="#FFA8A7"/>
<path d="M41.456 151.552C41.563 152.514 41.4255 153.488 41.056 154.384C40.8731 154.739 40.5779 155.025 40.2163 155.195C39.8546 155.366 39.4468 155.413 39.056 155.328C38.204 155.204 37.08 154.748 36.736 153.728C36.4103 152.788 36.2955 151.789 36.4 150.8L41.456 151.552Z" fill="#263238"/>
<path d="M37.252 143C36.912 143.06 36.976 144.72 36.944 146.388C36.908 148.18 36.456 148.964 36.412 150.432C36.36 152.112 36.524 152.832 37.212 153.784C37.9 154.736 40.048 155.504 40.916 153.968C41.624 152.716 41.528 151.416 41.284 149.768C41.04 148.12 40.848 146.872 40.784 145.568C40.72 144.264 40.692 143.108 40.384 143C40.384 143.184 40.384 143.42 40.384 143.6C40.384 143.78 40.412 144.4 40.22 144.44C40.1904 144.286 40.173 144.129 40.168 143.972C40.1769 143.827 40.1296 143.683 40.036 143.572C39.9203 143.487 39.7797 143.442 39.636 143.444C39.2934 143.405 38.9488 143.387 38.604 143.388C38.432 143.388 38.256 143.388 38.088 143.416C37.9402 143.427 37.7954 143.464 37.66 143.524C37.6201 143.541 37.5842 143.566 37.5546 143.598C37.525 143.63 37.5023 143.667 37.488 143.708C37.476 143.771 37.476 143.837 37.488 143.9C37.502 144.014 37.502 144.13 37.488 144.244C37.488 144.296 37.452 144.36 37.4 144.352C37.348 144.344 37.34 144.296 37.336 144.256C37.312 144.056 37.336 143.908 37.312 143.676C37.312 143.568 37.312 143.42 37.312 143.312C37.312 143.204 37.256 143.108 37.252 143Z" fill="#455A64"/>
<path d="M36.4401 149.952C36.4401 150.196 36.3881 151.8 36.8401 152.04C37.2921 152.28 37.4681 151.032 37.4681 151.032C37.4681 151.032 38.5281 150.588 40.1921 151.124C40.1361 151.388 40.4641 152.212 40.8841 151.988C41.3041 151.764 41.2841 149.936 41.2841 149.912C41.5121 151.512 41.5841 152.752 40.8841 153.968C40.0161 155.504 37.8601 154.728 37.1801 153.784C36.5001 152.84 36.3361 152.112 36.3801 150.432C36.4001 150.264 36.4281 150.108 36.4401 149.952Z" fill="#37474F"/>
<path d="M37.6 151.124C37.652 151.724 37.044 151.584 36.932 150.724C36.82 149.864 37.084 147.828 36.932 146.372C36.964 144.704 36.9 143.044 37.24 142.984C37.238 143.004 37.238 143.024 37.24 143.044L37.28 143.888C37.2721 144.008 37.2721 144.128 37.28 144.248C37.392 145.472 37.46 147.848 37.464 148.976C37.4711 149.694 37.5165 150.411 37.6 151.124Z" fill="#263238"/>
<path d="M40 151.124C40.0784 150.416 40.1171 149.704 40.116 148.992C40.116 147.872 40.188 145.524 40.3 144.292C40.3433 144.064 40.3608 143.832 40.352 143.6C40.352 143.432 40.352 143.2 40.352 143.04C40.352 143.04 40.352 143.016 40.352 143C40.576 143.084 40.656 143.744 40.704 144.576C40.704 145.06 40.704 145.66 40.66 146.388C40.508 147.844 40.772 149.908 40.66 150.752C40.548 151.596 39.96 151.724 40 151.124Z" fill="#263238"/>
<path d="M40.2361 151.168H40.1921C39.3278 150.87 38.3884 150.87 37.5241 151.168C37.5084 151.174 37.4916 151.177 37.4747 151.177C37.4578 151.176 37.4412 151.172 37.4258 151.166C37.4104 151.159 37.3965 151.149 37.3849 151.137C37.3733 151.124 37.3642 151.11 37.3581 151.094C37.3521 151.078 37.3492 151.062 37.3497 151.045C37.3501 151.028 37.3539 151.011 37.3607 150.996C37.3676 150.98 37.3775 150.966 37.3897 150.955C37.402 150.943 37.4164 150.934 37.4321 150.928C38.3543 150.599 39.362 150.599 40.2841 150.928C40.2998 150.934 40.3142 150.943 40.3264 150.954C40.3386 150.966 40.3484 150.979 40.3551 150.995C40.3619 151.01 40.3654 151.027 40.3656 151.043C40.3658 151.06 40.3625 151.077 40.3561 151.092C40.3463 151.116 40.3295 151.135 40.3081 151.149C40.2866 151.163 40.2615 151.169 40.2361 151.168Z" fill="#F5F5F5"/>
<path d="M40.4 149.84C40.3855 149.843 40.3704 149.843 40.356 149.84C39.3842 149.538 38.3438 149.538 37.372 149.84C37.356 149.845 37.339 149.848 37.322 149.847C37.3051 149.846 37.2885 149.842 37.2732 149.834C37.258 149.827 37.2443 149.816 37.2331 149.803C37.2219 149.791 37.2134 149.776 37.208 149.76C37.2024 149.744 37.2 149.727 37.201 149.711C37.2021 149.694 37.2064 149.678 37.2139 149.663C37.2214 149.648 37.2318 149.634 37.2445 149.624C37.2572 149.613 37.272 149.605 37.288 149.6C38.3146 149.273 39.4174 149.273 40.444 149.6C40.4721 149.61 40.4956 149.63 40.5105 149.656C40.5254 149.682 40.5307 149.713 40.5255 149.742C40.5202 149.772 40.5048 149.798 40.4819 149.818C40.4589 149.837 40.43 149.848 40.4 149.848V149.84Z" fill="#F5F5F5"/>
<path d="M37.32 148.584C37.2955 148.583 37.2717 148.576 37.2512 148.562C37.2307 148.549 37.2143 148.53 37.204 148.508C37.1904 148.477 37.1895 148.442 37.2015 148.411C37.2135 148.379 37.2374 148.354 37.268 148.34C38.2784 147.943 39.4005 147.935 40.416 148.32C40.4317 148.326 40.4461 148.334 40.4583 148.346C40.4705 148.357 40.4802 148.371 40.487 148.387C40.4937 148.402 40.4972 148.418 40.4974 148.435C40.4976 148.452 40.4944 148.468 40.488 148.484C40.4755 148.515 40.4513 148.54 40.4206 148.553C40.39 148.567 40.3553 148.568 40.324 148.556C40.324 148.556 38.756 147.94 37.376 148.556C37.3596 148.569 37.3405 148.579 37.32 148.584Z" fill="#F5F5F5"/>
<path d="M37.292 147.408C37.2678 147.408 37.2441 147.401 37.2236 147.389C37.203 147.376 37.1865 147.358 37.176 147.336C37.1622 147.305 37.1607 147.271 37.1719 147.24C37.1831 147.208 37.2061 147.182 37.236 147.168C37.7374 146.939 38.2811 146.818 38.8322 146.812C39.3832 146.806 39.9295 146.915 40.436 147.132C40.4511 147.139 40.4648 147.149 40.4761 147.161C40.4873 147.173 40.496 147.187 40.5016 147.203C40.5072 147.219 40.5096 147.235 40.5086 147.252C40.5077 147.269 40.5034 147.285 40.496 147.3C40.4891 147.315 40.4793 147.329 40.467 147.34C40.4548 147.351 40.4404 147.36 40.4247 147.365C40.409 147.371 40.3924 147.373 40.3758 147.372C40.3591 147.371 40.3429 147.367 40.328 147.36C39.8528 147.163 39.3426 147.065 38.8283 147.071C38.314 147.077 37.8063 147.188 37.336 147.396C37.3221 147.402 37.3072 147.406 37.292 147.408Z" fill="#F5F5F5"/>
<path d="M37.2641 146.092C37.2348 146.092 37.2062 146.083 37.1832 146.065C37.1601 146.046 37.144 146.021 37.1374 145.992C37.1308 145.964 37.1343 145.934 37.1471 145.908C37.16 145.881 37.1815 145.86 37.2081 145.848C38.7321 145.096 40.3761 145.816 40.4441 145.848C40.46 145.854 40.4744 145.863 40.4865 145.875C40.4985 145.887 40.5079 145.901 40.5139 145.917C40.52 145.933 40.5226 145.95 40.5216 145.967C40.5206 145.984 40.516 146.001 40.5081 146.016C40.4941 146.046 40.4686 146.07 40.4372 146.082C40.4058 146.094 40.3709 146.093 40.3401 146.08C40.3401 146.08 38.7401 145.38 37.3241 146.08C37.3056 146.089 37.2848 146.093 37.2641 146.092Z" fill="#F5F5F5"/>
<path d="M38.3642 94.3999C36.3322 100.028 36.6882 103.56 37.0362 109.46C37.3562 114.868 37.8642 119.632 37.8642 119.632C37.7842 120.592 36.4482 122.464 36.2642 126.704C36.2052 129.689 36.3388 132.676 36.6642 135.644C36.6642 135.644 39.3242 136.616 41.5722 135.644C41.5722 135.644 43.8722 125.488 44.5002 120.524C45.0442 116.192 45.9962 110.656 45.9962 110.656L47.9962 120.504C47.6052 121.827 47.4045 123.2 47.4002 124.58C47.4002 126.896 48.4762 133.336 48.4762 133.336C48.4762 133.336 51.4562 134.3 53.3442 132.624C53.3442 132.624 54.0922 123.356 54.3562 119.824C54.7082 115.112 54.1962 102.196 53.0642 95.5839L38.3642 94.3999Z" fill="#455A64"/>
<path d="M46.0201 110.64L46.8521 103.232C46.8521 103.232 50.5761 102.736 52.2641 101.148C51.7799 101.905 51.1345 102.546 50.3739 103.026C49.6133 103.505 48.7563 103.81 47.8641 103.92L46.6641 110.816L48.0241 120.488L46.0201 110.64Z" fill="#37474F"/>
<path d="M55.228 88.9079C53.416 87.0439 50.144 82.8279 50.144 82.8279L48.296 76.4279C48.7091 76.4494 49.123 76.4494 49.536 76.4279C51.536 76.5599 52.124 76.7319 53.368 78.0919C54.356 79.1759 58.124 84.3199 59.432 86.0519L62.908 81.6239C63.744 80.3639 63.608 78.9519 64.04 77.9239C64.472 76.8959 65.172 76.4439 65.732 75.5239C66.292 74.6039 66.424 73.9879 66.884 74.4639C67.344 74.9399 66.812 76.2199 66.744 76.5119C66.676 76.8039 65.972 77.6719 67.144 77.2199C68.316 76.7679 70.124 74.6279 70.588 74.1919C71.052 73.7559 71.3 74.4319 71.196 74.9679C71.092 75.5039 71.596 76.7119 71.412 77.5959C71.2975 78.4851 70.8553 79.2996 70.172 79.8799C69.328 80.7279 67.264 81.7719 66.456 82.8879C65.648 84.0039 63.924 87.4719 62.856 89.5599C61.516 92.2159 60.376 93.0919 58.856 92.1959C57.336 91.2999 55.896 89.5999 55.228 88.9079Z" fill="#FFA8A7"/>
<path d="M48.884 76.36C49.9068 76.2578 50.9393 76.3948 51.9 76.76C52.984 77.248 53.72 78.296 54.78 79.716C55.84 81.136 57.732 83.62 57.732 83.62C57.732 83.62 57.22 85.776 53.844 87.712L48.332 82.036L48.884 76.36Z" fill="#37474F"/>
<path d="M59.432 86.0479C58.7726 86.6699 58.3309 87.4875 58.172 88.3799C58.172 88.3799 57.772 87.0959 59.136 85.6519L59.432 86.0479Z" fill="#F28F8F"/>
<path d="M52.876 87.724C55.336 85.7 54.524 83.064 53.628 81.288C51.832 77.74 49.964 76.344 49.184 76.356L44.292 76.404C41.956 76.724 40.148 76.564 39.584 76.696C38.144 77.036 38.112 78.22 38.056 79.752C37.996 81.432 37.136 81.148 37.572 83.924C38.0862 84.9559 38.5377 86.0178 38.924 87.104C39.188 88.064 39.932 89.592 39.536 91.144C39.384 91.744 38.976 92.344 38.364 93.988C37.6701 95.8359 37.1544 97.746 36.824 99.692C36.824 99.692 38.252 99.36 39.876 97.632C39.876 97.632 42.096 100.604 47.436 100.304C52.976 99.992 53.464 97.104 53.464 97.104L52.616 91.904C52.744 89.804 52.8 89.044 52.876 87.724Z" fill="#1E90FF"/>
<path opacity="0.1" d="M49.6801 87.1999C49.6801 87.1999 47.6801 88.7999 45.3321 88.0319C44.6781 87.8358 44.0851 87.4756 43.6097 86.9855C43.1343 86.4953 42.7922 85.8917 42.6161 85.2319C42.6161 85.2319 42.4161 87.8919 45.3681 88.7479C46.1578 88.9875 47.0036 88.9663 47.7803 88.6874C48.5569 88.4086 49.2231 87.887 49.6801 87.1999Z" fill="black"/>
<path d="M35.6761 74.072C34.9521 73.544 31.0521 78.764 32.8761 80.072C34.7001 81.38 36.6441 77.672 36.2521 75.92C35.8601 74.168 35.6761 74.072 35.6761 74.072Z" fill="#37474F"/>
<path d="M32.136 71.4799C33.112 70.1279 33.776 69.1079 34.668 67.9479C35.172 67.2879 35.496 66.8199 35.98 66.1439C36.316 65.6799 36.512 65.2879 36.888 65.1399C37.3078 64.9551 37.6829 64.6823 37.988 64.3399C38.1748 64.1235 38.3472 63.895 38.504 63.6559C39.0678 62.8752 39.7414 62.18 40.504 61.5919C41.304 60.9719 42.18 60.4919 42.996 59.8999C43.48 59.5479 44 58.9679 43.396 58.4439C43.2083 58.2924 42.9854 58.1906 42.748 58.1479C41.292 57.8559 40.032 58.3799 38.616 58.7679C38.0003 58.9358 37.3985 59.1511 36.816 59.4119C36.5269 59.5293 36.2571 59.6898 36.016 59.8879C35.6811 60.2379 35.4103 60.6441 35.216 61.0879C34.596 62.2279 33.288 63.2439 32.372 64.1359C31.296 65.1839 30.336 66.1359 29.108 67.2999C28.004 68.3399 26.92 69.2999 25.908 70.4359C25.072 71.3719 25.396 72.0919 25.508 72.3359C26.228 73.7519 27.012 74.2519 27.956 75.1359C28.268 75.4239 28.584 75.7079 28.9 75.9919C30.124 77.0959 31.348 78.1279 32.62 79.1919C33.98 80.3119 34.54 80.8559 35.752 81.9439C36.5168 82.6464 37.1542 83.476 37.636 84.3959C39.736 84.7439 41.8 81.5319 40 77.7759C39.7039 77.1685 39.2562 76.6477 38.7 76.2639C36.484 74.6839 32.136 71.4799 32.136 71.4799Z" fill="#FFA8A7"/>
<path d="M32.136 71.48C31.4808 72.3118 30.6006 72.9379 29.6 73.284C29.6 73.284 30.94 73.604 32.74 71.928L32.136 71.48Z" fill="#F28F8F"/>
<path d="M39.752 76.6638C39.26 76.3238 38.064 75.5998 35.676 74.0718C35.676 74.0718 36.044 74.8438 35.464 76.7838C34.884 78.7238 33.66 79.9518 32.892 80.0918C32.892 80.0918 34.228 81.1478 35.46 82.3398C36.692 83.5318 37.704 84.3758 38.416 85.7598C38.416 85.7598 40.176 85.3078 40.576 82.3238C40.856 80.2318 40.688 77.7758 39.752 76.6638Z" fill="#455A64"/>
<path d="M53.112 67.0558C53.4636 66.3127 53.6185 65.4917 53.5618 64.6715C53.5051 63.8513 53.2386 63.0595 52.788 62.3718C51.272 60.2158 48.716 59.1718 45.892 59.2038H45.016C41.204 59.2678 37.74 62.5398 37.672 66.2238C37.672 68.8158 37.672 71.2118 39.1 72.9798C40.416 74.6238 42.468 75.1638 44.2 75.4278C47.512 75.9318 51.232 75.5478 52.736 73.2918C52.736 73.2918 50.736 73.6918 50.988 71.6198C51.024 71.2918 50.712 70.9318 50.164 70.5598C50.5478 69.8949 50.9996 69.2716 51.512 68.6998C52.076 68.1358 52.728 67.8198 53.112 67.0558Z" fill="#263238"/>
<path d="M52.1241 68.9479C52.1041 72.8079 50.8681 73.7799 50.2481 74.0679C49.6281 74.3559 48.4121 74.2039 47.2321 74.0319L47.2721 76.3479C47.2721 76.3479 48.6521 77.7439 48.5721 78.8079C48.4921 79.8719 46.4601 80.0079 44.9201 79.0119C44.0717 78.4501 43.3023 77.7775 42.6321 77.0119C42.5042 76.8637 42.432 76.6756 42.4281 76.4799L42.3321 71.0359C42.3321 71.0359 41.7001 71.7279 40.5481 70.9679C40.2992 70.8158 40.0847 70.6135 39.9181 70.3741C39.7516 70.1347 39.6366 69.8632 39.5806 69.577C39.5245 69.2907 39.5286 68.9959 39.5926 68.7114C39.6565 68.4268 39.7789 68.1586 39.9521 67.9239C40.1148 67.7656 40.3103 67.645 40.5247 67.5705C40.7391 67.4961 40.9673 67.4695 41.1931 67.4928C41.4189 67.516 41.6368 67.5886 41.8315 67.7052C42.0262 67.8218 42.193 67.9798 42.3201 68.1679C42.6721 68.8239 42.6401 69.2879 43.1201 69.2119C43.6001 69.1359 43.6201 68.6159 43.6521 68.2439C43.6841 67.8719 43.6521 67.7519 43.7001 67.2639C44.8401 67.0199 46.0201 65.4319 46.1521 64.2719C46.9244 64.6517 47.7755 64.8436 48.6361 64.8319C49.9121 64.7439 50.5721 64.4879 51.2001 63.5679C51.3497 63.7784 51.4695 64.0085 51.5561 64.2519C51.7338 64.7444 51.8676 65.2517 51.9561 65.7679C52.0985 66.8215 52.1547 67.8851 52.1241 68.9479Z" fill="#FFA8A7"/>
<path d="M47.2321 74.0317C45.9881 73.8877 43.4241 73.1997 43.0081 72.1997C43.1762 72.7074 43.4959 73.1513 43.9241 73.4717C44.7001 74.1117 47.2441 74.8037 47.2441 74.8037L47.2321 74.0317Z" fill="#F28F8F"/>
<path d="M48.484 71.9521C48.4864 72.0527 48.4588 72.1518 48.4048 72.2367C48.3508 72.3216 48.2728 72.3886 48.1806 72.4291C48.0885 72.4696 47.9865 72.4818 47.8874 72.4642C47.7883 72.4467 47.6966 72.4 47.6241 72.3303C47.5515 72.2606 47.5013 72.1708 47.4799 72.0725C47.4584 71.9742 47.4666 71.8717 47.5034 71.7781C47.5402 71.6844 47.6041 71.6038 47.6868 71.5465C47.7695 71.4892 47.8674 71.4577 47.968 71.4561C48.1021 71.454 48.2315 71.5049 48.3282 71.5978C48.4248 71.6907 48.4808 71.8181 48.484 71.9521Z" fill="#B16668"/>
<path d="M47.8321 68.152C47.8387 68.223 47.8312 68.2946 47.81 68.3626C47.7888 68.4307 47.7543 68.4938 47.7086 68.5485C47.6628 68.6032 47.6067 68.6482 47.5435 68.6811C47.4802 68.714 47.4111 68.734 47.3401 68.74C47.2307 68.7517 47.1203 68.7304 47.0231 68.679C46.9259 68.6275 46.8463 68.5481 46.7945 68.4511C46.7427 68.354 46.7211 68.2437 46.7324 68.1343C46.7438 68.0248 46.7875 67.9213 46.8581 67.8369C46.9287 67.7526 47.0229 67.6912 47.1286 67.6607C47.2343 67.6303 47.3467 67.6321 47.4514 67.666C47.5561 67.6998 47.6482 67.7642 47.7161 67.8508C47.7839 67.9374 47.8243 68.0423 47.8321 68.152Z" fill="#263238"/>
<path d="M51.44 67.9241C51.45 68.0544 51.4081 68.1834 51.3234 68.2831C51.2388 68.3827 51.1182 68.4449 50.988 68.4561C50.9224 68.4642 50.8558 68.458 50.7928 68.438C50.7298 68.418 50.6718 68.3847 50.6228 68.3403C50.5738 68.2958 50.535 68.2414 50.509 68.1806C50.483 68.1199 50.4703 68.0542 50.472 67.9881C50.4654 67.9233 50.4718 67.8579 50.4909 67.7957C50.51 67.7334 50.5413 67.6756 50.5831 67.6257C50.6248 67.5757 50.6761 67.5347 50.734 67.5048C50.7918 67.475 50.8551 67.4571 50.92 67.4521C51.0513 67.4466 51.1795 67.4931 51.2768 67.5814C51.3741 67.6698 51.4327 67.7929 51.44 67.9241Z" fill="#263238"/>
<path d="M48.948 67.4238L49.332 70.6478L50.984 69.9598L48.948 67.4238Z" fill="#F28F8F"/>
<path d="M45.9042 66.7601L46.8642 65.8481C46.9837 65.9811 47.0475 66.155 47.0423 66.3338C47.0371 66.5125 46.9633 66.6824 46.8362 66.8081C46.7728 66.8682 46.698 66.9148 46.6161 66.945C46.5342 66.9752 46.447 66.9885 46.3599 66.984C46.2727 66.9795 46.1874 66.9574 46.109 66.9189C46.0307 66.8804 45.961 66.8264 45.9042 66.7601Z" fill="#263238"/>
<path d="M50.708 65.5518L51.772 66.3518C51.723 66.424 51.6598 66.4854 51.5862 66.5323C51.5126 66.5792 51.4302 66.6106 51.344 66.6244C51.2578 66.6383 51.1697 66.6344 51.0851 66.6129C51.0005 66.5915 50.9212 66.553 50.852 66.4998C50.7127 66.3892 50.6204 66.2299 50.5937 66.0541C50.567 65.8782 50.6078 65.6987 50.708 65.5518Z" fill="#263238"/>
<path d="M35.3721 36.2518C36.139 36.1056 36.9231 36.0706 37.7001 36.1478C38.4426 36.213 39.1674 36.4108 39.8401 36.7318C40.4855 37.0399 41.056 37.4849 41.5121 38.0358C41.9929 38.6255 42.3126 39.3297 42.4401 40.0798C42.56 40.6685 42.56 41.2752 42.4401 41.8638C42.3325 42.3762 42.1492 42.8696 41.8961 43.3278C41.6504 43.7738 41.3652 44.1968 41.0441 44.5918C40.7241 44.9918 40.4201 45.3598 40.1361 45.7158C39.8644 46.0509 39.6235 46.4097 39.4161 46.7878C39.2254 47.1236 39.1326 47.506 39.1481 47.8918C39.1504 48.0712 39.1048 48.248 39.0161 48.4038C38.9742 48.4775 38.9167 48.5411 38.8476 48.5902C38.7784 48.6393 38.6994 48.6726 38.6161 48.6878L36.7321 49.0438C36.6426 49.0616 36.5504 49.0613 36.4611 49.0427C36.3717 49.0241 36.287 48.9878 36.2121 48.9358C36.134 48.8911 36.0681 48.8281 36.02 48.7521C35.9719 48.6761 35.9431 48.5895 35.9361 48.4998C35.8442 47.908 35.8742 47.3037 36.0241 46.7238C36.1663 46.2072 36.3747 45.7111 36.6441 45.2478C36.9045 44.8067 37.203 44.3891 37.5361 43.9998C37.8681 43.5998 38.1681 43.2398 38.4441 42.8878C38.6978 42.5717 38.9177 42.2298 39.1001 41.8678C39.2569 41.5537 39.3061 41.1967 39.2401 40.8518C39.1869 40.5479 39.0604 40.2615 38.8715 40.0175C38.6826 39.7736 38.437 39.5794 38.1561 39.4518C37.4591 39.1351 36.6763 39.0605 35.9321 39.2398C34.5294 39.5065 33.6294 40.4052 33.2321 41.9358C33.1971 42.0972 33.1349 42.2514 33.0481 42.3918C32.9371 42.52 32.7809 42.6003 32.6121 42.6158L30.6121 42.9958C30.4739 43.0204 30.3316 42.9934 30.2121 42.9198C30.1492 42.8783 30.0958 42.8242 30.0551 42.7608C30.0145 42.6974 29.9876 42.6262 29.9761 42.5518C29.8897 41.9209 29.9583 41.2783 30.1761 40.6798C30.4025 39.9886 30.7492 39.3427 31.2001 38.7718C31.7056 38.1468 32.3079 37.6067 32.9841 37.1718C33.7128 36.713 34.5239 36.4006 35.3721 36.2518ZM39.0241 50.1518C39.2019 50.1211 39.3848 50.1606 39.534 50.2621C39.6833 50.3636 39.7873 50.5191 39.8241 50.6958L40.2241 52.8798C40.2423 52.9674 40.2421 53.0577 40.2235 53.1452C40.2049 53.2327 40.1683 53.3153 40.1161 53.3878C40.0669 53.4622 40.0034 53.5261 39.9292 53.5755C39.855 53.625 39.7716 53.6591 39.6841 53.6758L37.5521 54.0758C37.4639 54.0942 37.3729 54.094 37.2847 54.0754C37.1966 54.0569 37.1133 54.0202 37.0401 53.9678C36.9656 53.9187 36.9018 53.8552 36.8524 53.781C36.8029 53.7068 36.7688 53.6234 36.7521 53.5358L36.3521 51.3518C36.3353 51.264 36.3366 51.1737 36.3559 51.0863C36.3751 50.999 36.4119 50.9165 36.4641 50.8438C36.5119 50.7683 36.5751 50.7037 36.6495 50.6541C36.7239 50.6045 36.8079 50.571 36.8961 50.5558L39.0241 50.1518Z" fill="#1E90FF"/>
<path d="M55.7 45.2638C56.1718 45.5254 56.6029 45.8542 56.98 46.2398C57.3466 46.6012 57.6436 47.027 57.856 47.4958C58.0599 47.9442 58.1649 48.4312 58.1641 48.9238C58.1636 49.4488 58.0257 49.9646 57.7641 50.4198C57.5681 50.7846 57.3032 51.1079 56.9841 51.3718C56.6982 51.5938 56.3815 51.773 56.044 51.9038C55.7161 52.032 55.3774 52.131 55.0321 52.1998L54.056 52.3918C53.7633 52.4481 53.4766 52.5325 53.2 52.6438C52.9512 52.7362 52.7335 52.897 52.572 53.1078C52.4934 53.2047 52.3896 53.278 52.272 53.3198C52.2168 53.3405 52.1577 53.3487 52.0989 53.3439C52.0401 53.339 51.9832 53.3213 51.9321 53.2918L50.7761 52.6438C50.6636 52.5823 50.5802 52.4787 50.544 52.3558C50.5244 52.2974 50.5185 52.2352 50.5268 52.1742C50.5352 52.1131 50.5575 52.0548 50.5921 52.0038C50.805 51.6502 51.0882 51.3439 51.424 51.1038C51.7285 50.8912 52.0592 50.7191 52.4081 50.5918C52.7426 50.4728 53.0864 50.3818 53.436 50.3198C53.784 50.2598 54.108 50.1998 54.412 50.1358C54.6864 50.0785 54.9544 49.9941 55.212 49.8838C55.4344 49.7857 55.6195 49.6189 55.7401 49.4078C55.8451 49.2222 55.9036 49.0139 55.9106 48.8007C55.9176 48.5876 55.8728 48.3759 55.78 48.1838C55.5516 47.7074 55.1699 47.3215 54.6961 47.0878C54.2879 46.852 53.817 46.7477 53.3474 46.7892C52.8778 46.8307 52.4325 47.016 52.072 47.3198C51.9829 47.3923 51.8812 47.4479 51.772 47.4838C51.6575 47.5028 51.5401 47.477 51.444 47.4118L50.212 46.7238C50.1249 46.6748 50.0592 46.5949 50.028 46.4998C50.0125 46.4501 50.0076 46.3977 50.0138 46.3459C50.02 46.2942 50.0372 46.2444 50.0641 46.1998C50.2976 45.828 50.6173 45.5179 50.996 45.2958C51.4273 45.0356 51.9013 44.8541 52.3961 44.7598C52.9376 44.6536 53.4928 44.6361 54.0401 44.7078C54.624 44.7847 55.1876 44.9735 55.7 45.2638ZM51.4841 54.2438C51.5384 54.2739 51.5861 54.3145 51.6246 54.3633C51.6631 54.4121 51.6914 54.468 51.7081 54.5278C51.7258 54.5868 51.7314 54.6487 51.7245 54.7099C51.7176 54.7711 51.6984 54.8303 51.668 54.8838L50.9201 56.2238C50.8594 56.3329 50.758 56.4134 50.638 56.4479C50.5181 56.4824 50.3894 56.468 50.28 56.4078L48.972 55.6758C48.917 55.6472 48.8688 55.607 48.8308 55.558C48.7928 55.509 48.7659 55.4523 48.752 55.3918C48.733 55.3332 48.7264 55.2713 48.7326 55.21C48.7388 55.1487 48.7577 55.0894 48.7881 55.0358L49.536 53.6958C49.5664 53.6421 49.6071 53.595 49.6559 53.5572C49.7047 53.5194 49.7605 53.4918 49.8201 53.4758C49.8789 53.4571 49.941 53.4511 50.0023 53.4579C50.0636 53.4648 50.1228 53.4845 50.1761 53.5158L51.4841 54.2438Z" fill="#1E90FF"/>
<g opacity="0.2">
<path d="M55.7 45.2638C56.1718 45.5254 56.6029 45.8542 56.98 46.2398C57.3466 46.6012 57.6436 47.027 57.856 47.4958C58.0599 47.9442 58.1649 48.4312 58.1641 48.9238C58.1636 49.4488 58.0257 49.9646 57.7641 50.4198C57.5681 50.7846 57.3032 51.1079 56.9841 51.3718C56.6982 51.5938 56.3815 51.773 56.044 51.9038C55.7161 52.032 55.3774 52.131 55.0321 52.1998L54.056 52.3918C53.7633 52.4481 53.4766 52.5325 53.2 52.6438C52.9512 52.7362 52.7335 52.897 52.572 53.1078C52.4934 53.2047 52.3896 53.278 52.272 53.3198C52.2168 53.3405 52.1577 53.3487 52.0989 53.3439C52.0401 53.339 51.9832 53.3213 51.9321 53.2918L50.7761 52.6438C50.6636 52.5823 50.5802 52.4787 50.544 52.3558C50.5244 52.2974 50.5185 52.2352 50.5268 52.1742C50.5352 52.1131 50.5575 52.0548 50.5921 52.0038C50.805 51.6502 51.0882 51.3439 51.424 51.1038C51.7285 50.8912 52.0592 50.7191 52.4081 50.5918C52.7426 50.4728 53.0864 50.3818 53.436 50.3198C53.784 50.2598 54.108 50.1998 54.412 50.1358C54.6864 50.0785 54.9544 49.9941 55.212 49.8838C55.4344 49.7857 55.6195 49.6189 55.7401 49.4078C55.8451 49.2222 55.9036 49.0139 55.9106 48.8007C55.9176 48.5876 55.8728 48.3759 55.78 48.1838C55.5516 47.7074 55.1699 47.3215 54.6961 47.0878C54.2879 46.852 53.817 46.7477 53.3474 46.7892C52.8778 46.8307 52.4325 47.016 52.072 47.3198C51.9829 47.3923 51.8812 47.4479 51.772 47.4838C51.6575 47.5028 51.5401 47.477 51.444 47.4118L50.212 46.7238C50.1249 46.6748 50.0592 46.5949 50.028 46.4998C50.0125 46.4501 50.0076 46.3977 50.0138 46.3459C50.02 46.2942 50.0372 46.2444 50.0641 46.1998C50.2976 45.828 50.6173 45.5179 50.996 45.2958C51.4273 45.0356 51.9013 44.8541 52.3961 44.7598C52.9376 44.6536 53.4928 44.6361 54.0401 44.7078C54.624 44.7847 55.1876 44.9735 55.7 45.2638ZM51.4841 54.2438C51.5384 54.2739 51.5861 54.3145 51.6246 54.3633C51.6631 54.4121 51.6914 54.468 51.7081 54.5278C51.7258 54.5868 51.7314 54.6487 51.7245 54.7099C51.7176 54.7711 51.6984 54.8303 51.668 54.8838L50.9201 56.2238C50.8594 56.3329 50.758 56.4134 50.638 56.4479C50.5181 56.4824 50.3894 56.468 50.28 56.4078L48.972 55.6758C48.917 55.6472 48.8688 55.607 48.8308 55.558C48.7928 55.509 48.7659 55.4523 48.752 55.3918C48.733 55.3332 48.7264 55.2713 48.7326 55.21C48.7388 55.1487 48.7577 55.0894 48.7881 55.0358L49.536 53.6958C49.5664 53.6421 49.6071 53.595 49.6559 53.5572C49.7047 53.5194 49.7605 53.4918 49.8201 53.4758C49.8789 53.4571 49.941 53.4511 50.0023 53.4579C50.0636 53.4648 50.1228 53.4845 50.1761 53.5158L51.4841 54.2438Z" fill="black"/>
</g>
<path d="M27.524 59.9518C27.5773 59.9014 27.6402 59.8624 27.7089 59.837C27.7776 59.8115 27.8508 59.8002 27.924 59.8038C27.9991 59.8048 28.0732 59.8209 28.1419 59.8512C28.2106 59.8814 28.2725 59.9251 28.324 59.9798L29.556 61.3158C29.6067 61.3703 29.6461 61.4343 29.672 61.5041C29.6978 61.5739 29.7096 61.6481 29.7066 61.7224C29.7036 61.7968 29.686 61.8699 29.6546 61.9374C29.6233 62.0049 29.5789 62.0655 29.524 62.1158L28.22 63.3158C28.1655 63.3665 28.1015 63.4059 28.0317 63.4317C27.9619 63.4576 27.8877 63.4693 27.8134 63.4664C27.739 63.4634 27.6659 63.4457 27.5984 63.4144C27.5309 63.3831 27.4703 63.3387 27.42 63.2838L26.188 61.9478C26.1368 61.8935 26.097 61.8296 26.0708 61.7598C26.0447 61.6899 26.0328 61.6156 26.0357 61.5411C26.0387 61.4665 26.0566 61.3934 26.0882 61.3258C26.1199 61.2583 26.1647 61.1978 26.22 61.1478L27.524 59.9518ZM18.964 51.8918C19.4318 51.4547 19.9598 51.0869 20.532 50.7998C21.0754 50.5252 21.6632 50.3491 22.268 50.2798C22.8487 50.2157 23.4363 50.2757 23.992 50.4558C24.5824 50.6573 25.1104 51.0088 25.524 51.4758C25.8702 51.8275 26.1422 52.2451 26.324 52.7038C26.4707 53.1062 26.557 53.5281 26.58 53.9558C26.6029 54.3722 26.5895 54.7897 26.54 55.2038C26.488 55.6038 26.44 56.0038 26.396 56.3758C26.3526 56.726 26.3406 57.0794 26.36 57.4318C26.3733 57.7485 26.4759 58.0549 26.656 58.3158C26.7335 58.4353 26.7777 58.5734 26.784 58.7158C26.7875 58.7859 26.7749 58.8559 26.7472 58.9203C26.7194 58.9848 26.6773 59.0421 26.624 59.0878L25.472 60.1558C25.3628 60.2548 25.2194 60.3079 25.072 60.3038C24.9989 60.3065 24.9262 60.2915 24.86 60.2602C24.7939 60.2289 24.7363 60.1821 24.692 60.1238C24.372 59.7517 24.1299 59.3192 23.98 58.8518C23.8547 58.432 23.7848 57.9977 23.772 57.5598C23.7595 57.1372 23.7836 56.7143 23.844 56.2958C23.904 55.8958 23.952 55.4958 23.992 55.1358C24.0278 54.8048 24.0278 54.4708 23.992 54.1398C23.9659 53.8546 23.8464 53.5861 23.652 53.3758C23.4829 53.1884 23.2707 53.0449 23.0338 52.9578C22.7968 52.8707 22.5423 52.8426 22.292 52.8758C21.6748 52.9556 21.1012 53.2368 20.66 53.6758C19.8014 54.4758 19.5654 55.4905 19.952 56.7198C19.9995 56.8478 20.0238 56.9832 20.024 57.1198C20.0141 57.1871 19.991 57.2518 19.956 57.3102C19.921 57.3685 19.8748 57.4194 19.82 57.4598L18.592 58.5958C18.5062 58.6787 18.3913 58.7246 18.272 58.7238C18.2109 58.7228 18.1508 58.7087 18.0956 58.6824C18.0404 58.6562 17.9914 58.6185 17.952 58.5718C17.612 58.1784 17.3743 57.7071 17.26 57.1998C17.1243 56.6193 17.0931 56.0192 17.168 55.4278C17.2502 54.7794 17.4366 54.1486 17.72 53.5598C18.0219 52.928 18.4445 52.3613 18.964 51.8918Z" fill="#1E90FF"/>
<g opacity="0.6">
<path d="M27.524 59.9518C27.5773 59.9014 27.6402 59.8624 27.7089 59.837C27.7776 59.8115 27.8508 59.8002 27.924 59.8038C27.9991 59.8048 28.0732 59.8209 28.1419 59.8512C28.2106 59.8814 28.2725 59.9251 28.324 59.9798L29.556 61.3158C29.6067 61.3703 29.6461 61.4343 29.672 61.5041C29.6978 61.5739 29.7096 61.6481 29.7066 61.7224C29.7036 61.7968 29.686 61.8699 29.6546 61.9374C29.6233 62.0049 29.5789 62.0655 29.524 62.1158L28.22 63.3158C28.1655 63.3665 28.1015 63.4059 28.0317 63.4317C27.9619 63.4576 27.8877 63.4693 27.8134 63.4664C27.739 63.4634 27.6659 63.4457 27.5984 63.4144C27.5309 63.3831 27.4703 63.3387 27.42 63.2838L26.188 61.9478C26.1368 61.8935 26.097 61.8296 26.0708 61.7598C26.0447 61.6899 26.0328 61.6156 26.0357 61.5411C26.0387 61.4665 26.0566 61.3934 26.0882 61.3258C26.1199 61.2583 26.1647 61.1978 26.22 61.1478L27.524 59.9518ZM18.964 51.8918C19.4318 51.4547 19.9598 51.0869 20.532 50.7998C21.0754 50.5252 21.6632 50.3491 22.268 50.2798C22.8487 50.2157 23.4363 50.2757 23.992 50.4558C24.5824 50.6573 25.1104 51.0088 25.524 51.4758C25.8702 51.8275 26.1422 52.2451 26.324 52.7038C26.4707 53.1062 26.557 53.5281 26.58 53.9558C26.6029 54.3722 26.5895 54.7897 26.54 55.2038C26.488 55.6038 26.44 56.0038 26.396 56.3758C26.3526 56.726 26.3406 57.0794 26.36 57.4318C26.3733 57.7485 26.4759 58.0549 26.656 58.3158C26.7335 58.4353 26.7777 58.5734 26.784 58.7158C26.7875 58.7859 26.7749 58.8559 26.7472 58.9203C26.7194 58.9848 26.6773 59.0421 26.624 59.0878L25.472 60.1558C25.3628 60.2548 25.2194 60.3079 25.072 60.3038C24.9989 60.3065 24.9262 60.2915 24.86 60.2602C24.7939 60.2289 24.7363 60.1821 24.692 60.1238C24.372 59.7517 24.1299 59.3192 23.98 58.8518C23.8547 58.432 23.7848 57.9977 23.772 57.5598C23.7595 57.1372 23.7836 56.7143 23.844 56.2958C23.904 55.8958 23.952 55.4958 23.992 55.1358C24.0278 54.8048 24.0278 54.4708 23.992 54.1398C23.9659 53.8546 23.8464 53.5861 23.652 53.3758C23.4829 53.1884 23.2707 53.0449 23.0338 52.9578C22.7968 52.8707 22.5423 52.8426 22.292 52.8758C21.6748 52.9556 21.1012 53.2368 20.66 53.6758C19.8014 54.4758 19.5654 55.4905 19.952 56.7198C19.9995 56.8478 20.0238 56.9832 20.024 57.1198C20.0141 57.1871 19.991 57.2518 19.956 57.3102C19.921 57.3685 19.8748 57.4194 19.82 57.4598L18.592 58.5958C18.5062 58.6787 18.3913 58.7246 18.272 58.7238C18.2109 58.7228 18.1508 58.7087 18.0956 58.6824C18.0404 58.6562 17.9914 58.6185 17.952 58.5718C17.612 58.1784 17.3743 57.7071 17.26 57.1998C17.1243 56.6193 17.0931 56.0192 17.168 55.4278C17.2502 54.7794 17.4366 54.1486 17.72 53.5598C18.0219 52.928 18.4445 52.3613 18.964 51.8918Z" fill="white"/>
</g>
<path d="M108.976 87.8599C107.836 87.2079 103.036 84.4319 101.404 83.4879C101.08 83.3039 100.876 83.1839 100.86 83.1719C100.049 82.7196 99.1004 82.5774 98.192 82.7719C97.4122 82.9302 96.6654 83.2211 95.984 83.6319C95.872 83.6959 95.76 83.7719 95.652 83.8439C93.808 85.0079 92.224 86.8399 90.904 89.3599C89.5599 91.8146 88.8388 94.5616 88.804 97.3599C88.804 100.011 89.5106 101.871 90.924 102.94C91.0671 103.047 91.2167 103.144 91.372 103.232C92.696 103.984 99.336 107.832 99.484 107.916H99.52C99.3566 107.826 99.2002 107.725 99.052 107.612C97.636 106.545 96.9293 104.687 96.932 102.036C96.9668 99.2376 97.6879 96.4906 99.032 94.0359C100.427 91.3693 102.119 89.4586 104.108 88.3039C106.001 87.2106 107.636 87.0679 109.012 87.8759L108.976 87.8599Z" fill="#1E90FF"/>
<path opacity="0.4" d="M109.012 87.8841C107.636 87.0841 106.001 87.2255 104.108 88.3081C102.26 89.3748 100.667 91.1081 99.328 93.5081L91.2 88.8001C92.456 86.5561 93.9399 84.9041 95.6479 83.8281C95.7559 83.7601 95.8679 83.6801 95.9799 83.6161C96.6607 83.2047 97.4078 82.9151 98.188 82.7601C99.0963 82.5634 100.045 82.7057 100.856 83.1601L101.4 83.4761C103.032 84.4161 107.832 87.1921 108.972 87.8441L109.012 87.8841Z" fill="black"/>
<path opacity="0.3" d="M99.52 107.904H99.484C99.336 107.82 92.684 103.972 91.372 103.22C91.2167 103.132 91.0671 103.035 90.924 102.928C89.5106 101.862 88.804 100.003 88.804 97.3522C88.8378 94.5537 89.559 91.8065 90.904 89.3522C91 89.1642 91.1 88.9802 91.204 88.8042L99.328 93.4962C99.228 93.6722 99.128 93.8562 99.032 94.0402C97.6879 96.4949 96.9668 99.2419 96.932 102.04C96.932 104.691 97.6386 106.55 99.052 107.616C99.2007 107.724 99.3571 107.82 99.52 107.904Z" fill="black"/>
<path d="M105.432 19.2199C109.376 16.9399 112.733 15.9706 115.504 16.3119C116.632 16.4466 117.72 16.8086 118.704 17.3759C118.676 17.3614 118.65 17.3454 118.624 17.3279C117.672 16.7919 111.936 13.4839 110.624 12.7119C109.623 12.127 108.512 11.7565 107.36 11.6239C104.587 11.2853 101.228 12.2533 97.284 14.5279C91.1507 18.0666 86.2173 23.2666 82.484 30.1279C78.7507 36.9893 76.904 43.9933 76.944 51.1399L85.068 55.8319C85.012 48.6799 86.8587 41.6746 90.608 34.8159C94.3573 27.9573 99.2987 22.7586 105.432 19.2199Z" fill="#1E90FF"/>
<path opacity="0.2" d="M118.64 17.3321C117.671 16.7921 116.606 16.4457 115.504 16.3121C112.736 15.9707 109.379 16.9401 105.432 19.2201C99.2986 22.7561 94.3653 27.9561 90.632 34.8201C90.476 35.1041 90.324 35.3921 90.176 35.6761L82.032 30.9761C82.18 30.6921 82.332 30.4041 82.488 30.1201C86.2373 23.2641 91.1706 18.0641 97.288 14.5201C101.237 12.2427 104.596 11.2747 107.364 11.6161C108.516 11.75 109.627 12.1218 110.628 12.7081C111.952 13.4881 117.688 16.8001 118.64 17.3321Z" fill="black"/>
<path opacity="0.3" d="M90.156 35.6681C86.7133 42.2521 85.0187 48.9707 85.072 55.8241L76.948 51.1321C76.8973 44.2761 78.592 37.5574 82.032 30.9761L90.156 35.6681Z" fill="black"/>
<path d="M110.952 32.5159C109.477 31.7319 107.508 32.0386 105.044 33.4359C104.961 34.9019 104.659 36.3473 104.148 37.7239C103.532 39.3826 101.74 42.8039 98.7719 47.9879C95.6973 53.3479 93.4733 58.4666 92.0999 63.3439C90.7378 68.1594 90.046 73.1396 90.0439 78.1439L90.0839 80.6359L95.6279 83.8359L98.2119 85.3279L98.1679 82.8319V82.7999C98.1768 77.8118 98.8685 72.8484 100.224 68.0479C101.597 63.1706 103.823 58.0533 106.9 52.6959C109.865 47.5119 111.656 44.0893 112.272 42.4279C112.887 40.7855 113.201 39.0458 113.2 37.2919C113.2 34.9053 112.451 33.3133 110.952 32.5159Z" fill="#1E90FF"/>
<path opacity="0.3" d="M111.476 44.2239C110.559 46.1332 109.033 48.9519 106.9 52.6799C103.82 58.0399 101.595 63.1585 100.224 68.0359C98.8671 72.8401 98.1753 77.8077 98.1679 82.7999V82.8639L98.2119 85.3599L95.6279 83.8719L90.0839 80.6719L90.0439 78.1759C90.0463 73.1715 90.7381 68.1914 92.0999 63.3759C93.4733 58.4985 95.6973 53.3799 98.7719 48.0199C100.905 44.2865 102.433 41.4692 103.356 39.5679L111.476 44.2239Z" fill="black"/>
<path opacity="0.4" d="M113.2 37.2919C113.201 39.0401 112.888 40.7743 112.276 42.4119C112.104 42.8799 111.836 43.4839 111.476 44.2239L103.356 39.5359C103.711 38.7946 103.977 38.1906 104.156 37.7239C104.667 36.3473 104.969 34.9019 105.052 33.4359C107.516 32.0386 109.485 31.7319 110.96 32.5159C112.435 33.2999 113.181 34.8919 113.2 37.2919Z" fill="black"/>
<path d="M96.0679 49.4721L85.0719 55.8241C85.0159 48.6721 86.8626 41.6667 90.6119 34.8081C94.3613 27.9494 99.2946 22.7494 105.412 19.2081C109.356 16.9281 112.713 15.9587 115.484 16.3001C118.255 16.6414 120.472 18.1601 122.136 20.8561C123.803 23.5521 124.636 26.9147 124.636 30.9441C124.619 33.2834 124.351 35.6141 123.836 37.8961C123.213 40.6257 122.371 43.301 121.32 45.8961C120.648 47.5921 119.039 50.7227 116.492 55.2881C114.057 59.6401 112.532 62.6014 111.916 64.1721C111.232 66.0365 110.725 67.9609 110.4 69.9201C109.916 72.8484 109.648 75.8084 109.6 78.7761L98.2279 85.3441L98.1839 82.8481C98.1863 77.8437 98.8781 72.8636 100.24 68.0481C101.613 63.1707 103.839 58.0534 106.916 52.6961C109.881 47.5121 111.672 44.0894 112.288 42.4281C112.898 40.7847 113.207 39.0449 113.2 37.2921C113.2 34.8921 112.452 33.3001 110.956 32.5161C109.46 31.7321 107.452 32.0601 104.932 33.5001C102.356 34.9881 100.243 37.2201 98.5919 40.1961C96.9776 43.024 96.109 46.2161 96.0679 49.4721Z" fill="#1E90FF"/>
<path d="M104.088 88.3318C106.128 87.1505 107.869 87.0772 109.312 88.1118C110.755 89.1465 111.476 90.9878 111.476 93.6358C111.432 96.4495 110.697 99.2092 109.336 101.672C107.912 104.379 106.191 106.315 104.172 107.48C102.153 108.645 100.439 108.693 99.028 107.624C97.6146 106.557 96.908 104.697 96.908 102.044C96.9428 99.2455 97.6639 96.4985 99.008 94.0438C100.408 91.3825 102.101 89.4785 104.088 88.3318Z" fill="#1E90FF"/>
</svg>
