<svg width="12" height="12" viewBox="0 0 12 12" fill="none" xmlns="http://www.w3.org/2000/svg">
<g clip-path="url(#clip0_6106_8480)">
<path fill-rule="evenodd" clip-rule="evenodd" d="M8.6319 6.053C8.2059 5.88085 7.60221 5.76916 6.92328 5.76916V5.30762C7.64651 5.30762 8.31159 5.42577 8.80451 5.62469C9.05051 5.72439 9.26513 5.84808 9.42159 5.99808C9.57851 6.14808 9.69251 6.33962 9.69251 6.56392C9.69251 6.78869 9.57898 6.97977 9.42159 7.13023C9.26467 7.27977 9.05051 7.40392 8.80451 7.50316C8.31159 7.70254 7.64605 7.82023 6.92328 7.82023C6.20005 7.82023 5.53498 7.70254 5.04205 7.50316C4.79605 7.40392 4.58144 7.27977 4.42498 7.13023C4.26805 6.97977 4.15405 6.78869 4.15405 6.56392H4.61559C4.61559 6.62254 4.64421 6.701 4.7439 6.79654C4.84405 6.89208 5.00144 6.989 5.21467 7.07531C5.64067 7.24746 6.24436 7.35869 6.92328 7.35869C7.60175 7.35869 8.20636 7.24746 8.6319 7.07531C8.84513 6.989 9.00251 6.89208 9.10267 6.79654C9.20236 6.701 9.23098 6.62254 9.23098 6.56392C9.23098 6.50531 9.20236 6.42685 9.10267 6.33177C9.00251 6.23577 8.84513 6.13885 8.6319 6.053Z" fill="#0F53B7"/>
<path fill-rule="evenodd" clip-rule="evenodd" d="M4.38482 6.53857C4.44603 6.53857 4.50472 6.56289 4.548 6.60617C4.59128 6.64944 4.61559 6.70814 4.61559 6.76934V8.20473C4.61559 8.26381 4.64421 8.34227 4.7439 8.43734C4.84405 8.53334 5.00144 8.63027 5.21467 8.71657C5.64067 8.88827 6.24436 8.99996 6.92328 8.99996C7.60175 8.99996 8.20636 8.88827 8.6319 8.71657C8.84513 8.63027 9.00251 8.53334 9.10267 8.43734C9.20236 8.34227 9.23098 8.26381 9.23098 8.20519V6.76934C9.23098 6.70814 9.25529 6.64944 9.29857 6.60617C9.34184 6.56289 9.40054 6.53857 9.46175 6.53857C9.52295 6.53857 9.58165 6.56289 9.62492 6.60617C9.6682 6.64944 9.69251 6.70814 9.69251 6.76934V8.20473C9.69251 8.42996 9.57898 8.62104 9.42159 8.77104C9.26467 8.92104 9.05051 9.04473 8.80451 9.14442C8.31159 9.34334 7.64605 9.4615 6.92328 9.4615C6.20005 9.4615 5.53498 9.34334 5.04205 9.14442C4.79605 9.04519 4.58144 8.92104 4.42498 8.77104C4.26805 8.62104 4.15405 8.4295 4.15405 8.20519V6.76934C4.15405 6.70814 4.17837 6.64944 4.22164 6.60617C4.26492 6.56289 4.32362 6.53857 4.38482 6.53857Z" fill="#0F53B7"/>
<path fill-rule="evenodd" clip-rule="evenodd" d="M5.40028 9.1043V7.38461H5.86182V9.1043H5.40028ZM7.43105 8.99999V7.61538H7.89259V8.99999H7.43105ZM2.43628 3.56261C2.33659 3.65768 2.30797 3.73614 2.30797 3.79476C2.30797 3.85338 2.33659 3.93184 2.43628 4.02738C2.53644 4.12291 2.69382 4.21984 2.90705 4.30614C3.33305 4.4783 3.93674 4.58953 4.61567 4.58953C5.29413 4.58953 5.89874 4.4783 6.32428 4.30614C6.53751 4.21984 6.6949 4.12291 6.79505 4.02738C6.89474 3.93184 6.92336 3.85338 6.92336 3.79476C6.92336 3.73614 6.89474 3.65768 6.79505 3.56261C6.6949 3.46661 6.53751 3.36968 6.32428 3.28338C5.89828 3.11168 5.29413 2.99999 4.61567 2.99999C3.9372 2.99999 3.33259 3.11168 2.90705 3.28338C2.69382 3.36968 2.53644 3.46661 2.43628 3.56261ZM2.73444 2.85553C3.22736 2.65661 3.8929 2.53845 4.61567 2.53845C5.3389 2.53845 6.00397 2.65661 6.4969 2.85553C6.7429 2.95522 6.95751 3.07891 7.11397 3.22891C7.2709 3.37891 7.3849 3.57045 7.3849 3.79476C7.3849 4.01953 7.27136 4.21061 7.11397 4.36107C6.95705 4.51061 6.7429 4.63476 6.4969 4.73399C6.00397 4.93338 5.33844 5.05107 4.61567 5.05107C3.89244 5.05107 3.22736 4.93338 2.73444 4.73399C2.48844 4.63476 2.27382 4.51061 2.11736 4.36107C1.96044 4.21061 1.84644 4.01953 1.84644 3.79476C1.84644 3.57045 1.95997 3.37938 2.11736 3.22891C2.27428 3.07891 2.48844 2.95522 2.73444 2.85553Z" fill="#0F53B7"/>
<path fill-rule="evenodd" clip-rule="evenodd" d="M2.0772 3.76929C2.13841 3.76929 2.19711 3.7936 2.24038 3.83688C2.28366 3.88016 2.30797 3.93885 2.30797 4.00006V5.43544C2.30797 5.49452 2.33659 5.57298 2.43628 5.66806C2.53644 5.76406 2.69382 5.86098 2.90705 5.94729C3.33305 6.11898 3.93674 6.23067 4.61567 6.23067C5.29413 6.23067 5.89874 6.11898 6.32428 5.94729C6.53751 5.86098 6.6949 5.76406 6.79505 5.66806C6.89474 5.57298 6.92336 5.49452 6.92336 5.4359V4.00006C6.92336 3.93885 6.94767 3.88016 6.99095 3.83688C7.03423 3.7936 7.09292 3.76929 7.15413 3.76929C7.21533 3.76929 7.27403 3.7936 7.31731 3.83688C7.36058 3.88016 7.3849 3.93885 7.3849 4.00006V5.43544C7.3849 5.66067 7.27136 5.85175 7.11397 6.00175C6.95705 6.15175 6.7429 6.2759 6.4969 6.37513C6.00397 6.57406 5.33844 6.69221 4.61567 6.69221C3.89244 6.69221 3.22736 6.57406 2.73444 6.37513C2.48844 6.27544 2.27382 6.15175 2.11736 6.00175C1.96044 5.85175 1.84644 5.66021 1.84644 5.4359V4.00006C1.84644 3.93885 1.87075 3.88016 1.91403 3.83688C1.9573 3.7936 2.016 3.76929 2.0772 3.76929Z" fill="#0F53B7"/>
<path fill-rule="evenodd" clip-rule="evenodd" d="M3.09253 6.23071V4.66748H3.55407V6.23071H3.09253ZM5.1233 6.23071V4.8461H5.58484V6.23071H5.1233Z" fill="#0F53B7"/>
<path fill-rule="evenodd" clip-rule="evenodd" d="M6.00019 11.3076C8.93142 11.3076 11.3079 8.93117 11.3079 5.99994C11.3079 3.06871 8.93142 0.692251 6.00019 0.692251C3.06896 0.692251 0.692495 3.06871 0.692495 5.99994C0.692495 8.93117 3.06896 11.3076 6.00019 11.3076ZM6.00019 11.7692C9.18665 11.7692 11.7694 9.18641 11.7694 5.99994C11.7694 2.81348 9.18665 0.230713 6.00019 0.230713C2.81373 0.230713 0.230957 2.81348 0.230957 5.99994C0.230957 9.18641 2.81373 11.7692 6.00019 11.7692Z" fill="#0F53B7"/>
</g>
<defs>
<clipPath id="clip0_6106_8480">
<rect width="12" height="12" fill="white"/>
</clipPath>
</defs>
</svg>
