<svg xmlns="http://www.w3.org/2000/svg" xmlns:xlink="http://www.w3.org/1999/xlink" width="500" zoomAndPan="magnify" viewBox="0 0 375 374.999991" height="500" preserveAspectRatio="xMidYMid meet" version="1.0"><path fill="#154e5e" d="M 374.695312 187.5 C 374.695312 190.570312 374.621094 193.636719 374.46875 196.699219 C 374.320312 199.765625 374.09375 202.824219 373.792969 205.878906 C 373.492188 208.933594 373.117188 211.976562 372.667969 215.011719 C 372.21875 218.046875 371.695312 221.070312 371.09375 224.078125 C 370.496094 227.089844 369.824219 230.082031 369.082031 233.058594 C 368.335938 236.035156 367.519531 238.992188 366.628906 241.929688 C 365.738281 244.863281 364.777344 247.777344 363.742188 250.667969 C 362.710938 253.554688 361.609375 256.417969 360.433594 259.253906 C 359.261719 262.089844 358.019531 264.890625 356.707031 267.667969 C 355.398438 270.441406 354.019531 273.179688 352.574219 275.886719 C 351.128906 278.59375 349.617188 281.261719 348.042969 283.894531 C 346.464844 286.527344 344.824219 289.117188 343.121094 291.667969 C 341.417969 294.222656 339.652344 296.730469 337.828125 299.195312 C 336 301.660156 334.113281 304.078125 332.167969 306.449219 C 330.222656 308.820312 328.222656 311.144531 326.164062 313.417969 C 324.105469 315.691406 321.992188 317.914062 319.824219 320.082031 C 317.65625 322.253906 315.433594 324.367188 313.164062 326.429688 C 310.890625 328.488281 308.570312 330.492188 306.199219 332.4375 C 303.828125 334.386719 301.414062 336.273438 298.949219 338.101562 C 296.488281 339.929688 293.980469 341.695312 291.433594 343.402344 C 288.882812 345.105469 286.292969 346.746094 283.664062 348.324219 C 281.035156 349.902344 278.367188 351.414062 275.664062 352.859375 C 272.957031 354.308594 270.222656 355.6875 267.449219 356.996094 C 264.675781 358.308594 261.875 359.554688 259.042969 360.726562 C 256.210938 361.902344 253.351562 363.003906 250.464844 364.039062 C 247.578125 365.074219 244.664062 366.035156 241.730469 366.925781 C 238.796875 367.816406 235.84375 368.636719 232.871094 369.378906 C 229.894531 370.125 226.90625 370.796875 223.898438 371.398438 C 220.890625 371.996094 217.871094 372.519531 214.835938 372.96875 C 211.804688 373.421875 208.761719 373.796875 205.710938 374.097656 C 202.660156 374.398438 199.601562 374.625 196.539062 374.773438 C 193.476562 374.925781 190.414062 375 187.347656 375 C 184.28125 375 181.21875 374.925781 178.15625 374.773438 C 175.09375 374.625 172.035156 374.398438 168.984375 374.097656 C 165.933594 373.796875 162.890625 373.421875 159.859375 372.96875 C 156.824219 372.519531 153.804688 371.996094 150.796875 371.398438 C 147.789062 370.796875 144.800781 370.125 141.824219 369.382812 C 138.851562 368.636719 135.898438 367.816406 132.964844 366.925781 C 130.03125 366.035156 127.117188 365.074219 124.230469 364.039062 C 121.34375 363.003906 118.484375 361.902344 115.652344 360.726562 C 112.820312 359.554688 110.019531 358.308594 107.246094 356.996094 C 104.472656 355.6875 101.738281 354.308594 99.03125 352.859375 C 96.328125 351.414062 93.660156 349.902344 91.03125 348.324219 C 88.402344 346.746094 85.8125 345.105469 83.261719 343.402344 C 80.714844 341.695312 78.207031 339.929688 75.746094 338.101562 C 73.28125 336.273438 70.867188 334.386719 68.496094 332.4375 C 66.125 330.492188 63.804688 328.488281 61.53125 326.429688 C 59.261719 324.367188 57.039062 322.253906 54.871094 320.082031 C 52.703125 317.914062 50.589844 315.691406 48.53125 313.417969 C 46.472656 311.144531 44.472656 308.820312 42.527344 306.449219 C 40.582031 304.078125 38.695312 301.660156 36.867188 299.195312 C 35.042969 296.730469 33.277344 294.222656 31.574219 291.667969 C 29.871094 289.117188 28.230469 286.527344 26.652344 283.894531 C 25.078125 281.261719 23.566406 278.59375 22.121094 275.886719 C 20.675781 273.179688 19.296875 270.441406 17.988281 267.667969 C 16.675781 264.890625 15.433594 262.089844 14.261719 259.253906 C 13.085938 256.417969 11.984375 253.554688 10.953125 250.667969 C 9.917969 247.777344 8.957031 244.863281 8.066406 241.929688 C 7.175781 238.992188 6.359375 236.035156 5.613281 233.058594 C 4.871094 230.082031 4.199219 227.089844 3.601562 224.078125 C 3 221.070312 2.476562 218.046875 2.027344 215.011719 C 1.578125 211.976562 1.203125 208.933594 0.902344 205.878906 C 0.601562 202.824219 0.375 199.765625 0.226562 196.699219 C 0.0742188 193.636719 0 190.570312 0 187.5 C 0 184.429688 0.0742188 181.363281 0.226562 178.300781 C 0.375 175.234375 0.601562 172.175781 0.902344 169.121094 C 1.203125 166.066406 1.578125 163.023438 2.027344 159.988281 C 2.476562 156.953125 3 153.929688 3.601562 150.921875 C 4.199219 147.910156 4.871094 144.917969 5.613281 141.941406 C 6.359375 138.964844 7.175781 136.007812 8.066406 133.070312 C 8.957031 130.136719 9.917969 127.222656 10.953125 124.332031 C 11.984375 121.445312 13.085938 118.582031 14.261719 115.746094 C 15.433594 112.910156 16.675781 110.105469 17.988281 107.332031 C 19.296875 104.558594 20.675781 101.820312 22.121094 99.113281 C 23.566406 96.40625 25.078125 93.738281 26.652344 91.105469 C 28.230469 88.472656 29.871094 85.882812 31.574219 83.332031 C 33.277344 80.777344 35.042969 78.269531 36.867188 75.804688 C 38.695312 73.339844 40.582031 70.921875 42.527344 68.550781 C 44.472656 66.179688 46.472656 63.855469 48.53125 61.582031 C 50.589844 59.308594 52.703125 57.085938 54.871094 54.917969 C 57.039062 52.746094 59.261719 50.632812 61.53125 48.570312 C 63.804688 46.511719 66.125 44.507812 68.496094 42.558594 C 70.867188 40.613281 73.28125 38.726562 75.746094 36.898438 C 78.207031 35.070312 80.714844 33.304688 83.261719 31.597656 C 85.8125 29.894531 88.402344 28.253906 91.03125 26.675781 C 93.660156 25.097656 96.328125 23.585938 99.03125 22.140625 C 101.738281 20.691406 104.472656 19.3125 107.246094 18.003906 C 110.019531 16.691406 112.820312 15.445312 115.652344 14.273438 C 118.484375 13.097656 121.34375 11.996094 124.230469 10.960938 C 127.117188 9.925781 130.03125 8.964844 132.964844 8.074219 C 135.898438 7.183594 138.851562 6.363281 141.824219 5.621094 C 144.800781 4.875 147.789062 4.203125 150.796875 3.601562 C 153.804688 3.003906 156.824219 2.480469 159.859375 2.03125 C 162.890625 1.578125 165.933594 1.203125 168.984375 0.902344 C 172.035156 0.601562 175.09375 0.375 178.15625 0.226562 C 181.21875 0.0742188 184.28125 0 187.347656 0 C 190.414062 0 193.476562 0.0742188 196.539062 0.226562 C 199.601562 0.375 202.660156 0.601562 205.710938 0.902344 C 208.761719 1.203125 211.804688 1.578125 214.835938 2.03125 C 217.871094 2.480469 220.890625 3.003906 223.898438 3.601562 C 226.90625 4.203125 229.894531 4.875 232.871094 5.621094 C 235.84375 6.363281 238.796875 7.183594 241.730469 8.074219 C 244.664062 8.964844 247.578125 9.925781 250.464844 10.960938 C 253.351562 11.996094 256.210938 13.097656 259.042969 14.273438 C 261.875 15.445312 264.675781 16.691406 267.449219 18.003906 C 270.222656 19.3125 272.957031 20.691406 275.664062 22.140625 C 278.367188 23.585938 281.035156 25.097656 283.664062 26.675781 C 286.292969 28.253906 288.882812 29.894531 291.433594 31.597656 C 293.980469 33.304688 296.488281 35.070312 298.949219 36.898438 C 301.414062 38.726562 303.828125 40.613281 306.199219 42.558594 C 308.570312 44.507812 310.890625 46.511719 313.164062 48.570312 C 315.433594 50.632812 317.65625 52.746094 319.824219 54.917969 C 321.992188 57.085938 324.105469 59.308594 326.164062 61.582031 C 328.222656 63.855469 330.222656 66.179688 332.167969 68.550781 C 334.113281 70.921875 336 73.339844 337.828125 75.804688 C 339.652344 78.269531 341.417969 80.777344 343.121094 83.332031 C 344.824219 85.882812 346.464844 88.472656 348.042969 91.105469 C 349.617188 93.738281 351.128906 96.40625 352.574219 99.113281 C 354.019531 101.820312 355.398438 104.558594 356.707031 107.332031 C 358.019531 110.105469 359.261719 112.910156 360.433594 115.746094 C 361.609375 118.582031 362.710938 121.445312 363.742188 124.332031 C 364.777344 127.222656 365.738281 130.136719 366.628906 133.070312 C 367.519531 136.007812 368.335938 138.964844 369.082031 141.941406 C 369.824219 144.917969 370.496094 147.910156 371.09375 150.921875 C 371.695312 153.929688 372.21875 156.953125 372.667969 159.988281 C 373.117188 163.023438 373.492188 166.066406 373.792969 169.121094 C 374.09375 172.175781 374.320312 175.234375 374.46875 178.300781 C 374.621094 181.363281 374.695312 184.429688 374.695312 187.5 Z M 374.695312 187.5 " fill-opacity="1" fill-rule="nonzero"/><path fill="#31d5de" d="M 271.179688 151.761719 C 314.949219 171.996094 347.167969 207.054688 364.648438 248.207031 C 339.433594 321.964844 269.585938 375 187.347656 375 C 110.625 375 44.703125 328.847656 15.722656 262.78125 C 17.925781 256.113281 20.523438 249.5 23.53125 242.972656 C 66.746094 149.339844 177.625 108.511719 271.179688 151.761719 Z M 271.179688 151.761719 " fill-opacity="1" fill-rule="evenodd"/><path fill="#00bac4" d="M 271.179688 151.761719 C 314.949219 171.996094 347.167969 207.054688 364.648438 248.207031 C 354.152344 278.910156 335.921875 306.011719 312.28125 327.199219 C 332.554688 259.265625 307.769531 185.867188 251.480469 143.980469 C 258.105469 146.1875 264.699219 148.765625 271.179688 151.761719 Z M 271.179688 151.761719 " fill-opacity="1" fill-rule="evenodd"/><path fill="#dfe3e8" d="M 313.734375 325.890625 C 313.160156 325.191406 312.550781 324.113281 311.746094 322.339844 C 309.9375 318.433594 312.371094 314.632812 306.980469 314.9375 C 305.101562 318.558594 306.535156 320.207031 307.375 322.664062 C 307.949219 324.507812 308.988281 326.085938 308.789062 328.128906 C 308.84375 328.199219 308.34375 330.011719 308.304688 330.261719 L 308.609375 330.40625 C 300.550781 337.269531 291.902344 343.4375 282.769531 348.867188 C 283.019531 345.820312 283.289062 342.738281 283.554688 339.65625 C 284.933594 329.292969 283.414062 332.863281 282.714844 326.839844 C 282.300781 324.1875 283.464844 323.148438 283.394531 320.925781 C 283.394531 319.292969 282.714844 318.253906 282.640625 316.210938 C 282.535156 313.039062 282.875 308.324219 279.707031 307.355469 C 278.148438 309.09375 278.363281 317.5 278.433594 319.5625 C 278.503906 321.625 279.527344 322.96875 278.808594 325.546875 C 277.859375 329.078125 277.378906 328.363281 278.148438 331.410156 C 279.8125 337.699219 276.25 335.066406 280.046875 342.234375 C 282.035156 345.964844 281.855469 347.324219 281.515625 349.621094 C 258.445312 363.0625 232.265625 371.703125 204.324219 374.230469 C 204.46875 373.441406 204.488281 372.757812 204.71875 372.042969 C 206.296875 366.433594 207.960938 361.519531 206.367188 355.804688 C 204.59375 349.566406 204.378906 351.375 209 344.601562 C 214.460938 336.910156 209.878906 337.414062 204.917969 334.851562 C 205.972656 326.03125 199.417969 327.539062 193.542969 327.554688 C 189.855469 327.554688 189.570312 325.226562 185.898438 324.132812 C 177.765625 321.640625 182.28125 327.71875 175.777344 314.867188 C 173.074219 309.507812 175.152344 312.554688 174.578125 307.140625 C 174.433594 305.222656 172.789062 301.996094 172.304688 299.917969 C 170.675781 293.269531 177.550781 290.472656 179.46875 284.574219 C 183.066406 273.660156 177.230469 281.902344 188.796875 272.046875 C 194.90625 266.777344 199.542969 268.875 202.105469 266.4375 C 204.34375 264.25 204.539062 262.042969 207.566406 260.503906 C 210.183594 259.285156 212.402344 260.808594 214.800781 258.15625 C 217.917969 254.945312 215.554688 253.261719 212.777344 251.863281 C 213.460938 247.3125 212.992188 248.296875 215.609375 245.015625 C 217.058594 243.171875 217.078125 241.96875 218.472656 240.105469 C 222.003906 235.445312 228.449219 244.675781 231.960938 243.726562 C 234.164062 242.058594 235.328125 239.980469 234.96875 237.21875 C 234.519531 234.460938 232.550781 233.867188 232.53125 231.414062 C 235.328125 230.945312 233.175781 231.484375 235.21875 231.933594 C 237.636719 232.453125 237.65625 231.699219 240.464844 232.398438 C 242.972656 233.007812 245.425781 231.574219 248.328125 231.164062 C 252.5 230.570312 251.839844 228.027344 256.011719 229.191406 C 262.746094 230.984375 258.609375 229.296875 261.976562 223.796875 C 263.085938 223.886719 264.179688 223.886719 265.269531 223.902344 C 266.058594 227.378906 264.050781 225.195312 265.628906 228.007812 C 266.417969 227.9375 267.3125 227.917969 268.152344 227.863281 C 269.101562 224.90625 267.5625 224.851562 268.316406 221 C 265 220.050781 262.671875 222.148438 260.632812 220.066406 C 258.625 218.042969 260.113281 214.511719 261.5625 211.679688 C 263.460938 209.941406 268.496094 210.855469 270.480469 211.105469 C 273.742188 211.464844 274.226562 209.386719 277.984375 208.023438 C 282.929688 206.195312 278.863281 208.472656 282.515625 204.867188 C 286.296875 206.445312 284.613281 205.496094 287.316406 205.386719 L 287.460938 205.40625 L 287.730469 205.40625 C 289.285156 205.421875 291.042969 206.070312 292.992188 206.265625 C 300.140625 207.054688 302.179688 209.257812 305.835938 213.183594 C 308.648438 216.230469 319.160156 221.144531 317.90625 225.929688 C 314.144531 227.417969 312.621094 224.351562 308.863281 222.898438 C 307.949219 226.628906 308.234375 226.753906 310.886719 229.136719 C 312.15625 227.757812 311.117188 228.042969 312.441406 227.398438 C 313.355469 228.078125 314.289062 228.742188 315.21875 229.386719 C 317.832031 226.375 318.78125 227.433594 322.402344 228.597656 C 322.9375 225.945312 322.007812 226.339844 324.171875 225.050781 C 327.558594 227.058594 324.820312 225.410156 325.25 229.066406 C 327.882812 229.890625 331.570312 228.257812 335.171875 229.476562 C 337.410156 230.25 336.925781 231 340.09375 232.09375 C 342.691406 232.953125 342.996094 232.003906 345.003906 234.191406 C 346.667969 232.9375 345.753906 232.558594 348.136719 233.167969 C 351.773438 234.15625 353.742188 237.578125 356.785156 239.53125 C 355.855469 235.859375 353.6875 235.105469 357.035156 232.398438 C 359.832031 237.5625 362.355469 242.832031 364.648438 248.207031 C 354.367188 278.285156 336.675781 304.898438 313.734375 325.890625 Z M 65.566406 329.976562 C 80.734375 342.96875 97.980469 353.5625 116.769531 361.214844 C 119.292969 358.6875 121.550781 354.996094 122.785156 352.648438 C 126.402344 345.570312 123.574219 346.070312 134.03125 339.851562 C 137.417969 337.808594 139.726562 334.457031 138.867188 329.957031 C 137.667969 327.96875 136.863281 328.523438 135.625 326.320312 C 132.472656 320.441406 134.675781 322.160156 128.800781 318.183594 C 125.042969 315.566406 126.1875 316.765625 125.167969 314.09375 C 123.394531 309.507812 119.363281 309.953125 118.46875 305.867188 C 118.503906 304.453125 118.523438 303.054688 118.648438 301.621094 C 118.648438 301.027344 118.503906 300.472656 118.503906 299.972656 C 118.539062 296.816406 119.472656 297.300781 118.273438 294.289062 C 115.476562 287.03125 113.957031 290.328125 110.339844 286.511719 C 109.085938 283.320312 107.796875 280.039062 106.503906 276.761719 C 106.363281 275.882812 106.59375 275.21875 106.328125 274.339844 C 106.289062 274.269531 106.203125 274.054688 106.148438 273.980469 C 106.203125 273.890625 106.074219 273.714844 106.023438 273.695312 C 105.628906 273.355469 105.179688 272.976562 104.875 272.621094 C 102.0625 269.878906 101.277344 270.953125 98.839844 269.789062 C 98.035156 269.410156 97.066406 268.785156 95.8125 267.707031 C 92.875 265.21875 94.09375 261.667969 89.5625 263.785156 C 89.527344 262.691406 89.4375 261.542969 89.4375 260.394531 C 88.902344 260.484375 88.472656 260.558594 87.96875 260.59375 C 82.902344 261.09375 83.277344 259.085938 79.820312 262.132812 C 77.851562 263.890625 78.980469 263.066406 76.6875 264.175781 C 74.289062 262.582031 75.613281 261.058594 72.566406 260.253906 C 69.828125 259.535156 68.789062 261.347656 66.890625 257.90625 C 64.472656 253.386719 69.503906 249.15625 71.386719 244.175781 C 67.894531 239.066406 66.480469 241.808594 63.523438 238.617188 C 63.667969 236.664062 65.921875 235.035156 66.925781 234.03125 C 68.574219 232.253906 70.277344 230.640625 71.011719 227.703125 C 66.265625 224.53125 65.871094 226.429688 62.84375 228.851562 C 58.292969 232.488281 49.339844 227.648438 53.636719 217.324219 C 55.125 213.472656 57.792969 211.695312 60.03125 208.632812 C 61.875 206.085938 64.5625 206.070312 67.589844 205.566406 C 72.996094 204.777344 72.910156 208.667969 76.058594 209.367188 C 78.90625 210.03125 79.464844 206.570312 84.890625 211.265625 C 89.902344 215.605469 89.546875 212.539062 87.289062 220.246094 C 88.398438 221.359375 89.582031 222.503906 90.835938 223.632812 C 95.457031 212.59375 90.726562 213.972656 100.667969 210.910156 C 103.765625 209.976562 104.519531 210.386719 107.597656 209.957031 C 111.234375 209.457031 111.894531 209.636719 113.417969 204.726562 C 113.578125 204.671875 113.757812 204.597656 113.972656 204.546875 C 116.425781 203.703125 118.933594 202.84375 121.441406 201.980469 C 124.019531 200.980469 127.28125 201.445312 130.109375 201.820312 C 132.152344 198.273438 132.671875 198.308594 136.089844 198.46875 L 136.359375 198.488281 C 139.046875 198.578125 141.285156 198.289062 143.757812 199.167969 C 140.945312 200.980469 142.933594 198.128906 141.230469 201.820312 C 143.847656 202.375 145.316406 201.570312 148.699219 202.054688 C 151.796875 202.449219 153.714844 203.328125 155.59375 200.421875 C 153.714844 199.9375 145.332031 200.496094 149.863281 195.421875 C 151.65625 193.449219 150.722656 196.210938 152.496094 192.804688 C 151.476562 191.746094 150.527344 190.707031 149.59375 189.613281 C 156.148438 189.203125 153.769531 191.820312 155.972656 194.417969 C 157.351562 193.523438 156.257812 194.402344 156.707031 193.164062 C 157.90625 189.957031 155.128906 194.203125 156.972656 192.105469 C 159.195312 192.789062 160.519531 193.898438 162.757812 194.222656 C 165.265625 194.5625 165.480469 193.503906 168.757812 194.382812 C 165.5 197.464844 163.117188 196.40625 160.109375 199.507812 C 160.589844 199.9375 168.238281 205.726562 168.398438 205.800781 C 169.222656 204.152344 170.046875 202.519531 170.90625 200.835938 C 170.03125 199.886719 169.1875 198.933594 168.398438 197.984375 C 172.699219 192.804688 177.480469 191.890625 170.835938 184.992188 C 172.144531 180.402344 173.234375 179.058594 173.359375 174.792969 C 169.742188 173.769531 169.367188 176.226562 166.375 175.4375 C 162.507812 174.363281 165.195312 171.78125 166.394531 169.378906 C 163.976562 166.617188 165.804688 166.636719 163.207031 164.84375 C 162.453125 164.289062 158.765625 162.085938 157.832031 161.601562 C 156.3125 162.316406 155.128906 163.089844 154.179688 163.875 C 147.839844 169.21875 152.121094 175.617188 138.546875 172.480469 C 136.164062 175.257812 133.746094 180.203125 131.273438 175.957031 C 130.914062 172.605469 134.03125 171.761719 135.195312 169.234375 C 133.746094 168.230469 132.582031 167.371094 131.6875 166.617188 C 127.15625 162.710938 129.554688 161.921875 124.46875 159.199219 C 125.992188 155.023438 124.324219 156.992188 125.957031 153.640625 C 129.070312 152.621094 133.746094 152.101562 138.527344 151.957031 C 142.71875 151.867188 147.050781 152.117188 150.382812 152.566406 C 149.453125 153.285156 148.503906 154 147.589844 154.664062 C 150.203125 158.445312 148.144531 158.75 150.3125 158.949219 C 152.300781 159.089844 150.6875 158.121094 150.707031 158.085938 C 150.757812 157.226562 147.5 155.882812 151.726562 156.207031 C 153.679688 156.382812 154.144531 157.585938 155.628906 158.660156 C 157.566406 153.875 153.730469 155.703125 154.554688 151.382812 C 156.222656 153.230469 157.871094 153.785156 159.535156 153.625 C 162.273438 153.390625 165.105469 151.242188 168.167969 149.859375 C 172.429688 151.832031 173.699219 151.4375 175.382812 156.097656 C 176.136719 158.140625 176.136719 155.953125 176.082031 158.554688 C 175.222656 158.929688 170.421875 160.023438 169.726562 160.039062 C 165.785156 160.183594 165.945312 157.03125 162.472656 158.769531 C 163.097656 160.257812 164.78125 160.433594 165.929688 160.917969 C 167.789062 161.601562 167.828125 161.957031 168.328125 163.554688 C 169.652344 167.765625 169.0625 166.832031 172.984375 170.132812 C 173.414062 169.953125 173.84375 169.773438 174.347656 169.558594 C 174.453125 169.503906 174.613281 169.414062 174.777344 169.378906 C 174.847656 169.359375 175.0625 169.34375 175.132812 169.324219 C 177.460938 169.144531 174.953125 170.4375 178.125 170.097656 C 181.707031 169.738281 179.21875 167.15625 180.558594 164.074219 C 183.980469 165.257812 181.222656 166.511719 184.285156 167.855469 C 186.488281 168.824219 188.261719 167.785156 189.40625 166.511719 C 188.53125 162.945312 187.742188 164.054688 186.703125 162.15625 C 185.539062 159.96875 187.347656 158.839844 187.027344 156.597656 C 186.773438 155.183594 184.714844 153.894531 183.730469 152.78125 C 179.378906 147.710938 188.242188 150.828125 170.421875 142.421875 C 168.867188 141.703125 167.34375 141.347656 165.929688 141.363281 C 163.851562 141.398438 162.007812 142.207031 160.609375 143.730469 C 160.699219 145.46875 161.988281 146.078125 162.347656 147.65625 C 160.628906 149.054688 157.441406 149.71875 154.949219 148.765625 C 159.390625 142.691406 151.546875 149.019531 157.027344 139.679688 C 159.640625 139.785156 162.203125 140.863281 164.621094 140.074219 C 164.136719 139.355469 163.601562 138.605469 163.1875 137.871094 C 162.6875 137.511719 162.183594 137.296875 161.683594 137.171875 C 160.179688 137.4375 158.675781 137.707031 157.171875 137.996094 C 156.292969 138.351562 155.453125 138.695312 154.644531 138.785156 L 154.644531 138.515625 C 153.085938 138.835938 151.53125 139.175781 149.972656 139.554688 C 147.859375 141.832031 149.773438 142.996094 145.761719 143.390625 C 145.761719 143.226562 145.886719 142.835938 145.78125 142.90625 C 145.796875 143.011719 145.886719 142.511719 145.90625 142.457031 C 146.03125 141.792969 146.175781 141.113281 146.335938 140.46875 C 102.53125 151.796875 63.128906 178.898438 37.125 218.488281 C 38.898438 221.894531 41.640625 225.425781 44.359375 228.671875 C 48.15625 233.167969 45.902344 231.25 50.863281 232.773438 C 54.15625 233.742188 53.351562 236.394531 54.480469 238.832031 C 56.898438 244.535156 62.199219 241.789062 62.144531 251.058594 C 62.089844 255.464844 60.875 249.980469 64.078125 258.246094 C 65.441406 260.179688 66.855469 262.152344 68.269531 264.125 C 70.417969 262.707031 69.558594 261.597656 72.40625 261.652344 C 73.230469 263.121094 73.375 266.652344 72.945312 268.910156 C 70.222656 281.042969 58.796875 275.59375 59.566406 287.101562 C 57.488281 289.089844 56.59375 288.089844 55.964844 291.351562 C 55.160156 294.863281 56.539062 294.398438 57.113281 297.140625 C 58.417969 302.875 57.078125 315.976562 59.851562 320.761719 C 59.871094 320.871094 59.960938 320.976562 60.101562 321.101562 C 62.019531 324.277344 64.902344 327 65.566406 329.976562 Z M 262.710938 259.015625 C 263.800781 260.71875 265.359375 262.367188 266.039062 263.910156 C 265.664062 268.585938 264.699219 265.789062 265.628906 271.3125 C 266.21875 274.324219 265.128906 275.792969 266.238281 277.835938 C 269.515625 278.855469 266.398438 278.515625 269.191406 277.496094 C 269.695312 277.296875 271.164062 276.617188 271.644531 276.292969 C 271.359375 274.285156 270.785156 273.875 270.625 271.867188 C 276.25 268.855469 276.554688 272.207031 275.960938 275.667969 C 274.242188 285.203125 278.757812 284.269531 281.765625 285.167969 C 284.808594 286.097656 282.105469 285.433594 284.378906 287.316406 C 286.566406 289.089844 285.667969 287.910156 287.621094 288.265625 C 294.195312 289.558594 284.363281 298.894531 283.160156 299.863281 C 279.757812 298.789062 280.707031 298.359375 278.503906 297.066406 C 274.0625 294.414062 277.503906 299.988281 268.152344 291.296875 C 259.128906 283.015625 261.742188 283.300781 256.15625 289.628906 C 253.808594 288.339844 254.132812 287.925781 252.25 286.132812 C 251.535156 285.398438 251.121094 285.003906 250.835938 284.753906 L 250.726562 284.664062 C 249.976562 283.929688 250.746094 284.628906 249.707031 282.011719 C 248.792969 279.71875 244.960938 277.511719 242.832031 274.71875 C 243.957031 272.296875 247.019531 271.257812 245.765625 267.171875 C 245.03125 266.5625 232.820312 261.507812 230.722656 261.023438 C 226.480469 260.054688 224.277344 263.03125 219.28125 259.839844 C 216.539062 258.082031 217.417969 258.820312 217.472656 256.773438 C 218.867188 256.253906 217.6875 256.308594 219.585938 256.488281 C 220.320312 256.542969 220.496094 256.738281 221.160156 256.9375 C 230.417969 259.625 228 253.207031 235.328125 251.503906 C 241.488281 249.980469 236.257812 252.007812 240.753906 248.761719 C 243.921875 249.910156 242.832031 251.199219 246 251.148438 C 248.652344 251.058594 248.398438 249.785156 251.480469 251.109375 C 252.929688 255.054688 251.625 256.417969 255.0625 260.519531 C 256.421875 262.132812 257.28125 263.085938 257.710938 265.089844 C 258.410156 268.910156 257.105469 267.152344 256.980469 269.5 C 257.195312 269.5 257.460938 269.5 257.710938 269.519531 L 257.855469 269.519531 C 260.738281 269.484375 257.371094 267.492188 262.746094 265.878906 C 261.992188 264.554688 261.4375 263.605469 260.9375 262.871094 L 260.847656 262.761719 C 258.679688 259.625 259.109375 261.792969 257.480469 255.25 C 257.105469 253.421875 256.851562 253.207031 257.875 251.164062 C 260.847656 251.9375 260.453125 254.160156 261.902344 257.511719 C 262.101562 257.976562 262.371094 258.441406 262.636719 258.890625 Z M 316.707031 278.625 C 314.554688 284.324219 316.847656 287.945312 317.996094 291.527344 C 316.492188 294.019531 316.1875 293.054688 314.554688 296.726562 C 316.402344 299.988281 317.871094 302.140625 321.917969 302.820312 C 324.460938 298.628906 322.957031 298.195312 323.007812 294.558594 C 323.386719 294.308594 324.210938 294.144531 324.371094 294.109375 C 326 293.214844 324.640625 294.882812 326.199219 292.800781 C 323.941406 290.742188 320.914062 286.042969 322.222656 282.335938 C 323.996094 281.902344 323.3125 282.351562 324.566406 282.15625 C 327.273438 281.761719 324.730469 283.105469 327.019531 281.382812 C 326.933594 278.820312 325.910156 277.90625 322.847656 277.765625 C 321.503906 277.691406 317.546875 278.425781 316.707031 278.625 Z M 293.03125 269.445312 C 292.421875 266.203125 293.082031 265.039062 289.753906 263.390625 C 287.746094 264.214844 285.167969 265.648438 283.414062 267.511719 C 280.761719 270.324219 282.605469 268.390625 281.046875 272.046875 C 280.941406 272.152344 280.90625 272.367188 280.851562 272.496094 C 279.792969 274.644531 280.476562 271.832031 279.882812 273.980469 C 282.785156 274.644531 280.742188 273.765625 283 274.035156 C 285.148438 274.269531 291.613281 275.183594 293.066406 276.347656 C 296.523438 279.035156 298.367188 283.605469 304.167969 282.566406 C 305.761719 278.550781 301.714844 274.878906 299.246094 271.652344 C 301.089844 268.140625 300.730469 271.417969 302.109375 267.835938 C 301 267.277344 300.410156 266.777344 299.136719 266.742188 C 296.074219 266.6875 297.347656 267.65625 297.148438 268.066406 C 296.378906 270.054688 299.871094 268.835938 296.183594 270.019531 C 295.160156 270.308594 293.980469 269.769531 293.03125 269.445312 Z M 239.964844 211.769531 C 236.9375 218.023438 240.109375 216.914062 240.753906 220.980469 C 238.566406 223.203125 239.355469 221.054688 237.027344 223.3125 C 235.003906 225.175781 237.136719 223.632812 234.664062 227.363281 C 236.257812 228.203125 238.945312 228.742188 241.164062 229.550781 C 244.335938 230.679688 244.40625 230.390625 246.894531 227.773438 C 246.179688 224.925781 245.445312 222.058594 244.65625 219.1875 C 243.996094 214.832031 245.140625 218.148438 245.75 215.03125 C 245.695312 213.8125 245.714844 212.609375 245.714844 211.410156 C 242.328125 211.050781 242.742188 210.910156 239.964844 211.769531 Z M 239.964844 211.769531 " fill-opacity="1" fill-rule="evenodd"/><path fill="#c5ced9" d="M 313.734375 325.890625 C 313.5 325.601562 313.25 325.242188 312.980469 324.796875 C 315.203125 316.945312 316.8125 309.039062 317.851562 301.117188 C 318.890625 301.941406 320.164062 302.515625 321.917969 302.820312 C 324.460938 298.628906 322.957031 298.195312 323.007812 294.558594 C 323.386719 294.308594 324.210938 294.144531 324.371094 294.109375 C 326 293.214844 324.640625 294.882812 326.199219 292.800781 C 323.941406 290.742188 320.914062 286.042969 322.222656 282.335938 C 323.996094 281.902344 323.3125 282.351562 324.566406 282.15625 C 327.273438 281.761719 324.730469 283.105469 327.019531 281.382812 C 326.933594 278.820312 325.910156 277.90625 322.847656 277.765625 C 322.113281 277.710938 320.628906 277.925781 319.285156 278.140625 C 319.175781 261.183594 316.472656 244.425781 311.441406 228.4375 C 311.816406 227.828125 311.40625 227.898438 312.441406 227.398438 C 313.355469 228.078125 314.289062 228.742188 315.21875 229.386719 C 317.832031 226.375 318.78125 227.433594 322.402344 228.597656 C 322.9375 225.945312 322.007812 226.339844 324.171875 225.050781 C 327.558594 227.058594 324.820312 225.410156 325.25 229.066406 C 327.882812 229.890625 331.570312 228.257812 335.171875 229.476562 C 337.410156 230.25 336.925781 231 340.09375 232.09375 C 342.691406 232.953125 342.996094 232.003906 345.003906 234.191406 C 346.667969 232.9375 345.753906 232.558594 348.136719 233.167969 C 351.773438 234.15625 353.742188 237.578125 356.785156 239.53125 C 355.855469 235.859375 353.6875 235.105469 357.035156 232.398438 C 359.832031 237.5625 362.355469 242.832031 364.648438 248.207031 C 354.367188 278.285156 336.675781 304.898438 313.734375 325.890625 Z M 305.78125 213.132812 L 305.835938 213.183594 C 308.648438 216.230469 319.160156 221.144531 317.90625 225.929688 C 314.449219 227.289062 312.875 224.816406 309.722656 223.277344 C 308.519531 219.851562 307.214844 216.464844 305.78125 213.132812 Z M 305.78125 213.132812 " fill-opacity="1" fill-rule="evenodd"/><path fill="#00bac4" d="M 244.171875 152.871094 L 190.910156 134.964844 L 178.839844 135.933594 L 213.78125 165.542969 L 215.679688 165.09375 L 145.90625 195.046875 L 132.421875 200.960938 L 102.027344 191.550781 L 93.738281 196.875 L 107.382812 211.910156 L 103.390625 213.667969 L 105.914062 221.339844 L 115.371094 221.449219 L 104.554688 240.570312 L 121.855469 234.890625 L 131.902344 221.625 L 157.3125 221.914062 C 157.3125 221.914062 179.128906 215.03125 205.113281 206.714844 L 181.507812 253.046875 L 196.230469 252.582031 L 246.070312 193.503906 C 264.304688 187.554688 280.097656 182.285156 287.171875 179.648438 C 294.210938 177.03125 299.960938 174.324219 304.597656 171.65625 C 294.371094 164.019531 283.214844 157.335938 271.179688 151.761719 C 267.097656 149.878906 262.976562 148.15625 258.824219 146.582031 Z M 244.171875 152.871094 " fill-opacity="1" fill-rule="evenodd"/><path fill="#c5ced9" d="M 171.050781 184.253906 L 154.609375 191.316406 C 154.933594 192.195312 155.039062 193.308594 155.972656 194.417969 C 157.351562 193.523438 156.257812 194.402344 156.707031 193.164062 C 157.90625 189.957031 155.128906 194.203125 156.972656 192.105469 C 159.195312 192.789062 160.519531 193.898438 162.757812 194.222656 C 165.265625 194.5625 165.480469 193.503906 168.757812 194.382812 C 165.5 197.464844 163.117188 196.40625 160.109375 199.507812 C 160.589844 199.9375 168.238281 205.726562 168.398438 205.800781 C 169.222656 204.152344 170.046875 202.519531 170.90625 200.835938 C 170.03125 199.886719 169.1875 198.933594 168.398438 197.984375 C 172.699219 192.804688 177.480469 191.890625 170.835938 184.992188 Z M 152.085938 192.394531 L 145.90625 195.046875 L 138.007812 198.503906 C 139.996094 198.503906 141.804688 198.488281 143.757812 199.167969 C 140.945312 200.980469 142.933594 198.128906 141.230469 201.820312 C 143.847656 202.375 145.316406 201.570312 148.699219 202.054688 C 151.796875 202.449219 153.714844 203.328125 155.59375 200.421875 C 153.714844 199.9375 145.332031 200.496094 149.863281 195.421875 C 151.65625 193.449219 150.722656 196.210938 152.496094 192.804688 Z M 130.914062 200.496094 L 102.027344 191.550781 L 93.738281 196.875 L 105.773438 210.15625 C 106.289062 210.101562 106.882812 210.046875 107.597656 209.957031 C 111.234375 209.4375 111.894531 209.636719 113.417969 204.726562 C 113.578125 204.671875 113.757812 204.597656 113.972656 204.527344 C 116.425781 203.703125 118.933594 202.84375 121.441406 201.980469 C 124.019531 200.980469 127.28125 201.445312 130.109375 201.820312 C 130.414062 201.300781 130.683594 200.871094 130.914062 200.496094 Z M 130.914062 200.496094 " fill-opacity="1" fill-rule="evenodd"/><path fill="#eaedf0" d="M 66.695312 117.652344 L 69.113281 126.289062 C 23.265625 148.605469 13.269531 184.003906 27.453125 208.8125 C 16.546875 195.421875 7.46875 153.070312 66.695312 117.652344 Z M 66.695312 117.652344 " fill-opacity="1" fill-rule="evenodd"/><path fill="#ecf0f1" d="M 219.546875 25.273438 L 242.722656 19.339844 C 244.171875 18.980469 245.660156 19.859375 246.035156 21.3125 L 248.273438 30.074219 C 248.652344 31.527344 247.753906 33.015625 246.304688 33.390625 L 222.289062 39.523438 C 218.671875 40.453125 214.945312 38.25 214.015625 34.609375 C 212.976562 30.523438 215.464844 26.3125 219.546875 25.273438 Z M 219.546875 25.273438 " fill-opacity="1" fill-rule="evenodd"/><path fill="#cad0d1" d="M 247.792969 28.195312 L 248.273438 30.074219 C 248.652344 31.527344 247.628906 33.050781 246.019531 33.464844 L 223.003906 39.34375 C 218.992188 40.363281 214.945312 38.25 214.015625 34.609375 C 213.890625 34.164062 213.835938 33.714844 213.800781 33.265625 C 215.929688 34.898438 218.902344 35.578125 221.875 34.808594 Z M 247.792969 28.195312 " fill-opacity="1" fill-rule="evenodd"/><path fill="#ff7375" d="M 236.109375 21.035156 L 238.488281 20.425781 L 242.078125 34.476562 L 239.699219 35.085938 Z M 236.109375 21.035156 " fill-opacity="1" fill-rule="evenodd"/><path fill="#ff576b" d="M 268.441406 39.039062 L 186.632812 11.542969 L 170.941406 12.796875 L 216.34375 51.261719 Z M 268.441406 39.039062 " fill-opacity="1" fill-rule="evenodd"/><path fill="#ecf0f1" d="M 128.175781 89.582031 L 292.941406 18.875 C 303.738281 14.230469 318.480469 15.003906 329.4375 19.25 C 359.023438 18.265625 375 45.921875 311.671875 69.578125 C 282.929688 80.316406 143.003906 124.460938 143.003906 124.460938 L 76.238281 123.746094 L 72.980469 113.761719 Z M 128.175781 89.582031 " fill-opacity="1" fill-rule="evenodd"/><path fill="#cad0d1" d="M 346.6875 22.621094 C 362.195312 30.597656 360.65625 51.28125 311.671875 69.578125 C 282.929688 80.316406 143.003906 124.460938 143.003906 124.460938 L 76.238281 123.746094 L 72.980469 113.761719 L 73.515625 113.527344 L 134.460938 114.191406 C 134.460938 114.191406 274.386719 70.046875 303.128906 59.308594 C 337.335938 46.53125 348.40625 32.585938 346.6875 22.621094 Z M 346.6875 22.621094 " fill-opacity="1" fill-rule="evenodd"/><path fill="#ecf0f1" d="M 225.171875 102.632812 L 256.316406 94.671875 C 258.320312 94.152344 260.382812 95.390625 260.882812 97.378906 L 263.964844 109.460938 C 264.484375 111.46875 263.265625 113.511719 261.257812 114.03125 L 228.933594 122.292969 C 223.9375 123.566406 218.8125 120.519531 217.523438 115.519531 C 216.09375 109.871094 219.53125 104.082031 225.171875 102.632812 Z M 225.171875 102.632812 " fill-opacity="1" fill-rule="evenodd"/><path fill="#cad0d1" d="M 263.300781 106.859375 L 263.964844 109.460938 C 264.484375 111.46875 263.105469 113.566406 260.9375 114.121094 L 229.757812 122.078125 C 224.3125 123.476562 218.8125 120.519531 217.523438 115.519531 C 217.382812 114.910156 217.273438 114.28125 217.238281 113.671875 C 220.121094 115.929688 224.167969 116.863281 228.199219 115.839844 Z M 263.300781 106.859375 " fill-opacity="1" fill-rule="evenodd"/><path fill="#ff7375" d="M 247.425781 96.945312 L 250.648438 96.121094 L 255.589844 115.492188 L 252.367188 116.316406 Z M 247.425781 96.945312 " fill-opacity="1" fill-rule="evenodd"/><path fill="#53b4ed" d="M 311.40625 15.738281 C 317.707031 15.917969 323.996094 17.152344 329.386719 19.230469 C 329.347656 19.410156 327.234375 28.195312 317.152344 31.367188 C 306.964844 34.558594 300.925781 26.222656 300.925781 26.222656 C 310.992188 23.230469 311.386719 15.953125 311.40625 15.738281 Z M 311.40625 15.738281 " fill-opacity="1" fill-rule="evenodd"/><path fill="#ff576b" d="M 279.921875 61.925781 L 193.542969 164.308594 L 174.433594 164.898438 L 217.917969 79.5625 Z M 279.921875 61.925781 " fill-opacity="1" fill-rule="evenodd"/><path fill="#ff576b" d="M 118.648438 112.722656 L 96.941406 141.328125 L 74.464844 148.714844 L 89.816406 121.578125 Z M 118.648438 112.722656 " fill-opacity="1" fill-rule="evenodd"/><path fill="#ff576b" d="M 71.1875 85.046875 L 110.660156 97.253906 L 78.15625 111.503906 L 60.40625 91.949219 Z M 71.1875 85.046875 " fill-opacity="1" fill-rule="evenodd"/><path fill="#53b4ed" d="M 262.996094 50.253906 L 263.222656 50.84375 C 263.382812 51.253906 263.460938 51.679688 263.449219 52.121094 C 263.441406 52.558594 263.347656 52.980469 263.171875 53.386719 C 262.996094 53.789062 262.746094 54.140625 262.429688 54.445312 C 262.113281 54.75 261.75 54.984375 261.339844 55.144531 L 257.601562 56.601562 C 257.191406 56.761719 256.765625 56.839844 256.328125 56.828125 C 255.886719 56.820312 255.464844 56.726562 255.0625 56.550781 C 254.660156 56.375 254.304688 56.125 254 55.808594 C 253.695312 55.492188 253.464844 55.125 253.304688 54.714844 L 253.074219 54.125 C 252.914062 53.714844 252.839844 53.289062 252.847656 52.851562 C 252.859375 52.410156 252.949219 51.988281 253.128906 51.585938 C 253.304688 51.179688 253.550781 50.828125 253.867188 50.523438 C 254.1875 50.21875 254.550781 49.984375 254.960938 49.824219 L 258.699219 48.367188 C 259.105469 48.207031 259.53125 48.132812 259.972656 48.140625 C 260.410156 48.148438 260.832031 48.242188 261.234375 48.417969 C 261.640625 48.597656 261.992188 48.84375 262.296875 49.160156 C 262.601562 49.480469 262.835938 49.84375 262.996094 50.253906 Z M 262.996094 50.253906 " fill-opacity="1" fill-rule="evenodd"/><path fill="#53b4ed" d="M 246.617188 56.882812 L 246.847656 57.472656 C 247.007812 57.882812 247.082031 58.308594 247.074219 58.746094 C 247.0625 59.1875 246.96875 59.609375 246.792969 60.011719 C 246.617188 60.417969 246.371094 60.769531 246.050781 61.074219 C 245.734375 61.378906 245.371094 61.613281 244.960938 61.773438 L 241.222656 63.230469 C 240.8125 63.390625 240.390625 63.46875 239.949219 63.457031 C 239.507812 63.449219 239.085938 63.355469 238.683594 63.179688 C 238.28125 63 237.929688 62.753906 237.625 62.4375 C 237.320312 62.117188 237.085938 61.753906 236.925781 61.34375 L 236.695312 60.753906 C 236.535156 60.34375 236.460938 59.917969 236.46875 59.476562 C 236.480469 59.039062 236.574219 58.617188 236.75 58.214844 C 236.925781 57.808594 237.171875 57.457031 237.492188 57.152344 C 237.808594 56.847656 238.171875 56.613281 238.582031 56.453125 L 242.320312 54.996094 C 242.730469 54.835938 243.152344 54.757812 243.59375 54.769531 C 244.035156 54.777344 244.457031 54.871094 244.859375 55.046875 C 245.261719 55.222656 245.613281 55.472656 245.917969 55.789062 C 246.222656 56.105469 246.457031 56.472656 246.617188 56.882812 Z M 246.617188 56.882812 " fill-opacity="1" fill-rule="evenodd"/><path fill="#53b4ed" d="M 230.238281 63.507812 L 230.46875 64.101562 C 230.628906 64.511719 230.707031 64.9375 230.695312 65.375 C 230.6875 65.816406 230.59375 66.238281 230.417969 66.640625 C 230.242188 67.042969 229.992188 67.398438 229.675781 67.703125 C 229.359375 68.007812 228.996094 68.242188 228.585938 68.402344 L 224.847656 69.859375 C 224.4375 70.019531 224.011719 70.09375 223.574219 70.085938 C 223.132812 70.078125 222.710938 69.984375 222.308594 69.808594 C 221.90625 69.628906 221.550781 69.382812 221.246094 69.066406 C 220.941406 68.746094 220.710938 68.382812 220.550781 67.972656 L 220.320312 67.382812 C 220.160156 66.972656 220.085938 66.546875 220.09375 66.105469 C 220.105469 65.667969 220.195312 65.246094 220.375 64.839844 C 220.550781 64.4375 220.796875 64.082031 221.113281 63.777344 C 221.433594 63.472656 221.796875 63.242188 222.207031 63.082031 L 225.945312 61.621094 C 226.351562 61.460938 226.777344 61.386719 227.21875 61.394531 C 227.65625 61.40625 228.078125 61.5 228.480469 61.675781 C 228.886719 61.851562 229.238281 62.101562 229.542969 62.417969 C 229.847656 62.734375 230.082031 63.097656 230.238281 63.507812 Z M 230.238281 63.507812 " fill-opacity="1" fill-rule="evenodd"/><path fill="#53b4ed" d="M 213.863281 70.136719 L 214.09375 70.726562 C 214.253906 71.136719 214.328125 71.5625 214.320312 72.003906 C 214.3125 72.445312 214.21875 72.867188 214.042969 73.269531 C 213.863281 73.671875 213.617188 74.027344 213.300781 74.332031 C 212.984375 74.636719 212.617188 74.867188 212.207031 75.027344 L 208.472656 76.488281 C 208.0625 76.648438 207.636719 76.722656 207.195312 76.714844 C 206.757812 76.703125 206.335938 76.613281 205.933594 76.433594 C 205.53125 76.257812 205.175781 76.011719 204.871094 75.691406 C 204.566406 75.375 204.335938 75.011719 204.175781 74.601562 L 203.945312 74.011719 C 203.785156 73.601562 203.710938 73.175781 203.71875 72.734375 C 203.726562 72.292969 203.820312 71.871094 203.996094 71.46875 C 204.175781 71.066406 204.421875 70.710938 204.738281 70.40625 C 205.054688 70.101562 205.421875 69.871094 205.828125 69.710938 L 209.566406 68.25 C 209.976562 68.089844 210.402344 68.015625 210.84375 68.023438 C 211.28125 68.035156 211.703125 68.125 212.105469 68.304688 C 212.507812 68.480469 212.863281 68.726562 213.167969 69.046875 C 213.472656 69.363281 213.703125 69.726562 213.863281 70.136719 Z M 213.863281 70.136719 " fill-opacity="1" fill-rule="evenodd"/><path fill="#53b4ed" d="M 197.488281 76.765625 L 197.71875 77.355469 C 197.878906 77.765625 197.953125 78.191406 197.945312 78.632812 C 197.933594 79.074219 197.84375 79.496094 197.664062 79.898438 C 197.488281 80.300781 197.242188 80.65625 196.925781 80.960938 C 196.605469 81.265625 196.242188 81.496094 195.832031 81.65625 L 192.09375 83.117188 C 191.683594 83.277344 191.261719 83.351562 190.820312 83.34375 C 190.378906 83.332031 189.960938 83.238281 189.554688 83.0625 C 189.152344 82.886719 188.800781 82.640625 188.496094 82.320312 C 188.191406 82.003906 187.957031 81.640625 187.796875 81.230469 L 187.570312 80.636719 C 187.410156 80.226562 187.332031 79.804688 187.34375 79.363281 C 187.351562 78.921875 187.445312 78.5 187.621094 78.097656 C 187.796875 77.695312 188.046875 77.339844 188.363281 77.035156 C 188.679688 76.730469 189.042969 76.5 189.453125 76.339844 L 193.191406 74.878906 C 193.601562 74.71875 194.027344 74.644531 194.464844 74.652344 C 194.90625 74.660156 195.328125 74.753906 195.730469 74.933594 C 196.132812 75.109375 196.488281 75.355469 196.792969 75.675781 C 197.097656 75.992188 197.328125 76.355469 197.488281 76.765625 Z M 197.488281 76.765625 " fill-opacity="1" fill-rule="evenodd"/><path fill="#53b4ed" d="M 181.113281 83.394531 L 181.34375 83.984375 C 181.503906 84.394531 181.578125 84.820312 181.566406 85.261719 C 181.558594 85.699219 181.464844 86.121094 181.289062 86.527344 C 181.113281 86.929688 180.867188 87.28125 180.546875 87.585938 C 180.230469 87.894531 179.867188 88.125 179.457031 88.285156 L 175.71875 89.742188 C 175.308594 89.902344 174.882812 89.980469 174.445312 89.96875 C 174.003906 89.960938 173.582031 89.867188 173.179688 89.691406 C 172.777344 89.515625 172.421875 89.265625 172.121094 88.949219 C 171.816406 88.632812 171.582031 88.265625 171.421875 87.855469 L 171.191406 87.265625 C 171.03125 86.855469 170.957031 86.429688 170.964844 85.992188 C 170.976562 85.550781 171.066406 85.128906 171.246094 84.726562 C 171.421875 84.324219 171.667969 83.96875 171.988281 83.664062 C 172.304688 83.359375 172.667969 83.125 173.078125 82.964844 L 176.816406 81.507812 C 177.226562 81.347656 177.648438 81.273438 178.089844 81.28125 C 178.53125 81.289062 178.949219 81.382812 179.355469 81.558594 C 179.757812 81.738281 180.109375 81.984375 180.414062 82.300781 C 180.71875 82.621094 180.953125 82.984375 181.113281 83.394531 Z M 181.113281 83.394531 " fill-opacity="1" fill-rule="evenodd"/><path fill="#53b4ed" d="M 164.734375 90.023438 L 164.964844 90.613281 C 165.125 91.023438 165.199219 91.449219 165.191406 91.890625 C 165.183594 92.328125 165.089844 92.75 164.914062 93.152344 C 164.734375 93.558594 164.488281 93.910156 164.171875 94.214844 C 163.855469 94.519531 163.488281 94.753906 163.078125 94.914062 L 159.34375 96.371094 C 158.933594 96.53125 158.507812 96.609375 158.066406 96.597656 C 157.628906 96.589844 157.207031 96.496094 156.804688 96.320312 C 156.402344 96.140625 156.046875 95.894531 155.742188 95.578125 C 155.4375 95.257812 155.207031 94.894531 155.046875 94.484375 L 154.816406 93.894531 C 154.65625 93.484375 154.582031 93.058594 154.589844 92.617188 C 154.597656 92.179688 154.691406 91.757812 154.867188 91.355469 C 155.046875 90.949219 155.292969 90.597656 155.609375 90.292969 C 155.925781 89.988281 156.292969 89.753906 156.699219 89.59375 L 160.4375 88.136719 C 160.847656 87.976562 161.273438 87.898438 161.714844 87.910156 C 162.152344 87.917969 162.574219 88.011719 162.976562 88.1875 C 163.378906 88.363281 163.734375 88.613281 164.039062 88.929688 C 164.34375 89.25 164.574219 89.613281 164.734375 90.023438 Z M 164.734375 90.023438 " fill-opacity="1" fill-rule="evenodd"/></svg>