<svg width="18" height="12" viewBox="0 0 18 12" fill="none" xmlns="http://www.w3.org/2000/svg">
<path d="M5 11.5H1C0.726142 11.5 0.5 11.2739 0.5 11C0.5 10.7261 0.726142 10.5 1 10.5H5C5.27386 10.5 5.5 10.7261 5.5 11C5.5 11.2739 5.27386 11.5 5 11.5ZM1 1.5C0.726142 1.5 0.5 1.27386 0.5 1C0.5 0.726142 0.726142 0.5 1 0.5H17C17.2739 0.5 17.5 0.726143 17.5 1C17.5 1.27386 17.2739 1.5 17 1.5H1ZM11 6.5H1C0.726142 6.5 0.5 6.27386 0.5 6C0.5 5.72614 0.726142 5.5 1 5.5H11C11.2739 5.5 11.5 5.72614 11.5 6C11.5 6.27386 11.2739 6.5 11 6.5Z" fill="black" stroke="#F9F9F9"/>
</svg>
