<svg width="16" height="16" viewBox="0 0 16 16" fill="none" xmlns="http://www.w3.org/2000/svg">
<path d="M4.66659 14C4.29992 14 3.98614 13.8695 3.72525 13.6086C3.46436 13.3478 3.3337 13.0338 3.33325 12.6666V5.33331C3.33325 4.96665 3.46392 4.65287 3.72525 4.39198C3.98659 4.13109 4.30036 4.00042 4.66659 3.99998H5.99992V2.33331C5.99992 2.05554 6.09725 1.81954 6.29192 1.62531C6.48659 1.43109 6.72259 1.33376 6.99992 1.33331H8.99992C9.2777 1.33331 9.51392 1.43065 9.70859 1.62531C9.90325 1.81998 10.0004 2.05598 9.99992 2.33331V3.99998H11.3333C11.6999 3.99998 12.0139 4.13065 12.2753 4.39198C12.5366 4.65331 12.667 4.96709 12.6666 5.33331V12.6666C12.6666 13.0333 12.5361 13.3473 12.2753 13.6086C12.0144 13.87 11.7004 14.0004 11.3333 14C11.3333 14.1889 11.2693 14.3473 11.1413 14.4753C11.0133 14.6033 10.855 14.6671 10.6666 14.6666C10.4777 14.6666 10.3195 14.6026 10.1919 14.4746C10.0644 14.3466 10.0004 14.1884 9.99992 14H5.99992C5.99992 14.1889 5.93592 14.3473 5.80792 14.4753C5.67992 14.6033 5.5217 14.6671 5.33325 14.6666C5.14436 14.6666 4.98614 14.6026 4.85859 14.4746C4.73103 14.3466 4.66703 14.1884 4.66659 14ZM4.66659 12.6666H11.3333V5.33331H4.66659V12.6666ZM5.33325 12H6.33325V5.99998H5.33325V12ZM7.49992 12H8.49992V5.99998H7.49992V12ZM9.66659 12H10.6666V5.99998H9.66659V12ZM6.99992 3.99998H8.99992V2.33331H6.99992V3.99998Z" fill="#505050"/>
</svg>
