<svg width="188" height="176" viewBox="0 0 188 176" fill="none" xmlns="http://www.w3.org/2000/svg">
<path d="M150.964 17.9913C166.954 30.3056 179.566 48.2174 184.971 68.5921C190.376 89.1907 188.799 112.476 178.214 130.388C167.404 148.076 147.811 160.39 126.417 168.003C105.022 175.615 82.0506 178.75 61.1062 172.48C40.1619 166.435 21.4697 151.21 13.137 132.179C5.02948 113.148 7.05635 90.534 13.137 70.8311C19.4428 51.1281 29.8023 34.3358 43.9904 21.7975C58.4037 9.25928 76.6456 0.975074 95.7882 0.0794844C114.931 -0.816105 134.749 5.90082 150.964 17.9913Z" fill="#D2F1FF"/>
<path d="M143.175 18.1646C159.164 30.479 171.776 48.3908 177.181 68.7654C182.586 89.364 181.01 112.649 170.425 130.561C159.615 148.249 140.022 160.563 118.627 168.176C97.2322 175.788 74.261 178.923 53.3167 172.654C32.3724 166.609 13.6801 151.384 5.34741 132.352C-2.76007 113.321 -0.733202 90.7074 5.34741 71.0044C11.6532 51.3014 22.0128 34.5091 36.2009 21.9709C50.6142 9.43262 68.856 1.14841 87.9987 0.252824C107.141 -0.642766 126.96 6.07416 143.175 18.1646Z" fill="#A4E0FF"/>
<g clip-path="url(#clip0_5882_14400)">
<path d="M168.002 9.42801L168.355 9.07434L168.002 9.42801C168.757 10.1796 169.181 11.1982 169.182 12.2603V64.8334C169.181 65.8955 168.757 66.9141 168.002 67.6657C167.248 68.4173 166.224 68.8405 165.156 68.8417H30.5092C29.4413 68.8405 28.4178 68.4173 27.6632 67.6657C26.9088 66.9142 26.4847 65.8956 26.4834 64.8337V12.26C26.4847 11.198 26.9088 10.1795 27.6632 9.42801C28.4177 8.67641 29.4411 8.25325 30.509 8.25195H165.157C166.225 8.25325 167.248 8.67641 168.002 9.42801Z" fill="#A4E0FF" stroke="#D2F1FF"/>
<path d="M133.754 66.4669H51.8821C45.7811 66.46 39.932 64.0428 35.618 59.7454C31.3039 55.448 28.8772 49.6215 28.8704 43.5441V33.5524C28.8772 27.475 31.3039 21.6484 35.6179 17.351C39.932 13.0536 45.7811 10.6363 51.8821 10.6294H143.785C149.886 10.6363 155.735 13.0536 160.049 17.351C164.363 21.6484 166.789 27.475 166.796 33.5524C166.786 42.2788 163.302 50.645 157.108 56.8156C150.913 62.9861 142.514 66.457 133.754 66.4669Z" fill="white"/>
<path d="M112.634 25.6796H58.5159C58.2064 25.6796 57.9096 25.5571 57.6907 25.3391C57.4718 25.1211 57.3489 24.8254 57.3489 24.517C57.3489 24.2087 57.4718 23.913 57.6907 23.695C57.9096 23.477 58.2064 23.3545 58.5159 23.3545H112.634C112.944 23.3545 113.241 23.477 113.46 23.695C113.678 23.913 113.801 24.2087 113.801 24.517C113.801 24.8254 113.678 25.1211 113.46 25.3391C113.241 25.5571 112.944 25.6796 112.634 25.6796Z" fill="#E6E6E6"/>
<path d="M140.03 38.0834H58.5159C58.2064 38.0834 57.9096 37.9609 57.6907 37.7429C57.4718 37.5249 57.3489 37.2292 57.3489 36.9209C57.3489 36.6125 57.4718 36.3168 57.6907 36.0988C57.9096 35.8808 58.2064 35.7583 58.5159 35.7583H140.03C140.339 35.7583 140.636 35.8808 140.855 36.0988C141.074 36.3168 141.197 36.6125 141.197 36.9209C141.197 37.2292 141.074 37.5249 140.855 37.7429C140.636 37.9609 140.339 38.0834 140.03 38.0834Z" fill="#E6E6E6"/>
<path d="M140.03 50.4867H58.5159C58.2064 50.4867 57.9096 50.3642 57.6907 50.1462C57.4718 49.9282 57.3489 49.6325 57.3489 49.3242C57.3489 49.0158 57.4718 48.7201 57.6907 48.5021C57.9096 48.2841 58.2064 48.1616 58.5159 48.1616H140.03C140.339 48.1616 140.636 48.2841 140.855 48.5021C141.074 48.7201 141.197 49.0158 141.197 49.3242C141.197 49.6325 141.074 49.9282 140.855 50.1462C140.636 50.3642 140.339 50.4867 140.03 50.4867Z" fill="#E6E6E6"/>
<path d="M140.03 50.4867H58.5159C58.2064 50.4867 57.9096 50.3642 57.6907 50.1462C57.4718 49.9282 57.3489 49.6325 57.3489 49.3242C57.3489 49.0158 57.4718 48.7201 57.6907 48.5021C57.9096 48.2841 58.2064 48.1616 58.5159 48.1616H140.03C140.339 48.1616 140.636 48.2841 140.855 48.5021C141.074 48.7201 141.197 49.0158 141.197 49.3242C141.197 49.6325 141.074 49.9282 140.855 50.1462C140.636 50.3642 140.339 50.4867 140.03 50.4867Z" fill="#E6E6E6"/>
<path d="M106.923 39.5071C106.936 39.8573 107.026 40.2004 107.187 40.5122C107.347 40.824 107.574 41.097 107.852 41.3119C108.13 41.5268 108.452 41.6785 108.795 41.7561C109.138 41.8337 109.494 41.8355 109.838 41.7613L114.288 49.0345L116.183 45.0304L111.666 38.7375C111.502 38.1704 111.136 37.6828 110.635 37.367C110.135 37.0512 109.536 36.9292 108.951 37.024C108.367 37.1189 107.838 37.4241 107.464 37.8817C107.09 38.3393 106.898 38.9177 106.923 39.5071Z" fill="#FFB6B6"/>
<path d="M140.323 60.3517L124.985 52.0642L120.147 47.5427C120.147 47.5427 118.044 46.9818 118.818 46.3006C119.592 45.6194 117.386 44.9624 117.386 44.9624L114.789 42.5352L111.099 45.1363L112.167 46.7856C112.167 46.7856 112.093 49.5158 113.595 48.9905C115.096 48.4653 114.721 50.7296 114.721 50.7296L123.683 64.5682L140.323 60.3517Z" fill="#3F3D56"/>
<path d="M95.0471 52.5433C103.321 52.5433 110.029 45.8617 110.029 37.6195C110.029 29.3774 103.321 22.6958 95.0471 22.6958C86.7729 22.6958 80.0654 29.3774 80.0654 37.6195C80.0654 45.8617 86.7729 52.5433 95.0471 52.5433Z" fill="#1E90FF"/>
<path d="M140.371 169.053H137.256L135.773 157.084H140.371V169.053Z" fill="#FFB6B6"/>
<path d="M142.015 174.429H139.781L139.382 172.328L138.361 174.429H132.436C132.152 174.429 131.876 174.339 131.647 174.171C131.418 174.004 131.249 173.768 131.165 173.498C131.08 173.227 131.084 172.938 131.177 172.67C131.27 172.403 131.446 172.172 131.679 172.011L136.411 168.756V166.632L141.388 166.928L142.015 174.429Z" fill="#2F2E41"/>
<path d="M115.456 169.053H112.341L110.859 157.084H115.456V169.053Z" fill="#FFB6B6"/>
<path d="M117.101 174.429H114.867L114.468 172.328L113.447 174.429H107.522C107.238 174.429 106.961 174.339 106.732 174.171C106.504 174.004 106.335 173.768 106.25 173.498C106.166 173.227 106.17 172.938 106.263 172.67C106.355 172.403 106.531 172.172 106.765 172.011L111.496 168.756V166.632L116.473 166.928L117.101 174.429Z" fill="#2F2E41"/>
<path d="M137.065 78.5337H121.343V96.3642H137.065V78.5337Z" fill="#FFB6B6"/>
<path d="M121.706 87.3281L119.045 90.4605L114.449 100.099L102.869 127.545L100.42 133.35L102.397 143.611C102.397 143.611 102.718 150.84 102.718 152.024C102.718 154.433 104.741 155.768 104.741 155.768L106.225 163.469L120.617 162.867C120.617 162.867 120.115 154.378 117.101 152.237C114.086 150.096 112.701 138.937 112.701 138.937L111.063 133.987L127.027 115.135L127.13 121.725L127.18 124.914C127.18 124.914 124.842 145.659 127.567 149.685C130.293 153.71 127.623 153.237 127.623 153.237L127.753 161.541L144.806 161.662L141.044 137.753C141.044 137.753 139.133 136.25 140.156 134.74C141.178 133.23 139.165 131.38 139.165 131.38L140.068 112.715C140.068 112.715 139.068 109.491 140.244 109.071C141.419 108.652 140.398 105.88 140.398 105.88L140.573 102.267L137.066 91.0629L121.706 87.3281Z" fill="#2F2E41"/>
<path d="M137.307 78.5338L139.001 73.4738L140.21 71.7871L140.694 66.9681C140.694 53.9566 137.78 56.1233 137.78 56.1233L136.098 51.5471L128.358 51.3062L123.399 56.0047L119.287 57.4504L117.677 65.785L120.617 74.6785L121.343 79.4976C119.959 82.0432 120.076 80.8391 121.222 82.7504L134.888 86.4852C139.726 88.1718 139.726 83.8347 138.756 82.7504C137.786 81.6661 137.307 78.5338 137.307 78.5338Z" fill="#3F3D56"/>
<path d="M131.228 49.6883C135.191 49.6883 138.403 46.4881 138.403 42.5405C138.403 38.5928 135.191 35.3926 131.228 35.3926C127.265 35.3926 124.052 38.5928 124.052 42.5405C124.052 46.4881 127.265 49.6883 131.228 49.6883Z" fill="#FFB6B6"/>
<path d="M140.807 52.0819C140.875 52.1956 140.916 52.3229 140.927 52.4545C140.939 52.5862 140.92 52.7186 140.873 52.842C140.826 52.9655 140.751 53.0767 140.655 53.1675C140.558 53.2582 140.443 53.3262 140.316 53.3662C139.354 53.6843 138.761 54.6119 138.069 55.3541C137.38 56.0938 136.27 56.7082 135.389 56.2046C134.511 55.7035 134.451 54.424 133.715 53.7301C132.999 53.0554 131.809 53.1373 130.967 53.6505L130.942 53.666C130.797 53.7603 130.627 53.8102 130.454 53.8094C130.28 53.8086 130.111 53.7572 129.966 53.6615C129.822 53.5659 129.709 53.4301 129.641 53.2711C129.573 53.112 129.554 52.9367 129.585 52.7667C129.88 51.2042 130.175 49.6419 130.469 48.0797C129.695 49.9376 128.571 51.6306 127.158 53.0674C126.768 53.5149 126.275 53.8607 125.721 54.0746C125.218 54.2337 124.729 53.7156 124.241 53.8096C125.455 52.7518 129.538 45.9714 128.807 41.4391C127.949 41.5354 127.09 41.6318 126.231 41.7282C126.138 41.3234 125.94 40.9502 125.656 40.6464C125.69 41.0403 125.64 41.4371 125.508 41.8101C125.15 41.8511 124.79 41.8897 124.432 41.9306C123.933 41.986 123.392 42.0342 122.963 41.774C122.25 41.3403 122.228 40.3138 122.431 39.5042C123.026 37.1501 124.831 35.1815 127.039 34.1503C129.248 33.1214 129.901 35.4129 132.228 34.6804C136.823 33.2347 140.345 35.7068 141.586 40.2946C142.629 44.1426 141.872 48.2267 140.807 52.0819Z" fill="#2F2E41"/>
<path d="M160.673 174.585H151.886L151.848 174.516C151.736 174.313 151.628 174.098 151.526 173.877C150.621 171.947 150.239 169.74 149.901 167.792L149.647 166.324C149.616 166.146 149.639 165.963 149.714 165.799C149.788 165.634 149.91 165.495 150.063 165.4C150.217 165.305 150.396 165.258 150.577 165.264C150.758 165.271 150.933 165.331 151.079 165.437C152.415 166.405 153.751 167.372 155.087 168.338C155.593 168.705 156.171 169.129 156.724 169.588C156.778 169.33 156.833 169.071 156.889 168.815C156.928 168.639 157.018 168.478 157.149 168.353C157.28 168.228 157.445 168.145 157.624 168.114C157.802 168.083 157.986 168.106 158.152 168.18C158.317 168.254 158.456 168.376 158.552 168.529L159.58 170.174C160.33 171.376 160.992 172.56 160.857 173.836C160.858 173.852 160.856 173.868 160.853 173.883C160.826 174.093 160.776 174.299 160.704 174.498L160.673 174.585Z" fill="#57A575"/>
<path d="M80.0389 174.585H71.2524L71.2147 174.516C71.1024 174.313 70.9939 174.098 70.8925 173.877C69.9875 171.947 69.6049 169.74 69.2674 167.792L69.0132 166.324C68.9825 166.146 69.0056 165.963 69.0798 165.799C69.154 165.634 69.2758 165.495 69.4296 165.4C69.5835 165.305 69.7623 165.258 69.9433 165.264C70.1243 165.271 70.2992 165.331 70.4456 165.437C71.7809 166.405 73.1167 167.372 74.4531 168.338C74.9591 168.705 75.5369 169.129 76.0904 169.588C76.1438 169.33 76.1996 169.071 76.2554 168.815C76.294 168.639 76.3844 168.478 76.5153 168.353C76.6462 168.228 76.8115 168.145 76.9901 168.114C77.1686 168.083 77.3524 168.106 77.5178 168.18C77.6831 168.254 77.8226 168.376 77.9183 168.529L78.9463 170.174C79.6961 171.376 80.3579 172.56 80.2231 173.836C80.2237 173.852 80.2226 173.868 80.2196 173.883C80.1926 174.093 80.1426 174.299 80.0704 174.498L80.0389 174.585Z" fill="#57A575"/>
<path d="M73.6948 174.262H60.4065L60.3494 174.159C60.1795 173.854 60.0155 173.531 59.8622 173.199C58.4934 170.3 57.9149 166.985 57.4044 164.06L57.02 161.855C56.9735 161.587 57.0085 161.313 57.1207 161.066C57.2329 160.818 57.4171 160.61 57.6498 160.467C57.8824 160.324 58.1529 160.253 58.4266 160.263C58.7004 160.273 58.9649 160.363 59.1863 160.523C61.2058 161.976 63.226 163.429 65.2471 164.88C66.0123 165.43 66.8862 166.068 67.7232 166.757C67.804 166.369 67.8884 165.98 67.9729 165.596C68.0311 165.331 68.168 165.089 68.3659 164.902C68.5638 164.714 68.8138 164.589 69.0839 164.543C69.354 164.497 69.6319 164.531 69.882 164.642C70.1321 164.753 70.343 164.936 70.4878 165.166L72.0425 167.637C73.1765 169.442 74.1773 171.22 73.9734 173.138C73.9744 173.161 73.9726 173.185 73.9681 173.208C73.9273 173.523 73.8517 173.832 73.7425 174.131L73.6948 174.262Z" fill="#57A575"/>
<path d="M93.685 57.706L84.5011 49.9802C84.1872 49.7155 83.9915 49.3376 83.9569 48.9294C83.9224 48.5211 84.0518 48.1159 84.3168 47.8026L86.0071 45.8088C86.2728 45.4961 86.6522 45.3011 87.062 45.2667C87.4718 45.2323 87.8786 45.3612 88.1931 45.6252L97.3771 53.351C97.691 53.6157 97.8867 53.9936 97.9212 54.4018C97.9558 54.8101 97.8264 55.2153 97.5613 55.5286L95.871 57.5224C95.6053 57.8351 95.226 58.0301 94.8161 58.0645C94.4063 58.0989 93.9995 57.97 93.685 57.706Z" fill="#3F3D56"/>
<path d="M84.983 47.9632C84.8402 48.132 84.7705 48.3504 84.7891 48.5704C84.8077 48.7904 84.9132 48.994 85.0823 49.1366L94.2663 56.8625C94.4358 57.0047 94.655 57.0742 94.8758 57.0556C95.0967 57.0371 95.3011 56.932 95.4443 56.7635L97.1346 54.7697C97.2774 54.6009 97.3471 54.3825 97.3285 54.1625C97.3099 53.9425 97.2044 53.7389 97.0353 53.5962L87.8513 45.8704C87.6818 45.7282 87.4627 45.6587 87.2418 45.6773C87.021 45.6958 86.8165 45.8009 86.6733 45.9694L84.983 47.9632Z" fill="white"/>
<path d="M90.3746 50.9665C90.3428 51.0109 90.3009 51.0473 90.2525 51.0728C90.204 51.0984 90.1503 51.1123 90.0955 51.1136L88.6525 51.1466C88.6061 51.1476 88.56 51.1396 88.5168 51.1229C88.4735 51.1062 88.434 51.0812 88.4005 51.0493C88.3669 51.0174 88.3401 50.9792 88.3213 50.9369C88.3026 50.8947 88.2924 50.8492 88.2914 50.803C88.2903 50.7568 88.2984 50.7109 88.3151 50.6678C88.3319 50.6247 88.357 50.5854 88.389 50.552C88.421 50.5186 88.4594 50.4918 88.5018 50.4731C88.5442 50.4545 88.5899 50.4443 88.6363 50.4433L89.5803 50.4217L88.6506 47.978C88.6177 47.8909 88.6208 47.7942 88.6593 47.7094C88.6978 47.6245 88.7685 47.5583 88.856 47.5253C88.9434 47.4923 89.0404 47.4951 89.1257 47.5333C89.211 47.5714 89.2776 47.6417 89.311 47.7287L90.4176 50.6373C90.4376 50.6899 90.4446 50.7465 90.4381 50.8024C90.4316 50.8583 90.4118 50.9118 90.3803 50.9585L90.3746 50.9665Z" fill="#1E90FF"/>
<path d="M90.5598 51.5806C90.9078 51.6315 91.2405 51.7579 91.5342 51.9507C91.8279 52.1435 92.0756 52.3981 92.2599 52.6966C92.4442 52.9951 92.5605 53.3303 92.6006 53.6784C92.6408 54.0265 92.6039 54.3792 92.4924 54.7116L99.2666 59.9096L95.0649 61.35L89.2762 56.193C88.7281 55.9695 88.2813 55.5534 88.0205 55.0237C87.7598 54.494 87.7031 53.8874 87.8614 53.3189C88.0196 52.7503 88.3817 52.2594 88.879 51.939C89.3764 51.6186 89.9744 51.4911 90.5598 51.5806Z" fill="#FFB6B6"/>
<path d="M125.828 54.1509L108.484 64.7736C108.484 64.7736 101.491 62.1962 102.857 61.003C104.224 59.8098 99.8733 59.0032 99.8733 59.0032L95.067 55.7822L92.2781 59.0109C92.2781 59.0109 92.7862 64.2553 93.6509 63.3472C94.5155 62.4392 95.808 64.9198 95.808 64.9198C95.808 64.9198 96.1899 67.6897 98.6513 66.9926C101.113 66.2956 107.717 73.602 107.717 73.602L129.063 65.6717L125.828 54.1509Z" fill="#3F3D56"/>
<path d="M94.5202 43.606C94.3191 43.606 94.1208 43.5594 93.941 43.4698C93.7612 43.3802 93.6047 43.2501 93.4841 43.0898L90.3076 38.8707C90.2055 38.7352 90.1313 38.5809 90.0891 38.4168C90.0469 38.2527 90.0375 38.0819 90.0616 37.9142C90.0857 37.7464 90.1427 37.5851 90.2293 37.4393C90.316 37.2935 90.4306 37.1661 90.5667 37.0645C90.8415 36.8592 91.1869 36.7711 91.5269 36.8195C91.6953 36.8434 91.8573 36.9002 92.0036 36.9865C92.15 37.0728 92.2778 37.187 92.3799 37.3226L94.4581 40.0826L99.7957 32.1072C99.9863 31.8225 100.283 31.6249 100.619 31.5578C100.956 31.4907 101.306 31.5596 101.592 31.7494C101.878 31.9392 102.076 32.2344 102.143 32.5699C102.211 32.9054 102.142 33.2539 101.951 33.5386L95.598 43.0314C95.4831 43.2031 95.3285 43.3449 95.1472 43.4448C94.966 43.5447 94.7633 43.5998 94.5562 43.6056C94.5442 43.6058 94.5322 43.606 94.5202 43.606Z" fill="white"/>
</g>
<defs>
<clipPath id="clip0_5882_14400">
<rect width="143.822" height="167.103" fill="white" transform="translate(25.9834 7.75195)"/>
</clipPath>
</defs>
</svg>
