<svg width="35" height="35" viewBox="0 0 35 35" fill="none" xmlns="http://www.w3.org/2000/svg">
<rect width="35" height="35" rx="17.5" fill="#1E90FF"/>
<path d="M17.5 22.75V19.625M21.4062 15.7188V10.25C21.4062 9.214 20.9947 8.22043 20.2621 7.48786C19.5296 6.7553 18.536 6.34375 17.5 6.34375C16.464 6.34375 15.4704 6.7553 14.7379 7.48786C14.0053 8.22043 13.5938 9.214 13.5938 10.25V15.7188M9.6875 25.0938V17.2812C9.6875 16.8668 9.85212 16.4694 10.1451 16.1764C10.4382 15.8834 10.8356 15.7187 11.25 15.7188H23.75C24.1644 15.7188 24.5618 15.8834 24.8549 16.1764C25.1479 16.4694 25.3125 16.8668 25.3125 17.2812V25.0938C25.3125 25.5082 25.1479 25.9056 24.8549 26.1986C24.5618 26.4916 24.1644 26.6562 23.75 26.6562H11.25C10.8356 26.6562 10.4382 26.4916 10.1451 26.1986C9.85212 25.9056 9.6875 25.5082 9.6875 25.0938Z" stroke="#F9F9F9" stroke-width="1.5" stroke-linecap="round" stroke-linejoin="round"/>
</svg>
