<svg width="27" height="26" viewBox="0 0 27 26" fill="none" xmlns="http://www.w3.org/2000/svg">
<path d="M21.2998 13.1911C21.2998 12.6538 21.2478 12.0991 21.1611 11.5791H13.6558V14.6471H17.9544C17.7811 15.6351 17.2091 16.5018 16.3598 17.0564L18.9251 19.0498C20.4331 17.6458 21.2998 15.6004 21.2998 13.1911Z" fill="#4280EF"/>
<path d="M13.6555 20.9563C15.8048 20.9563 17.6075 20.2456 18.9248 19.0323L16.3595 17.0563C15.6488 17.5416 14.7302 17.819 13.6555 17.819C11.5755 17.819 9.82483 16.415 9.18349 14.543L6.54883 16.571C7.90083 19.2576 10.6395 20.9563 13.6555 20.9563Z" fill="#34A353"/>
<path d="M9.18377 14.5257C8.85443 13.5377 8.85443 12.463 9.18377 11.475L6.5491 9.42969C5.42243 11.683 5.42243 14.335 6.5491 16.571L9.18377 14.5257Z" fill="#F6B704"/>
<path d="M13.6555 8.19891C14.7822 8.18158 15.8915 8.61491 16.7062 9.39491L18.9768 7.10691C17.5382 5.75491 15.6315 5.02691 13.6555 5.04425C10.6395 5.04425 7.90083 6.74291 6.54883 9.42958L9.18349 11.4749C9.82483 9.58558 11.5755 8.19891 13.6555 8.19891Z" fill="#E54335"/>
</svg>
