<svg width="500" height="500" viewBox="0 0 500 500" fill="none" xmlns="http://www.w3.org/2000/svg">
<path d="M500 382.398H0V382.648H500V382.398Z" fill="#EBEBEB"/>
<path d="M315.667 389.208H290.208V389.458H315.667V389.208Z" fill="#EBEBEB"/>
<path d="M455.444 394.619H395.111V394.869H455.444V394.619Z" fill="#EBEBEB"/>
<path d="M284.792 389.333H222.459V389.583H284.792V389.333Z" fill="#EBEBEB"/>
<path d="M182.041 396.814H169V397.064H182.041V396.814Z" fill="#EBEBEB"/>
<path d="M254.084 396.814H194.708V397.064H254.084V396.814Z" fill="#EBEBEB"/>
<path d="M90.913 392.592H52.459V392.842H90.913V392.592Z" fill="#EBEBEB"/>
<path d="M237.014 337.8H43.915C40.768 337.8 38.207 335.239 38.207 332.092V60.6599C38.207 57.5129 40.768 54.9519 43.915 54.9519H237.014C240.16 54.9519 242.721 57.5129 242.721 60.6599V332.092C242.721 335.239 240.16 337.8 237.014 337.8ZM43.915 55.2029C40.905 55.2029 38.457 57.6509 38.457 60.6609V332.093C38.457 335.103 40.905 337.551 43.915 337.551H237.014C240.023 337.551 242.471 335.103 242.471 332.093V60.6599C242.471 57.6509 240.023 55.2019 237.014 55.2019L43.915 55.2029Z" fill="#EBEBEB"/>
<path d="M453.31 337.8H260.212C257.065 337.8 254.505 335.239 254.505 332.092V60.6599C254.505 57.5129 257.066 54.9519 260.212 54.9519H453.31C456.458 54.9519 459.018 57.5129 459.018 60.6599V332.092C459.019 335.239 456.458 337.8 453.31 337.8ZM260.212 55.2029C257.203 55.2029 254.755 57.6509 254.755 60.6609V332.093C254.755 335.103 257.203 337.551 260.212 337.551H453.31C456.32 337.551 458.768 335.103 458.768 332.093V60.6599C458.768 57.6509 456.32 55.2019 453.31 55.2019L260.212 55.2029Z" fill="#EBEBEB"/>
<path d="M195.962 295.667H129.561L125.53 249.167H191.931L195.962 295.667Z" fill="#E6E6E6"/>
<path d="M199.401 295.667H133.001L128.97 249.167H195.37L199.401 295.667Z" fill="#F0F0F0"/>
<path d="M142.077 285.681L139.863 259.152H186.293L188.506 285.681H142.077Z" fill="white"/>
<path d="M210.89 295.667H203.099V382.397H210.89V295.667Z" fill="#E6E6E6"/>
<path d="M213.349 295.667H207.938V382.397H213.349V295.667Z" fill="#F0F0F0"/>
<path d="M137.939 305.239H213.348V295.666H137.939V305.239Z" fill="#F0F0F0"/>
<path d="M140.605 305.239H132.814V382.396H140.605V305.239Z" fill="#E6E6E6"/>
<path d="M143.064 305.239H137.653V382.396H143.064V305.239Z" fill="#F0F0F0"/>
<path d="M85.1479 305.239H77.3569V382.396H85.1479V305.239Z" fill="#E6E6E6"/>
<path d="M87.607 305.239H82.196V382.396H87.607V305.239Z" fill="#F0F0F0"/>
<path d="M161.587 305.239H153.796V382.396H161.587V305.239Z" fill="#E6E6E6"/>
<path d="M164.046 305.239H158.635V382.396H164.046V305.239Z" fill="#F0F0F0"/>
<path d="M137.939 295.667H77.3569V305.24H137.939V295.667Z" fill="#E6E6E6"/>
<path d="M363.838 79.4138H129.508V209.87H363.838V79.4138Z" fill="#E0E0E0"/>
<path d="M376.706 79.4138H130.691V209.87H376.706V79.4138Z" fill="#F5F5F5"/>
<path d="M372.687 205.849V83.4321L134.711 83.4321L134.711 205.849L372.687 205.849Z" fill="white"/>
<path d="M231.066 205.85L275.996 83.4329H201.846L156.916 205.85H231.066Z" fill="#F5F5F5"/>
<path d="M302.441 205.85L347.37 83.4329H291.434L246.505 205.85H302.441Z" fill="#F5F5F5"/>
<path d="M438.111 257.803H418.192V382.398H438.111V257.803Z" fill="#E6E6E6"/>
<path d="M432.874 382.398H438.111V372.805H427.382L432.874 382.398Z" fill="#FAFAFA"/>
<path d="M254.454 257.803H234.535V382.398H254.454V257.803Z" fill="#E6E6E6"/>
<path d="M438.111 257.803H249.883V379.81H438.111V257.803Z" fill="#FAFAFA"/>
<path d="M434.548 297.169H253.446V262.711H434.548V297.169ZM254.446 296.169H433.548V263.711H254.446V296.169Z" fill="#E6E6E6"/>
<path d="M402.667 279.441H288.845C283.559 279.441 278.47 275.177 274.885 267.743L274.539 267.026H416.974L416.628 267.743C413.043 275.177 407.954 279.441 402.667 279.441ZM276.141 268.026C279.525 274.657 284.125 278.441 288.845 278.441H402.667C407.387 278.441 411.988 274.657 415.372 268.026H276.141Z" fill="#E6E6E6"/>
<path d="M255.121 382.398H249.883V372.805H260.612L255.121 382.398Z" fill="#FAFAFA"/>
<path d="M434.548 336.036H253.446V301.578H434.548V336.036ZM254.446 335.036H433.548V302.578H254.446V335.036Z" fill="#E6E6E6"/>
<path d="M402.667 318.307H288.845C283.559 318.307 278.47 314.043 274.885 306.609L274.539 305.892H416.974L416.628 306.609C413.043 314.044 407.954 318.307 402.667 318.307ZM276.141 306.892C279.525 313.523 284.125 317.307 288.845 317.307H402.667C407.388 317.307 411.988 313.523 415.372 306.892H276.141Z" fill="#E6E6E6"/>
<path d="M434.548 374.902H253.446V340.443H434.548V374.902ZM254.446 373.902H433.548V341.443H254.446V373.902Z" fill="#E6E6E6"/>
<path d="M402.667 357.173H288.845C283.559 357.173 278.47 352.909 274.885 345.475L274.539 344.758H416.974L416.628 345.475C413.043 352.91 407.954 357.173 402.667 357.173ZM276.141 345.758C279.525 352.389 284.125 356.173 288.845 356.173H402.667C407.388 356.173 411.988 352.389 415.372 345.758H276.141Z" fill="#E6E6E6"/>
<path d="M120.983 274.283V276.701H119.435L118.157 295.667H99.3221L98.0451 276.701H96.4971V274.283H120.983Z" fill="#E6E6E6"/>
<path d="M114.784 227.211C113.236 215.914 97.989 212.687 78.642 212.273C60.231 211.88 54.334 205.365 54.334 205.365C54.334 205.365 54.392 231.744 80.921 241.295C106.112 250.364 116.335 238.528 114.784 227.211Z" fill="#E6E6E6"/>
<path d="M105.379 252.824C105.702 248.177 113.121 239.638 130.966 243.52C143.87 246.327 148.667 239.638 148.667 239.638C148.667 239.638 147.472 258.517 128.066 264.193C109.638 269.583 104.81 260.996 105.379 252.824Z" fill="#E6E6E6"/>
<path d="M109.45 281.404C109.645 281.404 109.839 281.321 109.976 281.16C111.27 279.631 110.211 275.97 108.747 270.902C106.867 264.398 104.528 256.305 106.509 250.427C107.627 247.109 109.011 244.184 110.348 241.354C113.149 235.43 115.568 230.314 113.55 224.971C113.416 224.615 113.019 224.436 112.663 224.57C112.308 224.704 112.128 225.101 112.262 225.457C114.073 230.253 111.88 234.892 109.103 240.765C107.811 243.496 106.348 246.592 105.204 249.986C103.085 256.272 105.491 264.595 107.424 271.283C108.564 275.227 109.742 279.304 108.925 280.27C108.68 280.56 108.716 280.994 109.006 281.24C109.135 281.35 109.293 281.404 109.45 281.404Z" fill="#E6E6E6"/>
<path d="M250 427.561C357.082 427.561 443.889 422.492 443.889 416.238C443.889 409.985 357.082 404.915 250 404.915C142.918 404.915 56.1111 409.985 56.1111 416.238C56.1111 422.492 142.918 427.561 250 427.561Z" fill="#F5F5F5"/>
<path d="M249.96 361.048H107.96L100.188 132.681H242.188L249.96 361.048Z" fill="#1E90FF"/>
<path d="M257.047 353.961H115.047L107.274 125.594H249.274L257.047 353.961Z" fill="#1E90FF"/>
<path opacity="0.3" d="M257.047 353.961H115.047L107.274 125.594H249.274L257.047 353.961Z" fill="white"/>
<path d="M209.482 219.58C224.688 204.115 224.042 178.824 208.041 163.093C192.04 147.361 166.743 147.145 151.537 162.61C136.332 178.076 136.977 203.366 152.978 219.098C168.979 234.83 194.277 235.046 209.482 219.58Z" fill="#1E90FF"/>
<path d="M213.469 191.089C213.663 196.782 212.401 202.127 210.02 206.792C204.809 217.067 194.158 224.055 181.625 224.055C169.093 224.055 157.966 217.067 152.055 206.792C149.357 202.128 147.731 196.783 147.537 191.089C146.917 172.879 161.172 158.123 179.381 158.123C197.59 158.123 212.849 172.879 213.469 191.089Z" fill="white"/>
<path opacity="0.6" d="M210.019 206.792C204.808 217.067 194.157 224.055 181.624 224.055C169.092 224.055 157.965 217.067 152.054 206.792C160.165 201.248 170.014 198.011 180.737 198.011C191.462 198.011 201.531 201.247 210.019 206.792Z" fill="#1E90FF"/>
<path opacity="0.6" d="M190.777 190.283C196.368 184.597 196.13 175.3 190.248 169.516C184.365 163.732 175.064 163.653 169.474 169.339C163.884 175.024 164.121 184.322 170.004 190.106C175.887 195.89 185.187 195.969 190.777 190.283Z" fill="#1E90FF"/>
<path d="M228.524 271.261H137.94L137.327 253.261H227.912L228.524 271.261Z" fill="white"/>
<path d="M229.62 303.434H139.035L138.422 285.434H229.007L229.62 303.434Z" fill="white"/>
<path d="M194.658 287.908L172.829 290.876C171.932 290.998 171.342 291.815 171.512 292.683L174.378 307.311C174.549 308.185 175.42 308.797 176.317 308.676L198.146 305.708C199.043 305.586 199.634 304.775 199.463 303.901L196.597 289.273C196.427 288.404 195.555 287.786 194.658 287.908ZM188.386 302.727L184.434 303.265L184.036 298.544C183.195 298.173 182.586 297.427 182.414 296.548C182.134 295.118 183.1 293.793 184.567 293.593C186.029 293.394 187.45 294.395 187.731 295.825C187.903 296.704 187.61 297.572 186.955 298.147L188.386 302.727Z" fill="#1E90FF"/>
<path d="M192.504 287.124C191.706 287.232 190.936 286.69 190.784 285.913L190.503 284.481C189.731 280.54 185.963 277.565 181.884 277.92C177.524 278.3 174.601 282.15 175.417 286.314L175.739 287.959C175.891 288.736 175.368 289.454 174.57 289.562C173.772 289.67 173.002 289.128 172.85 288.351L172.577 286.955C171.501 281.463 174.958 276.183 180.551 275.21C186.431 274.186 192.229 278.152 193.35 283.875L193.672 285.52C193.824 286.297 193.301 287.015 192.504 287.124Z" fill="#1E90FF"/>
<path d="M214.667 328.639H155.703L155.305 316.922H214.268L214.667 328.639Z" fill="#1E90FF"/>
<path d="M186.218 262.261C186.28 264.079 184.856 265.553 183.038 265.553C181.22 265.553 179.696 264.079 179.634 262.261C179.572 260.443 180.996 258.969 182.814 258.969C184.632 258.969 186.156 260.443 186.218 262.261Z" fill="#263238"/>
<path d="M172.045 262.261C172.107 264.079 170.683 265.553 168.865 265.553C167.047 265.553 165.523 264.079 165.461 262.261C165.399 260.443 166.823 258.969 168.641 258.969C170.459 258.969 171.983 260.443 172.045 262.261Z" fill="#263238"/>
<path d="M157.872 262.261C157.934 264.079 156.51 265.553 154.692 265.553C152.874 265.553 151.35 264.079 151.288 262.261C151.226 260.443 152.65 258.969 154.468 258.969C156.286 258.969 157.81 260.443 157.872 262.261Z" fill="#263238"/>
<path d="M200.391 262.261C200.453 264.079 199.029 265.553 197.211 265.553C195.393 265.553 193.869 264.079 193.807 262.261C193.745 260.443 195.169 258.969 196.987 258.969C198.805 258.969 200.329 260.443 200.391 262.261Z" fill="#263238"/>
<path d="M214.564 262.261C214.626 264.079 213.202 265.553 211.384 265.553C209.566 265.553 208.042 264.079 207.98 262.261C207.918 260.443 209.342 258.969 211.16 258.969C212.978 258.969 214.503 260.443 214.564 262.261Z" fill="#263238"/>
<path d="M333.91 174.281C335.243 176.416 336.345 178.465 337.489 180.592C338.628 182.698 339.658 184.865 340.669 187.048C342.658 191.431 344.438 195.953 345.768 200.779C345.946 201.371 346.082 201.999 346.23 202.614L346.449 203.539L346.558 204.001L346.688 204.763C346.974 206.795 346.723 208.452 346.376 209.914C345.659 212.828 344.503 215.152 343.264 217.37C340.735 221.761 337.783 225.501 334.378 229.043L330.167 225.855C332.243 221.915 334.295 217.787 335.804 213.818C336.535 211.844 337.15 209.835 337.33 208.186C337.417 207.375 337.359 206.678 337.247 206.419L336.852 205.197C336.688 204.695 336.542 204.196 336.344 203.69C334.903 199.655 333.07 195.602 331.075 191.606C329.108 187.625 326.928 183.572 324.782 179.789L333.91 174.281Z" fill="#FF8B7B"/>
<path d="M331.236 224.425L326.645 226.862L331.923 233.042C331.923 233.042 335.218 230.813 335.367 227.409L331.236 224.425Z" fill="#FF8B7B"/>
<path d="M320.466 230.673L326.122 235.16L331.923 233.043L326.644 226.863L320.466 230.673Z" fill="#FF8B7B"/>
<path d="M301.151 141.564C301.038 142.12 300.652 142.511 300.288 142.437C299.925 142.363 299.722 141.853 299.835 141.297C299.948 140.741 300.334 140.35 300.698 140.424C301.061 140.498 301.264 141.009 301.151 141.564Z" fill="#263238"/>
<path d="M300.703 142.522C300.703 142.522 298.787 145.472 297.081 146.737C297.878 147.855 299.636 147.775 299.636 147.775L300.703 142.522Z" fill="#FF5652"/>
<path d="M298.901 162.138L298.944 155.584L307.624 156.633C307.624 156.633 307.475 162.269 302.628 163.926L298.901 162.138Z" fill="#FF8B7B"/>
<path d="M301.396 150.864L307.508 152.62L307.625 156.633L298.944 155.584L301.396 150.864Z" fill="#FF8B7B"/>
<path opacity="0.2" d="M307.51 152.62L301.4 150.86L300.21 153.14C300.36 157.01 302.72 160.19 305.85 161.62C307.55 159.39 307.62 156.63 307.62 156.63L307.51 152.62Z" fill="black"/>
<path d="M303.814 138.891C303.895 138.891 303.976 138.862 304.04 138.802C304.175 138.677 304.183 138.466 304.058 138.331C302.807 136.977 301.289 137.218 301.223 137.229C301.042 137.26 300.92 137.432 300.951 137.613C300.982 137.794 301.156 137.915 301.334 137.886C301.384 137.878 302.571 137.704 303.569 138.784C303.635 138.855 303.724 138.891 303.814 138.891Z" fill="#263238"/>
<path d="M316.591 151.683C315.582 156.829 314.973 163.958 318.573 167.392C318.573 167.392 317.166 172.612 307.605 172.612C297.091 172.612 302.547 168.031 302.547 168.031C306.917 166.675 306.879 161.697 305.879 157.698L316.591 151.683Z" fill="#FF8B7B"/>
<path d="M320.542 170.833C321.478 169.507 321.441 165.318 320.441 164.579C318.827 163.386 311.924 163.112 302.625 165.25C303.626 169.308 301.482 171.435 301.482 171.435L320.542 170.833Z" fill="#1E90FF"/>
<path d="M351.795 408.237C351.089 408.39 350.384 408.43 350.044 408.141C349.901 408.019 349.758 407.787 349.883 407.367C349.949 407.146 350.093 406.981 350.312 406.877C351.262 406.424 353.444 407.313 353.537 407.351C353.598 407.376 353.638 407.434 353.64 407.5C353.642 407.566 353.605 407.626 353.546 407.655C353.212 407.816 352.504 408.084 351.795 408.237ZM350.651 407.113C350.579 407.129 350.514 407.15 350.456 407.178C350.324 407.241 350.241 407.334 350.203 407.462C350.114 407.762 350.225 407.856 350.262 407.887C350.64 408.209 352.045 407.912 353.034 407.516C352.362 407.28 351.276 406.978 350.651 407.113Z" fill="#1E90FF"/>
<path d="M353.509 407.668C353.482 407.674 353.454 407.673 353.427 407.665C352.632 407.433 350.931 406.224 350.91 405.427C350.906 405.282 350.957 405.02 351.336 404.888C351.582 404.802 351.83 404.822 352.074 404.947C353.014 405.427 353.608 407.375 353.633 407.458C353.651 407.517 353.635 407.58 353.592 407.623C353.568 407.646 353.54 407.661 353.509 407.668ZM351.518 405.182C351.494 405.187 351.469 405.194 351.445 405.202C351.239 405.274 351.242 405.375 351.243 405.418C351.255 405.89 352.378 406.838 353.201 407.222C352.995 406.66 352.525 405.551 351.923 405.244C351.785 405.173 351.652 405.153 351.518 405.182Z" fill="#1E90FF"/>
<path d="M299.865 409.417C298.962 409.417 298.09 409.293 297.798 408.887C297.696 408.745 297.615 408.503 297.812 408.159C297.922 407.966 298.1 407.835 298.34 407.769C299.511 407.451 301.969 408.851 302.073 408.911C302.133 408.946 302.165 409.014 302.154 409.082C302.143 409.15 302.09 409.205 302.022 409.219C301.573 409.309 300.706 409.417 299.865 409.417ZM298.749 408.053C298.632 408.053 298.523 408.065 298.427 408.091C298.273 408.133 298.167 408.209 298.101 408.324C297.983 408.531 298.026 408.634 298.069 408.692C298.396 409.147 300.174 409.157 301.482 408.972C300.829 408.638 299.571 408.053 298.749 408.053Z" fill="#1E90FF"/>
<path d="M301.989 409.223C301.966 409.223 301.943 409.218 301.921 409.208C301.072 408.827 299.39 407.306 299.519 406.51C299.549 406.323 299.682 406.091 300.139 406.044C300.481 406.009 300.79 406.106 301.063 406.33C301.958 407.065 302.147 408.959 302.155 409.04C302.161 409.099 302.134 409.157 302.086 409.191C302.058 409.212 302.023 409.223 301.989 409.223ZM300.273 406.371C300.24 406.371 300.207 406.373 300.173 406.376C299.873 406.406 299.854 406.524 299.848 406.563C299.771 407.04 300.913 408.236 301.78 408.756C301.69 408.203 301.439 407.069 300.852 406.587C300.675 406.443 300.484 406.371 300.273 406.371Z" fill="#1E90FF"/>
<path d="M309.724 409.056H302.69L301.99 392.768H309.023L309.724 409.056Z" fill="#FF8B7B"/>
<path d="M361.349 405.8L354.475 407.288L347.573 392.117L354.447 390.628L361.349 405.8Z" fill="#FF8B7B"/>
<path d="M353.814 406.598L361.537 404.926C361.818 404.865 362.104 405.008 362.224 405.269L364.905 411.086C365.183 411.689 364.815 412.397 364.163 412.526C361.457 413.063 360.113 413.189 356.716 413.924C354.626 414.376 349.909 415.526 347.024 416.15C344.202 416.761 343.144 414.003 344.269 413.489C349.315 411.184 351.423 409.154 352.789 407.262C353.036 406.921 353.403 406.687 353.814 406.598Z" fill="#263238"/>
<path d="M302.736 408.242H310.417C310.705 408.242 310.953 408.442 311.016 408.722L312.405 414.974C312.549 415.622 312.057 416.236 311.393 416.225C308.622 416.178 304.618 416.015 301.136 416.015C297.064 416.015 293.547 416.237 288.771 416.237C285.883 416.237 285.082 413.318 286.291 413.053C291.794 411.849 296.286 411.72 301.041 408.789C301.559 408.471 302.129 408.242 302.736 408.242Z" fill="#263238"/>
<path d="M331.167 168.982C337.759 170.493 343.195 187.323 343.195 187.323L329.957 197.413C329.957 197.413 325.098 192.832 322.936 184.414C320.669 175.593 324.426 167.437 331.167 168.982Z" fill="#1E90FF"/>
<path opacity="0.4" d="M331.167 168.982C337.759 170.493 343.195 187.323 343.195 187.323L329.957 197.413C329.957 197.413 325.098 192.832 322.936 184.414C320.669 175.593 324.426 167.437 331.167 168.982Z" fill="black"/>
<path d="M296.502 189.067C294.857 190.842 293.217 192.421 291.518 194.046C290.675 194.854 289.813 195.646 288.932 196.423L287.604 197.586L287.27 197.875C287.108 198.014 286.911 198.179 286.7 198.34C286.26 198.665 285.778 199.044 284.768 199.481C284.233 199.687 283.545 199.96 282.336 199.984C281.761 199.993 280.981 199.893 280.236 199.611C279.475 199.329 278.739 198.841 278.235 198.339C277.189 197.288 276.873 196.366 276.667 195.749C276.476 195.113 276.421 194.659 276.382 194.262C276.319 193.486 276.359 192.961 276.402 192.475C276.449 191.995 276.515 191.58 276.588 191.188C276.882 189.646 277.298 188.402 277.749 187.156C278.206 185.923 278.712 184.739 279.303 183.542C279.938 182.268 280.551 181.344 281.162 180.279C283.633 176.149 286.533 172.377 289.614 168.822C292.762 165.291 296.066 162.063 299.865 159.105L303.546 162.892C300.96 166.351 298.418 170.058 296.069 173.714C293.722 177.397 291.545 181.147 289.671 184.96C289.239 185.902 288.706 186.934 288.406 187.722C288.055 188.583 287.733 189.508 287.468 190.419C287.206 191.319 286.995 192.257 286.9 192.945C286.878 193.111 286.867 193.256 286.867 193.34C286.864 193.417 286.884 193.46 286.874 193.247C286.864 193.131 286.853 192.958 286.745 192.592C286.623 192.244 286.433 191.585 285.591 190.733C285.185 190.334 284.575 189.916 283.943 189.69C283.332 189.451 282.693 189.381 282.259 189.383C281.334 189.404 280.921 189.593 280.647 189.691C280.157 189.903 280.147 189.96 280.152 189.938L280.536 189.588L281.737 188.488L284.128 186.249C285.71 184.758 287.302 183.168 288.805 181.692L296.502 189.067Z" fill="#FF8B7B"/>
<path opacity="0.2" d="M325.517 181.358C329.098 184.901 330.266 191.354 330.544 196.964L329.96 197.414C329.96 197.414 325.096 192.828 322.932 184.412C322.798 183.886 322.683 183.359 322.587 182.842L325.517 181.358Z" fill="black"/>
<path d="M289.508 176.035C288.07 183.634 287.17 199.238 291.345 230.14H328.966C329.225 224.365 325.596 196.193 331.167 168.982C331.167 168.982 324.718 167.688 318.573 167.392C313.766 167.16 306.806 167.007 302.58 167.393C300.816 167.554 299.085 167.809 297.542 168.082C293.474 168.801 290.276 171.976 289.508 176.035Z" fill="#1E90FF"/>
<path opacity="0.4" d="M289.508 176.035C288.07 183.634 287.17 199.238 291.345 230.14H328.966C329.225 224.365 325.596 196.193 331.167 168.982C331.167 168.982 324.718 167.688 318.573 167.392C313.766 167.16 306.806 167.007 302.58 167.393C300.816 167.554 299.085 167.809 297.542 168.082C293.474 168.801 290.276 171.976 289.508 176.035Z" fill="black"/>
<path opacity="0.2" d="M295.265 187.266L288.467 185.638C288.256 189.755 288.237 194.858 288.544 201.168C291.675 197.606 295.667 192.053 295.265 187.266Z" fill="black"/>
<path opacity="0.2" d="M301.991 392.772L302.351 401.168H309.388L309.028 392.772H301.991Z" fill="black"/>
<path opacity="0.2" d="M354.451 390.632L347.573 392.121L351.134 399.941L358.012 398.452L354.451 390.632Z" fill="black"/>
<path d="M319.934 144.155C318.127 150.898 317.412 154.936 313.251 157.74C306.992 161.957 299.2 157.117 298.956 149.97C298.737 143.537 301.729 133.591 308.964 132.232C316.093 130.894 321.741 137.412 319.934 144.155Z" fill="#FF8B7B"/>
<path d="M304.147 144.414C303.813 143.51 302.255 136.542 303.717 134.733C305.18 132.924 321.828 134.225 324.29 136.648C328.374 140.667 325.541 144.254 321.07 148.882C317.707 152.362 317.578 156.285 315.882 156.86C312.91 157.869 308.301 156.921 307.377 153.748C306.453 150.576 304.147 144.414 304.147 144.414Z" fill="#263238"/>
<path d="M322.274 128.722C316.389 126.216 305.357 128.988 299.399 127.552C299.186 130.637 301.048 135.584 307.005 136.914C307.005 136.914 315.462 138.563 322.005 138.297C328.548 138.031 327.271 130.85 322.274 128.722Z" fill="#263238"/>
<path d="M323.194 136.861C323.194 136.861 326.833 137.271 329.416 135.667C330.521 138.326 324.472 139.056 323.194 136.861Z" fill="#263238"/>
<path d="M307.354 144.691C307.245 146.516 306.398 148.233 305.378 149.357C303.845 151.046 302.245 149.995 301.973 147.937C301.728 146.085 302.231 142.974 304.106 142.043C305.953 141.124 307.478 142.604 307.354 144.691Z" fill="#FF8B7B"/>
<path d="M304.69 230.14C304.69 230.14 312.672 283.893 317.055 304.031C321.854 326.084 347.586 399.045 347.586 399.045L360.177 396.319C360.177 396.319 342.184 336.861 338.156 306.03C335.062 282.348 328.966 230.14 328.966 230.14H304.69Z" fill="#1E90FF"/>
<path d="M344.571 394.842C344.517 394.854 346.918 399.395 346.918 399.395L361.084 396.328L359.89 392.069L344.571 394.842Z" fill="#263238"/>
<path opacity="0.3" d="M309.735 249.292C318.965 251.102 317.988 285.522 316.878 303.225C314.216 290.711 310.32 266.631 307.658 249.541C308.27 249.235 308.96 249.139 309.735 249.292Z" fill="black"/>
<path d="M291.345 230.14C291.345 230.14 290.376 282.73 291.141 304.179C291.937 326.49 299.73 399.542 299.73 399.542H311.645C311.645 399.542 312.082 327.794 312.612 305.882C313.19 281.995 316.074 230.14 316.074 230.14H291.345Z" fill="#1E90FF"/>
<path d="M297.437 394.796C297.382 394.796 298.109 399.743 298.109 399.743H312.603L312.995 395.328L297.437 394.796Z" fill="#263238"/>
<path d="M304.252 178.342C307.625 187.431 287.81 198.137 287.81 198.137L279.232 187.109C279.232 187.109 284.955 175.719 291.978 170.584C300.653 164.241 301.684 171.423 304.252 178.342Z" fill="#1E90FF"/>
<path opacity="0.4" d="M304.252 178.342C307.625 187.431 287.81 198.137 287.81 198.137L279.232 187.109C279.232 187.109 284.955 175.719 291.978 170.584C300.653 164.241 301.684 171.423 304.252 178.342Z" fill="black"/>
<path d="M381.875 109.333C401.805 109.333 417.962 99.0356 417.962 86.333C417.962 73.6305 401.805 63.333 381.875 63.333C361.945 63.333 345.788 73.6305 345.788 86.333C345.788 99.0356 361.945 109.333 381.875 109.333Z" fill="#1E90FF"/>
<path d="M368.846 97.9101C366.841 97.9101 364.884 97.3101 363.184 96.1511C360.904 94.5971 359.389 92.2411 358.918 89.5171C358.02 84.3101 361.478 79.1221 366.627 77.9521C370.867 76.9911 375.173 78.7981 377.45 82.4691L400.617 77.6881C402.494 77.3011 404.401 78.4201 404.863 80.1851C405.108 81.1231 404.963 82.0921 404.453 82.9141C403.942 83.7361 403.14 84.2951 402.193 84.4911L401.585 84.6171C401.403 84.6541 401.255 84.7641 401.167 84.9261C401.079 85.0861 401.066 85.2751 401.132 85.4451L401.54 86.5071C401.817 87.2261 401.559 88.0351 400.924 88.4301C400.43 88.7381 400.094 89.2661 400.027 89.8441C399.945 90.5521 399.472 91.0971 398.823 91.2311L398.346 91.3291C397.699 91.4611 397.049 91.1511 396.692 90.5331C396.274 89.8111 395.444 89.4391 394.624 89.6091C393.801 89.7791 393.182 90.4501 393.082 91.2791C392.997 91.9881 392.524 92.5321 391.877 92.6651L391.41 92.7611C390.769 92.8941 390.113 92.5821 389.756 91.9651C389.463 91.4611 388.943 91.1091 388.364 91.0231C387.625 90.9131 387.066 90.2731 387.035 89.5011L386.989 88.3641C386.982 88.1791 386.898 88.0151 386.753 87.9021C386.608 87.7881 386.434 87.7471 386.246 87.7831L378.864 89.3071C378.238 93.4901 375.085 96.8391 370.913 97.7001C370.224 97.8391 369.532 97.9101 368.846 97.9101ZM366.848 78.9271C362.209 79.9811 359.094 84.6561 359.905 89.3471C360.328 91.8021 361.693 93.9241 363.748 95.3251C365.803 96.7261 368.275 97.2211 370.712 96.7181C374.577 95.9201 377.474 92.7501 377.918 88.8301L377.959 88.4701L386.044 86.8011C386.511 86.7041 386.994 86.8181 387.369 87.1121C387.744 87.4051 387.969 87.8461 387.989 88.3221L388.035 89.4591C388.046 89.7471 388.251 89.9941 388.511 90.0321C389.402 90.1651 390.17 90.6861 390.621 91.4621C390.731 91.6521 390.94 91.8351 391.209 91.7801L391.676 91.6841C391.941 91.6291 392.064 91.3771 392.09 91.1591C392.239 89.9031 393.177 88.8861 394.423 88.6291C395.665 88.3731 396.924 88.9371 397.558 90.0311C397.668 90.2211 397.876 90.4061 398.145 90.3491L398.623 90.2511C398.888 90.1961 399.01 89.9451 399.034 89.7281C399.138 88.8361 399.636 88.0541 400.398 87.5811C400.622 87.4421 400.711 87.1351 400.608 86.8671L400.2 85.8041C400.029 85.3591 400.062 84.8651 400.291 84.4471C400.52 84.0301 400.918 83.7351 401.385 83.6391L401.993 83.5131C402.669 83.3741 403.241 82.9741 403.605 82.3891C403.969 81.8031 404.073 81.1111 403.898 80.4411C403.568 79.1831 402.185 78.3871 400.82 78.6711L376.951 83.5971L376.771 83.2831C374.768 79.7841 370.786 78.0321 366.848 78.9271ZM368.859 94.2131C367.621 94.2131 366.41 93.8531 365.351 93.1571C363.921 92.2161 362.944 90.7761 362.599 89.1011C362.252 87.4231 362.579 85.7121 363.52 84.2841C364.46 82.8571 365.901 81.8811 367.577 81.5351C369.255 81.1881 370.966 81.5141 372.393 82.4531C373.82 83.3911 374.796 84.8331 375.142 86.5121C375.489 88.1871 375.162 89.8971 374.224 91.3251C373.285 92.7551 371.843 93.7331 370.164 94.0791C369.73 94.1691 369.293 94.2131 368.859 94.2131ZM368.889 82.4001C368.52 82.4001 368.149 82.4381 367.779 82.5141C366.365 82.8061 365.149 83.6301 364.356 84.8341C363.563 86.0391 363.287 87.4821 363.579 88.8991C363.871 90.3121 364.695 91.5271 365.902 92.3211C367.108 93.1141 368.551 93.3911 369.965 93.0991C371.381 92.8071 372.597 91.9811 373.39 90.7751C374.182 89.5701 374.457 88.1281 374.165 86.7131C373.872 85.2961 373.049 84.0791 371.845 83.2871C370.954 82.7041 369.933 82.4001 368.889 82.4001Z" fill="white"/>
<path opacity="0.6" d="M352.495 122.818C359.046 122.818 364.356 119.433 364.356 115.258C364.356 111.083 359.046 107.698 352.495 107.698C345.944 107.698 340.634 111.083 340.634 115.258C340.634 119.433 345.944 122.818 352.495 122.818Z" fill="#1E90FF"/>
<path opacity="0.3" d="M333.629 125.92C336.318 125.92 338.498 124.531 338.498 122.817C338.498 121.103 336.318 119.714 333.629 119.714C330.94 119.714 328.76 121.103 328.76 122.817C328.76 124.531 330.94 125.92 333.629 125.92Z" fill="#1E90FF"/>
</svg>
