<svg width="500" height="500" viewBox="0 0 500 500" fill="none" xmlns="http://www.w3.org/2000/svg">
<path d="M500 382.398H0V382.648H500V382.398Z" fill="#EBEBEB"/>
<path d="M449.901 398.494H416.779V398.744H449.901V398.494Z" fill="#EBEBEB"/>
<path d="M331.22 401.208H322.527V401.458H331.22V401.208Z" fill="#EBEBEB"/>
<path d="M415.778 389.208H396.586V389.458H415.778V389.208Z" fill="#EBEBEB"/>
<path d="M95.652 390.888H52.459V391.138H95.652V390.888Z" fill="#EBEBEB"/>
<path d="M110.889 390.888H104.556V391.138H110.889V390.888Z" fill="#EBEBEB"/>
<path d="M225.147 395.111H131.471V395.361H225.147V395.111Z" fill="#EBEBEB"/>
<path d="M237.014 337.8H43.915C40.768 337.8 38.207 335.239 38.207 332.092V60.6599C38.207 57.5129 40.768 54.9519 43.915 54.9519H237.014C240.16 54.9519 242.721 57.5129 242.721 60.6599V332.092C242.721 335.239 240.16 337.8 237.014 337.8ZM43.915 55.2029C40.905 55.2029 38.457 57.6509 38.457 60.6609V332.093C38.457 335.103 40.905 337.551 43.915 337.551H237.014C240.023 337.551 242.471 335.103 242.471 332.093V60.6599C242.471 57.6509 240.023 55.2019 237.014 55.2019L43.915 55.2029Z" fill="#EBEBEB"/>
<path d="M453.31 337.8H260.212C257.065 337.8 254.505 335.239 254.505 332.092V60.6599C254.505 57.5129 257.066 54.9519 260.212 54.9519H453.31C456.458 54.9519 459.018 57.5129 459.018 60.6599V332.092C459.019 335.239 456.458 337.8 453.31 337.8ZM260.212 55.2029C257.203 55.2029 254.755 57.6509 254.755 60.6609V332.093C254.755 335.103 257.203 337.551 260.212 337.551H453.31C456.32 337.551 458.768 335.103 458.768 332.093V60.6599C458.768 57.6509 456.32 55.2019 453.31 55.2019L260.212 55.2029Z" fill="#EBEBEB"/>
<path d="M191.256 112.578C203.916 109.588 211.755 96.902 208.766 84.2421C205.777 71.5822 193.09 63.7427 180.43 66.7321C167.771 69.7214 159.931 82.4076 162.92 95.0675C165.91 107.727 178.596 115.567 191.256 112.578Z" fill="#E0E0E0"/>
<path d="M189.06 109.434C199.978 107.663 207.393 97.3754 205.621 86.4575C203.849 75.5395 193.562 68.1252 182.644 69.8971C171.726 71.6691 164.311 81.9562 166.083 92.8741C167.855 103.792 178.142 111.206 189.06 109.434Z" fill="#F0F0F0"/>
<path d="M186.792 75.9299V89.9299L196.07 84.6799" fill="#F0F0F0"/>
<path d="M186.792 75.9299V89.9299L196.07 84.6799" stroke="#E0E0E0" stroke-width="2" stroke-miterlimit="10" stroke-linecap="round" stroke-linejoin="round"/>
<path d="M73.7851 345.28C73.7981 344.884 75.1291 305.604 81.5181 299.391C87.7321 293.35 94.8651 299.166 95.1641 299.416L95.8051 298.648C95.7241 298.58 87.6751 292.009 80.8211 298.673C74.1451 305.165 72.8391 343.613 72.7861 345.247L73.7851 345.28Z" fill="#E0E0E0"/>
<path d="M73.237 352.999C73.283 352.529 77.604 305.843 60.5541 286.275L59.8 286.931C76.567 306.174 72.287 352.436 72.242 352.901L73.237 352.999Z" fill="#E0E0E0"/>
<path d="M73.867 348.061L74.8651 347.995C74.8301 347.466 71.5281 294.919 84.034 283.416L83.3571 282.68C70.5011 294.505 73.723 345.879 73.867 348.061Z" fill="#E0E0E0"/>
<path d="M72.2391 348.032L73.2391 348.024C73.2271 346.577 72.8261 312.531 63.1561 306.989C61.0061 305.756 58.9011 305.55 56.8991 306.379C51.0511 308.798 48.1531 319.205 48.0331 319.647L48.9981 319.911C49.0261 319.807 51.8881 309.534 57.2831 307.303C58.9841 306.601 60.7921 306.786 62.6601 307.857C71.8351 313.115 72.2361 347.683 72.2391 348.032Z" fill="#E0E0E0"/>
<path d="M76.0051 348.056L77.0031 347.999C76.9881 347.731 75.5441 321.095 82.7321 311.71C84.4741 309.437 86.3641 308.353 88.3621 308.492C93.0721 308.821 97.0221 315.714 97.0611 315.783L97.9321 315.291C97.7611 314.988 93.6801 307.862 88.4331 307.495C86.0861 307.328 83.8981 308.544 81.9381 311.102C74.5251 320.782 75.9411 346.948 76.0051 348.056Z" fill="#E0E0E0"/>
<path d="M74.429 351.679C74.625 349.095 79.128 288.277 71.204 277.56L70.4 278.154C78.105 288.575 73.479 350.974 73.431 351.603L74.429 351.679Z" fill="#E0E0E0"/>
<path d="M54.743 312.542C54.743 312.542 59.497 314.294 58.083 318.432C56.67 322.569 41.638 329.378 41.638 329.378C41.638 329.378 35.343 323.608 41.124 314.224C46.906 304.84 54.615 309.581 54.743 312.542Z" fill="#EBEBEB"/>
<path d="M75.408 304.666C75.408 304.666 70.346 304.454 70.059 308.817C69.771 313.18 81.025 325.249 81.025 325.249C81.025 325.249 89.056 322.346 87.331 311.459C85.606 300.573 76.666 301.983 75.408 304.666Z" fill="#EBEBEB"/>
<path d="M79.694 283.784C79.694 283.784 76.319 283.422 76.591 281.366C76.863 279.31 89.71 274.02 97.29 282.575C97.29 282.575 92.436 290.912 85.42 291.021C78.404 291.13 79.694 283.784 79.694 283.784Z" fill="#EBEBEB"/>
<path d="M73.4051 278.792C73.4051 278.792 76.4611 280.27 77.3171 278.381C78.1741 276.493 70.0681 265.208 59.1111 268.459C59.1111 268.459 58.8211 278.102 64.7171 281.905C70.6141 285.709 73.4051 278.792 73.4051 278.792Z" fill="#EBEBEB"/>
<path d="M89.383 310.879C89.383 310.879 87.054 308.998 89.567 308.081C92.081 307.163 104.414 307.424 104.543 319.641C104.543 319.641 90.178 322.028 88.4 317.375C86.623 312.72 89.383 310.879 89.383 310.879Z" fill="#EBEBEB"/>
<path d="M60.091 283.478C60.091 283.478 62.42 281.597 59.907 280.679C57.393 279.761 45.06 280.022 44.931 292.239C44.931 292.239 59.296 294.626 61.074 289.972C62.852 285.319 60.091 283.478 60.091 283.478Z" fill="#EBEBEB"/>
<path d="M67.685 293.319C67.685 293.319 67.89 291.033 66.044 291.929C64.198 292.825 57.769 299.761 64.434 306.344C64.434 306.344 73.406 299.699 71.788 296.239C70.172 292.779 67.685 293.319 67.685 293.319Z" fill="#EBEBEB"/>
<path d="M91.4661 296.577C91.4661 296.577 90.0741 294.752 92.1131 294.526C94.1521 294.3 103.29 296.739 101.162 305.862C101.162 305.862 90.0291 305.025 89.5521 301.236C89.0751 297.446 91.4661 296.577 91.4661 296.577Z" fill="#EBEBEB"/>
<path d="M53.855 381.894H92.053L96.174 340.073H49.734L53.855 381.894Z" fill="#F0F0F0"/>
<path d="M47.6944 344.687H98.2134V335.459H47.6944V344.687Z" fill="#E6E6E6"/>
<path d="M136.326 144.278H45.681V148.935H136.326V144.278Z" fill="#E0E0E0"/>
<path d="M53.847 127.11H49.854V144.277H53.847V127.11Z" fill="#EBEBEB"/>
<path d="M73.1561 127.11H69.1631V144.277H73.1561V127.11Z" fill="#EBEBEB"/>
<path d="M95.0761 126.688L91.141 127.366L94.0559 144.284L97.9911 143.606L95.0761 126.688Z" fill="#EBEBEB"/>
<path d="M58.795 129.373H54.802V144.278H58.795V129.373Z" fill="#EBEBEB"/>
<path d="M67.9741 129.373H63.9811V144.278H67.9741V129.373Z" fill="#EBEBEB"/>
<path d="M91.142 129.373H87.149V144.278H91.142V129.373Z" fill="#EBEBEB"/>
<path d="M78.401 128.863L74.5031 129.729L77.7359 144.279L81.6339 143.413L78.401 128.863Z" fill="#EBEBEB"/>
<path d="M62.248 126.258H60.251V144.278H62.248V126.258Z" fill="#EBEBEB"/>
<path d="M86.001 126.258H84.004V144.278H86.001V126.258Z" fill="#EBEBEB"/>
<path d="M127.629 130.69H108.171V144.124H127.629V130.69Z" fill="#EBEBEB"/>
<path d="M45.6818 183.703H136.327V179.046H45.6818V183.703Z" fill="#E0E0E0"/>
<path d="M128.161 179.046H132.154V161.879H128.161V179.046Z" fill="#EBEBEB"/>
<path d="M108.852 179.046H112.845V161.879H108.852V179.046Z" fill="#EBEBEB"/>
<path d="M84.0075 178.367L87.9426 179.045L90.8576 162.127L86.9225 161.449L84.0075 178.367Z" fill="#EBEBEB"/>
<path d="M123.213 179.046H127.206V164.141H123.213V179.046Z" fill="#EBEBEB"/>
<path d="M114.034 179.046H118.027V164.141H114.034V179.046Z" fill="#EBEBEB"/>
<path d="M90.866 179.046H94.859V164.141H90.866V179.046Z" fill="#EBEBEB"/>
<path d="M100.376 178.178L104.274 179.044L107.507 164.494L103.609 163.628L100.376 178.178Z" fill="#EBEBEB"/>
<path d="M119.76 179.046H121.757V161.026H119.76V179.046Z" fill="#EBEBEB"/>
<path d="M96.0058 179.046H98.0028V161.026H96.0058V179.046Z" fill="#EBEBEB"/>
<path d="M54.3792 178.893H73.8372V165.459H54.3792V178.893Z" fill="#EBEBEB"/>
<path d="M429.421 111.732H264.975V257.653H429.421V111.732Z" fill="#E6E6E6"/>
<path d="M425.093 115.732H269.093V253.732H425.093V115.732Z" fill="#F0F0F0"/>
<path d="M305.704 115.732L269.093 253.432V188.727L288.423 115.732H305.704Z" fill="white"/>
<path d="M318.671 115.732L281.738 253.732H275.844L312.776 115.732H318.671Z" fill="white"/>
<path d="M425.093 202.811V224.862L417.62 253.732H411.725L425.093 202.811Z" fill="white"/>
<path d="M323.503 113.251H320.875V256.814H323.503V113.251Z" fill="#E6E6E6"/>
<path d="M374.43 113.251H371.802V256.814H374.43V113.251Z" fill="#E6E6E6"/>
<path d="M442.763 357.103C443.773 355.409 442.349 352.859 440.377 352.83C441.241 350.399 440.389 347.46 438.357 345.869C438.101 345.668 437.806 345.48 437.481 345.48C437.132 345.479 436.823 345.691 436.539 345.895C434.681 347.23 432.822 348.565 430.964 349.9C430.539 350.206 430.098 350.529 429.858 350.994C428.719 353.202 432.826 356.031 431.137 357.852C430.652 358.375 429.871 358.483 429.266 358.861C427.939 359.69 427.779 361.512 427.161 362.949C426.543 364.386 424.387 365.502 423.562 364.172C424.171 362.793 422.328 361.605 420.831 361.43C419.354 361.257 417.771 361.173 416.944 359.769C414.82 361.625 410.065 356.446 410.174 354.358C408.428 354.491 407.239 356.126 406.857 357.761C406.461 359.458 406.706 361.226 406.678 362.965C406.625 366.346 405.533 369.658 405.593 373.039C405.639 375.67 406.656 378.591 409.065 379.65C410.225 380.16 411.535 380.16 412.801 380.152C421.944 380.093 431.087 380.035 440.23 379.976C440.888 379.972 441.575 379.961 442.159 379.656C443.397 379.01 443.658 377.384 443.773 375.993C444.264 370.034 444.755 364.075 445.246 358.116C444.418 357.778 443.591 357.441 442.763 357.103Z" fill="#E0E0E0"/>
<path d="M444.364 328.11H441.284H432.804H429.714H421.244H418.154H409.684H406.594H401.804L402.154 332.41L402.404 335.48L403.054 343.47L403.424 348.06L403.914 354.17L404.124 356.79L404.194 357.57L404.444 360.65L404.784 364.87L404.994 367.49L405.214 370.15L405.464 373.23L405.654 375.56L405.864 378.18L405.954 379.32H411.554H416.284H423.114H427.844H434.674H439.404H445.014L445.104 378.18L445.314 375.57L445.504 373.22L445.754 370.14L445.974 367.49L446.184 364.87L446.524 360.64L446.774 357.57L446.834 356.79L447.044 354.17L447.544 348.06L447.914 343.48L448.554 335.48L448.804 332.41L449.154 328.11H444.364ZM446.924 330.93L446.104 330.11H446.994L446.924 330.93ZM446.714 333.54L446.634 334.58L442.824 338.39L438.454 334.02L442.364 330.11H443.284L446.714 333.54ZM445.614 347.16L442.824 349.95L438.454 345.58L442.824 341.22L445.844 344.24L445.614 347.16ZM405.114 344.24L408.134 341.22L412.504 345.58L408.134 349.95L405.354 347.16L405.114 344.24ZM441.414 339.8L437.044 344.17L432.674 339.8L437.044 335.43L441.414 339.8ZM434.544 330.11H439.544L437.044 332.61L434.544 330.11ZM435.624 345.581L431.264 349.951L426.894 345.581L431.264 341.221L435.624 345.581ZM421.114 351.36L425.484 347L429.844 351.36L425.484 355.73L421.114 351.36ZM424.064 357.141L419.694 361.511L415.334 357.151L419.704 352.781L424.064 357.141ZM431.264 352.78L435.624 357.15L431.264 361.51L426.894 357.14L431.264 352.78ZM425.484 344.17L421.114 339.8L425.484 335.43L429.844 339.8L425.484 344.17ZM424.064 345.581L419.704 349.951L415.334 345.581L419.704 341.221L424.064 345.581ZM413.914 344.17L409.554 339.8L413.914 335.43L418.284 339.8L413.914 344.17ZM413.914 347L418.284 351.36L413.914 355.73L409.554 351.36L413.914 347ZM418.284 362.93L413.914 367.29L409.554 362.93L413.914 358.56L418.284 362.93ZM419.694 364.341L424.064 368.711L419.704 373.081L415.334 368.711L419.694 364.341ZM421.114 362.93L425.484 358.56L429.844 362.93L425.484 367.29L421.114 362.93ZM431.264 364.341L435.624 368.711L431.264 373.081L426.894 368.711L431.264 364.341ZM437.044 370.12L441.414 374.49L438.584 377.32H435.504L432.674 374.49L437.044 370.12ZM432.674 362.93L437.044 358.56L441.414 362.93L437.044 367.29L432.674 362.93ZM432.674 351.36L437.044 347L441.414 351.36L437.044 355.73L432.674 351.36ZM435.624 334.021L431.264 338.391L426.894 334.021L430.804 330.111H431.724L435.624 334.021ZM425.484 332.61L422.984 330.11H427.974L425.484 332.61ZM424.064 334.021L419.704 338.391L415.334 334.021L419.244 330.111H420.164L424.064 334.021ZM416.414 330.11L413.914 332.61L411.424 330.11H416.414ZM408.594 330.11L412.504 334.02L408.134 338.39L404.334 334.58L404.254 333.54L407.674 330.11H408.594ZM404.854 330.11L404.044 330.92L403.974 330.11H404.854ZM404.584 337.66L406.724 339.8L404.904 341.62L404.584 337.66ZM405.774 352.31L405.604 350.24L406.724 351.36L405.774 352.31ZM405.984 354.94L408.134 352.78L412.504 357.15L408.134 361.51L406.374 359.75L405.984 354.94ZM406.634 363.021L406.624 362.831L406.724 362.931L406.634 363.021ZM407.394 372.331L406.844 365.631L408.134 364.341L412.504 368.711L408.134 373.071L407.394 372.331ZM407.794 377.32L407.714 376.32L408.134 375.9L409.554 377.32H407.794ZM409.554 374.49L413.914 370.12L418.284 374.49L415.454 377.32H412.374L409.554 374.49ZM418.284 377.32L419.704 375.9L421.124 377.32H418.284ZM423.944 377.32L421.114 374.49L425.484 370.12L429.844 374.49L427.024 377.32H423.944ZM429.844 377.32L431.264 375.9L432.684 377.32H429.844ZM443.164 377.32H441.404L442.824 375.9L443.244 376.32L443.164 377.32ZM443.574 372.331L442.824 373.071L438.454 368.711L442.824 364.341L444.114 365.631L443.574 372.331ZM444.344 362.82L444.324 363.02L444.234 362.93L444.344 362.82ZM444.594 359.75L442.824 361.51L438.454 357.15L442.824 352.78L444.984 354.94L444.594 359.75ZM445.194 352.32L444.234 351.36L445.364 350.24L445.194 352.32ZM446.384 337.651L446.064 341.631L444.234 339.801L446.384 337.651Z" fill="#E6E6E6"/>
<path d="M400.723 331.894H450.239C451.147 331.894 451.882 331.158 451.882 330.251V327.97C451.882 327.062 451.146 326.327 450.239 326.327H400.723C399.815 326.327 399.08 327.063 399.08 327.97V330.251C399.079 331.158 399.815 331.894 400.723 331.894Z" fill="#F0F0F0"/>
<path d="M446.431 381.894H404.53C403.622 381.894 402.887 381.158 402.887 380.251V377.97C402.887 377.062 403.623 376.327 404.53 376.327H446.431C447.339 376.327 448.074 377.063 448.074 377.97V380.251C448.074 381.158 447.339 381.894 446.431 381.894Z" fill="#F0F0F0"/>
<path d="M250 427.561C357.082 427.561 443.889 422.492 443.889 416.238C443.889 409.985 357.082 404.915 250 404.915C142.918 404.915 56.111 409.985 56.111 416.238C56.111 422.492 142.918 427.561 250 427.561Z" fill="#F5F5F5"/>
<path d="M195.683 248.392H176.872C156.815 248.392 140.555 232.132 140.555 212.075V167.16C140.555 147.103 156.815 130.843 176.872 130.843H195.683C215.74 130.843 232 147.103 232 167.16V212.074C232 232.132 215.741 248.392 195.683 248.392Z" fill="#407BFF"/>
<path opacity="0.8" d="M195.683 248.392H176.872C156.815 248.392 140.555 232.132 140.555 212.075V167.16C140.555 147.103 156.815 130.843 176.872 130.843H195.683C215.74 130.843 232 147.103 232 167.16V212.074C232 232.132 215.741 248.392 195.683 248.392Z" fill="white"/>
<path d="M199.291 241.67H177.722C161.314 241.67 148.013 228.369 148.013 211.961V167.274C148.013 150.866 161.314 137.565 177.722 137.565H199.291C215.699 137.565 229 150.866 229 167.274V211.961C229 228.369 215.699 241.67 199.291 241.67Z" fill="#407BFF"/>
<path opacity="0.3" d="M229 167.27V211.96C229 228.37 215.7 241.67 199.29 241.67H177.72C165.41 241.67 154.85 234.18 150.35 223.51C148.84 219.96 148.01 216.06 148.01 211.96V167.27C148.01 150.87 161.31 137.56 177.72 137.56H199.29C215.7 137.56 229 150.87 229 167.27Z" fill="white"/>
<path d="M229 173.23V184.36H195.1C189.79 184.36 185.49 180.06 185.49 174.76C185.49 169.45 189.79 165.15 195.1 165.15C195.15 165.15 195.21 165.16 195.27 165.16C195.35 159.47 199.98 154.89 205.69 154.89C209.46 154.89 212.76 156.9 214.59 159.89C215.3 159.76 216.04 159.69 216.79 159.69C223.37 159.69 228.71 165.03 228.71 171.61C228.71 172.2 228.66 172.77 228.58 173.34C228.72 173.3 228.86 173.26 229 173.23Z" fill="#F0F0F0"/>
<path d="M184.34 217.89C184.34 220.94 181.92 223.41 178.88 223.51H150.35C148.84 219.96 148.01 216.06 148.01 211.96V196.09C149.74 194.8 151.89 194.04 154.21 194.04C157.98 194.04 161.27 196.05 163.1 199.05C163.82 198.92 164.55 198.84 165.3 198.84C171.88 198.84 177.22 204.18 177.22 210.77C177.22 211.35 177.18 211.93 177.1 212.49C177.61 212.34 178.15 212.26 178.71 212.26C181.82 212.26 184.34 214.78 184.34 217.89Z" fill="#F0F0F0"/>
<path d="M291.666 358.56H425.484C430.869 358.56 435.235 354.194 435.235 348.809V92.543C435.235 87.158 430.869 82.792 425.484 82.792H291.666C286.281 82.792 281.915 87.158 281.915 92.543V348.809C281.914 354.195 286.28 358.56 291.666 358.56Z" fill="#407BFF"/>
<path opacity="0.2" d="M291.666 358.56H425.484C430.869 358.56 435.235 354.194 435.235 348.809V92.543C435.235 87.158 430.869 82.792 425.484 82.792H291.666C286.281 82.792 281.915 87.158 281.915 92.543V348.809C281.914 354.195 286.28 358.56 291.666 358.56Z" fill="black"/>
<path d="M285.163 358.56H418.982C424.367 358.56 428.733 354.194 428.733 348.809V92.543C428.733 87.158 424.367 82.792 418.982 82.792H285.163C279.778 82.792 275.412 87.158 275.412 92.543V348.809C275.412 354.195 279.777 358.56 285.163 358.56Z" fill="#407BFF"/>
<path d="M280.877 92.0341V348.832C280.877 350.944 282.233 352.283 284.345 352.283H420.104C422.045 352.283 422.997 351.082 422.997 349.141V91.7251C422.997 90.0441 422.272 88.8411 420.591 88.8411H386.651C385.693 88.8411 384.823 89.3331 384.466 90.2351L383.061 93.5461C382.704 94.4401 381.834 94.9081 380.876 94.9081H323.094C322.135 94.9081 321.266 94.3981 320.909 93.5041L319.503 90.2021C319.146 89.3001 318.277 88.8421 317.318 88.8421H283.866C282.013 88.8401 280.877 90.1821 280.877 92.0341Z" fill="#263238"/>
<path opacity="0.6" d="M355.261 90.87C356.345 90.87 357.223 89.9916 357.223 88.908C357.223 87.8245 356.345 86.946 355.261 86.946C354.177 86.946 353.299 87.8245 353.299 88.908C353.299 89.9916 354.177 90.87 355.261 90.87Z" fill="white"/>
<path opacity="0.6" d="M349.327 88.9079C349.327 89.6019 349.89 90.1649 350.584 90.1649C351.278 90.1649 351.841 89.6019 351.841 88.9079C351.841 88.2139 351.278 87.6509 350.584 87.6509C349.89 87.6509 349.327 88.2139 349.327 88.9079Z" fill="white"/>
<path opacity="0.6" d="M355.405 341.101V345.862H347.901V341.101H355.405ZM355.51 339.368H347.797C346.898 339.368 346.169 340.097 346.169 340.997V345.968C346.169 346.867 346.898 347.596 347.797 347.596H355.51C356.409 347.596 357.139 346.867 357.139 345.968V340.997C357.139 340.097 356.41 339.368 355.51 339.368Z" fill="white"/>
<path opacity="0.6" d="M407.384 96.564H405.618V98.918H407.384V96.564Z" fill="white"/>
<path opacity="0.6" d="M410.262 95.7791H408.496V98.9191H410.262V95.7791Z" fill="white"/>
<path opacity="0.6" d="M413.14 94.9929H411.374V98.9179H413.14V94.9929Z" fill="white"/>
<path opacity="0.6" d="M416.018 94.208H414.252V98.918H416.018V94.208Z" fill="white"/>
<path opacity="0.6" d="M296.348 98.0593H297.395V95.7053H296.348V98.0593Z" fill="white"/>
<path opacity="0.6" d="M295.629 94.8459H287.289V98.9189H295.629V94.8459Z" fill="white"/>
<path d="M422.997 106.049H280.877V333.33H422.997V106.049Z" fill="#407BFF"/>
<path opacity="0.4" d="M422.998 106.049H280.878V333.33H422.998V106.049Z" fill="white"/>
<path d="M299.148 135.792C305.744 135.792 311.092 130.445 311.092 123.848C311.092 117.252 305.744 111.904 299.148 111.904C292.551 111.904 287.204 117.252 287.204 123.848C287.204 130.445 292.551 135.792 299.148 135.792Z" fill="#407BFF"/>
<path opacity="0.6" d="M335.84 119.558H318.852C317.464 119.558 316.338 118.432 316.338 117.044C316.338 115.656 317.464 114.53 318.852 114.53H335.84C337.229 114.53 338.354 115.656 338.354 117.044C338.354 118.432 337.229 119.558 335.84 119.558Z" fill="white"/>
<path opacity="0.6" d="M368.885 127.1H317.451C316.836 127.1 316.338 126.602 316.338 125.987C316.338 125.372 316.836 124.874 317.451 124.874H368.885C369.5 124.874 369.998 125.372 369.998 125.987C369.999 126.602 369.5 127.1 368.885 127.1Z" fill="white"/>
<path opacity="0.6" d="M353.461 133.166H317.451C316.836 133.166 316.338 132.668 316.338 132.053C316.338 131.438 316.836 130.94 317.451 130.94H353.461C354.076 130.94 354.574 131.438 354.574 132.053C354.574 132.668 354.076 133.166 353.461 133.166Z" fill="white"/>
<path opacity="0.6" d="M422.998 143.997H280.878V264.418H422.998V143.997Z" fill="white"/>
<path d="M372.072 237.212C372.072 234.518 374.256 232.334 376.95 232.334C377.437 232.334 377.907 232.408 378.351 232.54C378.28 232.051 378.242 231.551 378.242 231.042C378.242 225.337 382.867 220.711 388.573 220.711C389.223 220.711 389.859 220.774 390.476 220.889C392.064 218.29 394.918 216.55 398.186 216.55C403.132 216.55 407.145 220.525 407.218 225.453C407.269 225.452 407.318 225.445 407.368 225.445C411.964 225.445 415.69 229.171 415.69 233.767C415.69 238.363 411.964 242.089 407.368 242.089H376.806L376.812 242.082C374.183 242.01 372.072 239.86 372.072 237.212Z" fill="#F0F0F0"/>
<path d="M292.473 214.187C292.473 212.163 294.114 210.523 296.137 210.523C296.503 210.523 296.856 210.578 297.189 210.678C297.136 210.311 297.107 209.935 297.107 209.553C297.107 205.267 300.581 201.793 304.867 201.793C305.355 201.793 305.833 201.84 306.296 201.927C307.489 199.975 309.633 198.668 312.087 198.668C315.802 198.668 318.816 201.653 318.872 205.356C318.91 205.355 318.947 205.35 318.985 205.35C322.437 205.35 325.236 208.149 325.236 211.601C325.236 215.053 322.437 217.852 318.985 217.852H296.03L296.035 217.847C294.059 217.791 292.473 216.176 292.473 214.187Z" fill="#F0F0F0"/>
<path d="M354.167 180.461C354.167 179.355 355.064 178.458 356.169 178.458C356.369 178.458 356.562 178.488 356.744 178.543C356.715 178.342 356.699 178.137 356.699 177.928C356.699 175.586 358.598 173.687 360.94 173.687C361.207 173.687 361.468 173.713 361.721 173.76C362.373 172.693 363.545 171.979 364.886 171.979C366.916 171.979 368.564 173.611 368.594 175.634C368.615 175.634 368.635 175.631 368.656 175.631C370.543 175.631 372.072 177.16 372.072 179.047C372.072 180.934 370.542 182.463 368.656 182.463H356.111L356.114 182.46C355.034 182.43 354.167 181.548 354.167 180.461Z" fill="#F0F0F0"/>
<path d="M325.237 251.139C325.237 249.705 326.399 248.543 327.833 248.543C328.092 248.543 328.342 248.582 328.579 248.653C328.541 248.393 328.521 248.127 328.521 247.856C328.521 244.819 330.983 242.358 334.019 242.358C334.365 242.358 334.703 242.392 335.032 242.453C335.877 241.07 337.396 240.144 339.136 240.144C341.769 240.144 343.904 242.259 343.943 244.883C343.97 244.882 343.996 244.879 344.023 244.879C346.469 244.879 348.452 246.862 348.452 249.308C348.452 251.754 346.469 253.737 344.023 253.737H327.757L327.76 253.733C326.36 253.693 325.237 252.548 325.237 251.139Z" fill="#F0F0F0"/>
<path d="M394.184 193.756C373.111 201.632 306.401 226.562 306.401 226.562L308.404 231.922C308.404 231.922 325.295 233.661 339.444 228.374C357.531 221.614 386.095 210.94 405.558 203.666C407.53 202.929 412.16 199.531 411.374 197.578C410.215 194.697 403.224 195.449 403.224 195.449C403.224 195.449 398.857 192.01 394.184 193.756Z" fill="#407BFF"/>
<path d="M312.548 229.656L298.638 219.593C297.918 219.072 296.985 218.946 296.153 219.257L294.508 219.872C294.161 220.002 294.038 220.429 294.263 220.724L302.991 232.134L300.604 233.026C300.061 233.229 299.785 233.834 299.988 234.377C300.191 234.92 300.796 235.196 301.339 234.993L312.398 230.86L312.548 229.656Z" fill="#407BFF"/>
<path d="M372.072 207.704L322.493 179.265C321.803 178.869 320.972 178.801 320.226 179.08L316.287 180.552C315.724 180.763 315.546 181.473 315.944 181.923L346.057 216.039L372.072 207.704Z" fill="#407BFF"/>
<path d="M356.299 223.808L376.423 216.287L375.16 241.819C375.091 243.207 374.204 244.421 372.902 244.908L370.571 245.779C370.127 245.945 369.628 245.772 369.382 245.367L356.299 223.808Z" fill="#407BFF"/>
<path opacity="0.6" d="M308.401 283.117H291.413C290.025 283.117 288.899 281.992 288.899 280.603C288.899 279.215 290.025 278.089 291.413 278.089H308.401C309.789 278.089 310.915 279.215 310.915 280.603C310.915 281.991 309.789 283.117 308.401 283.117Z" fill="white"/>
<path opacity="0.6" d="M409.907 290.659H290.012C289.397 290.659 288.899 290.161 288.899 289.546C288.899 288.931 289.397 288.433 290.012 288.433H409.907C410.522 288.433 411.02 288.931 411.02 289.546C411.02 290.16 410.522 290.659 409.907 290.659Z" fill="white"/>
<path opacity="0.6" d="M394.483 297.375H290.012C289.397 297.375 288.899 296.877 288.899 296.262C288.899 295.647 289.397 295.149 290.012 295.149H394.483C395.098 295.149 395.596 295.647 395.596 296.262C395.596 296.877 395.097 297.375 394.483 297.375Z" fill="white"/>
<path opacity="0.6" d="M298.983 304.091H290.012C289.397 304.091 288.899 303.593 288.899 302.978C288.899 302.363 289.397 301.865 290.012 301.865H298.983C299.598 301.865 300.096 302.363 300.096 302.978C300.097 303.593 299.598 304.091 298.983 304.091Z" fill="white"/>
<path opacity="0.6" d="M403.148 310.807H290.012C289.397 310.807 288.899 310.309 288.899 309.694C288.899 309.079 289.397 308.581 290.012 308.581H403.149C403.764 308.581 404.262 309.079 404.262 309.694C404.262 310.309 403.763 310.807 403.148 310.807Z" fill="white"/>
<path opacity="0.6" d="M340.58 317.523H290.012C289.397 317.523 288.899 317.025 288.899 316.41C288.899 315.795 289.397 315.297 290.012 315.297H340.58C341.195 315.297 341.693 315.795 341.693 316.41C341.693 317.025 341.194 317.523 340.58 317.523Z" fill="white"/>
<path d="M371.939 166.315H332.184C328.539 166.315 325.583 163.36 325.583 159.714C325.583 156.069 328.538 153.113 332.184 153.113H371.939C375.585 153.113 378.54 156.068 378.54 159.714C378.539 163.359 375.584 166.315 371.939 166.315Z" fill="#407BFF"/>
<path d="M338.842 161.339C338.842 161.614 338.787 161.855 338.677 162.063C338.567 162.27 338.416 162.445 338.223 162.585C338.031 162.726 337.808 162.832 337.555 162.906C337.301 162.979 337.031 163.016 336.744 163.016H333.602V156.512H337.083C337.309 156.512 337.514 156.561 337.697 156.658C337.881 156.756 338.036 156.883 338.164 157.038C338.292 157.194 338.391 157.37 338.462 157.569C338.532 157.767 338.567 157.968 338.567 158.169C338.567 158.486 338.487 158.784 338.329 159.062C338.17 159.34 337.938 159.546 337.633 159.68C338.006 159.79 338.3 159.987 338.517 160.271C338.734 160.556 338.842 160.912 338.842 161.339ZM334.867 157.593V159.233H336.552C336.766 159.233 336.948 159.16 337.098 159.013C337.247 158.866 337.322 158.665 337.322 158.408C337.322 158.158 337.253 157.959 337.116 157.813C336.979 157.667 336.809 157.593 336.608 157.593H334.867ZM337.569 161.101C337.569 160.985 337.549 160.873 337.509 160.766C337.469 160.66 337.416 160.566 337.348 160.487C337.281 160.408 337.202 160.345 337.11 160.299C337.018 160.254 336.918 160.231 336.808 160.231H334.866V161.944H336.744C336.86 161.944 336.969 161.923 337.069 161.88C337.17 161.837 337.257 161.777 337.33 161.701C337.403 161.625 337.461 161.534 337.504 161.43C337.548 161.327 337.569 161.217 337.569 161.101Z" fill="white"/>
<path d="M342.607 163.061C342.13 163.061 341.698 162.968 341.311 162.782C340.923 162.596 340.59 162.348 340.312 162.04C340.034 161.732 339.819 161.379 339.666 160.982C339.513 160.585 339.437 160.179 339.437 159.764C339.437 159.33 339.518 158.915 339.68 158.518C339.842 158.122 340.065 157.77 340.348 157.465C340.632 157.16 340.97 156.917 341.36 156.736C341.751 156.556 342.175 156.466 342.633 156.466C343.103 156.466 343.532 156.562 343.92 156.755C344.308 156.948 344.639 157.199 344.914 157.511C345.188 157.822 345.402 158.176 345.555 158.574C345.707 158.971 345.784 159.374 345.784 159.783C345.784 160.217 345.704 160.631 345.546 161.025C345.387 161.419 345.167 161.767 344.886 162.069C344.605 162.371 344.269 162.613 343.879 162.793C343.49 162.971 343.065 163.061 342.607 163.061ZM340.72 159.764C340.72 160.045 340.762 160.317 340.848 160.579C340.934 160.842 341.057 161.074 341.219 161.275C341.381 161.477 341.579 161.639 341.814 161.761C342.049 161.883 342.317 161.944 342.616 161.944C342.921 161.944 343.191 161.881 343.426 161.756C343.661 161.631 343.86 161.464 344.021 161.257C344.183 161.049 344.305 160.816 344.388 160.556C344.471 160.296 344.512 160.032 344.512 159.764C344.512 159.483 344.468 159.211 344.379 158.948C344.291 158.686 344.165 158.453 344.003 158.252C343.841 158.051 343.643 157.89 343.407 157.771C343.172 157.652 342.908 157.593 342.615 157.593C342.309 157.593 342.038 157.656 341.8 157.781C341.562 157.907 341.363 158.071 341.204 158.276C341.045 158.481 340.925 158.713 340.842 158.972C340.762 159.231 340.72 159.495 340.72 159.764Z" fill="white"/>
<path d="M349.533 163.061C349.056 163.061 348.624 162.968 348.237 162.782C347.849 162.596 347.516 162.348 347.238 162.04C346.96 161.732 346.745 161.379 346.592 160.982C346.439 160.585 346.363 160.179 346.363 159.764C346.363 159.33 346.443 158.915 346.606 158.518C346.768 158.122 346.991 157.77 347.274 157.465C347.558 157.16 347.896 156.917 348.286 156.736C348.677 156.556 349.102 156.466 349.559 156.466C350.029 156.466 350.458 156.562 350.846 156.755C351.234 156.948 351.565 157.199 351.84 157.511C352.114 157.822 352.328 158.176 352.481 158.574C352.633 158.971 352.71 159.374 352.71 159.783C352.71 160.217 352.63 160.631 352.472 161.025C352.313 161.419 352.093 161.767 351.812 162.069C351.531 162.371 351.195 162.613 350.805 162.793C350.415 162.971 349.991 163.061 349.533 163.061ZM347.646 159.764C347.646 160.045 347.688 160.317 347.774 160.579C347.86 160.842 347.983 161.074 348.145 161.275C348.307 161.477 348.505 161.639 348.74 161.761C348.975 161.883 349.243 161.944 349.542 161.944C349.847 161.944 350.117 161.881 350.353 161.756C350.588 161.631 350.787 161.464 350.948 161.257C351.11 161.049 351.232 160.816 351.315 160.556C351.397 160.296 351.438 160.032 351.438 159.764C351.438 159.483 351.394 159.211 351.305 158.948C351.217 158.686 351.091 158.453 350.929 158.252C350.767 158.051 350.569 157.89 350.333 157.771C350.098 157.652 349.834 157.593 349.541 157.593C349.235 157.593 348.964 157.656 348.726 157.781C348.488 157.907 348.289 158.071 348.13 158.276C347.971 158.481 347.851 158.713 347.768 158.972C347.687 159.231 347.646 159.495 347.646 159.764Z" fill="white"/>
<path d="M353.682 163.016V156.521H354.946V159.608L357.676 156.512H359.068L356.576 159.397L359.224 163.016H357.804L355.78 160.203L354.946 161.074V163.016H353.682Z" fill="white"/>
<path d="M364.327 161.907V163.015H359.811V156.511H364.245V157.619H361.075V159.185H363.814V160.211H361.075V161.906L364.327 161.907Z" fill="white"/>
<path d="M365.316 163.016V156.512H367.68C368.211 156.512 368.677 156.597 369.077 156.768C369.477 156.939 369.811 157.171 370.08 157.464C370.349 157.757 370.55 158.101 370.685 158.495C370.819 158.889 370.887 159.308 370.887 159.754C370.887 160.249 370.812 160.696 370.662 161.096C370.513 161.496 370.297 161.838 370.016 162.122C369.735 162.406 369.397 162.626 369.004 162.782C368.61 162.938 368.169 163.015 367.68 163.015H365.316V163.016ZM369.612 159.754C369.612 159.443 369.569 159.156 369.484 158.893C369.399 158.63 369.274 158.404 369.109 158.215C368.944 158.026 368.741 157.88 368.5 157.776C368.258 157.672 367.985 157.62 367.68 157.62H366.58V161.907H367.68C367.991 161.907 368.267 161.852 368.509 161.742C368.75 161.632 368.952 161.481 369.114 161.289C369.276 161.097 369.399 160.869 369.485 160.606C369.569 160.344 369.612 160.06 369.612 159.754Z" fill="white"/>
<path d="M98.977 394.714L127.79 391.882V351.39H139.209V391.871L168.138 394.714C171.01 394.996 173.199 397.411 173.199 400.297V404.624H134.616H132.499H93.916V400.297C93.916 397.411 96.105 394.996 98.977 394.714Z" fill="#263238"/>
<path opacity="0.2" d="M98.977 394.714L127.79 391.882V351.39H139.209V391.871L168.138 394.714C171.01 394.996 173.199 397.411 173.199 400.297V404.624H134.616H132.499H93.916V400.297C93.916 397.411 96.105 394.996 98.977 394.714Z" fill="white"/>
<path d="M170.15 417.456C174.273 417.456 177.616 414.113 177.616 409.99C177.616 405.867 174.273 402.524 170.15 402.524C166.027 402.524 162.684 405.867 162.684 409.99C162.684 414.113 166.027 417.456 170.15 417.456Z" fill="#263238"/>
<path d="M96.965 417.456C101.088 417.456 104.431 414.113 104.431 409.99C104.431 405.867 101.088 402.524 96.965 402.524C92.8417 402.524 89.499 405.867 89.499 409.99C89.499 414.113 92.8417 417.456 96.965 417.456Z" fill="#263238"/>
<path d="M129.956 360.093H137.042C139.325 360.093 141.175 358.242 141.175 355.96V324.027H125.823V355.96C125.823 358.242 127.674 360.093 129.956 360.093Z" fill="#263238"/>
<path opacity="0.3" d="M129.956 360.093H137.042C139.325 360.093 141.175 358.242 141.175 355.96V324.027H125.823V355.96C125.823 358.242 127.674 360.093 129.956 360.093Z" fill="white"/>
<path d="M125.148 227.497C125.321 255.155 128.164 311.728 148.051 324.026H92.793C90.805 324.026 88.977 322.959 88 321.227C83.113 312.562 69.661 283.309 71.942 226.98C72.277 218.714 79.094 212.186 87.366 212.186H109.714C118.191 212.187 125.095 219.02 125.148 227.497Z" fill="#263238"/>
<path d="M131.148 227.497C131.321 255.155 134.164 311.728 154.051 324.026H95.724C95.724 324.026 75.164 295.585 77.943 226.98C78.278 218.714 85.095 212.186 93.367 212.186H115.715C124.191 212.187 131.095 219.02 131.148 227.497Z" fill="#263238"/>
<path opacity="0.3" d="M131.148 227.497C131.321 255.155 134.164 311.728 154.051 324.026H95.724C95.724 324.026 75.164 295.585 77.943 226.98C78.278 218.714 85.095 212.186 93.367 212.186H115.715C124.191 212.187 131.095 219.02 131.148 227.497Z" fill="white"/>
<path d="M167.968 316.475H101.047C98.286 316.475 96.047 318.714 96.047 321.475V328.164H172.968V321.475C172.968 318.714 170.73 316.475 167.968 316.475Z" fill="#263238"/>
<path d="M174.163 322.32H94.853C93.742 322.32 92.842 323.221 92.842 324.331V326.153C92.842 327.264 93.742 328.164 94.853 328.164H174.164C175.275 328.164 176.175 327.263 176.175 326.153V324.331C176.175 323.221 175.274 322.32 174.163 322.32Z" fill="#263238"/>
<path opacity="0.6" d="M174.163 322.32H94.853C93.742 322.32 92.842 323.221 92.842 324.331V326.153C92.842 327.264 93.742 328.164 94.853 328.164H174.164C175.275 328.164 176.175 327.263 176.175 326.153V324.331C176.175 323.221 175.274 322.32 174.163 322.32Z" fill="white"/>
<path d="M200.887 417.455H207.013L218.02 264.208H209.893L200.887 417.455Z" fill="#263238"/>
<path opacity="0.4" d="M200.883 417.455H207.013L217.483 271.82L218.023 264.455H209.893L209.453 271.82L200.883 417.455Z" fill="white"/>
<path opacity="0.2" d="M209.453 271.455H217.483L218.023 264.455H209.893L209.453 271.455Z" fill="black"/>
<path d="M218.66 377.82L211.72 377.15C211.72 377.15 203.57 354.92 195.44 335.02C188.88 318.97 182.34 304.45 180.11 304.36C179.62 304.34 178.66 304.55 177.31 304.95C164.9 308.58 119.68 327.33 108.17 315.62C95.41 302.65 113.86 271.38 113.86 271.38C113.86 271.38 144.55 267 146.86 273.93C147.31 275.27 147.8 277.9 148.16 280.15C148.51 282.27 148.75 284.05 148.75 284.05C148.75 284.05 148.76 284.05 148.77 284.04C149.72 283.8 180.53 275.85 192.67 284.05C205 292.39 218.66 377.82 218.66 377.82Z" fill="#E4897B"/>
<path d="M229.395 389.551C228.395 389.091 227.32 388.818 226.221 388.745C226.221 388.745 222.423 386.509 218.659 377.825L214.426 377.8C212.961 377.817 211.661 378.747 211.174 380.129C211.104 380.317 211.064 380.515 211.054 380.715C211.097 381.738 211.205 382.757 211.379 383.766C211.76 386.932 213.854 393.725 213.854 393.725L214.571 393.542L213.267 387.226C212.833 385.08 215.088 387.153 216.134 389.317C217.18 391.481 218.784 393.659 223.459 392.59C228.907 391.316 231.103 390.531 229.395 389.551Z" fill="#2E353A"/>
<path d="M217.893 375.549C217.893 375.549 223.178 386.61 226.222 388.744C226.222 388.744 222.142 391.177 217.893 385.762C212.399 378.759 211.055 380.715 211.055 380.715C211.055 380.715 211.288 378.318 211.716 377.145C212.542 374.887 217.893 375.549 217.893 375.549Z" fill="#E4897B"/>
<path d="M171.174 415.904C170.312 415.22 169.332 414.699 168.282 414.368C168.282 414.368 165.123 411.295 163.525 401.966L159.418 400.938C157.99 400.607 156.508 401.203 155.706 402.43C155.594 402.596 155.508 402.779 155.451 402.971C155.25 403.975 155.114 404.99 155.043 406.012C154.662 409.178 155.085 416.273 155.085 416.273L155.825 416.266L156.056 409.821C156.144 407.633 157.843 410.182 158.346 412.532C158.849 414.882 159.891 417.378 164.686 417.449C170.282 417.503 172.601 417.261 171.174 415.904Z" fill="#2E353A"/>
<path d="M163.321 399.574C163.321 399.574 165.833 411.573 168.283 414.368C168.283 414.368 163.742 415.764 160.899 409.496C157.223 401.39 155.452 402.971 155.452 402.971C155.452 402.971 156.247 400.698 156.941 399.66C158.279 397.661 163.321 399.574 163.321 399.574Z" fill="#E4897B"/>
<path opacity="0.1" d="M163.321 399.574C163.321 399.574 165.833 411.573 168.283 414.368C168.283 414.368 163.742 415.764 160.899 409.496C157.223 401.39 155.452 402.971 155.452 402.971C155.452 402.971 156.247 400.698 156.941 399.66C158.279 397.661 163.321 399.574 163.321 399.574Z" fill="black"/>
<path opacity="0.2" d="M195.44 335.02C188.88 318.97 182.34 304.45 180.11 304.36C179.62 304.34 178.66 304.55 177.31 304.95L177.4 301.3C177.4 301.3 185.99 301.59 192.32 308.45C196.61 313.1 196.17 326.74 195.44 335.02Z" fill="black"/>
<path d="M130.21 318.742C130.21 318.742 164.985 315.092 168.615 318.233C172.418 321.524 163.235 328.164 156.941 399.659L163.525 401.965C163.525 401.965 189.67 324.79 189.42 314.54C189.17 304.29 177.42 301.29 177.42 301.29C177.42 301.29 154.486 314.541 130.21 318.742Z" fill="#E4897B"/>
<path opacity="0.1" d="M189.42 314.54C189.67 324.79 163.53 401.97 163.53 401.97L156.94 399.66C163.24 328.16 172.42 321.52 168.62 318.23C167.8 317.52 165.35 317.16 162.07 317.03C156.19 316.78 147.62 317.27 140.84 317.8C134.81 318.26 130.21 318.74 130.21 318.74C133.28 318.21 136.33 317.53 139.32 316.75C159.56 311.49 176.79 301.65 177.4 301.3C177.41 301.3 177.42 301.29 177.42 301.29C177.42 301.29 189.17 304.29 189.42 314.54Z" fill="black"/>
<path opacity="0.2" d="M177.4 301.3C176.92 301.71 167.25 309.98 162.07 317.03C156.19 316.78 147.62 317.27 140.84 317.8C140.19 317.36 139.67 317 139.32 316.75C159.56 311.49 176.79 301.65 177.4 301.3Z" fill="black"/>
<path d="M170.968 280.509L154.273 326.714C154.273 326.714 114.044 325.725 106.132 317.615C98.22 309.505 100.989 296.055 107.121 286.56C113.253 277.065 144.11 275.285 144.11 275.285L150.684 283.577C150.684 283.577 161.817 280.513 170.968 280.509Z" fill="#263238"/>
<path opacity="0.1" d="M170.97 280.51L154.27 326.71C154.27 326.71 114.04 325.73 106.13 317.62C98.22 309.51 100.99 296.05 107.12 286.56C113.25 277.07 144.11 275.29 144.11 275.29L148 280.2L150.52 283.38L150.68 283.58C150.68 283.58 161.82 280.51 170.97 280.51Z" fill="white"/>
<path opacity="0.3" d="M150.52 283.38L130.8 287.79C130.8 287.79 140.58 282.39 148 280.2L150.52 283.38Z" fill="black"/>
<path d="M146.86 273.93L150.68 283.58L141.39 285.59L136.46 280.45L125.51 291.18L100.46 292.38L113.86 271.38L112.61 254.97L111.22 236.68L110.06 221.42C110.06 221.42 122.72 216.27 133.3 216.82C143.89 217.36 152.32 218.72 152.32 218.72C158.87 234.54 146.86 273.93 146.86 273.93Z" fill="#407BFF"/>
<path opacity="0.2" d="M146.86 273.93L150.68 283.58L141.39 285.59L136.46 280.45L125.51 291.18L100.46 292.38L113.86 271.38L112.61 254.97L111.22 236.68L110.06 221.42C110.06 221.42 122.72 216.27 133.3 216.82C143.89 217.36 152.32 218.72 152.32 218.72C158.87 234.54 146.86 273.93 146.86 273.93Z" fill="black"/>
<path d="M84.162 216.182C84.384 216.642 84.17 217.152 83.685 217.321L75.057 220.335C74.572 220.504 73.999 220.269 73.777 219.809L65.902 203.453C65.68 202.993 65.852 202.365 66.337 202.196L74.965 199.182C75.45 199.013 76.064 199.366 76.286 199.826L84.162 216.182Z" fill="#263238"/>
<path opacity="0.5" d="M75.291 200.049L83.249 216.561C83.474 217.026 83.336 217.444 82.855 217.612L75.539 220.168C75.048 220.339 74.054 220.383 73.83 219.918L65.851 203.347C65.626 202.882 66.328 202.201 66.819 202.029L74.135 199.473C74.617 199.304 75.066 199.583 75.291 200.049Z" fill="white"/>
<path d="M81.705 234.74L75.868 223.066C75.868 223.066 80.022 213.946 78.736 212.717C77.451 211.487 76.066 206.967 73.692 206.61C71.318 206.253 68.351 217.077 68.351 218.022C68.351 218.967 70.527 224.45 70.527 224.45L75.665 240.449L81.705 234.74Z" fill="#E4897B"/>
<path d="M163.2 210.01L158.85 214.76L155.48 210.41C155.48 210.41 154.89 211.89 153.98 211.97C153.07 212.05 147.47 214.96 146.46 213.84C146.15 213.49 145.87 212.72 145.63 211.83C145.09 209.84 144.76 207.24 144.76 207.24C144.76 207.24 154.2 201.8 155.29 202.65C155.41 202.74 155.59 202.9 155.82 203.1C157.76 204.82 163.2 210.01 163.2 210.01Z" fill="#E4897B"/>
<path opacity="0.2" d="M155.82 203.1C155.21 206.08 153.06 210.65 145.63 211.83C145.09 209.84 144.76 207.24 144.76 207.24C144.76 207.24 154.2 201.8 155.29 202.65C155.41 202.74 155.59 202.9 155.82 203.1Z" fill="black"/>
<path d="M181.69 238.89C178.67 245.61 167.31 243.17 159.49 240.52C155.05 239.01 151.74 237.44 151.74 237.44L151.93 231.33L152.32 218.72L161.26 224.45L167.59 228.51L156.02 211.97L161.52 206.61C161.52 206.61 186.44 228.35 181.69 238.89Z" fill="#407BFF"/>
<path opacity="0.2" d="M181.69 238.89C178.67 245.61 167.31 243.17 159.49 240.52C155.05 239.01 151.74 237.44 151.74 237.44L151.93 231.33L152.32 218.72L161.26 224.45L167.59 228.51L156.02 211.97L161.52 206.61C161.52 206.61 186.44 228.35 181.69 238.89Z" fill="black"/>
<path opacity="0.2" d="M159.49 240.52C155.05 239.01 151.74 237.44 151.74 237.44L151.93 231.33L153.89 226.58C153.89 226.58 158.26 233.47 159.49 240.52Z" fill="black"/>
<path opacity="0.2" d="M170.97 234.74C170.97 234.74 162.22 231.82 161.26 224.45L167.59 228.51L170.97 234.74Z" fill="black"/>
<path opacity="0.6" d="M125.493 251.294H129.436C129.873 251.294 130.227 250.94 130.227 250.503V243.064C130.227 242.627 129.873 242.273 129.436 242.273H125.493C125.056 242.273 124.702 242.627 124.702 243.064V250.503C124.701 250.94 125.056 251.294 125.493 251.294Z" fill="white"/>
<path opacity="0.2" d="M125.413 248.998H129.897V242.866H125.413V248.998Z" fill="black"/>
<path d="M128.05 240.097H127.061V243.711H128.05V240.097Z" fill="#263238"/>
<path opacity="0.2" d="M112.61 254.97L111.22 236.68L114.26 233.94C114.26 233.94 117.51 244.86 112.61 254.97Z" fill="black"/>
<path opacity="0.4" d="M123.538 221.417C123.538 221.417 135.246 249.067 136.117 259.21C136.117 259.21 143.826 235.115 142.907 223.246L123.538 221.417Z" fill="white"/>
<path d="M117.407 222.67C117.407 222.67 120.533 211.791 132.42 212.78C144.308 213.769 148.867 224.919 148.867 224.919L143.309 222.076L136.989 240.448L125.508 222.274L117.407 222.67Z" fill="#407BFF"/>
<path opacity="0.6" d="M117.407 222.67C117.407 222.67 120.533 211.791 132.42 212.78C144.308 213.769 148.867 224.919 148.867 224.919L143.309 222.076L136.989 240.448L125.508 222.274L117.407 222.67Z" fill="white"/>
<path d="M127.239 181.794C127.239 181.794 126.682 176.827 120.088 176.441C113.495 176.055 107.956 180.72 111.912 188.673C115.868 196.627 115.986 205.525 110.586 206.614C110.586 206.614 121.187 211.518 123.121 194.835L127.239 181.794Z" fill="#263238"/>
<path d="M144.989 179.503C144.989 179.503 138.843 171.967 126.96 180.539C115.077 189.11 124.403 207.045 133.652 206.518C142.901 205.989 144.989 179.503 144.989 179.503Z" fill="#263238"/>
<path d="M140.12 215.23C140.19 217.3 141.06 218.95 141.06 218.95L136.198 232.951L124.68 217.67C128.79 217.14 131.19 212.07 132.42 208.3C133.06 206.35 133.38 204.75 133.46 204.3C133.48 204.21 133.49 204.17 133.49 204.17L133.75 204.32L143.03 209.55C140.62 211.2 140.05 213.38 140.12 215.23Z" fill="#E4897B"/>
<path opacity="0.2" d="M143.03 209.55C140.62 211.2 140.05 213.38 140.12 215.23C135.75 213.9 133.54 210.85 132.42 208.3C133.06 206.35 133.38 204.75 133.46 204.3L133.75 204.32L143.03 209.55Z" fill="black"/>
<path d="M134.531 179.185C134.531 179.185 141.486 173.22 149.612 177.176C157.737 181.132 157.595 193.254 152.179 197.368C146.761 201.482 134.531 179.185 134.531 179.185Z" fill="#263238"/>
<path d="M139.465 181.698C147.948 180.856 151.128 185.127 152.617 193.807C154.477 204.654 152.825 212.656 141.987 211.375C127.269 209.635 125.378 183.096 139.465 181.698Z" fill="#E4897B"/>
<path d="M147.087 193.877C147.087 193.877 148.482 195.976 149.904 197.15C149.904 197.15 149.292 198.376 147.763 198.331L147.087 193.877Z" fill="#DE5753"/>
<path d="M141.826 193.699C141.912 194.394 141.605 195.004 141.142 195.061C140.678 195.118 140.234 194.601 140.148 193.905C140.062 193.209 140.369 192.6 140.832 192.543C141.295 192.486 141.74 193.003 141.826 193.699Z" fill="#263238"/>
<path d="M140.643 192.6L142.082 191.821C142.082 191.821 141.486 193.186 140.643 192.6Z" fill="#263238"/>
<path d="M150.45 192.492C150.535 193.187 150.229 193.797 149.766 193.854C149.302 193.911 148.858 193.394 148.772 192.698C148.686 192.003 148.993 191.393 149.456 191.336C149.92 191.279 150.365 191.797 150.45 192.492Z" fill="#263238"/>
<path d="M149.267 191.394L150.706 190.615C150.706 190.615 150.11 191.98 149.267 191.394Z" fill="#263238"/>
<path d="M141.159 187.849C141.159 187.849 138.745 187.776 137.607 189.496" stroke="#263238" stroke-width="0.7247" stroke-miterlimit="10" stroke-linecap="round" stroke-linejoin="round"/>
<path d="M147.29 186.879C147.29 186.879 148.733 186.175 150.74 187.241" stroke="#263238" stroke-width="0.7247" stroke-miterlimit="10" stroke-linecap="round" stroke-linejoin="round"/>
<path d="M131.613 196.915C131.613 196.915 134.888 189.552 133.753 184.231C133.753 184.231 149.881 175.696 152.404 192.676C152.404 192.676 152.543 177.363 137.928 178.472C123.336 179.579 125.491 200.908 133.652 206.517C133.652 206.517 129.592 201.517 131.613 196.915Z" fill="#263238"/>
<path d="M133.176 198.568C132.984 197.208 131.345 195.036 128.833 195.565C126.233 196.113 125.515 201.633 132.183 202.282C133.139 202.375 133.577 201.406 133.176 198.568Z" fill="#E4897B"/>
<path d="M148.867 201.648C148.444 202.706 148.072 204.668 148.072 204.668C147.888 204.666 147.704 204.665 147.521 204.653C145.029 204.568 143.901 203.705 143.406 202.774C143.137 202.264 143.064 201.727 143.061 201.291C143.053 200.787 143.162 200.426 143.162 200.426C144.456 201.26 146.774 201.519 148.017 201.605C148.538 201.647 148.867 201.648 148.867 201.648Z" fill="#263238"/>
<path d="M148.018 201.606L147.761 202.49C145.414 202.404 143.773 202.029 143.062 201.292C143.054 200.788 143.163 200.427 143.163 200.427C144.457 201.261 146.774 201.52 148.018 201.606Z" fill="white"/>
<path d="M147.521 204.654C145.029 204.569 143.901 203.706 143.406 202.775C144.254 202.837 145.27 203.005 146.155 203.418C146.832 203.73 147.249 204.192 147.521 204.654Z" fill="#DE5753"/>
<path d="M153.358 189.708C153.358 189.708 151.493 189.03 148.021 190.257L148.017 190.244C148.017 190.244 146.441 189.679 144.921 190.594C143.871 190.584 141.408 190.702 138.549 191.822L131.923 194.336V195.066L138.681 193.324C139.242 194.985 140.748 197.525 143.03 197.056C146.067 196.432 145.875 193.29 145.649 191.822C146.288 191.078 147.5 190.973 147.744 191.54C147.993 192.843 148.825 195.838 152.001 195.662C155.214 195.484 153.358 189.708 153.358 189.708Z" fill="#407BFF"/>
<path opacity="0.2" d="M153.358 189.708C153.358 189.708 151.493 189.03 148.021 190.257L148.017 190.244C148.017 190.244 146.441 189.679 144.921 190.594C143.871 190.584 141.408 190.702 138.549 191.822L131.923 194.336V195.066L138.681 193.324C139.242 194.985 140.748 197.525 143.03 197.056C146.067 196.432 145.875 193.29 145.649 191.822C146.288 191.078 147.5 190.973 147.744 191.54C147.993 192.843 148.825 195.838 152.001 195.662C155.214 195.484 153.358 189.708 153.358 189.708Z" fill="black"/>
<g opacity="0.3">
<path d="M152.223 190.132L150.888 195.065C150.888 195.065 152.77 195.695 153.275 194.187C153.78 192.679 153.138 190.132 153.138 190.132C153.138 190.132 152.569 190.033 152.223 190.132Z" fill="white"/>
<path d="M151.788 190.088L150.464 195.065C150.464 195.065 149.62 194.805 149.611 194.484L150.706 190.231C150.706 190.231 151.478 190.118 151.788 190.088Z" fill="white"/>
<path d="M143.743 191.348L142.408 196.281C142.408 196.281 144.29 196.911 144.795 195.403C145.3 193.895 144.658 191.348 144.658 191.348C144.658 191.348 144.089 191.249 143.743 191.348Z" fill="white"/>
<path d="M143.309 191.304L141.985 196.281C141.985 196.281 141.141 196.021 141.132 195.7L142.227 191.447C142.227 191.447 142.998 191.335 143.309 191.304Z" fill="white"/>
</g>
<path d="M139.17 181.373C139.17 181.373 141.153 190.8 134.531 194.835" stroke="#263238" stroke-width="0.5" stroke-miterlimit="10" stroke-linecap="round" stroke-linejoin="round"/>
<path d="M139.353 182.356C139.353 182.356 137.32 196.653 128.514 197.346C119.708 198.039 128.048 182.106 131.517 179.021C133.108 177.605 138.681 175.659 139.353 182.356Z" fill="#263238"/>
<path d="M110.057 221.417C106.264 221.946 94.132 246.614 91.231 246.619C88.33 246.624 79.254 227.432 79.254 227.432L71.714 232.951C71.714 232.951 80.712 263.726 90.885 262.29C101.912 260.734 113.912 242.762 113.912 242.762C113.912 242.762 114.703 236.451 113.912 230.912C113.121 225.374 110.057 221.417 110.057 221.417Z" fill="#407BFF"/>
<path opacity="0.2" d="M110.057 221.417C106.264 221.946 94.132 246.614 91.231 246.619C88.33 246.624 79.254 227.432 79.254 227.432L71.714 232.951C71.714 232.951 80.712 263.726 90.885 262.29C101.912 260.734 113.912 242.762 113.912 242.762C113.912 242.762 114.703 236.451 113.912 230.912C113.121 225.374 110.057 221.417 110.057 221.417Z" fill="black"/>
<path d="M265.526 211.643H244.687V244.363H265.526V211.643Z" fill="white"/>
<path opacity="0.2" d="M265.526 211.643H244.687V244.363H265.526V211.643Z" fill="black"/>
<path d="M259.981 211.643H239.142V244.363H259.981V211.643Z" fill="white"/>
<path opacity="0.1" d="M259.981 211.643H239.142V244.363H259.981V211.643Z" fill="black"/>
<path d="M267.11 213.382V256.89H238.231V224.471L253.22 213.382H267.11Z" fill="#263238"/>
<path opacity="0.2" d="M267.11 213.382H258.34V256.89H267.11V213.382Z" fill="black"/>
<path opacity="0.4" d="M266.206 220.209H259.676V223.256H266.206V220.209Z" fill="white"/>
<path opacity="0.4" d="M266.206 225.206H259.676V235.077H266.206V225.206Z" fill="white"/>
<path opacity="0.4" d="M266.206 237.758H259.676V240.317H266.206V237.758Z" fill="white"/>
<path d="M250.526 210.643H229.687V243.363H250.526V210.643Z" fill="white"/>
<path opacity="0.2" d="M250.526 210.643H229.687V243.363H250.526V210.643Z" fill="black"/>
<path d="M244.981 210.643H224.142V243.363H244.981V210.643Z" fill="white"/>
<path opacity="0.1" d="M244.981 210.643H224.142V243.363H244.981V210.643Z" fill="black"/>
<path d="M252.11 213.382V256.89H223.231V224.471L238.22 213.382H252.11Z" fill="#407BFF"/>
<path opacity="0.2" d="M252.11 213.382H243.34V256.89H252.11V213.382Z" fill="black"/>
<path opacity="0.4" d="M251.206 220.209H244.676V223.256H251.206V220.209Z" fill="white"/>
<path opacity="0.4" d="M251.206 225.206H244.676V235.077H251.206V225.206Z" fill="white"/>
<path opacity="0.4" d="M251.206 237.758H244.676V240.317H251.206V237.758Z" fill="white"/>
<path d="M203.928 417.455H210.054L211.055 264.208H202.927L203.928 417.455Z" fill="#263238"/>
<path opacity="0.5" d="M202.923 264.455L203.083 289.18L203.923 417.455H210.053L210.893 289.18L211.053 264.455H202.923Z" fill="white"/>
<path opacity="0.2" d="M202.923 264.455L203.083 289.455H210.893L211.053 264.455H202.923Z" fill="black"/>
<path d="M138.887 417.455H145.013L156.02 264.208H147.893L138.887 417.455Z" fill="#263238"/>
<path opacity="0.5" d="M138.883 417.455H145.013L155.483 271.82L156.023 264.455H147.893L147.453 271.82L138.883 417.455Z" fill="white"/>
<path opacity="0.2" d="M147.453 271.455H155.483L156.023 264.455H147.893L147.453 271.455Z" fill="black"/>
<path d="M270.969 417.455H277.095L268.089 264.208H259.962L270.969 417.455Z" fill="#263238"/>
<path opacity="0.5" d="M259.963 264.455L260.503 271.82L270.973 417.455H277.093L268.533 271.82L268.093 264.455H259.963Z" fill="white"/>
<path opacity="0.2" d="M268.093 264.455H259.963L260.503 271.455H268.533L268.093 264.455Z" fill="black"/>
<path d="M143.613 268.046H272.37C273.564 268.046 274.532 267.078 274.532 265.884V260.37H141.45V265.883C141.45 267.078 142.418 268.046 143.613 268.046Z" fill="#407BFF"/>
<path opacity="0.6" d="M143.613 268.046H272.37C273.564 268.046 274.532 267.078 274.532 265.884V260.37H141.45V265.883C141.45 267.078 142.418 268.046 143.613 268.046Z" fill="white"/>
<path opacity="0.2" d="M141.451 264.208H274.532V260.37H141.451V264.208Z" fill="black"/>
<path d="M137.653 261.371H278.329C279.523 261.371 280.491 260.403 280.491 259.209C280.491 258.015 279.523 257.047 278.329 257.047H137.653C136.459 257.047 135.491 258.015 135.491 259.209C135.491 260.403 136.459 261.371 137.653 261.371Z" fill="#407BFF"/>
<path opacity="0.6" d="M137.653 261.371H278.329C279.523 261.371 280.491 260.403 280.491 259.209C280.491 258.015 279.523 257.047 278.329 257.047H137.653C136.459 257.047 135.491 258.015 135.491 259.209C135.491 260.403 136.459 261.371 137.653 261.371Z" fill="white"/>
<path d="M236.492 252.951V255.597C236.492 256.39 235.127 256.951 234.344 256.951H172.55C171.757 256.951 170.492 256.39 170.492 255.597V252.951H236.492Z" fill="#263238"/>
<path opacity="0.6" d="M236.492 252.951V255.597C236.492 256.39 235.127 256.951 234.344 256.951H172.55C171.757 256.951 170.492 256.39 170.492 255.597V252.951H236.492Z" fill="white"/>
<path opacity="0.2" d="M236.492 252.951V255.597C236.492 256.39 235.127 256.951 234.344 256.951H193.587C192.794 256.951 191.492 256.39 191.492 255.597V252.951H236.492Z" fill="black"/>
<path d="M246.401 220.464L239.045 253.943C238.806 255.042 237.736 255.951 236.657 255.951H196.474C195.404 255.951 194.716 254.809 194.964 253.71L202.311 220.59C202.559 219.501 203.62 218.95 204.7 218.95H244.883C245.962 218.951 246.64 219.375 246.401 220.464Z" fill="#263238"/>
<path opacity="0.6" d="M246.401 220.464L239.045 253.943C238.806 255.042 237.736 255.951 236.657 255.951H196.474C195.404 255.951 194.716 254.809 194.964 253.71L202.311 220.59C202.559 219.501 203.62 218.95 204.7 218.95H244.883C245.962 218.951 246.64 219.375 246.401 220.464Z" fill="white"/>
<path opacity="0.4" d="M246.401 220.464L239.045 253.943C238.806 255.042 237.736 255.951 236.657 255.951H197.84C196.76 255.951 196.082 254.809 196.321 253.71L203.678 220.59C203.917 219.501 204.987 218.95 206.067 218.95H244.884C245.962 218.951 246.64 219.375 246.401 220.464Z" fill="white"/>
<path opacity="0.2" d="M222.762 241.921C224.632 241.921 226.552 239.911 227.042 237.441C227.522 234.961 226.402 232.951 224.522 232.951C224.172 232.951 223.822 233.021 223.482 233.151C223.042 235.081 221.732 236.701 220.292 237.241C220.272 237.311 220.252 237.371 220.242 237.441C219.752 239.911 220.883 241.921 222.762 241.921Z" fill="black"/>
<path d="M100.329 324.274C99.216 324.274 98.306 323.365 98.327 322.252C98.748 299.431 106.208 284.558 109.129 279.586C109.718 278.584 111.041 278.304 111.995 278.969L113.552 280.057L111.912 278.911L112.002 278.973C112.852 279.565 113.115 280.711 112.596 281.608C109.956 286.167 102.746 300.556 102.327 322.291C102.306 323.389 101.425 324.274 100.329 324.274Z" fill="#263238"/>
<g opacity="0.2">
<path d="M100.329 324.274C99.216 324.274 98.306 323.365 98.327 322.252C98.748 299.431 106.208 284.558 109.129 279.586C109.718 278.584 111.041 278.304 111.995 278.969L113.552 280.057L111.912 278.911L112.002 278.973C112.852 279.565 113.115 280.711 112.596 281.608C109.956 286.167 102.746 300.556 102.327 322.291C102.306 323.389 101.425 324.274 100.329 324.274Z" fill="white"/>
</g>
<path d="M125.758 282.077H70.374C68.553 282.077 67.077 280.601 67.077 278.78C67.077 276.959 68.553 275.483 70.374 275.483H125.759C127.58 275.483 129.056 276.959 129.056 278.78C129.055 280.601 127.579 282.077 125.758 282.077Z" fill="#263238"/>
<path opacity="0.6" d="M125.758 282.077H70.374C68.553 282.077 67.077 280.601 67.077 278.78C67.077 276.959 68.553 275.483 70.374 275.483H125.759C127.58 275.483 129.056 276.959 129.056 278.78C129.055 280.601 127.579 282.077 125.758 282.077Z" fill="white"/>
</svg>
