<svg width="500" height="500" viewBox="0 0 500 500" fill="none" xmlns="http://www.w3.org/2000/svg">
<path d="M500 382.398H0V382.648H500V382.398Z" fill="#E6E6E6"/>
<path d="M124.826 397.528H91.7041V397.778H124.826V397.528Z" fill="#E6E6E6"/>
<path d="M81.2221 397.528H62.0291V397.778H81.2221V397.528Z" fill="#E6E6E6"/>
<path d="M210.554 401.208H191.362V401.458H210.554V401.208Z" fill="#E6E6E6"/>
<path d="M310.616 406.791H267.423V407.041H310.616V406.791Z" fill="#E6E6E6"/>
<path d="M258.52 406.791H252.187V407.041H258.52V406.791Z" fill="#E6E6E6"/>
<path d="M453.343 401.208H359.667V401.458H453.343V401.208Z" fill="#E6E6E6"/>
<path d="M237.014 337.8H43.915C40.768 337.8 38.207 335.239 38.207 332.092V60.6599C38.207 57.5129 40.768 54.9519 43.915 54.9519H237.014C240.16 54.9519 242.721 57.5129 242.721 60.6599V332.092C242.721 335.239 240.16 337.8 237.014 337.8ZM43.915 55.2029C40.905 55.2029 38.457 57.6509 38.457 60.6609V332.093C38.457 335.103 40.905 337.551 43.915 337.551H237.014C240.023 337.551 242.471 335.103 242.471 332.093V60.6599C242.471 57.6509 240.023 55.2019 237.014 55.2019L43.915 55.2029Z" fill="#E6E6E6"/>
<path d="M453.31 337.8H260.212C257.066 337.8 254.505 335.239 254.505 332.092V60.6599C254.505 57.5129 257.066 54.9519 260.212 54.9519H453.31C456.458 54.9519 459.018 57.5129 459.018 60.6599V332.092C459.019 335.239 456.458 337.8 453.31 337.8ZM260.212 55.2029C257.203 55.2029 254.755 57.6509 254.755 60.6609V332.093C254.755 335.103 257.203 337.551 260.212 337.551H453.31C456.32 337.551 458.768 335.103 458.768 332.093V60.6599C458.768 57.6509 456.32 55.2019 453.31 55.2019L260.212 55.2029Z" fill="#E6E6E6"/>
<path d="M267.399 296.977H245.41V384.211H267.399V296.977Z" fill="#E0E0E0"/>
<path d="M263.223 384.212H267.399V372.332H258.844L263.223 384.212Z" fill="#FAFAFA"/>
<path d="M171.044 296.977H149.055V384.211H171.044V296.977Z" fill="#E0E0E0"/>
<path d="M267.4 296.977H167.399V376.922H267.4V296.977Z" fill="#FAFAFA"/>
<path d="M263.773 300.907V322.058H171.025V300.907H263.773ZM264.159 300.521H170.638V322.445H264.159V300.521Z" fill="#E0E0E0"/>
<path d="M171.575 384.212H167.399V372.332H175.954L171.575 384.212Z" fill="#FAFAFA"/>
<path d="M215.187 311.482C215.187 312.703 216.177 313.694 217.399 313.694C218.62 313.694 219.611 312.704 219.611 311.482C219.611 310.261 218.621 309.27 217.399 309.27C216.178 309.271 215.187 310.261 215.187 311.482Z" fill="#E6E6E6"/>
<path d="M263.773 326.374V347.525H171.025V326.374H263.773ZM264.159 325.988H170.638V347.912H264.159V325.988Z" fill="#E0E0E0"/>
<path d="M215.187 336.949C215.187 338.17 216.177 339.161 217.399 339.161C218.62 339.161 219.611 338.171 219.611 336.949C219.611 335.727 218.621 334.737 217.399 334.737C216.178 334.738 215.187 335.728 215.187 336.949Z" fill="#E6E6E6"/>
<path d="M263.773 351.841V372.992H171.025V351.841H263.773ZM264.159 351.455H170.638V373.379H264.159V351.455Z" fill="#E0E0E0"/>
<path d="M215.187 362.417C215.187 363.638 216.177 364.629 217.399 364.629C218.62 364.629 219.611 363.639 219.611 362.417C219.611 361.195 218.621 360.205 217.399 360.205C216.178 360.205 215.187 361.195 215.187 362.417Z" fill="#E6E6E6"/>
<path d="M157.61 246.316H135.621V384.212H157.61V246.316Z" fill="#E0E0E0"/>
<path d="M153.434 384.212H157.61V372.332H149.055L153.434 384.212Z" fill="#FAFAFA"/>
<path d="M75.427 246.316H53.438V384.212H75.427V246.316Z" fill="#E0E0E0"/>
<path d="M157.61 246.316H71.783V376.922H157.61V246.316Z" fill="#FAFAFA"/>
<path d="M153.915 250.014V279.584H75.4779V250.014H153.915ZM154.37 249.559H75.0229V280.04H154.37V249.559Z" fill="#E0E0E0"/>
<path d="M153.915 283.178V361.614H116.554V283.178H153.915ZM154.37 282.723H116.098V362.071H154.37V282.723Z" fill="#E0E0E0"/>
<path d="M112.839 283.178V361.614H75.4779V283.178H112.839ZM113.295 282.723H75.0229V362.071H113.295V282.723Z" fill="#E0E0E0"/>
<path d="M75.959 384.212H71.783V372.332H80.338L75.959 384.212Z" fill="#FAFAFA"/>
<path d="M112.485 264.799C112.485 266.021 113.475 267.011 114.697 267.011C115.918 267.011 116.909 266.021 116.909 264.799C116.909 263.578 115.919 262.587 114.697 262.587C113.475 262.588 112.485 263.578 112.485 264.799Z" fill="#E6E6E6"/>
<path d="M120.403 320.526C120.403 321.747 121.393 322.738 122.615 322.738C123.837 322.738 124.827 321.748 124.827 320.526C124.827 319.305 123.837 318.314 122.615 318.314C121.393 318.314 120.403 319.304 120.403 320.526Z" fill="#E6E6E6"/>
<path d="M104.566 320.526C104.566 321.747 105.556 322.738 106.778 322.738C107.999 322.738 108.99 321.748 108.99 320.526C108.99 319.305 108 318.314 106.778 318.314C105.557 318.314 104.566 319.304 104.566 320.526Z" fill="#E6E6E6"/>
<path d="M102.075 207.869H92.799C92.799 207.869 94.409 216.444 94.409 221.49C94.409 226.536 87.353 246.316 97.437 246.316C107.52 246.316 100.465 226.535 100.465 221.49C100.464 216.443 102.075 207.869 102.075 207.869Z" fill="#E0E0E0"/>
<path d="M66.803 228.148V234.175C66.803 240.852 72.266 246.315 78.944 246.315H84.971C91.648 246.315 97.111 240.852 97.111 234.175V228.148H66.803Z" fill="#F5F5F5"/>
<path d="M195.667 284.265C195.667 291.257 203.498 296.978 213.069 296.978H221.708C231.28 296.978 239.111 291.257 239.111 284.265H195.667Z" fill="#E0E0E0"/>
<path d="M424.606 274.03C419.366 278.307 412.134 286.139 405.507 297.158C401.093 304.496 398.433 312.185 397.265 322.343C397.29 310.844 397.326 298.489 397.366 286.829C398.697 283.828 401.737 276.913 403.918 271.449C411.195 253.218 413.905 248.735 420.45 233.01C429.179 212.036 438.124 187.149 435.563 189.138C430.344 193.19 410.343 230.642 408.181 236.003C400.745 254.443 398.674 267.884 397.387 280.855C397.427 269.903 397.47 259.847 397.512 252.088C397.646 226.78 398.077 218.612 398.287 216.093C399.096 214.813 400.052 213.321 400.608 212.517C405.306 205.724 407.118 199.937 411.545 189.805C417.818 175.448 423.22 149.958 421.641 151.244C415.065 156.597 409.878 168.106 403.062 182.771C396.247 197.436 398.195 205.869 396.843 218.394C396.559 220.852 396.342 230.127 396.185 242.982C394.417 229.287 391.101 220.262 385.051 212.061C377.609 201.974 370.41 195.16 365.128 191.601C359.846 188.043 374.249 212.821 381.137 223.636C387.271 233.267 392.921 241.766 396.107 250.136C395.938 267.558 395.86 289.62 395.86 310.156C394.28 300.81 391.7 290.747 388.258 282.954C384.122 273.591 377.759 259.23 372.694 254.359C371.477 253.189 377.99 281.119 382.169 288.546C386.349 295.973 389.417 302.972 392.048 307.182C392.662 308.164 394.698 311.952 395.861 314.13C395.872 339.2 396 361.322 396.218 368.852H397.301C397.227 366.909 397.215 354.156 397.238 337.277C399.846 328.112 405.811 317.654 410.733 308.113C416.106 297.697 429.847 269.752 424.606 274.03Z" fill="#E0E0E0"/>
<path d="M412.44 384.212H381.097L378.731 353.488H414.806L412.44 384.212Z" fill="#F0F0F0"/>
<path d="M417.142 357.068H376.395L375.228 346.702H418.309L417.142 357.068Z" fill="#F5F5F5"/>
<path d="M124.26 75.4968H68.208V137.046H124.26V75.4968Z" fill="#E0E0E0"/>
<path d="M130.331 75.4968H72.4331V137.046H130.331V75.4968Z" fill="#F5F5F5"/>
<path d="M125.48 132.195L125.48 80.3472L77.2827 80.3472V132.195H125.48Z" fill="white"/>
<path d="M113.798 119.629V92.915H88.9656V119.629H113.798Z" fill="#F5F5F5"/>
<path d="M410.051 82.6719H357.981V139.849H410.051V82.6719Z" fill="#E0E0E0"/>
<path d="M415.691 82.6719H361.906V139.849H415.691V82.6719Z" fill="#F5F5F5"/>
<path d="M411.185 135.343V87.1785L366.412 87.1785V135.343H411.185Z" fill="white"/>
<path d="M388.798 125.229C396.512 125.229 402.766 118.975 402.766 111.261C402.766 103.547 396.512 97.293 388.798 97.293C381.084 97.293 374.83 103.547 374.83 111.261C374.83 118.975 381.084 125.229 388.798 125.229Z" fill="#F5F5F5"/>
<path d="M182.489 112.197H140.909V157.855H182.489V112.197Z" fill="#E0E0E0"/>
<path d="M186.994 112.197H144.044V157.855H186.994V112.197Z" fill="#F5F5F5"/>
<path d="M183.396 154.257V115.795H147.643V154.257H183.396Z" fill="white"/>
<path d="M165.519 125.303L155.741 142.24H175.297L165.519 125.303Z" fill="#F5F5F5"/>
<path d="M250 427.561C357.082 427.561 443.889 422.492 443.889 416.238C443.889 409.985 357.082 404.915 250 404.915C142.918 404.915 56.1111 409.985 56.1111 416.238C56.1111 422.492 142.918 427.561 250 427.561Z" fill="#F5F5F5"/>
<path d="M349.246 163.432L339.327 159.41C339.327 159.41 326.237 183.283 322.488 184.488C317.386 186.128 306.835 190.687 300.565 191.541C299.72 192.529 298.326 195.645 298.459 196.781C306.871 199.586 325.351 195.861 329.307 192.924C338.325 186.225 349.246 163.432 349.246 163.432Z" fill="#E58A7B"/>
<path d="M352.3 158.015C354.145 164.854 344.126 178.591 344.126 178.591L330.964 171.208C330.964 171.208 333.418 165.561 336.422 159.81C341.273 150.523 350.193 150.21 352.3 158.015Z" fill="#1E90FF"/>
<path opacity="0.2" d="M352.3 158.015C354.145 164.854 344.126 178.591 344.126 178.591L330.964 171.208C330.964 171.208 333.418 165.561 336.422 159.81C341.273 150.523 350.193 150.21 352.3 158.015Z" fill="black"/>
<path opacity="0.2" d="M336.212 174.148L341.381 177.046L342.285 161.18C339.285 163.492 337.157 170.449 336.212 174.148Z" fill="black"/>
<path d="M343.662 152.863C343.662 152.863 333.443 175.599 339.401 217.94C351.535 217.94 373.767 217.94 379.671 217.94C380.311 211.758 378.195 181.602 385.865 152.475C385.865 152.475 379.043 151.09 372.484 150.773C367.353 150.525 359.913 150.361 355.365 150.774C349.369 151.318 343.662 152.863 343.662 152.863Z" fill="#1E90FF"/>
<path opacity="0.2" d="M343.662 152.863C343.662 152.863 333.443 175.599 339.401 217.94C351.535 217.94 373.767 217.94 379.671 217.94C380.311 211.758 378.195 181.602 385.865 152.475C385.865 152.475 379.043 151.09 372.484 150.773C367.353 150.525 359.913 150.361 355.365 150.774C349.369 151.318 343.662 152.863 343.662 152.863Z" fill="black"/>
<path d="M334.323 417.142C334.26 418.216 349.528 419.086 368.425 419.086C387.322 419.086 402.692 418.216 402.755 417.142C402.818 416.068 387.55 415.198 368.653 415.198C349.756 415.197 334.386 416.068 334.323 417.142Z" fill="#E8ECF1"/>
<path d="M362.141 390.157L354.975 392.918L361.12 408.868L368.286 406.107L362.141 390.157Z" fill="#E58A7B"/>
<path d="M393.051 409.454H385.522L382.76 392.018H390.289L393.051 409.454Z" fill="#E58A7B"/>
<path d="M385.038 408.582H393.497C393.805 408.582 394.059 408.796 394.108 409.096L395.203 415.788C395.317 416.482 394.733 417.139 394.022 417.127C391.072 417.076 389.647 416.903 385.928 416.903C383.64 416.903 378.911 417.141 375.75 417.141C372.659 417.141 372.36 414.016 373.671 413.733C379.546 412.464 381.834 410.714 383.789 409.045C384.141 408.744 384.588 408.582 385.038 408.582Z" fill="#263238"/>
<path d="M359.972 405.946L367.993 403.614C368.293 403.527 368.602 403.656 368.735 403.925L371.707 409.921C372.015 410.542 371.651 411.322 370.955 411.512C368.05 412.305 366.097 412.801 362.46 413.858C359.947 414.588 357.391 415.778 354.908 416.57C353.189 417.118 349.152 417.14 347.061 417.14C343.97 417.14 343.281 413.881 344.606 413.732C347.959 413.356 348.409 413.53 350.26 412.602C353.32 411.067 355.687 409.796 358.336 407.021C358.798 406.539 359.339 406.13 359.972 405.946Z" fill="#263238"/>
<path d="M301.833 191.469L293.548 187.983L290.137 197.161C290.137 197.161 294.918 198.028 300.378 197.161L301.833 191.469Z" fill="#E58A7B"/>
<path d="M287.391 187.758L287.172 193.865L290.137 197.161L293.548 187.983L287.391 187.758Z" fill="#E58A7B"/>
<path d="M362.168 390.14L355 392.906L358.173 401.126L365.341 398.359L362.168 390.14Z" fill="#CF6F64"/>
<path d="M390.291 392.023H382.759L384.187 401.01H391.719L390.291 392.023Z" fill="#CF6F64"/>
<path opacity="0.2" d="M338.123 206.487C338.267 208.296 338.442 210.145 338.657 212.046L368.602 202.325C373.278 200.927 377.347 197.988 380.122 193.971C380.235 191.299 380.389 188.494 380.615 185.565C380.718 184.137 380.841 182.677 380.975 181.198C381.119 179.657 381.283 178.084 381.468 176.502L338.123 206.487Z" fill="black"/>
<path d="M347.9 173.688L346.88 173.567C347.474 168.577 351.199 164.633 355.134 164.727L355.104 165.755C351.707 165.656 348.434 169.213 347.9 173.688Z" fill="white"/>
<path d="M353.228 182.922C353.172 182.922 353.116 182.921 353.059 182.92L353.089 181.892C356.528 182.018 359.759 178.433 360.293 173.958L361.313 174.08C360.727 178.999 357.12 182.922 353.228 182.922Z" fill="white"/>
<path d="M371.918 131.497C370.515 137.005 368.846 147.097 372.484 150.772C372.484 150.772 369.943 156.359 359.708 156.359C350.355 156.359 355.365 150.772 355.365 150.772C361.593 149.305 361.702 144.748 360.883 140.468L371.918 131.497Z" fill="#E58A7B"/>
<path d="M367.419 135.158L360.888 140.465C361.085 141.478 361.225 142.505 361.238 143.503C363.147 145.404 366.979 140.588 367.372 138.131C367.567 136.907 367.585 135.729 367.419 135.158Z" fill="#CF6F64"/>
<path d="M349.664 131.429C350.621 133.143 352.31 134.21 353.906 134.565C356.307 135.1 357.514 132.891 356.852 130.668C356.256 128.667 354.289 125.978 351.876 126.439C349.499 126.894 348.569 129.469 349.664 131.429Z" fill="#CF6F64"/>
<path d="M353.626 113.8C349.886 115.514 348.568 130.371 353.27 132.568C357.972 134.764 360.71 110.555 353.626 113.8Z" fill="#263238"/>
<path d="M373.059 123.208C372.164 130.666 372.017 135.055 368.026 138.883C362.022 144.641 353.016 141.226 351.673 133.781C350.464 127.08 352.131 116.009 359.606 113.041C366.97 110.117 373.954 115.75 373.059 123.208Z" fill="#E58A7B"/>
<path d="M360.774 117.665C366.306 116.25 370.378 115.286 368.925 119.904C366.989 126.056 364.667 132.016 367.782 132.294C369.676 132.463 378.077 128.898 377.01 125.294C376.081 122.154 379.986 121.307 380.706 119.706C383.299 113.94 375.89 114.689 377.208 111.2C378.492 107.803 371.239 102.062 367.22 104.867C360.715 109.408 349.535 109.343 355.413 101.895C359.622 96.5608 352.112 97.6558 352.112 97.6558C352.112 97.6558 356.648 100.347 349.013 104.507C340.919 108.915 348.328 120.849 360.774 117.665Z" fill="#263238"/>
<path d="M375.946 131.429C374.787 133.143 372.974 134.21 371.336 134.565C368.872 135.1 367.925 132.891 368.847 130.668C369.678 128.667 371.96 125.978 374.319 126.439C376.642 126.894 377.27 129.469 375.946 131.429Z" fill="#E58A7B"/>
<path d="M339.401 217.94C339.401 217.94 332.642 278.437 332.114 301.397C331.566 325.279 355.022 399.791 355.022 399.791L367.033 394.747C367.033 394.747 353.048 326.674 354.991 303.219C357.109 277.65 365.872 217.939 365.872 217.939H339.401V217.94Z" fill="#1E90FF"/>
<path opacity="0.2" d="M356.199 234.551C350.814 245.731 354.442 267.835 357.36 280.938C358.47 271.689 359.785 261.65 361.039 252.36C360.916 238.076 359.806 227.05 356.199 234.551Z" fill="black"/>
<path d="M366.49 390.826C366.546 390.803 367.914 394.654 367.914 394.654L354.07 400.467L351.889 396.412L366.49 390.826Z" fill="#1E90FF"/>
<path d="M353.686 217.94C353.686 217.94 358.857 275.478 362.284 297.034C366.037 320.639 380.779 399.27 380.779 399.27H394.569C394.569 399.27 386.306 322.545 384.745 299.174C383.051 273.808 379.67 217.94 379.67 217.94H353.686Z" fill="#1E90FF"/>
<path d="M394.78 395.677C394.839 395.677 395.241 399.531 395.241 399.531H380.084L379.002 395.107L394.78 395.677Z" fill="#1E90FF"/>
<path opacity="0.2" d="M389.497 391.122C389.432 391.122 389.377 391.073 389.37 391.008C389.295 390.31 381.844 321.041 380.442 300.043C378.921 277.256 375.862 226.731 375.831 226.223C375.827 226.152 375.881 226.091 375.951 226.087C375.954 226.087 375.957 226.087 375.959 226.087C376.026 226.087 376.084 226.14 376.088 226.208C376.118 226.715 379.177 277.24 380.699 300.025C382.1 321.019 389.55 390.283 389.625 390.98C389.633 391.051 389.582 391.114 389.512 391.121C389.506 391.122 389.501 391.122 389.497 391.122Z" fill="black"/>
<path d="M361.624 125.293C361.588 125.9 361.238 126.393 360.841 126.393C360.444 126.393 360.151 125.901 360.187 125.293C360.222 124.686 360.573 124.193 360.97 124.193C361.367 124.193 361.66 124.686 361.624 125.293Z" fill="#263238"/>
<path d="M354.76 125.293C354.724 125.9 354.374 126.393 353.977 126.393C353.58 126.393 353.287 125.901 353.323 125.293C353.359 124.686 353.709 124.193 354.106 124.193C354.503 124.193 354.796 124.686 354.76 125.293Z" fill="#263238"/>
<path d="M356.924 125.595C356.924 125.595 355.338 129.099 353.718 130.789C354.734 131.792 356.587 131.333 356.587 131.333L356.924 125.595Z" fill="#DF5753"/>
<path d="M357.099 133.881C357.001 133.881 356.925 133.801 356.931 133.703C356.937 133.605 357.022 133.525 357.12 133.525C359.786 133.525 361.139 131.663 361.153 131.644C361.213 131.562 361.325 131.538 361.403 131.592C361.482 131.646 361.499 131.756 361.44 131.839C361.38 131.921 359.956 133.881 357.099 133.881Z" fill="#263238"/>
<path d="M362.845 123.446C362.742 123.486 362.626 123.48 362.53 123.419C361.218 122.593 359.995 123.147 359.983 123.154C359.815 123.24 359.592 123.165 359.517 122.987C359.442 122.809 359.53 122.596 359.712 122.511C359.777 122.48 361.308 121.785 362.936 122.81C363.099 122.913 363.139 123.132 363.027 123.3C362.981 123.368 362.916 123.418 362.845 123.446Z" fill="#263238"/>
<path d="M352.106 121.451C352.057 121.437 352.009 121.412 351.97 121.374C351.83 121.244 351.83 121.019 351.97 120.871C353.366 119.396 354.984 119.621 355.052 119.631C355.242 119.652 355.369 119.841 355.328 120.036C355.287 120.23 355.099 120.364 354.907 120.336C354.853 120.328 353.59 120.167 352.475 121.344C352.376 121.45 352.231 121.487 352.106 121.451Z" fill="#263238"/>
<path d="M389.73 162.317L379.327 159.548C379.327 159.548 369.127 184.656 365.524 186.295C360.621 188.526 348.207 196.242 342.931 199.963C342.638 201.207 342.868 204.523 343.532 205.426C352.503 203.796 369.762 197.161 373.361 193.788C381.567 186.099 389.73 162.317 389.73 162.317Z" fill="#E58A7B"/>
<path d="M382.471 409.897C381.898 409.897 381.368 409.799 381.044 409.514C380.787 409.287 380.682 408.969 380.731 408.571C380.767 408.274 380.932 408.132 381.066 408.066C381.915 407.64 384.264 409.131 384.529 409.303C384.587 409.342 384.615 409.413 384.6 409.484C384.584 409.554 384.528 409.611 384.457 409.627C383.926 409.753 383.167 409.897 382.471 409.897ZM381.444 408.338C381.351 408.338 381.272 408.353 381.21 408.384C381.161 408.409 381.102 408.454 381.086 408.592C381.051 408.876 381.117 409.089 381.29 409.241C381.681 409.588 382.661 409.634 383.955 409.376C383.133 408.884 382.021 408.338 381.444 408.338Z" fill="#1E90FF"/>
<path d="M384.415 409.632C384.386 409.632 384.357 409.625 384.331 409.611C383.576 409.187 382.167 407.538 382.376 406.698C382.413 406.546 382.541 406.283 382.971 406.231C383.252 406.196 383.501 406.274 383.717 406.459C384.55 407.174 384.602 409.347 384.604 409.439C384.606 409.504 384.571 409.567 384.514 409.602C384.483 409.622 384.449 409.632 384.415 409.632ZM383.075 406.58C383.049 406.58 383.022 406.583 382.994 406.586C382.761 406.614 382.734 406.721 382.723 406.766C382.599 407.262 383.486 408.509 384.226 409.097C384.175 408.462 384.009 407.195 383.476 406.737C383.353 406.631 383.222 406.58 383.075 406.58Z" fill="#1E90FF"/>
<path d="M355.917 408.653C355.181 408.831 354.479 408.884 354.031 408.641C353.746 408.487 353.582 408.229 353.544 407.878C353.521 407.668 353.592 407.485 353.747 407.348C354.553 406.631 357.815 407.402 358.185 407.492C358.257 407.51 358.308 407.572 358.311 407.648C358.314 407.724 358.27 407.795 358.199 407.828C357.594 408.102 356.734 408.455 355.917 408.653ZM354.291 407.465C354.154 407.498 354.046 407.545 353.975 407.608C353.912 407.664 353.889 407.728 353.899 407.82C353.925 408.058 354.029 408.224 354.215 408.326C354.746 408.615 355.979 408.386 357.566 407.722C356.451 407.488 354.993 407.294 354.291 407.465Z" fill="#1E90FF"/>
<path d="M358.166 407.838C358.141 407.844 358.116 407.844 358.091 407.841C357.122 407.661 355.052 406.511 355.033 405.65C355.028 405.449 355.123 405.173 355.597 405.009C355.941 404.88 356.295 404.906 356.627 405.069C357.714 405.605 358.282 407.525 358.306 407.606C358.323 407.666 358.307 407.732 358.263 407.781C358.236 407.81 358.202 407.829 358.166 407.838ZM355.801 405.312C355.767 405.32 355.732 405.332 355.696 405.343C355.386 405.452 355.389 405.579 355.389 405.621C355.401 406.137 356.838 407.087 357.853 407.407C357.651 406.855 357.165 405.741 356.453 405.39C356.239 405.284 356.024 405.258 355.801 405.312Z" fill="#1E90FF"/>
<path d="M343.778 199.372L333.35 204.172L332.14 207.114L335.994 209.707C335.994 209.707 343.186 208.924 345.235 204.303L343.778 199.372Z" fill="#E58A7B"/>
<path d="M344.222 205.596C343.57 201.722 342.296 199.955 342.284 199.938L343.928 198.705C343.992 198.79 345.503 200.83 346.249 205.255L344.222 205.596Z" fill="#263238"/>
<path d="M345.998 200.791C346.336 201.628 345.793 202.636 344.784 203.044C343.775 203.452 342.684 203.104 342.346 202.267C342.008 201.43 342.551 200.422 343.56 200.014C344.568 199.607 345.66 199.954 345.998 200.791Z" fill="#263238"/>
<path d="M326.304 208.048L327.689 209.451L337.046 205.449L333.35 204.173L326.304 208.048Z" fill="#E58A7B"/>
<path opacity="0.2" d="M366.49 390.826C366.546 390.803 367.914 394.654 367.914 394.654L354.07 400.467L351.889 396.412L366.49 390.826Z" fill="black"/>
<path opacity="0.2" d="M394.78 395.677C394.839 395.677 395.241 399.531 395.241 399.531H380.084L379.002 395.107L394.78 395.677Z" fill="black"/>
<path d="M392.441 159.439C395.192 168.306 384.481 180.419 384.481 180.419L369.633 174.359C369.633 174.359 371.725 167.917 375.706 159.286C380.232 149.477 389.664 150.49 392.441 159.439Z" fill="#1E90FF"/>
<path opacity="0.2" d="M392.441 159.439C395.192 168.306 384.481 180.419 384.481 180.419L369.633 174.359C369.633 174.359 371.725 167.917 375.706 159.286C380.232 149.477 389.664 150.49 392.441 159.439Z" fill="black"/>
<path d="M244.874 70.5701H238.487V71.5981H244.874V70.5701Z" fill="#1E90FF"/>
<path d="M327.603 111.33L326.83 128.489L327.856 128.535L328.629 111.377L327.603 111.33Z" fill="#1E90FF"/>
<path d="M325.613 75.1941H207.614L196.629 320.913H314.628L325.613 75.1941Z" fill="#1E90FF"/>
<path opacity="0.56" d="M322.09 78.5662H204.091L193.107 324.285H311.106L322.09 78.5662Z" fill="#FAFAFA"/>
<path opacity="0.07" d="M318.567 81.938H200.569L189.584 327.657H307.583L318.567 81.938Z" fill="#1E90FF"/>
<path d="M305.136 189.106H204.419L203.578 207.912H304.296L305.136 189.106Z" fill="white"/>
<path d="M259.815 175.39H205.032L204.656 183.804H259.438L259.815 175.39Z" fill="#1E90FF"/>
<path d="M302.868 239.849H202.15L201.309 258.655H302.027L302.868 239.849Z" fill="white"/>
<path opacity="0.47" d="M284.398 284.036H216.669L215.662 306.575H283.39L284.398 284.036Z" fill="#1E90FF"/>
<path d="M279.868 310.066H212.14C212.108 310.066 212.077 310.052 212.054 310.029C212.032 310.006 212.02 309.974 212.022 309.942L213.03 287.403C213.032 287.339 213.085 287.289 213.148 287.289H280.876C280.908 287.289 280.939 287.303 280.962 287.326C280.984 287.349 280.996 287.381 280.994 287.413L279.986 309.952C279.984 310.016 279.931 310.066 279.868 310.066ZM212.264 309.828H279.754L280.75 287.527H213.26L212.264 309.828Z" fill="white"/>
<path d="M247.978 226.134H202.763L202.387 234.548H247.601L247.978 226.134Z" fill="#1E90FF"/>
<path d="M283.106 128.379C282.854 134.01 280.813 139.21 277.541 143.434C272.6 149.836 264.861 153.998 256.342 153.998C247.823 153.998 240.466 149.836 236.098 143.434C233.204 139.21 231.628 134.011 231.88 128.379C232.513 114.229 244.493 102.761 258.633 102.761C272.783 102.76 283.738 114.229 283.106 128.379Z" fill="white"/>
<path d="M285.515 108.123C285.448 109.619 284.906 111.001 284.036 112.123C282.723 113.824 280.667 114.93 278.403 114.93C276.139 114.93 274.185 113.824 273.024 112.123C272.255 111.001 271.836 109.619 271.903 108.123C272.071 104.363 275.255 101.316 279.012 101.316C282.772 101.316 285.683 104.363 285.515 108.123Z" fill="#1E90FF"/>
<path d="M215.265 198.509C215.191 200.173 213.781 201.522 212.117 201.522C210.453 201.522 209.164 200.173 209.238 198.509C209.312 196.845 210.722 195.496 212.386 195.496C214.051 195.495 215.34 196.845 215.265 198.509Z" fill="#263238"/>
<path d="M228.752 198.509C228.678 200.173 227.268 201.522 225.604 201.522C223.94 201.522 222.651 200.173 222.725 198.509C222.799 196.845 224.209 195.496 225.873 195.496C227.537 195.496 228.827 196.845 228.752 198.509Z" fill="#263238"/>
<path d="M242.24 198.509C242.166 200.173 240.756 201.522 239.092 201.522C237.428 201.522 236.139 200.173 236.213 198.509C236.287 196.845 237.697 195.496 239.361 195.496C241.025 195.495 242.314 196.845 242.24 198.509Z" fill="#263238"/>
<path d="M212.997 249.252C212.923 250.916 211.513 252.265 209.849 252.265C208.185 252.265 206.896 250.916 206.97 249.252C207.044 247.588 208.454 246.238 210.118 246.238C211.782 246.239 213.071 247.588 212.997 249.252Z" fill="#263238"/>
<path d="M226.484 249.252C226.41 250.916 225 252.265 223.336 252.265C221.672 252.265 220.383 250.916 220.457 249.252C220.531 247.588 221.941 246.238 223.605 246.238C225.27 246.239 226.558 247.588 226.484 249.252Z" fill="#263238"/>
<path d="M239.971 249.252C239.897 250.916 238.487 252.265 236.823 252.265C235.159 252.265 233.87 250.916 233.944 249.252C234.018 247.588 235.428 246.238 237.092 246.238C238.756 246.238 240.046 247.588 239.971 249.252Z" fill="#263238"/>
<path d="M253.459 249.252C253.385 250.916 251.975 252.265 250.311 252.265C248.647 252.265 247.358 250.916 247.432 249.252C247.506 247.588 248.916 246.238 250.58 246.238C252.244 246.239 253.533 247.588 253.459 249.252Z" fill="#263238"/>
<path d="M266.946 249.252C266.872 250.916 265.462 252.265 263.798 252.265C262.134 252.265 260.845 250.916 260.919 249.252C260.993 247.588 262.403 246.238 264.067 246.238C265.731 246.239 267.02 247.588 266.946 249.252Z" fill="#263238"/>
<path d="M268.236 119.816C267.98 125.538 263.134 130.177 257.411 130.177C251.689 130.177 247.257 125.538 247.513 119.816C247.769 114.093 252.615 109.455 258.338 109.455C264.06 109.455 268.492 114.094 268.236 119.816Z" fill="#1E90FF"/>
<path d="M277.541 143.433C272.6 149.835 264.861 153.997 256.342 153.997C247.823 153.997 240.466 149.835 236.098 143.433C240.959 138.593 248.653 135.449 257.172 135.449C265.7 135.449 273.113 138.593 277.541 143.433Z" fill="#1E90FF"/>
<path opacity="0.1" d="M268.236 119.816C267.98 125.538 263.134 130.177 257.411 130.177C251.689 130.177 247.257 125.538 247.513 119.816C247.769 114.093 252.615 109.455 258.338 109.455C264.06 109.455 268.492 114.094 268.236 119.816Z" fill="white"/>
<path opacity="0.1" d="M277.541 143.433C272.6 149.835 264.861 153.997 256.342 153.997C247.823 153.997 240.466 149.835 236.098 143.433C240.959 138.593 248.653 135.449 257.172 135.449C265.7 135.449 273.113 138.593 277.541 143.433Z" fill="white"/>
<path d="M130.407 212.443C129.46 214.52 128.463 216.805 127.588 219.034C126.706 221.284 125.826 223.536 125.059 225.82C123.569 230.388 122.172 234.998 121.484 239.621L121.256 241.093C121.238 241.27 121.251 241.522 121.329 241.838C121.475 242.473 121.871 243.323 122.428 244.157C123.554 245.844 125.15 247.552 126.871 249.138C128.588 250.749 130.453 252.29 132.391 253.753C134.31 255.229 136.334 256.674 138.314 258.028L136.45 261.537C131.692 259.457 127.261 256.97 122.969 253.849C120.859 252.241 118.775 250.51 116.929 248.17C116.019 246.99 115.124 245.657 114.538 243.897C114.254 243.019 114.056 242.026 114.055 240.952C114.062 240.705 114.075 240.358 114.092 240.192L114.141 239.695L114.241 238.701C114.785 233.4 115.959 228.305 117.506 223.363C118.286 220.895 119.118 218.452 120.068 216.055C121.038 213.642 121.995 211.326 123.208 208.897L130.407 212.443Z" fill="#E58A7B"/>
<path d="M136.914 257.432L143.98 253.847L142.155 261.613C142.155 261.613 137.303 262.968 135.046 260.614L136.914 257.432Z" fill="#E58A7B"/>
<path d="M150.451 255.122L148.571 261.542L142.154 261.614L143.98 253.847L150.451 255.122Z" fill="#E58A7B"/>
<path d="M160.432 175.001C160.432 175.001 161.045 177.255 162.017 178.954C161.182 179.734 160.432 179.463 160.432 179.463V175.001Z" fill="#DF5753"/>
<path d="M160.223 175.06C160.637 175.06 160.972 174.547 160.972 173.914C160.972 173.281 160.637 172.768 160.223 172.768C159.809 172.768 159.474 173.281 159.474 173.914C159.474 174.547 159.809 175.06 160.223 175.06Z" fill="#263238"/>
<path d="M160.04 172.803L161.56 172.365C161.56 172.365 160.78 173.553 160.04 172.803Z" fill="#263238"/>
<path d="M140.897 182.336C141.81 186.991 142.721 195.521 139.463 198.627C139.463 198.627 140.736 203.349 149.386 203.349C158.898 203.349 153.932 198.627 153.932 198.627C148.741 197.387 148.875 193.536 149.779 189.919L140.897 182.336Z" fill="#E58A7B"/>
<path d="M138.373 171.742C138.85 179.514 138.886 182.813 142.812 186.802C148.716 192.802 158.157 190.516 160.012 182.759C161.681 175.776 160.62 164.24 153.013 161.147C145.517 158.1 137.895 163.97 138.373 171.742Z" fill="#E58A7B"/>
<path d="M139.139 162.948C135.242 164.369 130.043 163.312 132.083 175.341C134.243 188.078 130.918 192.268 130.918 192.268C130.918 192.268 145.71 195.419 160.81 192.08C160.81 192.08 156.2 184.018 157.494 178.135C159.144 170.632 157.836 167.859 157.836 167.859C157.836 167.859 144.619 160.95 139.139 162.948Z" fill="#263238"/>
<path d="M155.64 175.792C155.624 177.332 156.164 178.883 156.864 179.96C157.917 181.581 159.167 180.921 159.48 179.238C159.762 177.724 159.553 175.056 158.204 174.021C156.876 173.003 155.659 174.032 155.64 175.792Z" fill="#E58A7B"/>
<path d="M135.754 164.309C134.629 161.164 139.973 156.327 151.271 158.339C162.569 160.351 163.065 169.747 163.065 169.747L160.779 167.034L160.882 169.891L149.271 172.122L135.754 164.309Z" fill="#263238"/>
<path d="M136.712 199.156C136.556 198.195 137.202 197.29 138.162 197.132C141.68 196.551 149.676 195.375 153.701 195.932C156.691 196.346 157.482 198.092 157.608 199.52C157.702 200.579 156.826 201.472 155.764 201.424L138.375 200.638C137.54 200.6 136.845 199.982 136.712 199.156Z" fill="#1E90FF"/>
<path opacity="0.6" d="M136.712 199.156C136.556 198.195 137.202 197.29 138.162 197.132C141.68 196.551 149.676 195.375 153.701 195.932C156.691 196.346 157.482 198.092 157.608 199.52C157.702 200.579 156.826 201.472 155.764 201.424L138.375 200.638C137.54 200.6 136.845 199.982 136.712 199.156Z" fill="black"/>
<path d="M146.76 373.862L153.205 378.336L163.997 363.71L157.552 359.236L146.76 373.862Z" fill="#E58A7B"/>
<path d="M131.715 373.566L138.533 377.449L148.084 361.98L141.267 358.098L131.715 373.566Z" fill="#E58A7B"/>
<path d="M163.992 363.713L158.431 371.253L151.984 366.777L157.545 359.237L163.992 363.713Z" fill="#CF6F64"/>
<path d="M141.263 358.101L148.083 361.985L143.156 369.957L136.336 366.073L141.263 358.101Z" fill="#CF6F64"/>
<path d="M152.198 247.988C152.198 247.988 177.378 279.723 172.654 310.07C168.838 334.582 146.741 367.773 146.741 367.773L136.351 362.609C136.351 362.609 147.64 340.551 155.053 317.168C158.162 307.362 156.837 296.559 151.025 288.071C138.27 269.441 117.835 280.526 131.581 247.989L152.198 247.988Z" fill="#1E90FF"/>
<path opacity="0.6" d="M152.198 247.988C152.198 247.988 177.378 279.723 172.654 310.07C168.838 334.582 146.741 367.773 146.741 367.773L136.351 362.609C136.351 362.609 147.64 340.551 155.053 317.168C158.162 307.362 156.837 296.559 151.025 288.071C138.27 269.441 117.835 280.526 131.581 247.989L152.198 247.988Z" fill="black"/>
<path opacity="0.4" d="M164.549 268.38L160.891 264.742C160.891 265.03 167.982 308.796 169.975 321.096C171.177 317.325 172.102 313.605 172.657 310.07C174.969 295.211 170.108 280.013 164.549 268.38Z" fill="black"/>
<path d="M163.444 247.988C163.444 247.988 193.763 287.868 194.616 311.783C195.331 331.821 161.591 370.528 161.591 370.528L151.796 364.191C151.796 364.191 171.525 336.674 176.492 314.18C174.598 291.915 133.95 247.987 133.95 247.987H163.444V247.988Z" fill="#1E90FF"/>
<path opacity="0.6" d="M163.444 247.988C163.444 247.988 193.763 287.868 194.616 311.783C195.331 331.821 161.591 370.528 161.591 370.528L151.796 364.191C151.796 364.191 171.525 336.674 176.492 314.18C174.598 291.915 133.95 247.987 133.95 247.987H163.444V247.988Z" fill="black"/>
<path d="M125.933 200.41C122.686 201.176 119.583 212.963 119.583 212.963L132.246 221.416C132.246 221.416 136.466 212.1 134.993 208.019C133.458 203.769 130.033 199.443 125.933 200.41Z" fill="#1E90FF"/>
<path opacity="0.2" d="M128.411 207.994L127.526 218.263L132.24 221.418C132.24 221.418 134.449 216.537 135.107 212.283L128.411 207.994Z" fill="black"/>
<path d="M167.193 200.637C167.193 200.637 170.93 201.953 163.444 247.988C150.8 247.988 137.733 247.988 131.581 247.988C132.116 235.02 132.131 227.023 125.933 200.41C125.933 200.41 132.609 198.958 139.463 198.627C144.825 198.369 149.218 198.197 153.932 198.628C160.146 199.195 167.193 200.637 167.193 200.637Z" fill="#1E90FF"/>
<path d="M170.429 207.947C171.151 209.942 171.915 212.1 172.71 214.172C173.473 216.275 174.265 218.374 175.082 220.464L177.534 226.745L178.154 228.315L178.465 229.1L178.621 229.492C178.648 229.562 178.643 229.556 178.633 229.549C178.59 229.53 178.553 229.332 177.933 228.925C177.629 228.736 177.119 228.554 176.627 228.544C176.132 228.526 175.74 228.647 175.515 228.745C175.064 228.96 175.057 229.053 175.067 229.038C175.096 229.023 175.189 228.934 175.291 228.811C175.728 228.286 176.256 227.381 176.719 226.481C177.192 225.564 177.639 224.584 178.084 223.59C178.969 221.597 179.774 219.517 180.593 217.434C181.403 215.345 182.166 213.225 182.922 211.099L185.198 204.717L189.051 205.688C188.289 210.253 187.303 214.724 186.128 219.211C185.554 221.459 184.89 223.688 184.131 225.938C183.753 227.065 183.33 228.189 182.844 229.335C182.339 230.49 181.838 231.629 180.944 232.952C180.709 233.287 180.443 233.641 180.072 234.031C179.68 234.415 179.227 234.879 178.25 235.318C177.764 235.527 177.088 235.712 176.308 235.681C175.531 235.659 174.743 235.383 174.198 235.045C173.09 234.337 172.707 233.663 172.379 233.157C172.227 232.903 172.097 232.641 172.007 232.452L171.817 232.064L171.437 231.288L170.681 229.735C169.693 227.654 168.725 225.562 167.808 223.447C166.9 221.327 166.015 219.195 165.157 217.047C164.336 214.866 163.524 212.753 162.801 210.433L170.429 207.947Z" fill="#E58A7B"/>
<path d="M167.193 200.637C171.023 201.549 175.326 212.865 175.326 212.865L163.944 222.564C163.944 222.564 156.567 210.225 158.06 206.151C159.614 201.908 162.19 199.445 167.193 200.637Z" fill="#1E90FF"/>
<path d="M186.976 201.189L190.971 197.848L193.75 202.177L191.703 205.792C191.703 205.792 188.443 208.776 185.557 207.258C184.625 205.145 185.204 202.671 186.976 201.189Z" fill="#E58A7B"/>
<path d="M198.222 197.858L197.923 198.947L191.594 200.01L190.97 197.848L198.222 197.858Z" fill="#E58A7B"/>
<path d="M162.402 371.053L150.983 363.667L153.028 360.111L165.861 368L162.402 371.053Z" fill="#1E90FF"/>
<path d="M142.983 376.926C142.075 376.926 140.88 376.35 140.156 375.948C140.091 375.912 140.054 375.841 140.062 375.766C140.069 375.693 140.12 375.631 140.19 375.607C140.498 375.51 143.207 374.68 143.974 375.324C144.095 375.426 144.23 375.614 144.187 375.927C144.131 376.342 143.941 376.635 143.623 376.793C143.439 376.885 143.221 376.926 142.983 376.926ZM140.734 375.835C141.976 376.467 142.976 376.7 143.457 376.461C143.662 376.359 143.78 376.168 143.82 375.877C143.841 375.72 143.786 375.651 143.735 375.609C143.332 375.27 141.83 375.534 140.734 375.835Z" fill="#263238"/>
<path d="M140.247 375.97C140.197 375.97 140.149 375.95 140.114 375.914C140.068 375.866 140.051 375.798 140.069 375.734C140.095 375.642 140.719 373.47 141.746 372.975C142.02 372.844 142.298 372.837 142.57 372.95C143.002 373.132 143.045 373.448 143.03 373.619C142.96 374.518 141.127 375.76 140.291 375.964C140.277 375.968 140.262 375.97 140.247 375.97ZM142.185 373.243C142.093 373.243 142 373.266 141.906 373.311C141.294 373.606 140.78 374.778 140.534 375.491C141.414 375.121 142.615 374.139 142.658 373.591C142.665 373.502 142.645 373.386 142.424 373.294C142.345 373.26 142.265 373.243 142.185 373.243Z" fill="#263238"/>
<path d="M157.268 381.247C156.142 381.247 154.572 379.8 153.713 378.911C153.658 378.854 153.645 378.769 153.68 378.698C153.716 378.628 153.806 378.588 153.87 378.597C154.266 378.648 157.744 379.118 158.235 380.1C158.329 380.29 158.321 380.492 158.212 380.685C158.028 381.009 157.761 381.195 157.42 381.238C157.371 381.244 157.32 381.247 157.268 381.247ZM154.371 379.045C155.635 380.273 156.739 380.953 157.374 380.868C157.596 380.84 157.764 380.721 157.889 380.501C157.937 380.417 157.941 380.343 157.902 380.266C157.635 379.732 155.778 379.271 154.371 379.045Z" fill="#263238"/>
<path d="M154.481 379.014C154.224 379.014 153.994 378.998 153.813 378.964C153.749 378.952 153.695 378.907 153.672 378.846C153.65 378.784 153.661 378.714 153.703 378.663C153.76 378.594 155.113 376.963 156.391 376.851C156.791 376.82 157.13 376.926 157.42 377.174C157.813 377.511 157.786 377.811 157.694 378.003C157.377 378.669 155.649 379.014 154.481 379.014ZM154.223 378.639C155.34 378.701 157.126 378.33 157.359 377.843C157.379 377.802 157.438 377.678 157.179 377.457C156.963 377.272 156.713 377.195 156.424 377.221C155.585 377.295 154.648 378.185 154.223 378.639Z" fill="#263238"/>
<path d="M140.521 374.918L132.039 372.52C131.73 372.433 131.419 372.576 131.291 372.865L128.428 379.302C128.131 379.97 128.543 380.798 129.259 380.987C132.23 381.772 133.704 382.001 137.434 383.056C139.729 383.705 143.014 384.891 146.183 385.786C149.282 386.662 150.406 383.596 149.167 382.939C143.61 379.994 143.172 377.975 141.652 375.738C141.378 375.335 140.973 375.046 140.521 374.918Z" fill="#1E90FF"/>
<path d="M153.944 377.743L146.704 372.716C146.44 372.533 146.1 372.568 145.884 372.799L141.082 377.955C140.584 378.49 140.705 379.407 141.32 379.818C143.874 381.527 145.194 382.223 148.378 384.434C150.337 385.794 154.247 388.81 156.952 390.688C159.598 392.525 161.658 389.991 160.7 388.967C156.404 384.375 155.456 381.497 154.747 378.886C154.618 378.416 154.329 378.01 153.944 377.743Z" fill="#1E90FF"/>
<path d="M148.075 368.436L135.018 361.947L136.37 358.414L150.306 365.245L148.075 368.436Z" fill="#1E90FF"/>
<path d="M131.104 246.118L129.999 248.97C129.887 249.191 130.149 249.417 130.518 249.417H163.601C163.888 249.417 164.126 249.276 164.144 249.096L164.431 246.244C164.451 246.046 164.202 245.879 163.888 245.879H131.622C131.386 245.879 131.176 245.976 131.104 246.118Z" fill="#1E90FF"/>
<path opacity="0.4" d="M131.104 246.118L129.999 248.97C129.887 249.191 130.149 249.417 130.518 249.417H163.601C163.888 249.417 164.126 249.276 164.144 249.096L164.431 246.244C164.451 246.046 164.202 245.879 163.888 245.879H131.622C131.386 245.879 131.176 245.976 131.104 246.118Z" fill="white"/>
<path d="M136.307 249.726H135.443C135.271 249.726 135.14 249.637 135.152 249.529L135.557 245.824C135.569 245.716 135.719 245.627 135.892 245.627H136.756C136.928 245.627 137.059 245.716 137.047 245.824L136.642 249.529C136.63 249.638 136.479 249.726 136.307 249.726Z" fill="#1E90FF"/>
<path d="M156.714 249.726H155.85C155.678 249.726 155.547 249.637 155.559 249.529L155.964 245.824C155.976 245.716 156.126 245.627 156.299 245.627H157.163C157.335 245.627 157.466 245.716 157.454 245.824L157.049 249.529C157.037 249.638 156.886 249.726 156.714 249.726Z" fill="#1E90FF"/>
<path d="M135.546 419.087C150.342 419.087 162.337 418.217 162.337 417.143C162.337 416.07 150.342 415.199 135.546 415.199C120.75 415.199 108.755 416.07 108.755 417.143C108.755 418.217 120.75 419.087 135.546 419.087Z" fill="#F5F5F5"/>
<path d="M151.873 414.4C147.133 413.024 141.916 411.251 138.688 409.366C138.598 409.314 138.503 409.276 138.412 409.228V387.799H147.946C149.523 387.799 150.801 386.521 150.801 384.944C150.801 383.368 149.523 382.09 147.946 382.09H138.412V284.267H132.703V382.09H123.169C121.593 382.09 120.315 383.368 120.315 384.944C120.315 386.521 121.593 387.799 123.169 387.799H132.703V409.227C132.612 409.275 132.517 409.312 132.427 409.365C129.199 411.25 123.982 413.023 119.242 414.399C117.687 414.85 118.015 417.141 119.634 417.141H135.557H151.48C153.1 417.142 153.428 414.851 151.873 414.4Z" fill="#E0E0E0"/>
<path d="M153.34 295.247H117.775C114.926 295.247 112.595 292.916 112.595 290.067V279.494C112.595 276.645 114.926 274.314 117.775 274.314H153.34C156.189 274.314 158.52 276.645 158.52 279.494V290.067C158.52 292.916 156.189 295.247 153.34 295.247Z" fill="#1E90FF"/>
<path d="M117.448 295.247V297.067C117.448 298.567 119.081 299.795 121.076 299.795H150.039C152.034 299.795 153.667 298.568 153.667 297.067V295.247H117.448Z" fill="#1E90FF"/>
<path opacity="0.3" d="M117.448 295.247V297.067C117.448 298.567 119.081 299.795 121.076 299.795H150.039C152.034 299.795 153.667 298.568 153.667 297.067V295.247H117.448Z" fill="white"/>
</svg>
