<svg width="24" height="24" viewBox="0 0 24 24" fill="none" xmlns="http://www.w3.org/2000/svg">
<g clip-path="url(#clip0_7673_23715)">
<path d="M6.74662 2.25273C6.74662 2.74763 6.55002 3.22225 6.20008 3.57219C5.85014 3.92214 5.37551 4.11873 4.88062 4.11873C4.38572 4.11873 3.9111 3.92214 3.56116 3.57219C3.21121 3.22225 3.01462 2.74763 3.01462 2.25273C3.01462 1.75784 3.21121 1.28321 3.56116 0.933272C3.9111 0.583329 4.38572 0.386733 4.88062 0.386733C5.37551 0.386733 5.85014 0.583329 6.20008 0.933272C6.55002 1.28321 6.74662 1.75784 6.74662 2.25273ZM9.28874 7.53461V6.59186C9.28879 6.35606 9.24238 6.12255 9.15217 5.90469C9.06195 5.68683 8.9297 5.48888 8.76296 5.32214C8.59622 5.1554 8.39827 5.02315 8.18041 4.93293C7.96255 4.84272 7.72904 4.79631 7.49324 4.79636H2.26237C1.78617 4.79636 1.32948 4.98553 0.992757 5.32225C0.656035 5.65897 0.466867 6.11566 0.466867 6.59186V7.53461C0.464923 7.5563 0.463922 7.57807 0.463867 7.59986V13.028C0.463867 13.2305 0.544307 13.4247 0.687491 13.5679C0.830675 13.711 1.02487 13.7915 1.22737 13.7915C1.42986 13.7915 1.62406 13.711 1.76724 13.5679C1.91043 13.4247 1.99087 13.2305 1.99087 13.028V7.68048H2.50274V13.7919H2.50649V22.4277C2.51161 22.6943 2.6211 22.9483 2.81145 23.135C3.00179 23.3217 3.25779 23.4263 3.52443 23.4263C3.79107 23.4263 4.04707 23.3217 4.23741 23.135C4.42775 22.9483 4.53725 22.6943 4.54237 22.4277V13.7919H5.21399V22.4277C5.21399 22.6977 5.32122 22.9565 5.51208 23.1474C5.70295 23.3383 5.96182 23.4455 6.23174 23.4455C6.50167 23.4455 6.76054 23.3383 6.9514 23.1474C7.14227 22.9565 7.24949 22.6977 7.24949 22.4277V13.7919H7.25249V7.68048H7.76437V13.028C7.77058 13.2263 7.85375 13.4145 7.99625 13.5526C8.13876 13.6907 8.32942 13.7679 8.52787 13.7679C8.72632 13.7679 8.91697 13.6907 9.05948 13.5526C9.20198 13.4145 9.28515 13.2263 9.29137 13.028V7.59986C9.29165 7.57808 9.29077 7.5563 9.28874 7.53461ZM18.2681 3.99836C18.6372 3.99821 18.9979 3.88863 19.3047 3.68346C19.6115 3.4783 19.8505 3.18678 19.9916 2.84575C20.1327 2.50473 20.1695 2.12952 20.0974 1.76758C20.0252 1.40564 19.8474 1.07323 19.5863 0.812367C19.3252 0.551507 18.9927 0.373921 18.6307 0.302067C18.2687 0.230212 17.8935 0.267316 17.5526 0.408686C17.2117 0.550056 16.9203 0.789343 16.7154 1.09629C16.5105 1.40323 16.4012 1.76405 16.4014 2.13311C16.4015 2.37815 16.4498 2.62078 16.5437 2.84714C16.6376 3.07349 16.7751 3.27915 16.9484 3.45235C17.1218 3.62555 17.3275 3.76292 17.554 3.8566C17.7804 3.95029 18.0231 3.99846 18.2681 3.99836ZM23.4997 12.0436L21.8257 5.83436C21.8104 5.77886 21.7889 5.72528 21.7616 5.67461C21.6665 5.38324 21.4817 5.12939 21.2336 4.94931C20.9856 4.76923 20.687 4.67212 20.3805 4.67186H16.1437C15.8238 4.67219 15.5129 4.77801 15.2593 4.97292C15.0056 5.16783 14.8232 5.44095 14.7405 5.74998C14.7292 5.77736 14.7199 5.80586 14.7116 5.83511L13.0672 12.0436C13.0413 12.1404 13.0347 12.2414 13.0477 12.3408C13.0608 12.4402 13.0933 12.536 13.1434 12.6228C13.1935 12.7096 13.2603 12.7857 13.3398 12.8467C13.4193 12.9078 13.51 12.9525 13.6069 12.9785C13.7037 13.0044 13.8047 13.0111 13.904 12.998C14.0034 12.9849 14.0993 12.9524 14.1861 12.9023C14.2729 12.8522 14.349 12.7855 14.41 12.7059C14.471 12.6264 14.5158 12.5357 14.5417 12.4389L15.8336 7.56161H16.3717L14.0276 16.3857H16.236V22.478C16.236 22.703 16.3254 22.9187 16.4844 23.0778C16.6435 23.2369 16.8593 23.3262 17.0842 23.3262C17.3092 23.3262 17.525 23.2369 17.684 23.0778C17.8431 22.9187 17.9325 22.703 17.9325 22.478V16.3857H18.6075V22.478C18.6141 22.6986 18.7063 22.908 18.8647 23.0617C19.023 23.2154 19.235 23.3014 19.4557 23.3014C19.6764 23.3014 19.8885 23.2154 20.0468 23.0617C20.2052 22.908 20.2974 22.6986 20.304 22.478V16.3857H22.5112L20.1585 7.56161H20.7105L22.0252 12.4389C22.0778 12.6343 22.2058 12.8009 22.381 12.9021C22.5563 13.0033 22.7646 13.0307 22.9601 12.9785C23.1556 12.926 23.3223 12.7981 23.4236 12.6228C23.5248 12.4475 23.552 12.2392 23.4997 12.0436ZM10.7797 0.305733H12.096V23.324H10.7797V0.305733Z" fill="#9E9E9E"/>
</g>
<defs>
<clipPath id="clip0_7673_23715">
<rect width="24" height="24" fill="white"/>
</clipPath>
</defs>
</svg>
